%TF.GenerationSoftware,KiCad,Pcbnew,8.0.3-8.0.3-0~ubuntu22.04.1*%
%TF.CreationDate,2024-06-18T21:28:44-04:00*%
%TF.ProjectId,arduino-nano-esp32,61726475-696e-46f2-9d6e-616e6f2d6573,rev?*%
%TF.SameCoordinates,Original*%
%TF.FileFunction,Copper,L1,Top*%
%TF.FilePolarity,Positive*%
%FSLAX46Y46*%
G04 Gerber Fmt 4.6, Leading zero omitted, Abs format (unit mm)*
G04 Created by KiCad (PCBNEW 8.0.3-8.0.3-0~ubuntu22.04.1) date 2024-06-18 21:28:44*
%MOMM*%
%LPD*%
G01*
G04 APERTURE LIST*
%TA.AperFunction,ComponentPad*%
%ADD10C,1.727200*%
%TD*%
%TA.AperFunction,ComponentPad*%
%ADD11R,1.727200X1.727200*%
%TD*%
%TA.AperFunction,ComponentPad*%
%ADD12C,1.524000*%
%TD*%
%TA.AperFunction,Conductor*%
%ADD13C,0.200000*%
%TD*%
G04 APERTURE END LIST*
D10*
%TO.P,A1,3V3,3.3V*%
%TO.N,+3.3V*%
X101600000Y-78740000D03*
%TO.P,A1,5V,5V*%
%TO.N,+5V*%
X101600000Y-104140000D03*
%TO.P,A1,A0,A0*%
%TO.N,unconnected-(A1-PadA0)*%
X101600000Y-83820000D03*
%TO.P,A1,A1,A1*%
%TO.N,unconnected-(A1-PadA1)*%
X101600000Y-86360000D03*
%TO.P,A1,A2,A2*%
%TO.N,unconnected-(A1-PadA2)*%
X101600000Y-88900000D03*
%TO.P,A1,A3,A3*%
%TO.N,unconnected-(A1-PadA3)*%
X101600000Y-91440000D03*
%TO.P,A1,A4,A4/SDA*%
%TO.N,unconnected-(A1-A4{slash}SDA-PadA4)*%
X101600000Y-93980000D03*
%TO.P,A1,A5,A5/SCL*%
%TO.N,unconnected-(A1-A5{slash}SCL-PadA5)*%
X101600000Y-96520000D03*
%TO.P,A1,A6,A6*%
%TO.N,unconnected-(A1-PadA6)*%
X101600000Y-99060000D03*
%TO.P,A1,A7,A7*%
%TO.N,unconnected-(A1-PadA7)*%
X101600000Y-101600000D03*
%TO.P,A1,B0,B0*%
%TO.N,unconnected-(A1-PadB0)*%
X101600000Y-81280000D03*
%TO.P,A1,B1,B1*%
%TO.N,unconnected-(A1-PadB1)*%
X101600000Y-106680000D03*
%TO.P,A1,D0,D0/RX*%
%TO.N,unconnected-(A1-D0{slash}RX-PadD0)*%
X116840000Y-109220000D03*
%TO.P,A1,D1,D1/TX*%
%TO.N,unconnected-(A1-D1{slash}TX-PadD1)*%
X116840000Y-111760000D03*
%TO.P,A1,D2,D2*%
%TO.N,unconnected-(A1-PadD2)*%
X116840000Y-101600000D03*
%TO.P,A1,D3,D3*%
%TO.N,unconnected-(A1-PadD3)*%
X116840000Y-99060000D03*
%TO.P,A1,D4,D4*%
%TO.N,unconnected-(A1-PadD4)*%
X116840000Y-96520000D03*
%TO.P,A1,D5,D5*%
%TO.N,unconnected-(A1-PadD5)*%
X116840000Y-93980000D03*
%TO.P,A1,D6,D6*%
%TO.N,unconnected-(A1-PadD6)*%
X116840000Y-91440000D03*
%TO.P,A1,D7,D7*%
%TO.N,unconnected-(A1-PadD7)*%
X116840000Y-88900000D03*
%TO.P,A1,D8,D8*%
%TO.N,unconnected-(A1-PadD8)*%
X116840000Y-86360000D03*
%TO.P,A1,D9,D9*%
%TO.N,unconnected-(A1-PadD9)*%
X116840000Y-83820000D03*
%TO.P,A1,D10,D10*%
%TO.N,unconnected-(A1-PadD10)*%
X116840000Y-81280000D03*
%TO.P,A1,D11,D11_MOSI*%
%TO.N,unconnected-(A1-D11_MOSI-PadD11)*%
X116840000Y-78740000D03*
%TO.P,A1,D12,D12_MISO*%
%TO.N,unconnected-(A1-D12_MISO-PadD12)*%
X116840000Y-76200000D03*
%TO.P,A1,D13,D13_SCK*%
%TO.N,unconnected-(A1-D13_SCK-PadD13)*%
X101600000Y-76200000D03*
D11*
%TO.P,A1,GND1,GND*%
%TO.N,GND*%
X116840000Y-104140000D03*
%TO.P,A1,GND2,GND*%
X101600000Y-109220000D03*
D10*
%TO.P,A1,RST,~{RESET}*%
%TO.N,unconnected-(A1-~{RESET}-PadRST)*%
X116840000Y-106680000D03*
%TO.P,A1,VIN,VIN*%
%TO.N,unconnected-(A1-PadVIN)*%
X101600000Y-111760000D03*
%TD*%
D12*
%TO.P,REF\u002A\u002A,1*%
%TO.N,N/C*%
X132080000Y-104140000D03*
%TO.P,REF\u002A\u002A,2*%
X132080000Y-99060000D03*
%TO.P,REF\u002A\u002A,3*%
X139700000Y-104140000D03*
%TO.P,REF\u002A\u002A,4*%
X139700000Y-99060000D03*
%TD*%
%TO.P,REF\u002A\u002A,1*%
%TO.N,N/C*%
X132080000Y-114300000D03*
%TO.P,REF\u002A\u002A,2*%
X132080000Y-109220000D03*
%TO.P,REF\u002A\u002A,3*%
X139700000Y-114300000D03*
%TO.P,REF\u002A\u002A,4*%
X139700000Y-109220000D03*
%TD*%
%TO.P,REF\u002A\u002A,1*%
%TO.N,N/C*%
X132080000Y-93980000D03*
%TO.P,REF\u002A\u002A,2*%
X132080000Y-91440000D03*
%TO.P,REF\u002A\u002A,3*%
X132080000Y-88900000D03*
%TO.P,REF\u002A\u002A,4*%
X132080000Y-86360000D03*
%TO.P,REF\u002A\u002A,5*%
X132080000Y-83820000D03*
%TO.P,REF\u002A\u002A,6*%
X132080000Y-81280000D03*
%TO.P,REF\u002A\u002A,7*%
X132080000Y-78740000D03*
%TO.P,REF\u002A\u002A,8*%
X132080000Y-76200000D03*
%TO.P,REF\u002A\u002A,9*%
X132080000Y-73660000D03*
%TO.P,REF\u002A\u002A,10*%
X157480000Y-83820000D03*
%TO.P,REF\u002A\u002A,11*%
X157480000Y-81280000D03*
%TO.P,REF\u002A\u002A,12*%
X157480000Y-78740000D03*
%TO.P,REF\u002A\u002A,13*%
X157480000Y-76200000D03*
%TO.P,REF\u002A\u002A,14*%
X157480000Y-73660000D03*
%TD*%
D13*
%TO.N,unconnected-(A1-PadB1)*%
X101600000Y-106680000D02*
X104140000Y-106680000D01*
X128746277Y-117633723D02*
X132080000Y-114300000D01*
X104140000Y-106680000D02*
X115093723Y-117633723D01*
X115093723Y-117633723D02*
X128746277Y-117633723D01*
%TO.N,+3.3V*%
X111760000Y-73660000D02*
X132080000Y-73660000D01*
X101600000Y-78740000D02*
X106680000Y-78740000D01*
%TO.N,unconnected-(A1-PadD7)*%
X121920000Y-83820000D02*
X132080000Y-83820000D01*
%TO.N,unconnected-(A1-PadD8)*%
X132080000Y-81280000D02*
X121920000Y-81280000D01*
%TO.N,+3.3V*%
X106680000Y-78740000D02*
X111760000Y-73660000D01*
%TO.N,unconnected-(A1-PadD3)*%
X116840000Y-99060000D02*
X121920000Y-93980000D01*
%TO.N,unconnected-(A1-PadD4)*%
X116840000Y-96520000D02*
X121920000Y-91440000D01*
%TO.N,unconnected-(A1-PadD3)*%
X121920000Y-93980000D02*
X132080000Y-93980000D01*
%TO.N,unconnected-(A1-PadD2)*%
X129540000Y-101600000D02*
X132080000Y-99060000D01*
%TO.N,unconnected-(A1-PadD5)*%
X116840000Y-93980000D02*
X121920000Y-88900000D01*
%TO.N,unconnected-(A1-PadD8)*%
X121920000Y-81280000D02*
X116840000Y-86360000D01*
%TO.N,unconnected-(A1-PadD2)*%
X116840000Y-101600000D02*
X129540000Y-101600000D01*
%TO.N,unconnected-(A1-PadD5)*%
X121920000Y-88900000D02*
X132080000Y-88900000D01*
%TO.N,unconnected-(A1-PadD6)*%
X116840000Y-91440000D02*
X121920000Y-86360000D01*
%TO.N,unconnected-(A1-PadD7)*%
X116840000Y-88900000D02*
X121920000Y-83820000D01*
%TO.N,unconnected-(A1-PadD4)*%
X121920000Y-91440000D02*
X132080000Y-91440000D01*
%TO.N,unconnected-(A1-PadD6)*%
X121920000Y-86360000D02*
X132080000Y-86360000D01*
%TD*%
M02*
