%TF.GenerationSoftware,KiCad,Pcbnew,8.0.3-8.0.3-0~ubuntu22.04.1*%
%TF.CreationDate,2024-07-02T19:47:52-04:00*%
%TF.ProjectId,arduino-nano-esp32,61726475-696e-46f2-9d6e-616e6f2d6573,rev?*%
%TF.SameCoordinates,Original*%
%TF.FileFunction,Copper,L1,Top*%
%TF.FilePolarity,Positive*%
%FSLAX46Y46*%
G04 Gerber Fmt 4.6, Leading zero omitted, Abs format (unit mm)*
G04 Created by KiCad (PCBNEW 8.0.3-8.0.3-0~ubuntu22.04.1) date 2024-07-02 19:47:52*
%MOMM*%
%LPD*%
G01*
G04 APERTURE LIST*
%TA.AperFunction,ComponentPad*%
%ADD10C,1.727200*%
%TD*%
%TA.AperFunction,ComponentPad*%
%ADD11R,1.727200X1.727200*%
%TD*%
%TA.AperFunction,ComponentPad*%
%ADD12R,1.700000X1.700000*%
%TD*%
%TA.AperFunction,ComponentPad*%
%ADD13O,1.700000X1.700000*%
%TD*%
%TA.AperFunction,Conductor*%
%ADD14C,0.200000*%
%TD*%
G04 APERTURE END LIST*
D10*
%TO.P,RFM95W1,1,RST*%
%TO.N,/RST*%
X132080000Y-93980000D03*
%TO.P,RFM95W1,2,CS*%
%TO.N,/CS*%
X132080000Y-91440000D03*
%TO.P,RFM95W1,3,MOSI*%
%TO.N,/MOSI*%
X132080000Y-88900000D03*
%TO.P,RFM95W1,4,MISO*%
%TO.N,/MISO*%
X132080000Y-86360000D03*
%TO.P,RFM95W1,5,SCK*%
%TO.N,/SCK*%
X132080000Y-83820000D03*
%TO.P,RFM95W1,6,G0*%
%TO.N,/G0*%
X132080000Y-81280000D03*
%TO.P,RFM95W1,7,EN*%
%TO.N,unconnected-(RFM95W1-EN-Pad7)*%
X132080000Y-78740000D03*
D11*
%TO.P,RFM95W1,8,GND*%
%TO.N,GND*%
X132080000Y-76200000D03*
D10*
%TO.P,RFM95W1,9,VIN*%
%TO.N,+3.3V*%
X132080000Y-73660000D03*
%TO.P,RFM95W1,10,G5*%
%TO.N,unconnected-(RFM95W1-G5-Pad10)*%
X157480000Y-83820000D03*
%TO.P,RFM95W1,11,G4*%
%TO.N,unconnected-(RFM95W1-G4-Pad11)*%
X157480000Y-81280000D03*
%TO.P,RFM95W1,12,G3*%
%TO.N,unconnected-(RFM95W1-G3-Pad12)*%
X157480000Y-78740000D03*
%TO.P,RFM95W1,13,G2*%
%TO.N,unconnected-(RFM95W1-G2-Pad13)*%
X157480000Y-76200000D03*
%TO.P,RFM95W1,14,G1*%
%TO.N,unconnected-(RFM95W1-G1-Pad14)*%
X157480000Y-73660000D03*
%TD*%
D12*
%TO.P,J1,1,Pin_1*%
%TO.N,GND*%
X127000000Y-109220000D03*
D13*
%TO.P,J1,2,Pin_2*%
%TO.N,+BATT*%
X124460000Y-109220000D03*
%TD*%
D10*
%TO.P,SW1,1*%
%TO.N,Net-(A1-PadB1)*%
X132080000Y-114300000D03*
%TO.P,SW1,2*%
%TO.N,GND*%
X132080000Y-109220000D03*
%TO.P,SW1,3*%
%TO.N,unconnected-(SW1-Pad3)*%
X139700000Y-114300000D03*
%TO.P,SW1,4*%
%TO.N,unconnected-(SW1-Pad4)*%
X139700000Y-109220000D03*
%TD*%
%TO.P,A1,3V3,3.3V*%
%TO.N,+3.3V*%
X101600000Y-78740000D03*
%TO.P,A1,5V,5V*%
%TO.N,+5V*%
X101600000Y-104140000D03*
%TO.P,A1,A0,A0*%
%TO.N,unconnected-(A1-PadA0)*%
X101600000Y-83820000D03*
%TO.P,A1,A1,A1*%
%TO.N,unconnected-(A1-PadA1)*%
X101600000Y-86360000D03*
%TO.P,A1,A2,A2*%
%TO.N,unconnected-(A1-PadA2)*%
X101600000Y-88900000D03*
%TO.P,A1,A3,A3*%
%TO.N,unconnected-(A1-PadA3)*%
X101600000Y-91440000D03*
%TO.P,A1,A4,A4/SDA*%
%TO.N,unconnected-(A1-A4{slash}SDA-PadA4)*%
X101600000Y-93980000D03*
%TO.P,A1,A5,A5/SCL*%
%TO.N,unconnected-(A1-A5{slash}SCL-PadA5)*%
X101600000Y-96520000D03*
%TO.P,A1,A6,A6*%
%TO.N,unconnected-(A1-PadA6)*%
X101600000Y-99060000D03*
%TO.P,A1,A7,A7*%
%TO.N,unconnected-(A1-PadA7)*%
X101600000Y-101600000D03*
%TO.P,A1,B0,B0*%
%TO.N,unconnected-(A1-PadB0)*%
X101600000Y-81280000D03*
%TO.P,A1,B1,B1*%
%TO.N,Net-(A1-PadB1)*%
X101600000Y-106680000D03*
%TO.P,A1,D0,D0/RX*%
%TO.N,unconnected-(A1-D0{slash}RX-PadD0)*%
X116840000Y-109220000D03*
%TO.P,A1,D1,D1/TX*%
%TO.N,unconnected-(A1-D1{slash}TX-PadD1)*%
X116840000Y-111760000D03*
%TO.P,A1,D2,D2*%
%TO.N,Net-(A1-PadD2)*%
X116840000Y-101600000D03*
%TO.P,A1,D3,D3*%
%TO.N,/RST*%
X116840000Y-99060000D03*
%TO.P,A1,D4,D4*%
%TO.N,/CS*%
X116840000Y-96520000D03*
%TO.P,A1,D5,D5*%
%TO.N,/MOSI*%
X116840000Y-93980000D03*
%TO.P,A1,D6,D6*%
%TO.N,/MISO*%
X116840000Y-91440000D03*
%TO.P,A1,D7,D7*%
%TO.N,/SCK*%
X116840000Y-88900000D03*
%TO.P,A1,D8,D8*%
%TO.N,/G0*%
X116840000Y-86360000D03*
%TO.P,A1,D9,D9*%
%TO.N,unconnected-(A1-PadD9)*%
X116840000Y-83820000D03*
%TO.P,A1,D10,D10*%
%TO.N,unconnected-(A1-PadD10)*%
X116840000Y-81280000D03*
%TO.P,A1,D11,D11_MOSI*%
%TO.N,unconnected-(A1-D11_MOSI-PadD11)*%
X116840000Y-78740000D03*
%TO.P,A1,D12,D12_MISO*%
%TO.N,unconnected-(A1-D12_MISO-PadD12)*%
X116840000Y-76200000D03*
%TO.P,A1,D13,D13_SCK*%
%TO.N,unconnected-(A1-D13_SCK-PadD13)*%
X101600000Y-76200000D03*
D11*
%TO.P,A1,GND1,GND*%
%TO.N,GND*%
X116840000Y-104140000D03*
%TO.P,A1,GND2,GND*%
X101600000Y-109220000D03*
D10*
%TO.P,A1,RST,~{RESET}*%
%TO.N,unconnected-(A1-~{RESET}-PadRST)*%
X116840000Y-106680000D03*
%TO.P,A1,VIN,VIN*%
%TO.N,+BATT*%
X101600000Y-111760000D03*
%TD*%
%TO.P,SW2,1*%
%TO.N,GND*%
X132080000Y-104140000D03*
%TO.P,SW2,2*%
%TO.N,Net-(A1-PadD2)*%
X132080000Y-99060000D03*
%TO.P,SW2,3*%
%TO.N,unconnected-(SW2-Pad3)*%
X139700000Y-104140000D03*
%TO.P,SW2,4*%
%TO.N,unconnected-(SW2-Pad4)*%
X139700000Y-99060000D03*
%TD*%
D14*
%TO.N,Net-(A1-PadD2)*%
X129540000Y-101600000D02*
X132080000Y-99060000D01*
X116840000Y-101600000D02*
X129540000Y-101600000D01*
%TO.N,Net-(A1-PadB1)*%
X104140000Y-106680000D02*
X114300000Y-116840000D01*
X129540000Y-116840000D02*
X132080000Y-114300000D01*
X101600000Y-106680000D02*
X104140000Y-106680000D01*
X114300000Y-116840000D02*
X129540000Y-116840000D01*
%TO.N,/SCK*%
X121920000Y-83820000D02*
X132080000Y-83820000D01*
X116840000Y-88900000D02*
X121920000Y-83820000D01*
%TO.N,/MISO*%
X116840000Y-91440000D02*
X121920000Y-86360000D01*
X121920000Y-86360000D02*
X132080000Y-86360000D01*
%TO.N,/CS*%
X116840000Y-96520000D02*
X121920000Y-91440000D01*
X121920000Y-91440000D02*
X132080000Y-91440000D01*
%TO.N,/RST*%
X116840000Y-99060000D02*
X121920000Y-93980000D01*
X121920000Y-93980000D02*
X132080000Y-93980000D01*
%TO.N,/MOSI*%
X116840000Y-93980000D02*
X121920000Y-88900000D01*
X121920000Y-88900000D02*
X132080000Y-88900000D01*
%TO.N,/G0*%
X132080000Y-81280000D02*
X121920000Y-81280000D01*
X121920000Y-81280000D02*
X116840000Y-86360000D01*
%TD*%
%TA.AperFunction,Conductor*%
%TO.N,+3.3V*%
G36*
X159328039Y-71774685D02*
G01*
X159373794Y-71827489D01*
X159385000Y-71879000D01*
X159385000Y-118621000D01*
X159365315Y-118688039D01*
X159312511Y-118733794D01*
X159261000Y-118745000D01*
X99819000Y-118745000D01*
X99751961Y-118725315D01*
X99706206Y-118672511D01*
X99695000Y-118621000D01*
X99695000Y-76199993D01*
X100231225Y-76199993D01*
X100231225Y-76200006D01*
X100249892Y-76425289D01*
X100305388Y-76644439D01*
X100396198Y-76851466D01*
X100519842Y-77040716D01*
X100519850Y-77040727D01*
X100639852Y-77171082D01*
X100672954Y-77207040D01*
X100851351Y-77345893D01*
X100851353Y-77345894D01*
X100851360Y-77345899D01*
X100879689Y-77361229D01*
X100929280Y-77410447D01*
X100944390Y-77478664D01*
X100920220Y-77544220D01*
X100879694Y-77579337D01*
X100851629Y-77594525D01*
X100851623Y-77594530D01*
X100827139Y-77613585D01*
X100827139Y-77613587D01*
X101464057Y-78250504D01*
X101403919Y-78266619D01*
X101288080Y-78333498D01*
X101193498Y-78428080D01*
X101126619Y-78543919D01*
X101110504Y-78604057D01*
X100475110Y-77968663D01*
X100396639Y-78088774D01*
X100305863Y-78295721D01*
X100250388Y-78514786D01*
X100250386Y-78514797D01*
X100231727Y-78739993D01*
X100231727Y-78740006D01*
X100250386Y-78965202D01*
X100250388Y-78965213D01*
X100305863Y-79184278D01*
X100396638Y-79391222D01*
X100475111Y-79511334D01*
X101110504Y-78875941D01*
X101126619Y-78936081D01*
X101193498Y-79051920D01*
X101288080Y-79146502D01*
X101403919Y-79213381D01*
X101464057Y-79229494D01*
X100827139Y-79866412D01*
X100851629Y-79885474D01*
X100851636Y-79885478D01*
X100879691Y-79900661D01*
X100929282Y-79949880D01*
X100944389Y-80018097D01*
X100920218Y-80083653D01*
X100879692Y-80118769D01*
X100851356Y-80134103D01*
X100851353Y-80134105D01*
X100672955Y-80272959D01*
X100672950Y-80272963D01*
X100519850Y-80439272D01*
X100519842Y-80439283D01*
X100396198Y-80628533D01*
X100305388Y-80835560D01*
X100249892Y-81054710D01*
X100231225Y-81279993D01*
X100231225Y-81280006D01*
X100249892Y-81505289D01*
X100305388Y-81724439D01*
X100396198Y-81931466D01*
X100519842Y-82120716D01*
X100519850Y-82120727D01*
X100672950Y-82287036D01*
X100672954Y-82287040D01*
X100851351Y-82425893D01*
X100879165Y-82440945D01*
X100928755Y-82490165D01*
X100943863Y-82558382D01*
X100919692Y-82623937D01*
X100879165Y-82659055D01*
X100851352Y-82674106D01*
X100672955Y-82812959D01*
X100672950Y-82812963D01*
X100519850Y-82979272D01*
X100519842Y-82979283D01*
X100396198Y-83168533D01*
X100305388Y-83375560D01*
X100249892Y-83594710D01*
X100231225Y-83819993D01*
X100231225Y-83820006D01*
X100249892Y-84045289D01*
X100305388Y-84264439D01*
X100396198Y-84471466D01*
X100519842Y-84660716D01*
X100519850Y-84660727D01*
X100672950Y-84827036D01*
X100672954Y-84827040D01*
X100851351Y-84965893D01*
X100879165Y-84980945D01*
X100928755Y-85030165D01*
X100943863Y-85098382D01*
X100919692Y-85163937D01*
X100879165Y-85199055D01*
X100851352Y-85214106D01*
X100672955Y-85352959D01*
X100672950Y-85352963D01*
X100519850Y-85519272D01*
X100519842Y-85519283D01*
X100396198Y-85708533D01*
X100305388Y-85915560D01*
X100249892Y-86134710D01*
X100231225Y-86359993D01*
X100231225Y-86360006D01*
X100249892Y-86585289D01*
X100305388Y-86804439D01*
X100396198Y-87011466D01*
X100519842Y-87200716D01*
X100519850Y-87200727D01*
X100672950Y-87367036D01*
X100672954Y-87367040D01*
X100851351Y-87505893D01*
X100879165Y-87520945D01*
X100928755Y-87570165D01*
X100943863Y-87638382D01*
X100919692Y-87703937D01*
X100879165Y-87739055D01*
X100851352Y-87754106D01*
X100672955Y-87892959D01*
X100672950Y-87892963D01*
X100519850Y-88059272D01*
X100519842Y-88059283D01*
X100396198Y-88248533D01*
X100305388Y-88455560D01*
X100249892Y-88674710D01*
X100231225Y-88899993D01*
X100231225Y-88900006D01*
X100249892Y-89125289D01*
X100305388Y-89344439D01*
X100396198Y-89551466D01*
X100519842Y-89740716D01*
X100519850Y-89740727D01*
X100672950Y-89907036D01*
X100672954Y-89907040D01*
X100851351Y-90045893D01*
X100879165Y-90060945D01*
X100928755Y-90110165D01*
X100943863Y-90178382D01*
X100919692Y-90243937D01*
X100879165Y-90279055D01*
X100851352Y-90294106D01*
X100672955Y-90432959D01*
X100672950Y-90432963D01*
X100519850Y-90599272D01*
X100519842Y-90599283D01*
X100396198Y-90788533D01*
X100305388Y-90995560D01*
X100249892Y-91214710D01*
X100231225Y-91439993D01*
X100231225Y-91440006D01*
X100249892Y-91665289D01*
X100305388Y-91884439D01*
X100396198Y-92091466D01*
X100519842Y-92280716D01*
X100519850Y-92280727D01*
X100672950Y-92447036D01*
X100672954Y-92447040D01*
X100851351Y-92585893D01*
X100879165Y-92600945D01*
X100928755Y-92650165D01*
X100943863Y-92718382D01*
X100919692Y-92783937D01*
X100879165Y-92819055D01*
X100851352Y-92834106D01*
X100672955Y-92972959D01*
X100672950Y-92972963D01*
X100519850Y-93139272D01*
X100519842Y-93139283D01*
X100396198Y-93328533D01*
X100305388Y-93535560D01*
X100249892Y-93754710D01*
X100231225Y-93979993D01*
X100231225Y-93980006D01*
X100249892Y-94205289D01*
X100305388Y-94424439D01*
X100396198Y-94631466D01*
X100519842Y-94820716D01*
X100519850Y-94820727D01*
X100672950Y-94987036D01*
X100672954Y-94987040D01*
X100851351Y-95125893D01*
X100879165Y-95140945D01*
X100928755Y-95190165D01*
X100943863Y-95258382D01*
X100919692Y-95323937D01*
X100879165Y-95359055D01*
X100851352Y-95374106D01*
X100672955Y-95512959D01*
X100672950Y-95512963D01*
X100519850Y-95679272D01*
X100519842Y-95679283D01*
X100396198Y-95868533D01*
X100305388Y-96075560D01*
X100249892Y-96294710D01*
X100231225Y-96519993D01*
X100231225Y-96520006D01*
X100249892Y-96745289D01*
X100305388Y-96964439D01*
X100396198Y-97171466D01*
X100519842Y-97360716D01*
X100519850Y-97360727D01*
X100672950Y-97527036D01*
X100672954Y-97527040D01*
X100851351Y-97665893D01*
X100879165Y-97680945D01*
X100928755Y-97730165D01*
X100943863Y-97798382D01*
X100919692Y-97863937D01*
X100879165Y-97899055D01*
X100851352Y-97914106D01*
X100672955Y-98052959D01*
X100672950Y-98052963D01*
X100519850Y-98219272D01*
X100519842Y-98219283D01*
X100396198Y-98408533D01*
X100305388Y-98615560D01*
X100249892Y-98834710D01*
X100231225Y-99059993D01*
X100231225Y-99060006D01*
X100249892Y-99285289D01*
X100305388Y-99504439D01*
X100396198Y-99711466D01*
X100519842Y-99900716D01*
X100519850Y-99900727D01*
X100672950Y-100067036D01*
X100672954Y-100067040D01*
X100851351Y-100205893D01*
X100879165Y-100220945D01*
X100928755Y-100270165D01*
X100943863Y-100338382D01*
X100919692Y-100403937D01*
X100879165Y-100439055D01*
X100851352Y-100454106D01*
X100672955Y-100592959D01*
X100672950Y-100592963D01*
X100519850Y-100759272D01*
X100519842Y-100759283D01*
X100396198Y-100948533D01*
X100305388Y-101155560D01*
X100249892Y-101374710D01*
X100231225Y-101599993D01*
X100231225Y-101600006D01*
X100249892Y-101825289D01*
X100305388Y-102044439D01*
X100396198Y-102251466D01*
X100519842Y-102440716D01*
X100519850Y-102440727D01*
X100656878Y-102589577D01*
X100672954Y-102607040D01*
X100851351Y-102745893D01*
X100879165Y-102760945D01*
X100928755Y-102810165D01*
X100943863Y-102878382D01*
X100919692Y-102943937D01*
X100879165Y-102979055D01*
X100851352Y-102994106D01*
X100672955Y-103132959D01*
X100672950Y-103132963D01*
X100519850Y-103299272D01*
X100519842Y-103299283D01*
X100396198Y-103488533D01*
X100305388Y-103695560D01*
X100249892Y-103914710D01*
X100231225Y-104139993D01*
X100231225Y-104140006D01*
X100249892Y-104365289D01*
X100305388Y-104584439D01*
X100396198Y-104791466D01*
X100519842Y-104980716D01*
X100519850Y-104980727D01*
X100639852Y-105111082D01*
X100672954Y-105147040D01*
X100851351Y-105285893D01*
X100879165Y-105300945D01*
X100928755Y-105350165D01*
X100943863Y-105418382D01*
X100919692Y-105483937D01*
X100879165Y-105519055D01*
X100851352Y-105534106D01*
X100672955Y-105672959D01*
X100672950Y-105672963D01*
X100519850Y-105839272D01*
X100519842Y-105839283D01*
X100396198Y-106028533D01*
X100305388Y-106235560D01*
X100249892Y-106454710D01*
X100231225Y-106679993D01*
X100231225Y-106680006D01*
X100249892Y-106905289D01*
X100305388Y-107124439D01*
X100396198Y-107331466D01*
X100519842Y-107520716D01*
X100519850Y-107520727D01*
X100656879Y-107669578D01*
X100687802Y-107732232D01*
X100679942Y-107801658D01*
X100635795Y-107855814D01*
X100608983Y-107869743D01*
X100494071Y-107912602D01*
X100494064Y-107912606D01*
X100378855Y-107998852D01*
X100378852Y-107998855D01*
X100292606Y-108114064D01*
X100292602Y-108114071D01*
X100242308Y-108248917D01*
X100236448Y-108303430D01*
X100235901Y-108308523D01*
X100235900Y-108308535D01*
X100235900Y-110131470D01*
X100235901Y-110131476D01*
X100242308Y-110191083D01*
X100292602Y-110325928D01*
X100292606Y-110325935D01*
X100378852Y-110441144D01*
X100378855Y-110441147D01*
X100494064Y-110527393D01*
X100494071Y-110527397D01*
X100494074Y-110527398D01*
X100592453Y-110564091D01*
X100608983Y-110570256D01*
X100664916Y-110612127D01*
X100689334Y-110677591D01*
X100674483Y-110745864D01*
X100656880Y-110770421D01*
X100519845Y-110919279D01*
X100519842Y-110919283D01*
X100396198Y-111108533D01*
X100305388Y-111315560D01*
X100249892Y-111534710D01*
X100231225Y-111759993D01*
X100231225Y-111760006D01*
X100249892Y-111985289D01*
X100305388Y-112204439D01*
X100396198Y-112411466D01*
X100519842Y-112600716D01*
X100519850Y-112600727D01*
X100672950Y-112767036D01*
X100672954Y-112767040D01*
X100851351Y-112905893D01*
X101050169Y-113013488D01*
X101096479Y-113029386D01*
X101153491Y-113069769D01*
X101179622Y-113134569D01*
X101166572Y-113203209D01*
X101118484Y-113253897D01*
X101112510Y-113257150D01*
X100997004Y-113316004D01*
X100850505Y-113422441D01*
X100850500Y-113422445D01*
X100722445Y-113550500D01*
X100722441Y-113550505D01*
X100616006Y-113697002D01*
X100533788Y-113858360D01*
X100533787Y-113858363D01*
X100477829Y-114030589D01*
X100449500Y-114209448D01*
X100449500Y-114390551D01*
X100477829Y-114569410D01*
X100533787Y-114741636D01*
X100533788Y-114741639D01*
X100616006Y-114902997D01*
X100722441Y-115049494D01*
X100722445Y-115049499D01*
X100850500Y-115177554D01*
X100850505Y-115177558D01*
X100978287Y-115270396D01*
X100997006Y-115283996D01*
X101102484Y-115337740D01*
X101158360Y-115366211D01*
X101158363Y-115366212D01*
X101244476Y-115394191D01*
X101330591Y-115422171D01*
X101413429Y-115435291D01*
X101509449Y-115450500D01*
X101509454Y-115450500D01*
X101690551Y-115450500D01*
X101777259Y-115436765D01*
X101869409Y-115422171D01*
X102041639Y-115366211D01*
X102202994Y-115283996D01*
X102349501Y-115177553D01*
X102477553Y-115049501D01*
X102583996Y-114902994D01*
X102666211Y-114741639D01*
X102722171Y-114569409D01*
X102736765Y-114477259D01*
X102750500Y-114390551D01*
X102750500Y-114209448D01*
X102734019Y-114105397D01*
X102722171Y-114030591D01*
X102666211Y-113858361D01*
X102666211Y-113858360D01*
X102637740Y-113802484D01*
X102583996Y-113697006D01*
X102548780Y-113648535D01*
X102477558Y-113550505D01*
X102477554Y-113550500D01*
X102349499Y-113422445D01*
X102349494Y-113422441D01*
X102202993Y-113316003D01*
X102202992Y-113316002D01*
X102087490Y-113257150D01*
X102036694Y-113209176D01*
X102019899Y-113141355D01*
X102042437Y-113075220D01*
X102097152Y-113031769D01*
X102103488Y-113029397D01*
X102149831Y-113013488D01*
X102348649Y-112905893D01*
X102527046Y-112767040D01*
X102680156Y-112600719D01*
X102803802Y-112411465D01*
X102894611Y-112204441D01*
X102950107Y-111985293D01*
X102968775Y-111760000D01*
X102968775Y-111759993D01*
X102950107Y-111534710D01*
X102950107Y-111534707D01*
X102894611Y-111315559D01*
X102803802Y-111108535D01*
X102680156Y-110919281D01*
X102680153Y-110919278D01*
X102680149Y-110919272D01*
X102543120Y-110770421D01*
X102512197Y-110707767D01*
X102520057Y-110638341D01*
X102564204Y-110584185D01*
X102591017Y-110570256D01*
X102607547Y-110564091D01*
X102705931Y-110527396D01*
X102821146Y-110441146D01*
X102907396Y-110325931D01*
X102957691Y-110191083D01*
X102964100Y-110131473D01*
X102964099Y-108308528D01*
X102957691Y-108248917D01*
X102932548Y-108181506D01*
X102907397Y-108114071D01*
X102907393Y-108114064D01*
X102821147Y-107998855D01*
X102821144Y-107998852D01*
X102705935Y-107912606D01*
X102705928Y-107912602D01*
X102591016Y-107869743D01*
X102535082Y-107827872D01*
X102510665Y-107762408D01*
X102525517Y-107694135D01*
X102543113Y-107669586D01*
X102680156Y-107520719D01*
X102744710Y-107421911D01*
X102800397Y-107336678D01*
X102853543Y-107291321D01*
X102904205Y-107280500D01*
X103839903Y-107280500D01*
X103906942Y-107300185D01*
X103927583Y-107316818D01*
X113931284Y-117320520D01*
X114068215Y-117399577D01*
X114220943Y-117440501D01*
X114220946Y-117440501D01*
X114386654Y-117440501D01*
X114386670Y-117440500D01*
X129453331Y-117440500D01*
X129453347Y-117440501D01*
X129460943Y-117440501D01*
X129619054Y-117440501D01*
X129619057Y-117440501D01*
X129771785Y-117399577D01*
X129821904Y-117370639D01*
X129908716Y-117320520D01*
X130020520Y-117208716D01*
X130020520Y-117208714D01*
X130030728Y-117198507D01*
X130030730Y-117198504D01*
X131583810Y-115645423D01*
X131645131Y-115611940D01*
X131711751Y-115615824D01*
X131743986Y-115626891D01*
X131966967Y-115664100D01*
X131966968Y-115664100D01*
X132193032Y-115664100D01*
X132193033Y-115664100D01*
X132416014Y-115626891D01*
X132629831Y-115553488D01*
X132828649Y-115445893D01*
X133007046Y-115307040D01*
X133160156Y-115140719D01*
X133283802Y-114951465D01*
X133374611Y-114744441D01*
X133430107Y-114525293D01*
X133448775Y-114300000D01*
X133448775Y-114299993D01*
X138331225Y-114299993D01*
X138331225Y-114300006D01*
X138349892Y-114525289D01*
X138405388Y-114744439D01*
X138496198Y-114951466D01*
X138619842Y-115140716D01*
X138619850Y-115140727D01*
X138751740Y-115283996D01*
X138772954Y-115307040D01*
X138951351Y-115445893D01*
X139150169Y-115553488D01*
X139150172Y-115553489D01*
X139363982Y-115626890D01*
X139363984Y-115626890D01*
X139363986Y-115626891D01*
X139586967Y-115664100D01*
X139586968Y-115664100D01*
X139813032Y-115664100D01*
X139813033Y-115664100D01*
X140036014Y-115626891D01*
X140249831Y-115553488D01*
X140448649Y-115445893D01*
X140627046Y-115307040D01*
X140780156Y-115140719D01*
X140903802Y-114951465D01*
X140994611Y-114744441D01*
X141050107Y-114525293D01*
X141068775Y-114300000D01*
X141068775Y-114299993D01*
X141050107Y-114074710D01*
X141050107Y-114074707D01*
X140994611Y-113855559D01*
X140903802Y-113648535D01*
X140780156Y-113459281D01*
X140780153Y-113459278D01*
X140780149Y-113459272D01*
X140627049Y-113292963D01*
X140627048Y-113292962D01*
X140627046Y-113292960D01*
X140448649Y-113154107D01*
X140302879Y-113075220D01*
X140249832Y-113046512D01*
X140249827Y-113046510D01*
X140036017Y-112973109D01*
X139868778Y-112945202D01*
X139813033Y-112935900D01*
X139586967Y-112935900D01*
X139542370Y-112943341D01*
X139363982Y-112973109D01*
X139150172Y-113046510D01*
X139150167Y-113046512D01*
X138951352Y-113154106D01*
X138772955Y-113292959D01*
X138772950Y-113292963D01*
X138619850Y-113459272D01*
X138619842Y-113459283D01*
X138496198Y-113648533D01*
X138405388Y-113855560D01*
X138349892Y-114074710D01*
X138331225Y-114299993D01*
X133448775Y-114299993D01*
X133430107Y-114074710D01*
X133430107Y-114074707D01*
X133374611Y-113855559D01*
X133283802Y-113648535D01*
X133160156Y-113459281D01*
X133160153Y-113459278D01*
X133160149Y-113459272D01*
X133007049Y-113292963D01*
X133007048Y-113292962D01*
X133007046Y-113292960D01*
X132828649Y-113154107D01*
X132682879Y-113075220D01*
X132629832Y-113046512D01*
X132629827Y-113046510D01*
X132416017Y-112973109D01*
X132248778Y-112945202D01*
X132193033Y-112935900D01*
X131966967Y-112935900D01*
X131922370Y-112943341D01*
X131743982Y-112973109D01*
X131530172Y-113046510D01*
X131530167Y-113046512D01*
X131331352Y-113154106D01*
X131152955Y-113292959D01*
X131152950Y-113292963D01*
X130999850Y-113459272D01*
X130999842Y-113459283D01*
X130876198Y-113648533D01*
X130785388Y-113855560D01*
X130729892Y-114074710D01*
X130711225Y-114299993D01*
X130711225Y-114300006D01*
X130729892Y-114525287D01*
X130729892Y-114525289D01*
X130729893Y-114525293D01*
X130768281Y-114676886D01*
X130765657Y-114746705D01*
X130735757Y-114795006D01*
X129327584Y-116203181D01*
X129266261Y-116236666D01*
X129239903Y-116239500D01*
X114600098Y-116239500D01*
X114533059Y-116219815D01*
X114512417Y-116203181D01*
X104627590Y-106318355D01*
X104627588Y-106318352D01*
X104508717Y-106199481D01*
X104508716Y-106199480D01*
X104421904Y-106149360D01*
X104421904Y-106149359D01*
X104421900Y-106149358D01*
X104371785Y-106120423D01*
X104219057Y-106079499D01*
X104060943Y-106079499D01*
X104053347Y-106079499D01*
X104053331Y-106079500D01*
X102904205Y-106079500D01*
X102837166Y-106059815D01*
X102800397Y-106023322D01*
X102680157Y-105839283D01*
X102680149Y-105839272D01*
X102527049Y-105672963D01*
X102527048Y-105672962D01*
X102527046Y-105672960D01*
X102348649Y-105534107D01*
X102348647Y-105534106D01*
X102348646Y-105534105D01*
X102348639Y-105534100D01*
X102320836Y-105519055D01*
X102271244Y-105469837D01*
X102256135Y-105401620D01*
X102280306Y-105336064D01*
X102320836Y-105300945D01*
X102348639Y-105285899D01*
X102348642Y-105285896D01*
X102348649Y-105285893D01*
X102527046Y-105147040D01*
X102680156Y-104980719D01*
X102803802Y-104791465D01*
X102894611Y-104584441D01*
X102950107Y-104365293D01*
X102968775Y-104140000D01*
X102968775Y-104139993D01*
X102950107Y-103914710D01*
X102950107Y-103914707D01*
X102894611Y-103695559D01*
X102803802Y-103488535D01*
X102680156Y-103299281D01*
X102680153Y-103299278D01*
X102680149Y-103299272D01*
X102527049Y-103132963D01*
X102527048Y-103132962D01*
X102527046Y-103132960D01*
X102348649Y-102994107D01*
X102348647Y-102994106D01*
X102348646Y-102994105D01*
X102348639Y-102994100D01*
X102320836Y-102979055D01*
X102271244Y-102929837D01*
X102256135Y-102861620D01*
X102280306Y-102796064D01*
X102320836Y-102760945D01*
X102348639Y-102745899D01*
X102348642Y-102745896D01*
X102348649Y-102745893D01*
X102527046Y-102607040D01*
X102680156Y-102440719D01*
X102803802Y-102251465D01*
X102894611Y-102044441D01*
X102950107Y-101825293D01*
X102968775Y-101600000D01*
X102968775Y-101599993D01*
X102950107Y-101374710D01*
X102950107Y-101374707D01*
X102894611Y-101155559D01*
X102803802Y-100948535D01*
X102680156Y-100759281D01*
X102680153Y-100759278D01*
X102680149Y-100759272D01*
X102527049Y-100592963D01*
X102527048Y-100592962D01*
X102527046Y-100592960D01*
X102348649Y-100454107D01*
X102348647Y-100454106D01*
X102348646Y-100454105D01*
X102348639Y-100454100D01*
X102320836Y-100439055D01*
X102271244Y-100389837D01*
X102256135Y-100321620D01*
X102280306Y-100256064D01*
X102320836Y-100220945D01*
X102348639Y-100205899D01*
X102348642Y-100205896D01*
X102348649Y-100205893D01*
X102527046Y-100067040D01*
X102680156Y-99900719D01*
X102803802Y-99711465D01*
X102894611Y-99504441D01*
X102950107Y-99285293D01*
X102968775Y-99060000D01*
X102968775Y-99059993D01*
X102950107Y-98834710D01*
X102950107Y-98834707D01*
X102894611Y-98615559D01*
X102803802Y-98408535D01*
X102680156Y-98219281D01*
X102680153Y-98219278D01*
X102680149Y-98219272D01*
X102527049Y-98052963D01*
X102527048Y-98052962D01*
X102527046Y-98052960D01*
X102348649Y-97914107D01*
X102348647Y-97914106D01*
X102348646Y-97914105D01*
X102348639Y-97914100D01*
X102320836Y-97899055D01*
X102271244Y-97849837D01*
X102256135Y-97781620D01*
X102280306Y-97716064D01*
X102320836Y-97680945D01*
X102348639Y-97665899D01*
X102348642Y-97665896D01*
X102348649Y-97665893D01*
X102527046Y-97527040D01*
X102680156Y-97360719D01*
X102803802Y-97171465D01*
X102894611Y-96964441D01*
X102950107Y-96745293D01*
X102960612Y-96618517D01*
X102968775Y-96520006D01*
X102968775Y-96519993D01*
X102950107Y-96294710D01*
X102950107Y-96294707D01*
X102894611Y-96075559D01*
X102803802Y-95868535D01*
X102680156Y-95679281D01*
X102680153Y-95679278D01*
X102680149Y-95679272D01*
X102527049Y-95512963D01*
X102527048Y-95512962D01*
X102527046Y-95512960D01*
X102348649Y-95374107D01*
X102348647Y-95374106D01*
X102348646Y-95374105D01*
X102348639Y-95374100D01*
X102320836Y-95359055D01*
X102271244Y-95309837D01*
X102256135Y-95241620D01*
X102280306Y-95176064D01*
X102320836Y-95140945D01*
X102348639Y-95125899D01*
X102348642Y-95125896D01*
X102348649Y-95125893D01*
X102527046Y-94987040D01*
X102680156Y-94820719D01*
X102803802Y-94631465D01*
X102894611Y-94424441D01*
X102950107Y-94205293D01*
X102960612Y-94078517D01*
X102968775Y-93980006D01*
X102968775Y-93979993D01*
X102950107Y-93754710D01*
X102950107Y-93754707D01*
X102894611Y-93535559D01*
X102803802Y-93328535D01*
X102680156Y-93139281D01*
X102680153Y-93139278D01*
X102680149Y-93139272D01*
X102527049Y-92972963D01*
X102527048Y-92972962D01*
X102527046Y-92972960D01*
X102348649Y-92834107D01*
X102348647Y-92834106D01*
X102348646Y-92834105D01*
X102348639Y-92834100D01*
X102320836Y-92819055D01*
X102271244Y-92769837D01*
X102256135Y-92701620D01*
X102280306Y-92636064D01*
X102320836Y-92600945D01*
X102348639Y-92585899D01*
X102348642Y-92585896D01*
X102348649Y-92585893D01*
X102527046Y-92447040D01*
X102680156Y-92280719D01*
X102803802Y-92091465D01*
X102894611Y-91884441D01*
X102950107Y-91665293D01*
X102960612Y-91538517D01*
X102968775Y-91440006D01*
X102968775Y-91439993D01*
X102950107Y-91214710D01*
X102950107Y-91214707D01*
X102894611Y-90995559D01*
X102803802Y-90788535D01*
X102680156Y-90599281D01*
X102680153Y-90599278D01*
X102680149Y-90599272D01*
X102527049Y-90432963D01*
X102527048Y-90432962D01*
X102527046Y-90432960D01*
X102348649Y-90294107D01*
X102348647Y-90294106D01*
X102348646Y-90294105D01*
X102348639Y-90294100D01*
X102320836Y-90279055D01*
X102271244Y-90229837D01*
X102256135Y-90161620D01*
X102280306Y-90096064D01*
X102320836Y-90060945D01*
X102348639Y-90045899D01*
X102348642Y-90045896D01*
X102348649Y-90045893D01*
X102527046Y-89907040D01*
X102680156Y-89740719D01*
X102803802Y-89551465D01*
X102894611Y-89344441D01*
X102950107Y-89125293D01*
X102960612Y-88998517D01*
X102968775Y-88900006D01*
X102968775Y-88899993D01*
X102950107Y-88674710D01*
X102950107Y-88674707D01*
X102894611Y-88455559D01*
X102803802Y-88248535D01*
X102680156Y-88059281D01*
X102680153Y-88059278D01*
X102680149Y-88059272D01*
X102527049Y-87892963D01*
X102527048Y-87892962D01*
X102527046Y-87892960D01*
X102348649Y-87754107D01*
X102348647Y-87754106D01*
X102348646Y-87754105D01*
X102348639Y-87754100D01*
X102320836Y-87739055D01*
X102271244Y-87689837D01*
X102256135Y-87621620D01*
X102280306Y-87556064D01*
X102320836Y-87520945D01*
X102348639Y-87505899D01*
X102348642Y-87505896D01*
X102348649Y-87505893D01*
X102527046Y-87367040D01*
X102680156Y-87200719D01*
X102803802Y-87011465D01*
X102894611Y-86804441D01*
X102950107Y-86585293D01*
X102960612Y-86458517D01*
X102968775Y-86360006D01*
X102968775Y-86359993D01*
X102950107Y-86134710D01*
X102950107Y-86134707D01*
X102894611Y-85915559D01*
X102803802Y-85708535D01*
X102680156Y-85519281D01*
X102680153Y-85519278D01*
X102680149Y-85519272D01*
X102527049Y-85352963D01*
X102527048Y-85352962D01*
X102527046Y-85352960D01*
X102348649Y-85214107D01*
X102348647Y-85214106D01*
X102348646Y-85214105D01*
X102348639Y-85214100D01*
X102320836Y-85199055D01*
X102271244Y-85149837D01*
X102256135Y-85081620D01*
X102280306Y-85016064D01*
X102320836Y-84980945D01*
X102348639Y-84965899D01*
X102348642Y-84965896D01*
X102348649Y-84965893D01*
X102527046Y-84827040D01*
X102680156Y-84660719D01*
X102803802Y-84471465D01*
X102894611Y-84264441D01*
X102950107Y-84045293D01*
X102960612Y-83918517D01*
X102968775Y-83820006D01*
X102968775Y-83819993D01*
X102950107Y-83594710D01*
X102950107Y-83594707D01*
X102894611Y-83375559D01*
X102803802Y-83168535D01*
X102680156Y-82979281D01*
X102680153Y-82979278D01*
X102680149Y-82979272D01*
X102527049Y-82812963D01*
X102527048Y-82812962D01*
X102527046Y-82812960D01*
X102348649Y-82674107D01*
X102348647Y-82674106D01*
X102348646Y-82674105D01*
X102348639Y-82674100D01*
X102320836Y-82659055D01*
X102271244Y-82609837D01*
X102256135Y-82541620D01*
X102280306Y-82476064D01*
X102320836Y-82440945D01*
X102348639Y-82425899D01*
X102348642Y-82425896D01*
X102348649Y-82425893D01*
X102527046Y-82287040D01*
X102680156Y-82120719D01*
X102803802Y-81931465D01*
X102894611Y-81724441D01*
X102950107Y-81505293D01*
X102968775Y-81280000D01*
X102968775Y-81279993D01*
X102950107Y-81054710D01*
X102950107Y-81054707D01*
X102894611Y-80835559D01*
X102803802Y-80628535D01*
X102680156Y-80439281D01*
X102680153Y-80439278D01*
X102680149Y-80439272D01*
X102527049Y-80272963D01*
X102527048Y-80272962D01*
X102527046Y-80272960D01*
X102348649Y-80134107D01*
X102348647Y-80134106D01*
X102348646Y-80134105D01*
X102348638Y-80134100D01*
X102320306Y-80118767D01*
X102270717Y-80069547D01*
X102255610Y-80001330D01*
X102279782Y-79935775D01*
X102320311Y-79900658D01*
X102348371Y-79885472D01*
X102348377Y-79885468D01*
X102372859Y-79866413D01*
X102372860Y-79866412D01*
X101735942Y-79229495D01*
X101796081Y-79213381D01*
X101911920Y-79146502D01*
X102006502Y-79051920D01*
X102073381Y-78936081D01*
X102089494Y-78875942D01*
X102724887Y-79511335D01*
X102803359Y-79391227D01*
X102894136Y-79184278D01*
X102949611Y-78965213D01*
X102949613Y-78965202D01*
X102968273Y-78740006D01*
X102968273Y-78739993D01*
X102949613Y-78514797D01*
X102949611Y-78514786D01*
X102894136Y-78295721D01*
X102803361Y-78088777D01*
X102724887Y-77968663D01*
X102089494Y-78604056D01*
X102073381Y-78543919D01*
X102006502Y-78428080D01*
X101911920Y-78333498D01*
X101796081Y-78266619D01*
X101735942Y-78250505D01*
X102372859Y-77613586D01*
X102372859Y-77613584D01*
X102348382Y-77594533D01*
X102348371Y-77594526D01*
X102320307Y-77579338D01*
X102270717Y-77530117D01*
X102255610Y-77461901D01*
X102279782Y-77396345D01*
X102320308Y-77361230D01*
X102348649Y-77345893D01*
X102527046Y-77207040D01*
X102680156Y-77040719D01*
X102803802Y-76851465D01*
X102894611Y-76644441D01*
X102950107Y-76425293D01*
X102968775Y-76200000D01*
X102968775Y-76199993D01*
X115471225Y-76199993D01*
X115471225Y-76200006D01*
X115489892Y-76425289D01*
X115545388Y-76644439D01*
X115636198Y-76851466D01*
X115759842Y-77040716D01*
X115759850Y-77040727D01*
X115879852Y-77171082D01*
X115912954Y-77207040D01*
X116091351Y-77345893D01*
X116119165Y-77360945D01*
X116168755Y-77410165D01*
X116183863Y-77478382D01*
X116159692Y-77543937D01*
X116119165Y-77579055D01*
X116091352Y-77594106D01*
X115912955Y-77732959D01*
X115912950Y-77732963D01*
X115759850Y-77899272D01*
X115759842Y-77899283D01*
X115636198Y-78088533D01*
X115545388Y-78295560D01*
X115489892Y-78514710D01*
X115471225Y-78739993D01*
X115471225Y-78740006D01*
X115489892Y-78965289D01*
X115545388Y-79184439D01*
X115636198Y-79391466D01*
X115759842Y-79580716D01*
X115759850Y-79580727D01*
X115912950Y-79747036D01*
X115912954Y-79747040D01*
X116091351Y-79885893D01*
X116118640Y-79900661D01*
X116119165Y-79900945D01*
X116168755Y-79950165D01*
X116183863Y-80018382D01*
X116159692Y-80083937D01*
X116119165Y-80119055D01*
X116091352Y-80134106D01*
X115912955Y-80272959D01*
X115912950Y-80272963D01*
X115759850Y-80439272D01*
X115759842Y-80439283D01*
X115636198Y-80628533D01*
X115545388Y-80835560D01*
X115489892Y-81054710D01*
X115471225Y-81279993D01*
X115471225Y-81280006D01*
X115489892Y-81505289D01*
X115545388Y-81724439D01*
X115636198Y-81931466D01*
X115759842Y-82120716D01*
X115759850Y-82120727D01*
X115912950Y-82287036D01*
X115912954Y-82287040D01*
X116091351Y-82425893D01*
X116119165Y-82440945D01*
X116168755Y-82490165D01*
X116183863Y-82558382D01*
X116159692Y-82623937D01*
X116119165Y-82659055D01*
X116091352Y-82674106D01*
X115912955Y-82812959D01*
X115912950Y-82812963D01*
X115759850Y-82979272D01*
X115759842Y-82979283D01*
X115636198Y-83168533D01*
X115545388Y-83375560D01*
X115489892Y-83594710D01*
X115471225Y-83819993D01*
X115471225Y-83820006D01*
X115489892Y-84045289D01*
X115545388Y-84264439D01*
X115636198Y-84471466D01*
X115759842Y-84660716D01*
X115759850Y-84660727D01*
X115912950Y-84827036D01*
X115912954Y-84827040D01*
X116091351Y-84965893D01*
X116119165Y-84980945D01*
X116168755Y-85030165D01*
X116183863Y-85098382D01*
X116159692Y-85163937D01*
X116119165Y-85199055D01*
X116091352Y-85214106D01*
X115912955Y-85352959D01*
X115912950Y-85352963D01*
X115759850Y-85519272D01*
X115759842Y-85519283D01*
X115636198Y-85708533D01*
X115545388Y-85915560D01*
X115489892Y-86134710D01*
X115471225Y-86359993D01*
X115471225Y-86360006D01*
X115489892Y-86585289D01*
X115545388Y-86804439D01*
X115636198Y-87011466D01*
X115759842Y-87200716D01*
X115759850Y-87200727D01*
X115912950Y-87367036D01*
X115912954Y-87367040D01*
X116091351Y-87505893D01*
X116119165Y-87520945D01*
X116168755Y-87570165D01*
X116183863Y-87638382D01*
X116159692Y-87703937D01*
X116119165Y-87739055D01*
X116091352Y-87754106D01*
X115912955Y-87892959D01*
X115912950Y-87892963D01*
X115759850Y-88059272D01*
X115759842Y-88059283D01*
X115636198Y-88248533D01*
X115545388Y-88455560D01*
X115489892Y-88674710D01*
X115471225Y-88899993D01*
X115471225Y-88900006D01*
X115489892Y-89125289D01*
X115545388Y-89344439D01*
X115636198Y-89551466D01*
X115759842Y-89740716D01*
X115759850Y-89740727D01*
X115912950Y-89907036D01*
X115912954Y-89907040D01*
X116091351Y-90045893D01*
X116119165Y-90060945D01*
X116168755Y-90110165D01*
X116183863Y-90178382D01*
X116159692Y-90243937D01*
X116119165Y-90279055D01*
X116091352Y-90294106D01*
X115912955Y-90432959D01*
X115912950Y-90432963D01*
X115759850Y-90599272D01*
X115759842Y-90599283D01*
X115636198Y-90788533D01*
X115545388Y-90995560D01*
X115489892Y-91214710D01*
X115471225Y-91439993D01*
X115471225Y-91440006D01*
X115489892Y-91665289D01*
X115545388Y-91884439D01*
X115636198Y-92091466D01*
X115759842Y-92280716D01*
X115759850Y-92280727D01*
X115912950Y-92447036D01*
X115912954Y-92447040D01*
X116091351Y-92585893D01*
X116119165Y-92600945D01*
X116168755Y-92650165D01*
X116183863Y-92718382D01*
X116159692Y-92783937D01*
X116119165Y-92819055D01*
X116091352Y-92834106D01*
X115912955Y-92972959D01*
X115912950Y-92972963D01*
X115759850Y-93139272D01*
X115759842Y-93139283D01*
X115636198Y-93328533D01*
X115545388Y-93535560D01*
X115489892Y-93754710D01*
X115471225Y-93979993D01*
X115471225Y-93980006D01*
X115489892Y-94205289D01*
X115545388Y-94424439D01*
X115636198Y-94631466D01*
X115759842Y-94820716D01*
X115759850Y-94820727D01*
X115912950Y-94987036D01*
X115912954Y-94987040D01*
X116091351Y-95125893D01*
X116119165Y-95140945D01*
X116168755Y-95190165D01*
X116183863Y-95258382D01*
X116159692Y-95323937D01*
X116119165Y-95359055D01*
X116091352Y-95374106D01*
X115912955Y-95512959D01*
X115912950Y-95512963D01*
X115759850Y-95679272D01*
X115759842Y-95679283D01*
X115636198Y-95868533D01*
X115545388Y-96075560D01*
X115489892Y-96294710D01*
X115471225Y-96519993D01*
X115471225Y-96520006D01*
X115489892Y-96745289D01*
X115545388Y-96964439D01*
X115636198Y-97171466D01*
X115759842Y-97360716D01*
X115759850Y-97360727D01*
X115912950Y-97527036D01*
X115912954Y-97527040D01*
X116091351Y-97665893D01*
X116119165Y-97680945D01*
X116168755Y-97730165D01*
X116183863Y-97798382D01*
X116159692Y-97863937D01*
X116119165Y-97899055D01*
X116091352Y-97914106D01*
X115912955Y-98052959D01*
X115912950Y-98052963D01*
X115759850Y-98219272D01*
X115759842Y-98219283D01*
X115636198Y-98408533D01*
X115545388Y-98615560D01*
X115489892Y-98834710D01*
X115471225Y-99059993D01*
X115471225Y-99060006D01*
X115489892Y-99285289D01*
X115545388Y-99504439D01*
X115636198Y-99711466D01*
X115759842Y-99900716D01*
X115759850Y-99900727D01*
X115912950Y-100067036D01*
X115912954Y-100067040D01*
X116091351Y-100205893D01*
X116119165Y-100220945D01*
X116168755Y-100270165D01*
X116183863Y-100338382D01*
X116159692Y-100403937D01*
X116119165Y-100439055D01*
X116091352Y-100454106D01*
X115912955Y-100592959D01*
X115912950Y-100592963D01*
X115759850Y-100759272D01*
X115759842Y-100759283D01*
X115636198Y-100948533D01*
X115545388Y-101155560D01*
X115489892Y-101374710D01*
X115471225Y-101599993D01*
X115471225Y-101600006D01*
X115489892Y-101825289D01*
X115545388Y-102044439D01*
X115636198Y-102251466D01*
X115759842Y-102440716D01*
X115759850Y-102440727D01*
X115896879Y-102589578D01*
X115927802Y-102652232D01*
X115919942Y-102721658D01*
X115875795Y-102775814D01*
X115848983Y-102789743D01*
X115734071Y-102832602D01*
X115734064Y-102832606D01*
X115618855Y-102918852D01*
X115618852Y-102918855D01*
X115532606Y-103034064D01*
X115532602Y-103034071D01*
X115482308Y-103168917D01*
X115475901Y-103228516D01*
X115475901Y-103228523D01*
X115475900Y-103228535D01*
X115475900Y-105051470D01*
X115475901Y-105051476D01*
X115482308Y-105111083D01*
X115532602Y-105245928D01*
X115532606Y-105245935D01*
X115618852Y-105361144D01*
X115618855Y-105361147D01*
X115734064Y-105447393D01*
X115734071Y-105447397D01*
X115848983Y-105490256D01*
X115904916Y-105532127D01*
X115929334Y-105597591D01*
X115914483Y-105665864D01*
X115896880Y-105690421D01*
X115759845Y-105839279D01*
X115759842Y-105839283D01*
X115636198Y-106028533D01*
X115545388Y-106235560D01*
X115489892Y-106454710D01*
X115471225Y-106679993D01*
X115471225Y-106680006D01*
X115489892Y-106905289D01*
X115545388Y-107124439D01*
X115636198Y-107331466D01*
X115759842Y-107520716D01*
X115759850Y-107520727D01*
X115896878Y-107669577D01*
X115912954Y-107687040D01*
X116091351Y-107825893D01*
X116119165Y-107840945D01*
X116168755Y-107890165D01*
X116183863Y-107958382D01*
X116159692Y-108023937D01*
X116119165Y-108059055D01*
X116091352Y-108074106D01*
X115912955Y-108212959D01*
X115912950Y-108212963D01*
X115759850Y-108379272D01*
X115759842Y-108379283D01*
X115636198Y-108568533D01*
X115545388Y-108775560D01*
X115489892Y-108994710D01*
X115471225Y-109219993D01*
X115471225Y-109220006D01*
X115489892Y-109445289D01*
X115545388Y-109664439D01*
X115636198Y-109871466D01*
X115759842Y-110060716D01*
X115759850Y-110060727D01*
X115879852Y-110191082D01*
X115912954Y-110227040D01*
X116091351Y-110365893D01*
X116119165Y-110380945D01*
X116168755Y-110430165D01*
X116183863Y-110498382D01*
X116159692Y-110563937D01*
X116119165Y-110599055D01*
X116091352Y-110614106D01*
X115912955Y-110752959D01*
X115912950Y-110752963D01*
X115759850Y-110919272D01*
X115759842Y-110919283D01*
X115636198Y-111108533D01*
X115545388Y-111315560D01*
X115489892Y-111534710D01*
X115471225Y-111759993D01*
X115471225Y-111760006D01*
X115489892Y-111985289D01*
X115545388Y-112204439D01*
X115636198Y-112411466D01*
X115759842Y-112600716D01*
X115759850Y-112600727D01*
X115912950Y-112767036D01*
X115912954Y-112767040D01*
X116091351Y-112905893D01*
X116290169Y-113013488D01*
X116336479Y-113029386D01*
X116393491Y-113069769D01*
X116419622Y-113134569D01*
X116406572Y-113203209D01*
X116358484Y-113253897D01*
X116352510Y-113257150D01*
X116237004Y-113316004D01*
X116090505Y-113422441D01*
X116090500Y-113422445D01*
X115962445Y-113550500D01*
X115962441Y-113550505D01*
X115856006Y-113697002D01*
X115773788Y-113858360D01*
X115773787Y-113858363D01*
X115717829Y-114030589D01*
X115689500Y-114209448D01*
X115689500Y-114390551D01*
X115717829Y-114569410D01*
X115773787Y-114741636D01*
X115773788Y-114741639D01*
X115856006Y-114902997D01*
X115962441Y-115049494D01*
X115962445Y-115049499D01*
X116090500Y-115177554D01*
X116090505Y-115177558D01*
X116218287Y-115270396D01*
X116237006Y-115283996D01*
X116342484Y-115337740D01*
X116398360Y-115366211D01*
X116398363Y-115366212D01*
X116484476Y-115394191D01*
X116570591Y-115422171D01*
X116653429Y-115435291D01*
X116749449Y-115450500D01*
X116749454Y-115450500D01*
X116930551Y-115450500D01*
X117017259Y-115436765D01*
X117109409Y-115422171D01*
X117281639Y-115366211D01*
X117442994Y-115283996D01*
X117589501Y-115177553D01*
X117717553Y-115049501D01*
X117823996Y-114902994D01*
X117906211Y-114741639D01*
X117962171Y-114569409D01*
X117976765Y-114477259D01*
X117990500Y-114390551D01*
X117990500Y-114209448D01*
X117974019Y-114105397D01*
X117962171Y-114030591D01*
X117906211Y-113858361D01*
X117906211Y-113858360D01*
X117877740Y-113802484D01*
X117823996Y-113697006D01*
X117788780Y-113648535D01*
X117717558Y-113550505D01*
X117717554Y-113550500D01*
X117589499Y-113422445D01*
X117589494Y-113422441D01*
X117442993Y-113316003D01*
X117442992Y-113316002D01*
X117327490Y-113257150D01*
X117276694Y-113209176D01*
X117259899Y-113141355D01*
X117282437Y-113075220D01*
X117337152Y-113031769D01*
X117343488Y-113029397D01*
X117389831Y-113013488D01*
X117588649Y-112905893D01*
X117767046Y-112767040D01*
X117920156Y-112600719D01*
X118043802Y-112411465D01*
X118134611Y-112204441D01*
X118190107Y-111985293D01*
X118208775Y-111760000D01*
X118208775Y-111759993D01*
X118190107Y-111534710D01*
X118190107Y-111534707D01*
X118134611Y-111315559D01*
X118043802Y-111108535D01*
X117920156Y-110919281D01*
X117920153Y-110919278D01*
X117920149Y-110919272D01*
X117767049Y-110752963D01*
X117767048Y-110752962D01*
X117767046Y-110752960D01*
X117588649Y-110614107D01*
X117588647Y-110614106D01*
X117588646Y-110614105D01*
X117588639Y-110614100D01*
X117560836Y-110599055D01*
X117511244Y-110549837D01*
X117496135Y-110481620D01*
X117520306Y-110416064D01*
X117560836Y-110380945D01*
X117588639Y-110365899D01*
X117588642Y-110365896D01*
X117588649Y-110365893D01*
X117767046Y-110227040D01*
X117920156Y-110060719D01*
X118043802Y-109871465D01*
X118134611Y-109664441D01*
X118190107Y-109445293D01*
X118208775Y-109220000D01*
X118208775Y-109219999D01*
X123104341Y-109219999D01*
X123104341Y-109220000D01*
X123124936Y-109455403D01*
X123124938Y-109455413D01*
X123186094Y-109683655D01*
X123186096Y-109683659D01*
X123186097Y-109683663D01*
X123270499Y-109864663D01*
X123285965Y-109897830D01*
X123285967Y-109897834D01*
X123394281Y-110052521D01*
X123421505Y-110091401D01*
X123588599Y-110258495D01*
X123684913Y-110325935D01*
X123782165Y-110394032D01*
X123782167Y-110394033D01*
X123782170Y-110394035D01*
X123996337Y-110493903D01*
X124224592Y-110555063D01*
X124401034Y-110570500D01*
X124459999Y-110575659D01*
X124460000Y-110575659D01*
X124460001Y-110575659D01*
X124518966Y-110570500D01*
X124695408Y-110555063D01*
X124923663Y-110493903D01*
X125137830Y-110394035D01*
X125331401Y-110258495D01*
X125453329Y-110136566D01*
X125514648Y-110103084D01*
X125584340Y-110108068D01*
X125640274Y-110149939D01*
X125657189Y-110180917D01*
X125706202Y-110312328D01*
X125706206Y-110312335D01*
X125792452Y-110427544D01*
X125792455Y-110427547D01*
X125907664Y-110513793D01*
X125907671Y-110513797D01*
X126042517Y-110564091D01*
X126042516Y-110564091D01*
X126049444Y-110564835D01*
X126102127Y-110570500D01*
X127897872Y-110570499D01*
X127957483Y-110564091D01*
X128092331Y-110513796D01*
X128207546Y-110427546D01*
X128293796Y-110312331D01*
X128344091Y-110177483D01*
X128350500Y-110117873D01*
X128350499Y-109219993D01*
X130711225Y-109219993D01*
X130711225Y-109220006D01*
X130729892Y-109445289D01*
X130785388Y-109664439D01*
X130876198Y-109871466D01*
X130999842Y-110060716D01*
X130999850Y-110060727D01*
X131119852Y-110191082D01*
X131152954Y-110227040D01*
X131331351Y-110365893D01*
X131530169Y-110473488D01*
X131530172Y-110473489D01*
X131743982Y-110546890D01*
X131743984Y-110546890D01*
X131743986Y-110546891D01*
X131966967Y-110584100D01*
X131966968Y-110584100D01*
X132193032Y-110584100D01*
X132193033Y-110584100D01*
X132416014Y-110546891D01*
X132629831Y-110473488D01*
X132828649Y-110365893D01*
X133007046Y-110227040D01*
X133160156Y-110060719D01*
X133283802Y-109871465D01*
X133374611Y-109664441D01*
X133430107Y-109445293D01*
X133448775Y-109220000D01*
X133448775Y-109219999D01*
X133448775Y-109219993D01*
X138331225Y-109219993D01*
X138331225Y-109220006D01*
X138349892Y-109445289D01*
X138405388Y-109664439D01*
X138496198Y-109871466D01*
X138619842Y-110060716D01*
X138619850Y-110060727D01*
X138739852Y-110191082D01*
X138772954Y-110227040D01*
X138951351Y-110365893D01*
X139150169Y-110473488D01*
X139150172Y-110473489D01*
X139363982Y-110546890D01*
X139363984Y-110546890D01*
X139363986Y-110546891D01*
X139586967Y-110584100D01*
X139586968Y-110584100D01*
X139813032Y-110584100D01*
X139813033Y-110584100D01*
X140036014Y-110546891D01*
X140249831Y-110473488D01*
X140448649Y-110365893D01*
X140627046Y-110227040D01*
X140780156Y-110060719D01*
X140903802Y-109871465D01*
X140994611Y-109664441D01*
X141050107Y-109445293D01*
X141068775Y-109220000D01*
X141068775Y-109219999D01*
X141068775Y-109219993D01*
X141050107Y-108994710D01*
X141050107Y-108994707D01*
X140994611Y-108775559D01*
X140903802Y-108568535D01*
X140780156Y-108379281D01*
X140780153Y-108379278D01*
X140780149Y-108379272D01*
X140627049Y-108212963D01*
X140627048Y-108212962D01*
X140627046Y-108212960D01*
X140448649Y-108074107D01*
X140355943Y-108023937D01*
X140249832Y-107966512D01*
X140249827Y-107966510D01*
X140036017Y-107893109D01*
X139851440Y-107862309D01*
X139813033Y-107855900D01*
X139586967Y-107855900D01*
X139548560Y-107862309D01*
X139363982Y-107893109D01*
X139150172Y-107966510D01*
X139150167Y-107966512D01*
X138951352Y-108074106D01*
X138772955Y-108212959D01*
X138772950Y-108212963D01*
X138619850Y-108379272D01*
X138619842Y-108379283D01*
X138496198Y-108568533D01*
X138405388Y-108775560D01*
X138349892Y-108994710D01*
X138331225Y-109219993D01*
X133448775Y-109219993D01*
X133430107Y-108994710D01*
X133430107Y-108994707D01*
X133374611Y-108775559D01*
X133283802Y-108568535D01*
X133160156Y-108379281D01*
X133160153Y-108379278D01*
X133160149Y-108379272D01*
X133007049Y-108212963D01*
X133007048Y-108212962D01*
X133007046Y-108212960D01*
X132828649Y-108074107D01*
X132735943Y-108023937D01*
X132629832Y-107966512D01*
X132629827Y-107966510D01*
X132416017Y-107893109D01*
X132231440Y-107862309D01*
X132193033Y-107855900D01*
X131966967Y-107855900D01*
X131928560Y-107862309D01*
X131743982Y-107893109D01*
X131530172Y-107966510D01*
X131530167Y-107966512D01*
X131331352Y-108074106D01*
X131152955Y-108212959D01*
X131152950Y-108212963D01*
X130999850Y-108379272D01*
X130999842Y-108379283D01*
X130876198Y-108568533D01*
X130785388Y-108775560D01*
X130729892Y-108994710D01*
X130711225Y-109219993D01*
X128350499Y-109219993D01*
X128350499Y-108322128D01*
X128344091Y-108262517D01*
X128342810Y-108259083D01*
X128293797Y-108127671D01*
X128293793Y-108127664D01*
X128207547Y-108012455D01*
X128207544Y-108012452D01*
X128092335Y-107926206D01*
X128092328Y-107926202D01*
X127957482Y-107875908D01*
X127957483Y-107875908D01*
X127897883Y-107869501D01*
X127897881Y-107869500D01*
X127897873Y-107869500D01*
X127897864Y-107869500D01*
X126102129Y-107869500D01*
X126102123Y-107869501D01*
X126042516Y-107875908D01*
X125907671Y-107926202D01*
X125907664Y-107926206D01*
X125792455Y-108012452D01*
X125792452Y-108012455D01*
X125706206Y-108127664D01*
X125706203Y-108127669D01*
X125657189Y-108259083D01*
X125615317Y-108315016D01*
X125549853Y-108339433D01*
X125481580Y-108324581D01*
X125453326Y-108303430D01*
X125331402Y-108181506D01*
X125331395Y-108181501D01*
X125137834Y-108045967D01*
X125137830Y-108045965D01*
X125090591Y-108023937D01*
X124923663Y-107946097D01*
X124923659Y-107946096D01*
X124923655Y-107946094D01*
X124695413Y-107884938D01*
X124695403Y-107884936D01*
X124460001Y-107864341D01*
X124459999Y-107864341D01*
X124224596Y-107884936D01*
X124224586Y-107884938D01*
X123996344Y-107946094D01*
X123996335Y-107946098D01*
X123782171Y-108045964D01*
X123782169Y-108045965D01*
X123588597Y-108181505D01*
X123421505Y-108348597D01*
X123285965Y-108542169D01*
X123285964Y-108542171D01*
X123186098Y-108756335D01*
X123186094Y-108756344D01*
X123124938Y-108984586D01*
X123124936Y-108984596D01*
X123104341Y-109219999D01*
X118208775Y-109219999D01*
X118208775Y-109219993D01*
X118190107Y-108994710D01*
X118190107Y-108994707D01*
X118134611Y-108775559D01*
X118043802Y-108568535D01*
X117920156Y-108379281D01*
X117920153Y-108379278D01*
X117920149Y-108379272D01*
X117767049Y-108212963D01*
X117767048Y-108212962D01*
X117767046Y-108212960D01*
X117588649Y-108074107D01*
X117588647Y-108074106D01*
X117588646Y-108074105D01*
X117588639Y-108074100D01*
X117560836Y-108059055D01*
X117511244Y-108009837D01*
X117496135Y-107941620D01*
X117520306Y-107876064D01*
X117560836Y-107840945D01*
X117588639Y-107825899D01*
X117588642Y-107825896D01*
X117588649Y-107825893D01*
X117767046Y-107687040D01*
X117920156Y-107520719D01*
X118043802Y-107331465D01*
X118134611Y-107124441D01*
X118190107Y-106905293D01*
X118208775Y-106680000D01*
X118208775Y-106679993D01*
X118190107Y-106454710D01*
X118190107Y-106454707D01*
X118134611Y-106235559D01*
X118043802Y-106028535D01*
X117920156Y-105839281D01*
X117920153Y-105839278D01*
X117920149Y-105839272D01*
X117783120Y-105690421D01*
X117752197Y-105627767D01*
X117760057Y-105558341D01*
X117804204Y-105504185D01*
X117831017Y-105490256D01*
X117945926Y-105447398D01*
X117945926Y-105447397D01*
X117945931Y-105447396D01*
X118061146Y-105361146D01*
X118147396Y-105245931D01*
X118197691Y-105111083D01*
X118204100Y-105051473D01*
X118204099Y-104139993D01*
X130711225Y-104139993D01*
X130711225Y-104140006D01*
X130729892Y-104365289D01*
X130785388Y-104584439D01*
X130876198Y-104791466D01*
X130999842Y-104980716D01*
X130999850Y-104980727D01*
X131119852Y-105111082D01*
X131152954Y-105147040D01*
X131331351Y-105285893D01*
X131530169Y-105393488D01*
X131530172Y-105393489D01*
X131743982Y-105466890D01*
X131743984Y-105466890D01*
X131743986Y-105466891D01*
X131966967Y-105504100D01*
X131966968Y-105504100D01*
X132193032Y-105504100D01*
X132193033Y-105504100D01*
X132416014Y-105466891D01*
X132629831Y-105393488D01*
X132828649Y-105285893D01*
X133007046Y-105147040D01*
X133160156Y-104980719D01*
X133283802Y-104791465D01*
X133374611Y-104584441D01*
X133430107Y-104365293D01*
X133448775Y-104140000D01*
X133448775Y-104139993D01*
X138331225Y-104139993D01*
X138331225Y-104140006D01*
X138349892Y-104365289D01*
X138405388Y-104584439D01*
X138496198Y-104791466D01*
X138619842Y-104980716D01*
X138619850Y-104980727D01*
X138739852Y-105111082D01*
X138772954Y-105147040D01*
X138951351Y-105285893D01*
X139150169Y-105393488D01*
X139150172Y-105393489D01*
X139363982Y-105466890D01*
X139363984Y-105466890D01*
X139363986Y-105466891D01*
X139586967Y-105504100D01*
X139586968Y-105504100D01*
X139813032Y-105504100D01*
X139813033Y-105504100D01*
X140036014Y-105466891D01*
X140249831Y-105393488D01*
X140448649Y-105285893D01*
X140627046Y-105147040D01*
X140780156Y-104980719D01*
X140903802Y-104791465D01*
X140994611Y-104584441D01*
X141050107Y-104365293D01*
X141068775Y-104140000D01*
X141068775Y-104139993D01*
X141050107Y-103914710D01*
X141050107Y-103914707D01*
X140994611Y-103695559D01*
X140903802Y-103488535D01*
X140780156Y-103299281D01*
X140780153Y-103299278D01*
X140780149Y-103299272D01*
X140627049Y-103132963D01*
X140627048Y-103132962D01*
X140627046Y-103132960D01*
X140448649Y-102994107D01*
X140309594Y-102918854D01*
X140249832Y-102886512D01*
X140249827Y-102886510D01*
X140036017Y-102813109D01*
X139851440Y-102782309D01*
X139813033Y-102775900D01*
X139586967Y-102775900D01*
X139548560Y-102782309D01*
X139363982Y-102813109D01*
X139150172Y-102886510D01*
X139150167Y-102886512D01*
X138951352Y-102994106D01*
X138772955Y-103132959D01*
X138772950Y-103132963D01*
X138619850Y-103299272D01*
X138619842Y-103299283D01*
X138496198Y-103488533D01*
X138405388Y-103695560D01*
X138349892Y-103914710D01*
X138331225Y-104139993D01*
X133448775Y-104139993D01*
X133430107Y-103914710D01*
X133430107Y-103914707D01*
X133374611Y-103695559D01*
X133283802Y-103488535D01*
X133160156Y-103299281D01*
X133160153Y-103299278D01*
X133160149Y-103299272D01*
X133007049Y-103132963D01*
X133007048Y-103132962D01*
X133007046Y-103132960D01*
X132828649Y-102994107D01*
X132689594Y-102918854D01*
X132629832Y-102886512D01*
X132629827Y-102886510D01*
X132416017Y-102813109D01*
X132231440Y-102782309D01*
X132193033Y-102775900D01*
X131966967Y-102775900D01*
X131928560Y-102782309D01*
X131743982Y-102813109D01*
X131530172Y-102886510D01*
X131530167Y-102886512D01*
X131331352Y-102994106D01*
X131152955Y-103132959D01*
X131152950Y-103132963D01*
X130999850Y-103299272D01*
X130999842Y-103299283D01*
X130876198Y-103488533D01*
X130785388Y-103695560D01*
X130729892Y-103914710D01*
X130711225Y-104139993D01*
X118204099Y-104139993D01*
X118204099Y-103228528D01*
X118197691Y-103168917D01*
X118147396Y-103034069D01*
X118147395Y-103034068D01*
X118147393Y-103034064D01*
X118061147Y-102918855D01*
X118061144Y-102918852D01*
X117945935Y-102832606D01*
X117945928Y-102832602D01*
X117831016Y-102789743D01*
X117775082Y-102747872D01*
X117750665Y-102682408D01*
X117765517Y-102614135D01*
X117783113Y-102589586D01*
X117920156Y-102440719D01*
X117984710Y-102341911D01*
X118040397Y-102256678D01*
X118093543Y-102211321D01*
X118144205Y-102200500D01*
X129453331Y-102200500D01*
X129453347Y-102200501D01*
X129460943Y-102200501D01*
X129619054Y-102200501D01*
X129619057Y-102200501D01*
X129771785Y-102159577D01*
X129821904Y-102130639D01*
X129908716Y-102080520D01*
X130020520Y-101968716D01*
X130020520Y-101968714D01*
X130030728Y-101958507D01*
X130030730Y-101958504D01*
X131583810Y-100405423D01*
X131645131Y-100371940D01*
X131711751Y-100375824D01*
X131743986Y-100386891D01*
X131966967Y-100424100D01*
X131966968Y-100424100D01*
X132193032Y-100424100D01*
X132193033Y-100424100D01*
X132416014Y-100386891D01*
X132629831Y-100313488D01*
X132828649Y-100205893D01*
X133007046Y-100067040D01*
X133160156Y-99900719D01*
X133283802Y-99711465D01*
X133374611Y-99504441D01*
X133430107Y-99285293D01*
X133448775Y-99060000D01*
X133448775Y-99059993D01*
X138331225Y-99059993D01*
X138331225Y-99060006D01*
X138349892Y-99285289D01*
X138405388Y-99504439D01*
X138496198Y-99711466D01*
X138619842Y-99900716D01*
X138619850Y-99900727D01*
X138772950Y-100067036D01*
X138772954Y-100067040D01*
X138951351Y-100205893D01*
X139150169Y-100313488D01*
X139150172Y-100313489D01*
X139363982Y-100386890D01*
X139363984Y-100386890D01*
X139363986Y-100386891D01*
X139586967Y-100424100D01*
X139586968Y-100424100D01*
X139813032Y-100424100D01*
X139813033Y-100424100D01*
X140036014Y-100386891D01*
X140249831Y-100313488D01*
X140448649Y-100205893D01*
X140627046Y-100067040D01*
X140780156Y-99900719D01*
X140903802Y-99711465D01*
X140994611Y-99504441D01*
X141050107Y-99285293D01*
X141068775Y-99060000D01*
X141068775Y-99059993D01*
X141050107Y-98834710D01*
X141050107Y-98834707D01*
X140994611Y-98615559D01*
X140903802Y-98408535D01*
X140780156Y-98219281D01*
X140780153Y-98219278D01*
X140780149Y-98219272D01*
X140627049Y-98052963D01*
X140627048Y-98052962D01*
X140627046Y-98052960D01*
X140448649Y-97914107D01*
X140329889Y-97849837D01*
X140249832Y-97806512D01*
X140249827Y-97806510D01*
X140036017Y-97733109D01*
X139868778Y-97705202D01*
X139813033Y-97695900D01*
X139586967Y-97695900D01*
X139542370Y-97703341D01*
X139363982Y-97733109D01*
X139150172Y-97806510D01*
X139150167Y-97806512D01*
X138951352Y-97914106D01*
X138772955Y-98052959D01*
X138772950Y-98052963D01*
X138619850Y-98219272D01*
X138619842Y-98219283D01*
X138496198Y-98408533D01*
X138405388Y-98615560D01*
X138349892Y-98834710D01*
X138331225Y-99059993D01*
X133448775Y-99059993D01*
X133430107Y-98834710D01*
X133430107Y-98834707D01*
X133374611Y-98615559D01*
X133283802Y-98408535D01*
X133160156Y-98219281D01*
X133160153Y-98219278D01*
X133160149Y-98219272D01*
X133007049Y-98052963D01*
X133007048Y-98052962D01*
X133007046Y-98052960D01*
X132828649Y-97914107D01*
X132709889Y-97849837D01*
X132629832Y-97806512D01*
X132629827Y-97806510D01*
X132416017Y-97733109D01*
X132248778Y-97705202D01*
X132193033Y-97695900D01*
X131966967Y-97695900D01*
X131922370Y-97703341D01*
X131743982Y-97733109D01*
X131530172Y-97806510D01*
X131530167Y-97806512D01*
X131331352Y-97914106D01*
X131152955Y-98052959D01*
X131152950Y-98052963D01*
X130999850Y-98219272D01*
X130999842Y-98219283D01*
X130876198Y-98408533D01*
X130785388Y-98615560D01*
X130729892Y-98834710D01*
X130711225Y-99059993D01*
X130711225Y-99060006D01*
X130729892Y-99285287D01*
X130729892Y-99285289D01*
X130729893Y-99285293D01*
X130768281Y-99436886D01*
X130765657Y-99506705D01*
X130735757Y-99555006D01*
X129327584Y-100963181D01*
X129266261Y-100996666D01*
X129239903Y-100999500D01*
X118144205Y-100999500D01*
X118077166Y-100979815D01*
X118040397Y-100943322D01*
X117920157Y-100759283D01*
X117920149Y-100759272D01*
X117767049Y-100592963D01*
X117767048Y-100592962D01*
X117767046Y-100592960D01*
X117588649Y-100454107D01*
X117588647Y-100454106D01*
X117588646Y-100454105D01*
X117588639Y-100454100D01*
X117560836Y-100439055D01*
X117511244Y-100389837D01*
X117496135Y-100321620D01*
X117520306Y-100256064D01*
X117560836Y-100220945D01*
X117588639Y-100205899D01*
X117588642Y-100205896D01*
X117588649Y-100205893D01*
X117767046Y-100067040D01*
X117920156Y-99900719D01*
X118043802Y-99711465D01*
X118134611Y-99504441D01*
X118190107Y-99285293D01*
X118208775Y-99060000D01*
X118208775Y-99059993D01*
X118190107Y-98834708D01*
X118190106Y-98834704D01*
X118151718Y-98683113D01*
X118154342Y-98613292D01*
X118184240Y-98564993D01*
X122132416Y-94616819D01*
X122193739Y-94583334D01*
X122220097Y-94580500D01*
X130775795Y-94580500D01*
X130842834Y-94600185D01*
X130879603Y-94636678D01*
X130999842Y-94820716D01*
X130999850Y-94820727D01*
X131152950Y-94987036D01*
X131152954Y-94987040D01*
X131331351Y-95125893D01*
X131530169Y-95233488D01*
X131530172Y-95233489D01*
X131743982Y-95306890D01*
X131743984Y-95306890D01*
X131743986Y-95306891D01*
X131966967Y-95344100D01*
X131966968Y-95344100D01*
X132193032Y-95344100D01*
X132193033Y-95344100D01*
X132416014Y-95306891D01*
X132629831Y-95233488D01*
X132828649Y-95125893D01*
X133007046Y-94987040D01*
X133160156Y-94820719D01*
X133283802Y-94631465D01*
X133374611Y-94424441D01*
X133430107Y-94205293D01*
X133440612Y-94078517D01*
X133448775Y-93980006D01*
X133448775Y-93979993D01*
X133430107Y-93754710D01*
X133430107Y-93754707D01*
X133374611Y-93535559D01*
X133283802Y-93328535D01*
X133160156Y-93139281D01*
X133160153Y-93139278D01*
X133160149Y-93139272D01*
X133007049Y-92972963D01*
X133007048Y-92972962D01*
X133007046Y-92972960D01*
X132828649Y-92834107D01*
X132828647Y-92834106D01*
X132828646Y-92834105D01*
X132828639Y-92834100D01*
X132800836Y-92819055D01*
X132751244Y-92769837D01*
X132736135Y-92701620D01*
X132760306Y-92636064D01*
X132800836Y-92600945D01*
X132828639Y-92585899D01*
X132828642Y-92585896D01*
X132828649Y-92585893D01*
X133007046Y-92447040D01*
X133160156Y-92280719D01*
X133283802Y-92091465D01*
X133374611Y-91884441D01*
X133430107Y-91665293D01*
X133440612Y-91538517D01*
X133448775Y-91440006D01*
X133448775Y-91439993D01*
X133430107Y-91214710D01*
X133430107Y-91214707D01*
X133374611Y-90995559D01*
X133283802Y-90788535D01*
X133160156Y-90599281D01*
X133160153Y-90599278D01*
X133160149Y-90599272D01*
X133007049Y-90432963D01*
X133007048Y-90432962D01*
X133007046Y-90432960D01*
X132828649Y-90294107D01*
X132828647Y-90294106D01*
X132828646Y-90294105D01*
X132828639Y-90294100D01*
X132800836Y-90279055D01*
X132751244Y-90229837D01*
X132736135Y-90161620D01*
X132760306Y-90096064D01*
X132800836Y-90060945D01*
X132828639Y-90045899D01*
X132828642Y-90045896D01*
X132828649Y-90045893D01*
X133007046Y-89907040D01*
X133160156Y-89740719D01*
X133283802Y-89551465D01*
X133374611Y-89344441D01*
X133430107Y-89125293D01*
X133440612Y-88998517D01*
X133448775Y-88900006D01*
X133448775Y-88899993D01*
X133430107Y-88674710D01*
X133430107Y-88674707D01*
X133374611Y-88455559D01*
X133283802Y-88248535D01*
X133160156Y-88059281D01*
X133160153Y-88059278D01*
X133160149Y-88059272D01*
X133007049Y-87892963D01*
X133007048Y-87892962D01*
X133007046Y-87892960D01*
X132828649Y-87754107D01*
X132828647Y-87754106D01*
X132828646Y-87754105D01*
X132828639Y-87754100D01*
X132800836Y-87739055D01*
X132751244Y-87689837D01*
X132736135Y-87621620D01*
X132760306Y-87556064D01*
X132800836Y-87520945D01*
X132828639Y-87505899D01*
X132828642Y-87505896D01*
X132828649Y-87505893D01*
X133007046Y-87367040D01*
X133160156Y-87200719D01*
X133283802Y-87011465D01*
X133374611Y-86804441D01*
X133430107Y-86585293D01*
X133440612Y-86458517D01*
X133448775Y-86360006D01*
X133448775Y-86359993D01*
X133430107Y-86134710D01*
X133430107Y-86134707D01*
X133374611Y-85915559D01*
X133283802Y-85708535D01*
X133160156Y-85519281D01*
X133160153Y-85519278D01*
X133160149Y-85519272D01*
X133007049Y-85352963D01*
X133007048Y-85352962D01*
X133007046Y-85352960D01*
X132828649Y-85214107D01*
X132828647Y-85214106D01*
X132828646Y-85214105D01*
X132828639Y-85214100D01*
X132800836Y-85199055D01*
X132751244Y-85149837D01*
X132736135Y-85081620D01*
X132760306Y-85016064D01*
X132800836Y-84980945D01*
X132828639Y-84965899D01*
X132828642Y-84965896D01*
X132828649Y-84965893D01*
X133007046Y-84827040D01*
X133160156Y-84660719D01*
X133283802Y-84471465D01*
X133374611Y-84264441D01*
X133430107Y-84045293D01*
X133440612Y-83918517D01*
X133448775Y-83820006D01*
X133448775Y-83819993D01*
X133430107Y-83594710D01*
X133430107Y-83594707D01*
X133374611Y-83375559D01*
X133283802Y-83168535D01*
X133160156Y-82979281D01*
X133160153Y-82979278D01*
X133160149Y-82979272D01*
X133007049Y-82812963D01*
X133007048Y-82812962D01*
X133007046Y-82812960D01*
X132828649Y-82674107D01*
X132828647Y-82674106D01*
X132828646Y-82674105D01*
X132828639Y-82674100D01*
X132800836Y-82659055D01*
X132751244Y-82609837D01*
X132736135Y-82541620D01*
X132760306Y-82476064D01*
X132800836Y-82440945D01*
X132828639Y-82425899D01*
X132828642Y-82425896D01*
X132828649Y-82425893D01*
X133007046Y-82287040D01*
X133160156Y-82120719D01*
X133283802Y-81931465D01*
X133374611Y-81724441D01*
X133430107Y-81505293D01*
X133448775Y-81280000D01*
X133448775Y-81279993D01*
X133430107Y-81054710D01*
X133430107Y-81054707D01*
X133374611Y-80835559D01*
X133283802Y-80628535D01*
X133160156Y-80439281D01*
X133160153Y-80439278D01*
X133160149Y-80439272D01*
X133007049Y-80272963D01*
X133007048Y-80272962D01*
X133007046Y-80272960D01*
X132828649Y-80134107D01*
X132828647Y-80134106D01*
X132828646Y-80134105D01*
X132828639Y-80134100D01*
X132800836Y-80119055D01*
X132751244Y-80069837D01*
X132736135Y-80001620D01*
X132760306Y-79936064D01*
X132800836Y-79900945D01*
X132828639Y-79885899D01*
X132828642Y-79885896D01*
X132828649Y-79885893D01*
X133007046Y-79747040D01*
X133160156Y-79580719D01*
X133283802Y-79391465D01*
X133374611Y-79184441D01*
X133430107Y-78965293D01*
X133437574Y-78875175D01*
X133448775Y-78740006D01*
X133448775Y-78739993D01*
X133435707Y-78582294D01*
X133430107Y-78514707D01*
X133374611Y-78295559D01*
X133283802Y-78088535D01*
X133160156Y-77899281D01*
X133160153Y-77899278D01*
X133160149Y-77899272D01*
X133023120Y-77750421D01*
X132992197Y-77687767D01*
X133000057Y-77618341D01*
X133044204Y-77564185D01*
X133071017Y-77550256D01*
X133087201Y-77544220D01*
X133185931Y-77507396D01*
X133301146Y-77421146D01*
X133387396Y-77305931D01*
X133437691Y-77171083D01*
X133444100Y-77111473D01*
X133444099Y-75288528D01*
X133437691Y-75228917D01*
X133387396Y-75094069D01*
X133387395Y-75094068D01*
X133387393Y-75094064D01*
X133301147Y-74978855D01*
X133301144Y-74978852D01*
X133185935Y-74892606D01*
X133185928Y-74892602D01*
X133051082Y-74842308D01*
X133051083Y-74842308D01*
X132991483Y-74835901D01*
X132991481Y-74835900D01*
X132991473Y-74835900D01*
X132991465Y-74835900D01*
X132953710Y-74835900D01*
X132886671Y-74816215D01*
X132866029Y-74799581D01*
X132215942Y-74149495D01*
X132276081Y-74133381D01*
X132391920Y-74066502D01*
X132486502Y-73971920D01*
X132553381Y-73856081D01*
X132569495Y-73795942D01*
X133204887Y-74431335D01*
X133283359Y-74311227D01*
X133374136Y-74104278D01*
X133429611Y-73885213D01*
X133429613Y-73885202D01*
X133448273Y-73660006D01*
X133448273Y-73659993D01*
X156111225Y-73659993D01*
X156111225Y-73660006D01*
X156129892Y-73885289D01*
X156185388Y-74104439D01*
X156276198Y-74311466D01*
X156399842Y-74500716D01*
X156399850Y-74500727D01*
X156531740Y-74643996D01*
X156552954Y-74667040D01*
X156731351Y-74805893D01*
X156754913Y-74818644D01*
X156759165Y-74820945D01*
X156808755Y-74870165D01*
X156823863Y-74938382D01*
X156799692Y-75003937D01*
X156759165Y-75039055D01*
X156731352Y-75054106D01*
X156552955Y-75192959D01*
X156552950Y-75192963D01*
X156399850Y-75359272D01*
X156399842Y-75359283D01*
X156276198Y-75548533D01*
X156185388Y-75755560D01*
X156129892Y-75974710D01*
X156111225Y-76199993D01*
X156111225Y-76200006D01*
X156129892Y-76425289D01*
X156185388Y-76644439D01*
X156276198Y-76851466D01*
X156399842Y-77040716D01*
X156399850Y-77040727D01*
X156519852Y-77171082D01*
X156552954Y-77207040D01*
X156731351Y-77345893D01*
X156759165Y-77360945D01*
X156808755Y-77410165D01*
X156823863Y-77478382D01*
X156799692Y-77543937D01*
X156759165Y-77579055D01*
X156731352Y-77594106D01*
X156552955Y-77732959D01*
X156552950Y-77732963D01*
X156399850Y-77899272D01*
X156399842Y-77899283D01*
X156276198Y-78088533D01*
X156185388Y-78295560D01*
X156129892Y-78514710D01*
X156111225Y-78739993D01*
X156111225Y-78740006D01*
X156129892Y-78965289D01*
X156185388Y-79184439D01*
X156276198Y-79391466D01*
X156399842Y-79580716D01*
X156399850Y-79580727D01*
X156552950Y-79747036D01*
X156552954Y-79747040D01*
X156731351Y-79885893D01*
X156758640Y-79900661D01*
X156759165Y-79900945D01*
X156808755Y-79950165D01*
X156823863Y-80018382D01*
X156799692Y-80083937D01*
X156759165Y-80119055D01*
X156731352Y-80134106D01*
X156552955Y-80272959D01*
X156552950Y-80272963D01*
X156399850Y-80439272D01*
X156399842Y-80439283D01*
X156276198Y-80628533D01*
X156185388Y-80835560D01*
X156129892Y-81054710D01*
X156111225Y-81279993D01*
X156111225Y-81280006D01*
X156129892Y-81505289D01*
X156185388Y-81724439D01*
X156276198Y-81931466D01*
X156399842Y-82120716D01*
X156399850Y-82120727D01*
X156552950Y-82287036D01*
X156552954Y-82287040D01*
X156731351Y-82425893D01*
X156759165Y-82440945D01*
X156808755Y-82490165D01*
X156823863Y-82558382D01*
X156799692Y-82623937D01*
X156759165Y-82659055D01*
X156731352Y-82674106D01*
X156552955Y-82812959D01*
X156552950Y-82812963D01*
X156399850Y-82979272D01*
X156399842Y-82979283D01*
X156276198Y-83168533D01*
X156185388Y-83375560D01*
X156129892Y-83594710D01*
X156111225Y-83819993D01*
X156111225Y-83820006D01*
X156129892Y-84045289D01*
X156185388Y-84264439D01*
X156276198Y-84471466D01*
X156399842Y-84660716D01*
X156399850Y-84660727D01*
X156552950Y-84827036D01*
X156552954Y-84827040D01*
X156731351Y-84965893D01*
X156930169Y-85073488D01*
X156930172Y-85073489D01*
X157143982Y-85146890D01*
X157143984Y-85146890D01*
X157143986Y-85146891D01*
X157366967Y-85184100D01*
X157366968Y-85184100D01*
X157593032Y-85184100D01*
X157593033Y-85184100D01*
X157816014Y-85146891D01*
X158029831Y-85073488D01*
X158228649Y-84965893D01*
X158407046Y-84827040D01*
X158560156Y-84660719D01*
X158683802Y-84471465D01*
X158774611Y-84264441D01*
X158830107Y-84045293D01*
X158840612Y-83918517D01*
X158848775Y-83820006D01*
X158848775Y-83819993D01*
X158830107Y-83594710D01*
X158830107Y-83594707D01*
X158774611Y-83375559D01*
X158683802Y-83168535D01*
X158560156Y-82979281D01*
X158560153Y-82979278D01*
X158560149Y-82979272D01*
X158407049Y-82812963D01*
X158407048Y-82812962D01*
X158407046Y-82812960D01*
X158228649Y-82674107D01*
X158228647Y-82674106D01*
X158228646Y-82674105D01*
X158228639Y-82674100D01*
X158200836Y-82659055D01*
X158151244Y-82609837D01*
X158136135Y-82541620D01*
X158160306Y-82476064D01*
X158200836Y-82440945D01*
X158228639Y-82425899D01*
X158228642Y-82425896D01*
X158228649Y-82425893D01*
X158407046Y-82287040D01*
X158560156Y-82120719D01*
X158683802Y-81931465D01*
X158774611Y-81724441D01*
X158830107Y-81505293D01*
X158848775Y-81280000D01*
X158848775Y-81279993D01*
X158830107Y-81054710D01*
X158830107Y-81054707D01*
X158774611Y-80835559D01*
X158683802Y-80628535D01*
X158560156Y-80439281D01*
X158560153Y-80439278D01*
X158560149Y-80439272D01*
X158407049Y-80272963D01*
X158407048Y-80272962D01*
X158407046Y-80272960D01*
X158228649Y-80134107D01*
X158228647Y-80134106D01*
X158228646Y-80134105D01*
X158228639Y-80134100D01*
X158200836Y-80119055D01*
X158151244Y-80069837D01*
X158136135Y-80001620D01*
X158160306Y-79936064D01*
X158200836Y-79900945D01*
X158228639Y-79885899D01*
X158228642Y-79885896D01*
X158228649Y-79885893D01*
X158407046Y-79747040D01*
X158560156Y-79580719D01*
X158683802Y-79391465D01*
X158774611Y-79184441D01*
X158830107Y-78965293D01*
X158837574Y-78875175D01*
X158848775Y-78740006D01*
X158848775Y-78739993D01*
X158835707Y-78582294D01*
X158830107Y-78514707D01*
X158774611Y-78295559D01*
X158683802Y-78088535D01*
X158560156Y-77899281D01*
X158560153Y-77899278D01*
X158560149Y-77899272D01*
X158407049Y-77732963D01*
X158407048Y-77732962D01*
X158407046Y-77732960D01*
X158228649Y-77594107D01*
X158228647Y-77594106D01*
X158228646Y-77594105D01*
X158228639Y-77594100D01*
X158200836Y-77579055D01*
X158151244Y-77529837D01*
X158136135Y-77461620D01*
X158160306Y-77396064D01*
X158200836Y-77360945D01*
X158228639Y-77345899D01*
X158228645Y-77345895D01*
X158228649Y-77345893D01*
X158407046Y-77207040D01*
X158560156Y-77040719D01*
X158683802Y-76851465D01*
X158774611Y-76644441D01*
X158830107Y-76425293D01*
X158848775Y-76200000D01*
X158848775Y-76199993D01*
X158830107Y-75974710D01*
X158830107Y-75974707D01*
X158774611Y-75755559D01*
X158683802Y-75548535D01*
X158560156Y-75359281D01*
X158560153Y-75359278D01*
X158560149Y-75359272D01*
X158407049Y-75192963D01*
X158407048Y-75192962D01*
X158407046Y-75192960D01*
X158228649Y-75054107D01*
X158228647Y-75054106D01*
X158228646Y-75054105D01*
X158228639Y-75054100D01*
X158200836Y-75039055D01*
X158151244Y-74989837D01*
X158136135Y-74921620D01*
X158160306Y-74856064D01*
X158200836Y-74820945D01*
X158228639Y-74805899D01*
X158228642Y-74805896D01*
X158228649Y-74805893D01*
X158407046Y-74667040D01*
X158560156Y-74500719D01*
X158683802Y-74311465D01*
X158774611Y-74104441D01*
X158830107Y-73885293D01*
X158841272Y-73750546D01*
X158848775Y-73660006D01*
X158848775Y-73659993D01*
X158835707Y-73502294D01*
X158830107Y-73434707D01*
X158774611Y-73215559D01*
X158683802Y-73008535D01*
X158560156Y-72819281D01*
X158560153Y-72819278D01*
X158560149Y-72819272D01*
X158407049Y-72652963D01*
X158407048Y-72652962D01*
X158407046Y-72652960D01*
X158228649Y-72514107D01*
X158202390Y-72499896D01*
X158029832Y-72406512D01*
X158029827Y-72406510D01*
X157816017Y-72333109D01*
X157648778Y-72305202D01*
X157593033Y-72295900D01*
X157366967Y-72295900D01*
X157322370Y-72303341D01*
X157143982Y-72333109D01*
X156930172Y-72406510D01*
X156930167Y-72406512D01*
X156731352Y-72514106D01*
X156552955Y-72652959D01*
X156552950Y-72652963D01*
X156399850Y-72819272D01*
X156399842Y-72819283D01*
X156276198Y-73008533D01*
X156185388Y-73215560D01*
X156129892Y-73434710D01*
X156111225Y-73659993D01*
X133448273Y-73659993D01*
X133429613Y-73434797D01*
X133429611Y-73434786D01*
X133374136Y-73215721D01*
X133283361Y-73008777D01*
X133204887Y-72888663D01*
X132569494Y-73524056D01*
X132553381Y-73463919D01*
X132486502Y-73348080D01*
X132391920Y-73253498D01*
X132276081Y-73186619D01*
X132215942Y-73170505D01*
X132852859Y-72533586D01*
X132852859Y-72533584D01*
X132828382Y-72514533D01*
X132828376Y-72514529D01*
X132629630Y-72406972D01*
X132629624Y-72406970D01*
X132415893Y-72333596D01*
X132192990Y-72296400D01*
X131967010Y-72296400D01*
X131744106Y-72333596D01*
X131530375Y-72406970D01*
X131530369Y-72406972D01*
X131331624Y-72514529D01*
X131331623Y-72514530D01*
X131307139Y-72533585D01*
X131307139Y-72533587D01*
X131944057Y-73170504D01*
X131883919Y-73186619D01*
X131768080Y-73253498D01*
X131673498Y-73348080D01*
X131606619Y-73463919D01*
X131590504Y-73524057D01*
X130955110Y-72888663D01*
X130876639Y-73008774D01*
X130785863Y-73215721D01*
X130730388Y-73434786D01*
X130730386Y-73434797D01*
X130711727Y-73659993D01*
X130711727Y-73660006D01*
X130730386Y-73885202D01*
X130730388Y-73885213D01*
X130785863Y-74104278D01*
X130876638Y-74311222D01*
X130955111Y-74431334D01*
X131590504Y-73795941D01*
X131606619Y-73856081D01*
X131673498Y-73971920D01*
X131768080Y-74066502D01*
X131883919Y-74133381D01*
X131944057Y-74149494D01*
X131293970Y-74799581D01*
X131232647Y-74833066D01*
X131206292Y-74835900D01*
X131168531Y-74835900D01*
X131168523Y-74835901D01*
X131108916Y-74842308D01*
X130974071Y-74892602D01*
X130974064Y-74892606D01*
X130858855Y-74978852D01*
X130858852Y-74978855D01*
X130772606Y-75094064D01*
X130772602Y-75094071D01*
X130722308Y-75228917D01*
X130715901Y-75288516D01*
X130715901Y-75288523D01*
X130715900Y-75288535D01*
X130715900Y-77111470D01*
X130715901Y-77111476D01*
X130722308Y-77171083D01*
X130772602Y-77305928D01*
X130772606Y-77305935D01*
X130858852Y-77421144D01*
X130858855Y-77421147D01*
X130974064Y-77507393D01*
X130974071Y-77507397D01*
X131088983Y-77550256D01*
X131144916Y-77592127D01*
X131169334Y-77657591D01*
X131154483Y-77725864D01*
X131136880Y-77750421D01*
X130999845Y-77899279D01*
X130999842Y-77899283D01*
X130876198Y-78088533D01*
X130785388Y-78295560D01*
X130729892Y-78514710D01*
X130711225Y-78739993D01*
X130711225Y-78740006D01*
X130729892Y-78965289D01*
X130785388Y-79184439D01*
X130876198Y-79391466D01*
X130999842Y-79580716D01*
X130999850Y-79580727D01*
X131152950Y-79747036D01*
X131152954Y-79747040D01*
X131331351Y-79885893D01*
X131358640Y-79900661D01*
X131359165Y-79900945D01*
X131408755Y-79950165D01*
X131423863Y-80018382D01*
X131399692Y-80083937D01*
X131359165Y-80119055D01*
X131331352Y-80134106D01*
X131152955Y-80272959D01*
X131152950Y-80272963D01*
X130999850Y-80439272D01*
X130999842Y-80439283D01*
X130879603Y-80623322D01*
X130826457Y-80668679D01*
X130775795Y-80679500D01*
X122006669Y-80679500D01*
X122006653Y-80679499D01*
X121999057Y-80679499D01*
X121840943Y-80679499D01*
X121733587Y-80708265D01*
X121688210Y-80720424D01*
X121688209Y-80720425D01*
X121638096Y-80749359D01*
X121638095Y-80749360D01*
X121594689Y-80774420D01*
X121551285Y-80799479D01*
X121551282Y-80799481D01*
X121439478Y-80911286D01*
X118418875Y-83931888D01*
X118357552Y-83965373D01*
X118287860Y-83960389D01*
X118231927Y-83918517D01*
X118207510Y-83853053D01*
X118207618Y-83833966D01*
X118208775Y-83820004D01*
X118208775Y-83819993D01*
X118190107Y-83594710D01*
X118190107Y-83594707D01*
X118134611Y-83375559D01*
X118043802Y-83168535D01*
X117920156Y-82979281D01*
X117920153Y-82979278D01*
X117920149Y-82979272D01*
X117767049Y-82812963D01*
X117767048Y-82812962D01*
X117767046Y-82812960D01*
X117588649Y-82674107D01*
X117588647Y-82674106D01*
X117588646Y-82674105D01*
X117588639Y-82674100D01*
X117560836Y-82659055D01*
X117511244Y-82609837D01*
X117496135Y-82541620D01*
X117520306Y-82476064D01*
X117560836Y-82440945D01*
X117588639Y-82425899D01*
X117588642Y-82425896D01*
X117588649Y-82425893D01*
X117767046Y-82287040D01*
X117920156Y-82120719D01*
X118043802Y-81931465D01*
X118134611Y-81724441D01*
X118190107Y-81505293D01*
X118208775Y-81280000D01*
X118208775Y-81279993D01*
X118190107Y-81054710D01*
X118190107Y-81054707D01*
X118134611Y-80835559D01*
X118043802Y-80628535D01*
X117920156Y-80439281D01*
X117920153Y-80439278D01*
X117920149Y-80439272D01*
X117767049Y-80272963D01*
X117767048Y-80272962D01*
X117767046Y-80272960D01*
X117588649Y-80134107D01*
X117588647Y-80134106D01*
X117588646Y-80134105D01*
X117588639Y-80134100D01*
X117560836Y-80119055D01*
X117511244Y-80069837D01*
X117496135Y-80001620D01*
X117520306Y-79936064D01*
X117560836Y-79900945D01*
X117588639Y-79885899D01*
X117588642Y-79885896D01*
X117588649Y-79885893D01*
X117767046Y-79747040D01*
X117920156Y-79580719D01*
X118043802Y-79391465D01*
X118134611Y-79184441D01*
X118190107Y-78965293D01*
X118197574Y-78875175D01*
X118208775Y-78740006D01*
X118208775Y-78739993D01*
X118195707Y-78582294D01*
X118190107Y-78514707D01*
X118134611Y-78295559D01*
X118043802Y-78088535D01*
X117920156Y-77899281D01*
X117920153Y-77899278D01*
X117920149Y-77899272D01*
X117767049Y-77732963D01*
X117767048Y-77732962D01*
X117767046Y-77732960D01*
X117588649Y-77594107D01*
X117588647Y-77594106D01*
X117588646Y-77594105D01*
X117588639Y-77594100D01*
X117560836Y-77579055D01*
X117511244Y-77529837D01*
X117496135Y-77461620D01*
X117520306Y-77396064D01*
X117560836Y-77360945D01*
X117588639Y-77345899D01*
X117588645Y-77345895D01*
X117588649Y-77345893D01*
X117767046Y-77207040D01*
X117920156Y-77040719D01*
X118043802Y-76851465D01*
X118134611Y-76644441D01*
X118190107Y-76425293D01*
X118208775Y-76200000D01*
X118208775Y-76199993D01*
X118190107Y-75974710D01*
X118190107Y-75974707D01*
X118134611Y-75755559D01*
X118043802Y-75548535D01*
X117920156Y-75359281D01*
X117920153Y-75359278D01*
X117920149Y-75359272D01*
X117767049Y-75192963D01*
X117767048Y-75192962D01*
X117767046Y-75192960D01*
X117588649Y-75054107D01*
X117449594Y-74978854D01*
X117389832Y-74946512D01*
X117389826Y-74946510D01*
X117343522Y-74930614D01*
X117286507Y-74890229D01*
X117260376Y-74825429D01*
X117273427Y-74756789D01*
X117321516Y-74706101D01*
X117327472Y-74702857D01*
X117442994Y-74643996D01*
X117589501Y-74537553D01*
X117717553Y-74409501D01*
X117823996Y-74262994D01*
X117906211Y-74101639D01*
X117962171Y-73929409D01*
X117976765Y-73837259D01*
X117990500Y-73750551D01*
X117990500Y-73569448D01*
X117973785Y-73463919D01*
X117962171Y-73390591D01*
X117906211Y-73218361D01*
X117906211Y-73218360D01*
X117872398Y-73152000D01*
X117823996Y-73057006D01*
X117788780Y-73008535D01*
X117717558Y-72910505D01*
X117717554Y-72910500D01*
X117589499Y-72782445D01*
X117589494Y-72782441D01*
X117442997Y-72676006D01*
X117442996Y-72676005D01*
X117442994Y-72676004D01*
X117391300Y-72649664D01*
X117281639Y-72593788D01*
X117281636Y-72593787D01*
X117109410Y-72537829D01*
X116930551Y-72509500D01*
X116930546Y-72509500D01*
X116749454Y-72509500D01*
X116749449Y-72509500D01*
X116570589Y-72537829D01*
X116398363Y-72593787D01*
X116398360Y-72593788D01*
X116237002Y-72676006D01*
X116090505Y-72782441D01*
X116090500Y-72782445D01*
X115962445Y-72910500D01*
X115962441Y-72910505D01*
X115856006Y-73057002D01*
X115773788Y-73218360D01*
X115773787Y-73218363D01*
X115717829Y-73390589D01*
X115689500Y-73569448D01*
X115689500Y-73750551D01*
X115717829Y-73929410D01*
X115773787Y-74101636D01*
X115773788Y-74101639D01*
X115856006Y-74262997D01*
X115962441Y-74409494D01*
X115962445Y-74409499D01*
X116090500Y-74537554D01*
X116090505Y-74537558D01*
X116218287Y-74630396D01*
X116237006Y-74643996D01*
X116352509Y-74702848D01*
X116403305Y-74750823D01*
X116420100Y-74818644D01*
X116397562Y-74884779D01*
X116342847Y-74928230D01*
X116336478Y-74930614D01*
X116290169Y-74946512D01*
X116290167Y-74946512D01*
X116091352Y-75054106D01*
X115912955Y-75192959D01*
X115912950Y-75192963D01*
X115759850Y-75359272D01*
X115759842Y-75359283D01*
X115636198Y-75548533D01*
X115545388Y-75755560D01*
X115489892Y-75974710D01*
X115471225Y-76199993D01*
X102968775Y-76199993D01*
X102950107Y-75974710D01*
X102950107Y-75974707D01*
X102894611Y-75755559D01*
X102803802Y-75548535D01*
X102680156Y-75359281D01*
X102680153Y-75359278D01*
X102680149Y-75359272D01*
X102527049Y-75192963D01*
X102527048Y-75192962D01*
X102527046Y-75192960D01*
X102348649Y-75054107D01*
X102209594Y-74978854D01*
X102149832Y-74946512D01*
X102149826Y-74946510D01*
X102103522Y-74930614D01*
X102046507Y-74890229D01*
X102020376Y-74825429D01*
X102033427Y-74756789D01*
X102081516Y-74706101D01*
X102087472Y-74702857D01*
X102202994Y-74643996D01*
X102349501Y-74537553D01*
X102477553Y-74409501D01*
X102583996Y-74262994D01*
X102666211Y-74101639D01*
X102722171Y-73929409D01*
X102736765Y-73837259D01*
X102750500Y-73750551D01*
X102750500Y-73569448D01*
X102733785Y-73463919D01*
X102722171Y-73390591D01*
X102666211Y-73218361D01*
X102666211Y-73218360D01*
X102632398Y-73152000D01*
X102583996Y-73057006D01*
X102548780Y-73008535D01*
X102477558Y-72910505D01*
X102477554Y-72910500D01*
X102349499Y-72782445D01*
X102349494Y-72782441D01*
X102202997Y-72676006D01*
X102202996Y-72676005D01*
X102202994Y-72676004D01*
X102151300Y-72649664D01*
X102041639Y-72593788D01*
X102041636Y-72593787D01*
X101869410Y-72537829D01*
X101690551Y-72509500D01*
X101690546Y-72509500D01*
X101509454Y-72509500D01*
X101509449Y-72509500D01*
X101330589Y-72537829D01*
X101158363Y-72593787D01*
X101158360Y-72593788D01*
X100997002Y-72676006D01*
X100850505Y-72782441D01*
X100850500Y-72782445D01*
X100722445Y-72910500D01*
X100722441Y-72910505D01*
X100616006Y-73057002D01*
X100533788Y-73218360D01*
X100533787Y-73218363D01*
X100477829Y-73390589D01*
X100449500Y-73569448D01*
X100449500Y-73750551D01*
X100477829Y-73929410D01*
X100533787Y-74101636D01*
X100533788Y-74101639D01*
X100616006Y-74262997D01*
X100722441Y-74409494D01*
X100722445Y-74409499D01*
X100850500Y-74537554D01*
X100850505Y-74537558D01*
X100978287Y-74630396D01*
X100997006Y-74643996D01*
X101112509Y-74702848D01*
X101163305Y-74750823D01*
X101180100Y-74818644D01*
X101157562Y-74884779D01*
X101102847Y-74928230D01*
X101096478Y-74930614D01*
X101050169Y-74946512D01*
X101050167Y-74946512D01*
X100851352Y-75054106D01*
X100672955Y-75192959D01*
X100672950Y-75192963D01*
X100519850Y-75359272D01*
X100519842Y-75359283D01*
X100396198Y-75548533D01*
X100305388Y-75755560D01*
X100249892Y-75974710D01*
X100231225Y-76199993D01*
X99695000Y-76199993D01*
X99695000Y-71879000D01*
X99714685Y-71811961D01*
X99767489Y-71766206D01*
X99819000Y-71755000D01*
X159261000Y-71755000D01*
X159328039Y-71774685D01*
G37*
%TD.AperFunction*%
%TD*%
M02*
