%TF.GenerationSoftware,KiCad,Pcbnew,8.0.3-8.0.3-0~ubuntu22.04.1*%
%TF.CreationDate,2024-06-19T00:00:49-04:00*%
%TF.ProjectId,arduino-nano-esp32,61726475-696e-46f2-9d6e-616e6f2d6573,rev?*%
%TF.SameCoordinates,Original*%
%TF.FileFunction,Copper,L1,Top*%
%TF.FilePolarity,Positive*%
%FSLAX46Y46*%
G04 Gerber Fmt 4.6, Leading zero omitted, Abs format (unit mm)*
G04 Created by KiCad (PCBNEW 8.0.3-8.0.3-0~ubuntu22.04.1) date 2024-06-19 00:00:49*
%MOMM*%
%LPD*%
G01*
G04 APERTURE LIST*
%TA.AperFunction,ComponentPad*%
%ADD10C,1.524000*%
%TD*%
%TA.AperFunction,ComponentPad*%
%ADD11R,1.524000X1.524000*%
%TD*%
%TA.AperFunction,ComponentPad*%
%ADD12C,1.727200*%
%TD*%
%TA.AperFunction,ComponentPad*%
%ADD13R,1.727200X1.727200*%
%TD*%
%TA.AperFunction,Conductor*%
%ADD14C,0.200000*%
%TD*%
G04 APERTURE END LIST*
D10*
%TO.P,SW2,1*%
%TO.N,GND*%
X132080000Y-104140000D03*
%TO.P,SW2,2*%
%TO.N,Net-(A1-PadD2)*%
X132080000Y-99060000D03*
%TO.P,SW2,3*%
%TO.N,unconnected-(SW2-Pad3)*%
X139700000Y-104140000D03*
%TO.P,SW2,4*%
%TO.N,unconnected-(SW2-Pad4)*%
X139700000Y-99060000D03*
%TD*%
%TO.P,SW1,1*%
%TO.N,Net-(A1-PadB1)*%
X132080000Y-114300000D03*
%TO.P,SW1,2*%
%TO.N,GND*%
X132080000Y-109220000D03*
%TO.P,SW1,3*%
%TO.N,unconnected-(SW1-Pad3)*%
X139700000Y-114300000D03*
%TO.P,SW1,4*%
%TO.N,unconnected-(SW1-Pad4)*%
X139700000Y-109220000D03*
%TD*%
%TO.P,RFM95W1,1*%
%TO.N,Net-(A1-PadD3)*%
X132080000Y-93980000D03*
%TO.P,RFM95W1,2*%
%TO.N,Net-(A1-PadD4)*%
X132080000Y-91440000D03*
%TO.P,RFM95W1,3*%
%TO.N,Net-(A1-PadD5)*%
X132080000Y-88900000D03*
%TO.P,RFM95W1,4*%
%TO.N,Net-(A1-PadD6)*%
X132080000Y-86360000D03*
%TO.P,RFM95W1,5*%
%TO.N,Net-(A1-PadD7)*%
X132080000Y-83820000D03*
%TO.P,RFM95W1,6*%
%TO.N,Net-(A1-PadD8)*%
X132080000Y-81280000D03*
%TO.P,RFM95W1,7*%
%TO.N,unconnected-(RFM95W1-Pad7)*%
X132080000Y-78740000D03*
D11*
%TO.P,RFM95W1,8,GND*%
%TO.N,GND*%
X132080000Y-76200000D03*
D10*
%TO.P,RFM95W1,9,VIN*%
%TO.N,+3.3V*%
X132080000Y-73660000D03*
%TO.P,RFM95W1,10*%
%TO.N,unconnected-(RFM95W1-Pad10)*%
X157480000Y-83820000D03*
%TO.P,RFM95W1,11*%
%TO.N,unconnected-(RFM95W1-Pad11)*%
X157480000Y-81280000D03*
%TO.P,RFM95W1,12*%
%TO.N,unconnected-(RFM95W1-Pad12)*%
X157480000Y-78740000D03*
%TO.P,RFM95W1,13*%
%TO.N,unconnected-(RFM95W1-Pad13)*%
X157480000Y-76200000D03*
%TO.P,RFM95W1,14*%
%TO.N,unconnected-(RFM95W1-Pad14)*%
X157480000Y-73660000D03*
%TD*%
D12*
%TO.P,A1,3V3,3.3V*%
%TO.N,+3.3V*%
X101600000Y-78740000D03*
%TO.P,A1,5V,5V*%
%TO.N,+5V*%
X101600000Y-104140000D03*
%TO.P,A1,A0,A0*%
%TO.N,unconnected-(A1-PadA0)*%
X101600000Y-83820000D03*
%TO.P,A1,A1,A1*%
%TO.N,unconnected-(A1-PadA1)*%
X101600000Y-86360000D03*
%TO.P,A1,A2,A2*%
%TO.N,unconnected-(A1-PadA2)*%
X101600000Y-88900000D03*
%TO.P,A1,A3,A3*%
%TO.N,unconnected-(A1-PadA3)*%
X101600000Y-91440000D03*
%TO.P,A1,A4,A4/SDA*%
%TO.N,unconnected-(A1-A4{slash}SDA-PadA4)*%
X101600000Y-93980000D03*
%TO.P,A1,A5,A5/SCL*%
%TO.N,unconnected-(A1-A5{slash}SCL-PadA5)*%
X101600000Y-96520000D03*
%TO.P,A1,A6,A6*%
%TO.N,unconnected-(A1-PadA6)*%
X101600000Y-99060000D03*
%TO.P,A1,A7,A7*%
%TO.N,unconnected-(A1-PadA7)*%
X101600000Y-101600000D03*
%TO.P,A1,B0,B0*%
%TO.N,unconnected-(A1-PadB0)*%
X101600000Y-81280000D03*
%TO.P,A1,B1,B1*%
%TO.N,Net-(A1-PadB1)*%
X101600000Y-106680000D03*
%TO.P,A1,D0,D0/RX*%
%TO.N,unconnected-(A1-D0{slash}RX-PadD0)*%
X116840000Y-109220000D03*
%TO.P,A1,D1,D1/TX*%
%TO.N,unconnected-(A1-D1{slash}TX-PadD1)*%
X116840000Y-111760000D03*
%TO.P,A1,D2,D2*%
%TO.N,Net-(A1-PadD2)*%
X116840000Y-101600000D03*
%TO.P,A1,D3,D3*%
%TO.N,Net-(A1-PadD3)*%
X116840000Y-99060000D03*
%TO.P,A1,D4,D4*%
%TO.N,Net-(A1-PadD4)*%
X116840000Y-96520000D03*
%TO.P,A1,D5,D5*%
%TO.N,Net-(A1-PadD5)*%
X116840000Y-93980000D03*
%TO.P,A1,D6,D6*%
%TO.N,Net-(A1-PadD6)*%
X116840000Y-91440000D03*
%TO.P,A1,D7,D7*%
%TO.N,Net-(A1-PadD7)*%
X116840000Y-88900000D03*
%TO.P,A1,D8,D8*%
%TO.N,Net-(A1-PadD8)*%
X116840000Y-86360000D03*
%TO.P,A1,D9,D9*%
%TO.N,unconnected-(A1-PadD9)*%
X116840000Y-83820000D03*
%TO.P,A1,D10,D10*%
%TO.N,unconnected-(A1-PadD10)*%
X116840000Y-81280000D03*
%TO.P,A1,D11,D11_MOSI*%
%TO.N,unconnected-(A1-D11_MOSI-PadD11)*%
X116840000Y-78740000D03*
%TO.P,A1,D12,D12_MISO*%
%TO.N,unconnected-(A1-D12_MISO-PadD12)*%
X116840000Y-76200000D03*
%TO.P,A1,D13,D13_SCK*%
%TO.N,unconnected-(A1-D13_SCK-PadD13)*%
X101600000Y-76200000D03*
D13*
%TO.P,A1,GND1,GND*%
%TO.N,GND*%
X116840000Y-104140000D03*
%TO.P,A1,GND2,GND*%
X101600000Y-109220000D03*
D12*
%TO.P,A1,RST,~{RESET}*%
%TO.N,unconnected-(A1-~{RESET}-PadRST)*%
X116840000Y-106680000D03*
%TO.P,A1,VIN,VIN*%
%TO.N,unconnected-(A1-PadVIN)*%
X101600000Y-111760000D03*
%TD*%
D14*
%TO.N,Net-(A1-PadB1)*%
X101600000Y-106680000D02*
X104140000Y-106680000D01*
X104140000Y-106680000D02*
X114300000Y-116840000D01*
X114300000Y-116840000D02*
X129540000Y-116840000D01*
X129540000Y-116840000D02*
X132080000Y-114300000D01*
%TO.N,Net-(A1-PadD4)*%
X116840000Y-96520000D02*
X121920000Y-91440000D01*
X121920000Y-91440000D02*
X132080000Y-91440000D01*
%TO.N,Net-(A1-PadD5)*%
X116840000Y-93980000D02*
X121920000Y-88900000D01*
X121920000Y-88900000D02*
X132080000Y-88900000D01*
%TO.N,Net-(A1-PadD8)*%
X132080000Y-81280000D02*
X121920000Y-81280000D01*
X121920000Y-81280000D02*
X116840000Y-86360000D01*
%TO.N,Net-(A1-PadD2)*%
X129540000Y-101600000D02*
X132080000Y-99060000D01*
X116840000Y-101600000D02*
X129540000Y-101600000D01*
%TO.N,Net-(A1-PadD7)*%
X121920000Y-83820000D02*
X132080000Y-83820000D01*
X116840000Y-88900000D02*
X121920000Y-83820000D01*
%TO.N,Net-(A1-PadD3)*%
X116840000Y-99060000D02*
X121920000Y-93980000D01*
X121920000Y-93980000D02*
X132080000Y-93980000D01*
%TO.N,Net-(A1-PadD6)*%
X116840000Y-91440000D02*
X121920000Y-86360000D01*
X121920000Y-86360000D02*
X132080000Y-86360000D01*
%TD*%
%TA.AperFunction,Conductor*%
%TO.N,+3.3V*%
G36*
X133293039Y-71774685D02*
G01*
X133338794Y-71827489D01*
X133350000Y-71879000D01*
X133350000Y-72880239D01*
X133330315Y-72947278D01*
X133277511Y-72993033D01*
X133208353Y-73002977D01*
X133144797Y-72973952D01*
X133134028Y-72962011D01*
X133131740Y-72961810D01*
X132461000Y-73632551D01*
X132461000Y-73609840D01*
X132435036Y-73512939D01*
X132384876Y-73426060D01*
X132313940Y-73355124D01*
X132227061Y-73304964D01*
X132130160Y-73279000D01*
X132107448Y-73279000D01*
X132778188Y-72608259D01*
X132778187Y-72608258D01*
X132713411Y-72562901D01*
X132713405Y-72562898D01*
X132513284Y-72469580D01*
X132513270Y-72469575D01*
X132299986Y-72412426D01*
X132299976Y-72412424D01*
X132080001Y-72393179D01*
X132079999Y-72393179D01*
X131860023Y-72412424D01*
X131860013Y-72412426D01*
X131646729Y-72469575D01*
X131646720Y-72469579D01*
X131446590Y-72562901D01*
X131381811Y-72608258D01*
X132052553Y-73279000D01*
X132029840Y-73279000D01*
X131932939Y-73304964D01*
X131846060Y-73355124D01*
X131775124Y-73426060D01*
X131724964Y-73512939D01*
X131699000Y-73609840D01*
X131699000Y-73632553D01*
X131028258Y-72961811D01*
X130982901Y-73026590D01*
X130889579Y-73226720D01*
X130889575Y-73226729D01*
X130832426Y-73440013D01*
X130832424Y-73440023D01*
X130813179Y-73659999D01*
X130813179Y-73660000D01*
X130832424Y-73879976D01*
X130832426Y-73879986D01*
X130889575Y-74093270D01*
X130889580Y-74093284D01*
X130982898Y-74293405D01*
X130982901Y-74293411D01*
X131028258Y-74358187D01*
X131028259Y-74358188D01*
X131699000Y-73687447D01*
X131699000Y-73710160D01*
X131724964Y-73807061D01*
X131775124Y-73893940D01*
X131846060Y-73964876D01*
X131932939Y-74015036D01*
X132029840Y-74041000D01*
X132052553Y-74041000D01*
X131381810Y-74711740D01*
X131382375Y-74718202D01*
X131414988Y-74759002D01*
X131422182Y-74828500D01*
X131390659Y-74890855D01*
X131330430Y-74926269D01*
X131300240Y-74930000D01*
X117398178Y-74930000D01*
X117331139Y-74910315D01*
X117285384Y-74857511D01*
X117275440Y-74788353D01*
X117304465Y-74724797D01*
X117341883Y-74695515D01*
X117344931Y-74693961D01*
X117442994Y-74643996D01*
X117589501Y-74537553D01*
X117717553Y-74409501D01*
X117823996Y-74262994D01*
X117906211Y-74101639D01*
X117962171Y-73929409D01*
X117981549Y-73807061D01*
X117990500Y-73750551D01*
X117990500Y-73569448D01*
X117970000Y-73440023D01*
X117962171Y-73390591D01*
X117934191Y-73304476D01*
X117906212Y-73218363D01*
X117906211Y-73218360D01*
X117877740Y-73162484D01*
X117823996Y-73057006D01*
X117763654Y-72973952D01*
X117717558Y-72910505D01*
X117717554Y-72910500D01*
X117589499Y-72782445D01*
X117589494Y-72782441D01*
X117442997Y-72676006D01*
X117442996Y-72676005D01*
X117442994Y-72676004D01*
X117391300Y-72649664D01*
X117281639Y-72593788D01*
X117281636Y-72593787D01*
X117109410Y-72537829D01*
X116930551Y-72509500D01*
X116930546Y-72509500D01*
X116749454Y-72509500D01*
X116749449Y-72509500D01*
X116570589Y-72537829D01*
X116398363Y-72593787D01*
X116398360Y-72593788D01*
X116237002Y-72676006D01*
X116090505Y-72782441D01*
X116090500Y-72782445D01*
X115962445Y-72910500D01*
X115962441Y-72910505D01*
X115856006Y-73057002D01*
X115773788Y-73218360D01*
X115773787Y-73218363D01*
X115717829Y-73390589D01*
X115689500Y-73569448D01*
X115689500Y-73750551D01*
X115717829Y-73929410D01*
X115773787Y-74101636D01*
X115773788Y-74101639D01*
X115856006Y-74262997D01*
X115962441Y-74409494D01*
X115962445Y-74409499D01*
X116090500Y-74537554D01*
X116090505Y-74537558D01*
X116218287Y-74630396D01*
X116237006Y-74643996D01*
X116333527Y-74693176D01*
X116338117Y-74695515D01*
X116388913Y-74743490D01*
X116405708Y-74811311D01*
X116383170Y-74877446D01*
X116328455Y-74920897D01*
X116281822Y-74930000D01*
X104140000Y-74930000D01*
X104140000Y-79886000D01*
X104120315Y-79953039D01*
X104067511Y-79998794D01*
X104016000Y-80010000D01*
X102495883Y-80010000D01*
X102428844Y-79990315D01*
X102383089Y-79937511D01*
X102372121Y-79878317D01*
X102372860Y-79866412D01*
X101735942Y-79229495D01*
X101796081Y-79213381D01*
X101911920Y-79146502D01*
X102006502Y-79051920D01*
X102073381Y-78936081D01*
X102089494Y-78875942D01*
X102724887Y-79511335D01*
X102803359Y-79391227D01*
X102894136Y-79184278D01*
X102949611Y-78965213D01*
X102949613Y-78965202D01*
X102968273Y-78740006D01*
X102968273Y-78739993D01*
X102949613Y-78514797D01*
X102949611Y-78514786D01*
X102894136Y-78295721D01*
X102803361Y-78088777D01*
X102724887Y-77968663D01*
X102089494Y-78604056D01*
X102073381Y-78543919D01*
X102006502Y-78428080D01*
X101911920Y-78333498D01*
X101796081Y-78266619D01*
X101735942Y-78250505D01*
X102372859Y-77613586D01*
X102372859Y-77613584D01*
X102348382Y-77594533D01*
X102348371Y-77594526D01*
X102320307Y-77579338D01*
X102270717Y-77530117D01*
X102255610Y-77461901D01*
X102279782Y-77396345D01*
X102320308Y-77361230D01*
X102348649Y-77345893D01*
X102527046Y-77207040D01*
X102680156Y-77040719D01*
X102803802Y-76851465D01*
X102894611Y-76644441D01*
X102950107Y-76425293D01*
X102968775Y-76200000D01*
X102968775Y-76199993D01*
X102950107Y-75974710D01*
X102950107Y-75974707D01*
X102894611Y-75755559D01*
X102803802Y-75548535D01*
X102680156Y-75359281D01*
X102680153Y-75359278D01*
X102680149Y-75359272D01*
X102527049Y-75192963D01*
X102527048Y-75192962D01*
X102527046Y-75192960D01*
X102348649Y-75054107D01*
X102322390Y-75039896D01*
X102149832Y-74946512D01*
X102149826Y-74946510D01*
X102103522Y-74930614D01*
X102046507Y-74890229D01*
X102020376Y-74825429D01*
X102033427Y-74756789D01*
X102081516Y-74706101D01*
X102087472Y-74702857D01*
X102202994Y-74643996D01*
X102349501Y-74537553D01*
X102477553Y-74409501D01*
X102583996Y-74262994D01*
X102666211Y-74101639D01*
X102722171Y-73929409D01*
X102741549Y-73807061D01*
X102750500Y-73750551D01*
X102750500Y-73569448D01*
X102730000Y-73440023D01*
X102722171Y-73390591D01*
X102694191Y-73304476D01*
X102666212Y-73218363D01*
X102666211Y-73218360D01*
X102637740Y-73162484D01*
X102583996Y-73057006D01*
X102523654Y-72973952D01*
X102477558Y-72910505D01*
X102477554Y-72910500D01*
X102349499Y-72782445D01*
X102349494Y-72782441D01*
X102202997Y-72676006D01*
X102202996Y-72676005D01*
X102202994Y-72676004D01*
X102151300Y-72649664D01*
X102041639Y-72593788D01*
X102041636Y-72593787D01*
X101869410Y-72537829D01*
X101690551Y-72509500D01*
X101690546Y-72509500D01*
X101509454Y-72509500D01*
X101509449Y-72509500D01*
X101330589Y-72537829D01*
X101158363Y-72593787D01*
X101158360Y-72593788D01*
X100997002Y-72676006D01*
X100850505Y-72782441D01*
X100850500Y-72782445D01*
X100722445Y-72910500D01*
X100722441Y-72910505D01*
X100616006Y-73057002D01*
X100533788Y-73218360D01*
X100533787Y-73218363D01*
X100477829Y-73390589D01*
X100449500Y-73569448D01*
X100449500Y-73750551D01*
X100477829Y-73929410D01*
X100533787Y-74101636D01*
X100533788Y-74101639D01*
X100616006Y-74262997D01*
X100722441Y-74409494D01*
X100722445Y-74409499D01*
X100850500Y-74537554D01*
X100850505Y-74537558D01*
X100978287Y-74630396D01*
X100997006Y-74643996D01*
X101098117Y-74695515D01*
X101112509Y-74702848D01*
X101163305Y-74750823D01*
X101180100Y-74818644D01*
X101157562Y-74884779D01*
X101102847Y-74928230D01*
X101096478Y-74930614D01*
X101050169Y-74946512D01*
X101050167Y-74946512D01*
X100851352Y-75054106D01*
X100672955Y-75192959D01*
X100672950Y-75192963D01*
X100519850Y-75359272D01*
X100519842Y-75359283D01*
X100396198Y-75548533D01*
X100305388Y-75755560D01*
X100249892Y-75974710D01*
X100231225Y-76199993D01*
X100231225Y-76200006D01*
X100249892Y-76425289D01*
X100305388Y-76644439D01*
X100396198Y-76851466D01*
X100519842Y-77040716D01*
X100519850Y-77040727D01*
X100670460Y-77204331D01*
X100672954Y-77207040D01*
X100851351Y-77345893D01*
X100851353Y-77345894D01*
X100851360Y-77345899D01*
X100879689Y-77361229D01*
X100929280Y-77410447D01*
X100944390Y-77478664D01*
X100920220Y-77544220D01*
X100879694Y-77579337D01*
X100851629Y-77594525D01*
X100851623Y-77594530D01*
X100827139Y-77613585D01*
X100827139Y-77613587D01*
X101464057Y-78250504D01*
X101403919Y-78266619D01*
X101288080Y-78333498D01*
X101193498Y-78428080D01*
X101126619Y-78543919D01*
X101110504Y-78604057D01*
X100475110Y-77968663D01*
X100396639Y-78088774D01*
X100305863Y-78295721D01*
X100250388Y-78514786D01*
X100250386Y-78514797D01*
X100231727Y-78739993D01*
X100231727Y-78740006D01*
X100250386Y-78965202D01*
X100250388Y-78965213D01*
X100305863Y-79184278D01*
X100396638Y-79391222D01*
X100475111Y-79511334D01*
X101110504Y-78875941D01*
X101126619Y-78936081D01*
X101193498Y-79051920D01*
X101288080Y-79146502D01*
X101403919Y-79213381D01*
X101464057Y-79229495D01*
X100827139Y-79866413D01*
X100827878Y-79878317D01*
X100812385Y-79946447D01*
X100762517Y-79995386D01*
X100704116Y-80010000D01*
X99819000Y-80010000D01*
X99751961Y-79990315D01*
X99706206Y-79937511D01*
X99695000Y-79886000D01*
X99695000Y-71879000D01*
X99714685Y-71811961D01*
X99767489Y-71766206D01*
X99819000Y-71755000D01*
X133226000Y-71755000D01*
X133293039Y-71774685D01*
G37*
%TD.AperFunction*%
%TA.AperFunction,Conductor*%
G36*
X133131741Y-74358188D02*
G01*
X133138203Y-74357622D01*
X133179002Y-74325011D01*
X133248500Y-74317817D01*
X133310855Y-74349340D01*
X133346269Y-74409569D01*
X133350000Y-74439759D01*
X133350000Y-74806000D01*
X133330315Y-74873039D01*
X133277511Y-74918794D01*
X133226000Y-74930000D01*
X132859760Y-74930000D01*
X132792721Y-74910315D01*
X132746966Y-74857511D01*
X132737022Y-74788353D01*
X132766047Y-74724797D01*
X132777987Y-74714028D01*
X132778188Y-74711741D01*
X132107448Y-74041000D01*
X132130160Y-74041000D01*
X132227061Y-74015036D01*
X132313940Y-73964876D01*
X132384876Y-73893940D01*
X132435036Y-73807061D01*
X132461000Y-73710160D01*
X132461000Y-73687447D01*
X133131741Y-74358188D01*
G37*
%TD.AperFunction*%
%TD*%
M02*
