%TF.GenerationSoftware,KiCad,Pcbnew,8.0.3-8.0.3-0~ubuntu22.04.1*%
%TF.CreationDate,2024-06-15T09:41:24-04:00*%
%TF.ProjectId,anotherone,616e6f74-6865-4726-9f6e-652e6b696361,rev?*%
%TF.SameCoordinates,Original*%
%TF.FileFunction,Legend,Top*%
%TF.FilePolarity,Positive*%
%FSLAX46Y46*%
G04 Gerber Fmt 4.6, Leading zero omitted, Abs format (unit mm)*
G04 Created by KiCad (PCBNEW 8.0.3-8.0.3-0~ubuntu22.04.1) date 2024-06-15 09:41:24*
%MOMM*%
%LPD*%
G01*
G04 APERTURE LIST*
%ADD10C,0.100000*%
%ADD11C,0.150000*%
%ADD12C,0.050000*%
%ADD13C,0.120000*%
G04 APERTURE END LIST*
D10*
X142877217Y-111108609D02*
X143020074Y-111156228D01*
X143020074Y-111156228D02*
X143067693Y-111203847D01*
X143067693Y-111203847D02*
X143115312Y-111299085D01*
X143115312Y-111299085D02*
X143115312Y-111441942D01*
X143115312Y-111441942D02*
X143067693Y-111537180D01*
X143067693Y-111537180D02*
X143020074Y-111584800D01*
X143020074Y-111584800D02*
X142924836Y-111632419D01*
X142924836Y-111632419D02*
X142543884Y-111632419D01*
X142543884Y-111632419D02*
X142543884Y-110632419D01*
X142543884Y-110632419D02*
X142877217Y-110632419D01*
X142877217Y-110632419D02*
X142972455Y-110680038D01*
X142972455Y-110680038D02*
X143020074Y-110727657D01*
X143020074Y-110727657D02*
X143067693Y-110822895D01*
X143067693Y-110822895D02*
X143067693Y-110918133D01*
X143067693Y-110918133D02*
X143020074Y-111013371D01*
X143020074Y-111013371D02*
X142972455Y-111060990D01*
X142972455Y-111060990D02*
X142877217Y-111108609D01*
X142877217Y-111108609D02*
X142543884Y-111108609D01*
X143734360Y-110632419D02*
X143924836Y-110632419D01*
X143924836Y-110632419D02*
X144020074Y-110680038D01*
X144020074Y-110680038D02*
X144115312Y-110775276D01*
X144115312Y-110775276D02*
X144162931Y-110965752D01*
X144162931Y-110965752D02*
X144162931Y-111299085D01*
X144162931Y-111299085D02*
X144115312Y-111489561D01*
X144115312Y-111489561D02*
X144020074Y-111584800D01*
X144020074Y-111584800D02*
X143924836Y-111632419D01*
X143924836Y-111632419D02*
X143734360Y-111632419D01*
X143734360Y-111632419D02*
X143639122Y-111584800D01*
X143639122Y-111584800D02*
X143543884Y-111489561D01*
X143543884Y-111489561D02*
X143496265Y-111299085D01*
X143496265Y-111299085D02*
X143496265Y-110965752D01*
X143496265Y-110965752D02*
X143543884Y-110775276D01*
X143543884Y-110775276D02*
X143639122Y-110680038D01*
X143639122Y-110680038D02*
X143734360Y-110632419D01*
X144781979Y-110632419D02*
X144972455Y-110632419D01*
X144972455Y-110632419D02*
X145067693Y-110680038D01*
X145067693Y-110680038D02*
X145162931Y-110775276D01*
X145162931Y-110775276D02*
X145210550Y-110965752D01*
X145210550Y-110965752D02*
X145210550Y-111299085D01*
X145210550Y-111299085D02*
X145162931Y-111489561D01*
X145162931Y-111489561D02*
X145067693Y-111584800D01*
X145067693Y-111584800D02*
X144972455Y-111632419D01*
X144972455Y-111632419D02*
X144781979Y-111632419D01*
X144781979Y-111632419D02*
X144686741Y-111584800D01*
X144686741Y-111584800D02*
X144591503Y-111489561D01*
X144591503Y-111489561D02*
X144543884Y-111299085D01*
X144543884Y-111299085D02*
X144543884Y-110965752D01*
X144543884Y-110965752D02*
X144591503Y-110775276D01*
X144591503Y-110775276D02*
X144686741Y-110680038D01*
X144686741Y-110680038D02*
X144781979Y-110632419D01*
X145496265Y-110632419D02*
X146067693Y-110632419D01*
X145781979Y-111632419D02*
X145781979Y-110632419D01*
X143020074Y-101472419D02*
X142543884Y-101472419D01*
X142543884Y-101472419D02*
X142543884Y-100472419D01*
X143353408Y-100948609D02*
X143686741Y-100948609D01*
X143829598Y-101472419D02*
X143353408Y-101472419D01*
X143353408Y-101472419D02*
X143353408Y-100472419D01*
X143353408Y-100472419D02*
X143829598Y-100472419D01*
X144258170Y-101472419D02*
X144258170Y-100472419D01*
X144258170Y-100472419D02*
X144496265Y-100472419D01*
X144496265Y-100472419D02*
X144639122Y-100520038D01*
X144639122Y-100520038D02*
X144734360Y-100615276D01*
X144734360Y-100615276D02*
X144781979Y-100710514D01*
X144781979Y-100710514D02*
X144829598Y-100900990D01*
X144829598Y-100900990D02*
X144829598Y-101043847D01*
X144829598Y-101043847D02*
X144781979Y-101234323D01*
X144781979Y-101234323D02*
X144734360Y-101329561D01*
X144734360Y-101329561D02*
X144639122Y-101424800D01*
X144639122Y-101424800D02*
X144496265Y-101472419D01*
X144496265Y-101472419D02*
X144258170Y-101472419D01*
D11*
X110481904Y-76745180D02*
X110481904Y-75935657D01*
X110481904Y-75935657D02*
X110434285Y-75840419D01*
X110434285Y-75840419D02*
X110386666Y-75792800D01*
X110386666Y-75792800D02*
X110291428Y-75745180D01*
X110291428Y-75745180D02*
X110100952Y-75745180D01*
X110100952Y-75745180D02*
X110005714Y-75792800D01*
X110005714Y-75792800D02*
X109958095Y-75840419D01*
X109958095Y-75840419D02*
X109910476Y-75935657D01*
X109910476Y-75935657D02*
X109910476Y-76745180D01*
X109481904Y-75792800D02*
X109339047Y-75745180D01*
X109339047Y-75745180D02*
X109100952Y-75745180D01*
X109100952Y-75745180D02*
X109005714Y-75792800D01*
X109005714Y-75792800D02*
X108958095Y-75840419D01*
X108958095Y-75840419D02*
X108910476Y-75935657D01*
X108910476Y-75935657D02*
X108910476Y-76030895D01*
X108910476Y-76030895D02*
X108958095Y-76126133D01*
X108958095Y-76126133D02*
X109005714Y-76173752D01*
X109005714Y-76173752D02*
X109100952Y-76221371D01*
X109100952Y-76221371D02*
X109291428Y-76268990D01*
X109291428Y-76268990D02*
X109386666Y-76316609D01*
X109386666Y-76316609D02*
X109434285Y-76364228D01*
X109434285Y-76364228D02*
X109481904Y-76459466D01*
X109481904Y-76459466D02*
X109481904Y-76554704D01*
X109481904Y-76554704D02*
X109434285Y-76649942D01*
X109434285Y-76649942D02*
X109386666Y-76697561D01*
X109386666Y-76697561D02*
X109291428Y-76745180D01*
X109291428Y-76745180D02*
X109053333Y-76745180D01*
X109053333Y-76745180D02*
X108910476Y-76697561D01*
X108148571Y-76268990D02*
X108005714Y-76221371D01*
X108005714Y-76221371D02*
X107958095Y-76173752D01*
X107958095Y-76173752D02*
X107910476Y-76078514D01*
X107910476Y-76078514D02*
X107910476Y-75935657D01*
X107910476Y-75935657D02*
X107958095Y-75840419D01*
X107958095Y-75840419D02*
X108005714Y-75792800D01*
X108005714Y-75792800D02*
X108100952Y-75745180D01*
X108100952Y-75745180D02*
X108481904Y-75745180D01*
X108481904Y-75745180D02*
X108481904Y-76745180D01*
X108481904Y-76745180D02*
X108148571Y-76745180D01*
X108148571Y-76745180D02*
X108053333Y-76697561D01*
X108053333Y-76697561D02*
X108005714Y-76649942D01*
X108005714Y-76649942D02*
X107958095Y-76554704D01*
X107958095Y-76554704D02*
X107958095Y-76459466D01*
X107958095Y-76459466D02*
X108005714Y-76364228D01*
X108005714Y-76364228D02*
X108053333Y-76316609D01*
X108053333Y-76316609D02*
X108148571Y-76268990D01*
X108148571Y-76268990D02*
X108481904Y-76268990D01*
D10*
%TO.C,REF\u002A\u002A*%
X132080000Y-104140000D02*
X132080000Y-99060000D01*
X139700000Y-104140000D02*
X132080000Y-104140000D01*
X132080000Y-99060000D02*
X139700000Y-99060000D01*
X139700000Y-99060000D02*
X139700000Y-104140000D01*
X132080000Y-114300000D02*
X132080000Y-109220000D01*
X139700000Y-114300000D02*
X132080000Y-114300000D01*
X132080000Y-109220000D02*
X139700000Y-109220000D01*
X139700000Y-109220000D02*
X139700000Y-114300000D01*
D12*
X129540000Y-96520000D02*
X129540000Y-71120000D01*
X160020000Y-96520000D02*
X129540000Y-96520000D01*
X129540000Y-71120000D02*
X160020000Y-71120000D01*
X160020000Y-71120000D02*
X160020000Y-96520000D01*
D13*
X118240000Y-115700000D02*
X118240000Y-113030000D01*
X118240000Y-110490000D02*
X118240000Y-72260000D01*
X118240000Y-72260000D02*
X113160000Y-72260000D01*
X115570000Y-113030000D02*
X118240000Y-113030000D01*
X115570000Y-110490000D02*
X118240000Y-110490000D01*
X115570000Y-110490000D02*
X115570000Y-113030000D01*
X115570000Y-110490000D02*
X115570000Y-74930000D01*
X115570000Y-74930000D02*
X118240000Y-74930000D01*
X113160000Y-80140000D02*
X105280000Y-80140000D01*
X113160000Y-69720000D02*
X113160000Y-80140000D01*
X105280000Y-80140000D02*
X105280000Y-69720000D01*
X105280000Y-69720000D02*
X113160000Y-69720000D01*
X102870000Y-113030000D02*
X102870000Y-74930000D01*
X102870000Y-113030000D02*
X100200000Y-113030000D01*
X102870000Y-74930000D02*
X100200000Y-74930000D01*
X100200000Y-115700000D02*
X118240000Y-115700000D01*
X100200000Y-72260000D02*
X105280000Y-72260000D01*
X100200000Y-72260000D02*
X100200000Y-115700000D01*
%TD*%
M02*
