%TF.GenerationSoftware,KiCad,Pcbnew,8.0.3-8.0.3-0~ubuntu22.04.1*%
%TF.CreationDate,2024-06-15T09:41:24-04:00*%
%TF.ProjectId,anotherone,616e6f74-6865-4726-9f6e-652e6b696361,rev?*%
%TF.SameCoordinates,Original*%
%TF.FileFunction,Copper,L2,Bot*%
%TF.FilePolarity,Positive*%
%FSLAX46Y46*%
G04 Gerber Fmt 4.6, Leading zero omitted, Abs format (unit mm)*
G04 Created by KiCad (PCBNEW 8.0.3-8.0.3-0~ubuntu22.04.1) date 2024-06-15 09:41:24*
%MOMM*%
%LPD*%
G01*
G04 APERTURE LIST*
%TA.AperFunction,ComponentPad*%
%ADD10C,1.524000*%
%TD*%
%TA.AperFunction,ComponentPad*%
%ADD11R,1.600000X1.600000*%
%TD*%
%TA.AperFunction,ComponentPad*%
%ADD12O,1.600000X1.600000*%
%TD*%
%TA.AperFunction,Conductor*%
%ADD13C,0.200000*%
%TD*%
G04 APERTURE END LIST*
D10*
%TO.P,REF\u002A\u002A,1*%
%TO.N,N/C*%
X132080000Y-104140000D03*
%TO.P,REF\u002A\u002A,2*%
X132080000Y-99060000D03*
%TO.P,REF\u002A\u002A,3*%
X139700000Y-104140000D03*
%TO.P,REF\u002A\u002A,4*%
X139700000Y-99060000D03*
%TD*%
%TO.P,REF\u002A\u002A,1*%
%TO.N,N/C*%
X132080000Y-114300000D03*
%TO.P,REF\u002A\u002A,2*%
X132080000Y-109220000D03*
%TO.P,REF\u002A\u002A,3*%
X139700000Y-114300000D03*
%TO.P,REF\u002A\u002A,4*%
X139700000Y-109220000D03*
%TD*%
%TO.P,REF\u002A\u002A,1*%
%TO.N,N/C*%
X132080000Y-93980000D03*
%TO.P,REF\u002A\u002A,2*%
X132080000Y-91440000D03*
%TO.P,REF\u002A\u002A,3*%
X132080000Y-88900000D03*
%TO.P,REF\u002A\u002A,4*%
X132080000Y-86360000D03*
%TO.P,REF\u002A\u002A,5*%
X132080000Y-83820000D03*
%TO.P,REF\u002A\u002A,6*%
X132080000Y-81280000D03*
%TO.P,REF\u002A\u002A,7*%
X132080000Y-78740000D03*
%TO.P,REF\u002A\u002A,8*%
X132080000Y-76200000D03*
%TO.P,REF\u002A\u002A,9*%
X132080000Y-73660000D03*
%TO.P,REF\u002A\u002A,10*%
X157480000Y-83820000D03*
%TO.P,REF\u002A\u002A,11*%
X157480000Y-81280000D03*
%TO.P,REF\u002A\u002A,12*%
X157480000Y-78740000D03*
%TO.P,REF\u002A\u002A,13*%
X157480000Y-76200000D03*
%TO.P,REF\u002A\u002A,14*%
X157480000Y-73660000D03*
%TD*%
D11*
%TO.P,REF\u002A\u002A,1*%
%TO.N,N/C*%
X116840000Y-111760000D03*
D12*
%TO.P,REF\u002A\u002A,2*%
X116840000Y-109220000D03*
%TO.P,REF\u002A\u002A,3*%
X116840000Y-106680000D03*
%TO.P,REF\u002A\u002A,4*%
X116840000Y-104140000D03*
%TO.P,REF\u002A\u002A,5*%
X116840000Y-101600000D03*
%TO.P,REF\u002A\u002A,6*%
X116840000Y-99060000D03*
%TO.P,REF\u002A\u002A,7*%
X116840000Y-96520000D03*
%TO.P,REF\u002A\u002A,8*%
X116840000Y-93980000D03*
%TO.P,REF\u002A\u002A,9*%
X116840000Y-91440000D03*
%TO.P,REF\u002A\u002A,10*%
X116840000Y-88900000D03*
%TO.P,REF\u002A\u002A,11*%
X116840000Y-86360000D03*
%TO.P,REF\u002A\u002A,12*%
X116840000Y-83820000D03*
%TO.P,REF\u002A\u002A,13*%
X116840000Y-81280000D03*
%TO.P,REF\u002A\u002A,14*%
X116840000Y-78740000D03*
%TO.P,REF\u002A\u002A,15*%
X116840000Y-76200000D03*
%TO.P,REF\u002A\u002A,16*%
X101600000Y-76200000D03*
%TO.P,REF\u002A\u002A,17*%
X101600000Y-78740000D03*
%TO.P,REF\u002A\u002A,18*%
X101600000Y-81280000D03*
%TO.P,REF\u002A\u002A,19*%
X101600000Y-83820000D03*
%TO.P,REF\u002A\u002A,20*%
X101600000Y-86360000D03*
%TO.P,REF\u002A\u002A,21*%
X101600000Y-88900000D03*
%TO.P,REF\u002A\u002A,22*%
X101600000Y-91440000D03*
%TO.P,REF\u002A\u002A,23*%
X101600000Y-93980000D03*
%TO.P,REF\u002A\u002A,24*%
X101600000Y-96520000D03*
%TO.P,REF\u002A\u002A,25*%
X101600000Y-99060000D03*
%TO.P,REF\u002A\u002A,26*%
X101600000Y-101600000D03*
%TO.P,REF\u002A\u002A,27*%
X101600000Y-104140000D03*
%TO.P,REF\u002A\u002A,28*%
X101600000Y-106680000D03*
%TO.P,REF\u002A\u002A,29*%
X101600000Y-109220000D03*
%TO.P,REF\u002A\u002A,30*%
X101600000Y-111760000D03*
%TD*%
D13*
%TO.N,*%
X124460000Y-78740000D02*
X127000000Y-76200000D01*
X124460000Y-101600000D02*
X124460000Y-78740000D01*
X121920000Y-104140000D02*
X132080000Y-104140000D01*
X127000000Y-76200000D02*
X132080000Y-76200000D01*
X116840000Y-104140000D02*
X121920000Y-104140000D01*
X132080000Y-104140000D02*
X132080000Y-109220000D01*
X121920000Y-104140000D02*
X124460000Y-101600000D01*
%TD*%
M02*
