%TF.GenerationSoftware,KiCad,Pcbnew,8.0.3-8.0.3-0~ubuntu22.04.1*%
%TF.CreationDate,2024-06-21T21:23:30-04:00*%
%TF.ProjectId,arduino-nano-esp32,61726475-696e-46f2-9d6e-616e6f2d6573,rev?*%
%TF.SameCoordinates,Original*%
%TF.FileFunction,Soldermask,Top*%
%TF.FilePolarity,Negative*%
%FSLAX46Y46*%
G04 Gerber Fmt 4.6, Leading zero omitted, Abs format (unit mm)*
G04 Created by KiCad (PCBNEW 8.0.3-8.0.3-0~ubuntu22.04.1) date 2024-06-21 21:23:30*
%MOMM*%
%LPD*%
G01*
G04 APERTURE LIST*
%ADD10C,1.524000*%
%ADD11R,1.524000X1.524000*%
%ADD12C,1.800000*%
%ADD13C,1.727200*%
%ADD14R,1.727200X1.727200*%
G04 APERTURE END LIST*
D10*
%TO.C,RFM95W1*%
X132080000Y-93980000D03*
X132080000Y-91440000D03*
X132080000Y-88900000D03*
X132080000Y-86360000D03*
X132080000Y-83820000D03*
X132080000Y-81280000D03*
X132080000Y-78740000D03*
D11*
X132080000Y-76200000D03*
D10*
X132080000Y-73660000D03*
X157480000Y-83820000D03*
X157480000Y-81280000D03*
X157480000Y-78740000D03*
X157480000Y-76200000D03*
X157480000Y-73660000D03*
%TD*%
%TO.C,SW1*%
X132080000Y-114300000D03*
X132080000Y-109220000D03*
X139700000Y-114300000D03*
X139700000Y-109220000D03*
%TD*%
D12*
%TO.C,A1*%
X116840000Y-114300000D03*
X116840000Y-73660000D03*
X101600000Y-114300000D03*
X101600000Y-73660000D03*
D13*
X101600000Y-78740000D03*
X101600000Y-104140000D03*
X101600000Y-83820000D03*
X101600000Y-86360000D03*
X101600000Y-88900000D03*
X101600000Y-91440000D03*
X101600000Y-93980000D03*
X101600000Y-96520000D03*
X101600000Y-99060000D03*
X101600000Y-101600000D03*
X101600000Y-81280000D03*
X101600000Y-106680000D03*
X116840000Y-109220000D03*
X116840000Y-111760000D03*
X116840000Y-101600000D03*
X116840000Y-99060000D03*
X116840000Y-96520000D03*
X116840000Y-93980000D03*
X116840000Y-91440000D03*
X116840000Y-88900000D03*
X116840000Y-86360000D03*
X116840000Y-83820000D03*
X116840000Y-81280000D03*
X116840000Y-78740000D03*
X116840000Y-76200000D03*
X101600000Y-76200000D03*
D14*
X116840000Y-104140000D03*
X101600000Y-109220000D03*
D13*
X116840000Y-106680000D03*
X101600000Y-111760000D03*
%TD*%
D10*
%TO.C,SW2*%
X132080000Y-104140000D03*
X132080000Y-99060000D03*
X139700000Y-104140000D03*
X139700000Y-99060000D03*
%TD*%
M02*
