%TF.GenerationSoftware,KiCad,Pcbnew,8.0.3-8.0.3-0~ubuntu22.04.1*%
%TF.CreationDate,2024-06-19T00:56:14-04:00*%
%TF.ProjectId,esp32-s3-wroom-2-devkitc1,65737033-322d-4733-932d-77726f6f6d2d,rev?*%
%TF.SameCoordinates,Original*%
%TF.FileFunction,Legend,Top*%
%TF.FilePolarity,Positive*%
%FSLAX46Y46*%
G04 Gerber Fmt 4.6, Leading zero omitted, Abs format (unit mm)*
G04 Created by KiCad (PCBNEW 8.0.3-8.0.3-0~ubuntu22.04.1) date 2024-06-19 00:56:14*
%MOMM*%
%LPD*%
G01*
G04 APERTURE LIST*
%ADD10C,0.150000*%
%ADD11C,0.100000*%
G04 APERTURE END LIST*
D10*
X179006666Y-111854819D02*
X178673333Y-111378628D01*
X178435238Y-111854819D02*
X178435238Y-110854819D01*
X178435238Y-110854819D02*
X178816190Y-110854819D01*
X178816190Y-110854819D02*
X178911428Y-110902438D01*
X178911428Y-110902438D02*
X178959047Y-110950057D01*
X178959047Y-110950057D02*
X179006666Y-111045295D01*
X179006666Y-111045295D02*
X179006666Y-111188152D01*
X179006666Y-111188152D02*
X178959047Y-111283390D01*
X178959047Y-111283390D02*
X178911428Y-111331009D01*
X178911428Y-111331009D02*
X178816190Y-111378628D01*
X178816190Y-111378628D02*
X178435238Y-111378628D01*
X179435238Y-111331009D02*
X179768571Y-111331009D01*
X179911428Y-111854819D02*
X179435238Y-111854819D01*
X179435238Y-111854819D02*
X179435238Y-110854819D01*
X179435238Y-110854819D02*
X179911428Y-110854819D01*
X180673333Y-111331009D02*
X180340000Y-111331009D01*
X180340000Y-111854819D02*
X180340000Y-110854819D01*
X180340000Y-110854819D02*
X180816190Y-110854819D01*
X181340000Y-110854819D02*
X181340000Y-111092914D01*
X181101905Y-110997676D02*
X181340000Y-111092914D01*
X181340000Y-111092914D02*
X181578095Y-110997676D01*
X181197143Y-111283390D02*
X181340000Y-111092914D01*
X181340000Y-111092914D02*
X181482857Y-111283390D01*
X182101905Y-110854819D02*
X182101905Y-111092914D01*
X181863810Y-110997676D02*
X182101905Y-111092914D01*
X182101905Y-111092914D02*
X182340000Y-110997676D01*
X181959048Y-111283390D02*
X182101905Y-111092914D01*
X182101905Y-111092914D02*
X182244762Y-111283390D01*
X115506666Y-111854819D02*
X115173333Y-111378628D01*
X114935238Y-111854819D02*
X114935238Y-110854819D01*
X114935238Y-110854819D02*
X115316190Y-110854819D01*
X115316190Y-110854819D02*
X115411428Y-110902438D01*
X115411428Y-110902438D02*
X115459047Y-110950057D01*
X115459047Y-110950057D02*
X115506666Y-111045295D01*
X115506666Y-111045295D02*
X115506666Y-111188152D01*
X115506666Y-111188152D02*
X115459047Y-111283390D01*
X115459047Y-111283390D02*
X115411428Y-111331009D01*
X115411428Y-111331009D02*
X115316190Y-111378628D01*
X115316190Y-111378628D02*
X114935238Y-111378628D01*
X115935238Y-111331009D02*
X116268571Y-111331009D01*
X116411428Y-111854819D02*
X115935238Y-111854819D01*
X115935238Y-111854819D02*
X115935238Y-110854819D01*
X115935238Y-110854819D02*
X116411428Y-110854819D01*
X117173333Y-111331009D02*
X116840000Y-111331009D01*
X116840000Y-111854819D02*
X116840000Y-110854819D01*
X116840000Y-110854819D02*
X117316190Y-110854819D01*
X117840000Y-110854819D02*
X117840000Y-111092914D01*
X117601905Y-110997676D02*
X117840000Y-111092914D01*
X117840000Y-111092914D02*
X118078095Y-110997676D01*
X117697143Y-111283390D02*
X117840000Y-111092914D01*
X117840000Y-111092914D02*
X117982857Y-111283390D01*
X118601905Y-110854819D02*
X118601905Y-111092914D01*
X118363810Y-110997676D02*
X118601905Y-111092914D01*
X118601905Y-111092914D02*
X118840000Y-110997676D01*
X118459048Y-111283390D02*
X118601905Y-111092914D01*
X118601905Y-111092914D02*
X118744762Y-111283390D01*
X179006666Y-55974819D02*
X178673333Y-55498628D01*
X178435238Y-55974819D02*
X178435238Y-54974819D01*
X178435238Y-54974819D02*
X178816190Y-54974819D01*
X178816190Y-54974819D02*
X178911428Y-55022438D01*
X178911428Y-55022438D02*
X178959047Y-55070057D01*
X178959047Y-55070057D02*
X179006666Y-55165295D01*
X179006666Y-55165295D02*
X179006666Y-55308152D01*
X179006666Y-55308152D02*
X178959047Y-55403390D01*
X178959047Y-55403390D02*
X178911428Y-55451009D01*
X178911428Y-55451009D02*
X178816190Y-55498628D01*
X178816190Y-55498628D02*
X178435238Y-55498628D01*
X179435238Y-55451009D02*
X179768571Y-55451009D01*
X179911428Y-55974819D02*
X179435238Y-55974819D01*
X179435238Y-55974819D02*
X179435238Y-54974819D01*
X179435238Y-54974819D02*
X179911428Y-54974819D01*
X180673333Y-55451009D02*
X180340000Y-55451009D01*
X180340000Y-55974819D02*
X180340000Y-54974819D01*
X180340000Y-54974819D02*
X180816190Y-54974819D01*
X181340000Y-54974819D02*
X181340000Y-55212914D01*
X181101905Y-55117676D02*
X181340000Y-55212914D01*
X181340000Y-55212914D02*
X181578095Y-55117676D01*
X181197143Y-55403390D02*
X181340000Y-55212914D01*
X181340000Y-55212914D02*
X181482857Y-55403390D01*
X182101905Y-54974819D02*
X182101905Y-55212914D01*
X181863810Y-55117676D02*
X182101905Y-55212914D01*
X182101905Y-55212914D02*
X182340000Y-55117676D01*
X181959048Y-55403390D02*
X182101905Y-55212914D01*
X182101905Y-55212914D02*
X182244762Y-55403390D01*
X115506666Y-55974819D02*
X115173333Y-55498628D01*
X114935238Y-55974819D02*
X114935238Y-54974819D01*
X114935238Y-54974819D02*
X115316190Y-54974819D01*
X115316190Y-54974819D02*
X115411428Y-55022438D01*
X115411428Y-55022438D02*
X115459047Y-55070057D01*
X115459047Y-55070057D02*
X115506666Y-55165295D01*
X115506666Y-55165295D02*
X115506666Y-55308152D01*
X115506666Y-55308152D02*
X115459047Y-55403390D01*
X115459047Y-55403390D02*
X115411428Y-55451009D01*
X115411428Y-55451009D02*
X115316190Y-55498628D01*
X115316190Y-55498628D02*
X114935238Y-55498628D01*
X115935238Y-55451009D02*
X116268571Y-55451009D01*
X116411428Y-55974819D02*
X115935238Y-55974819D01*
X115935238Y-55974819D02*
X115935238Y-54974819D01*
X115935238Y-54974819D02*
X116411428Y-54974819D01*
X117173333Y-55451009D02*
X116840000Y-55451009D01*
X116840000Y-55974819D02*
X116840000Y-54974819D01*
X116840000Y-54974819D02*
X117316190Y-54974819D01*
X117840000Y-54974819D02*
X117840000Y-55212914D01*
X117601905Y-55117676D02*
X117840000Y-55212914D01*
X117840000Y-55212914D02*
X118078095Y-55117676D01*
X117697143Y-55403390D02*
X117840000Y-55212914D01*
X117840000Y-55212914D02*
X117982857Y-55403390D01*
X118601905Y-54974819D02*
X118601905Y-55212914D01*
X118363810Y-55117676D02*
X118601905Y-55212914D01*
X118601905Y-55212914D02*
X118840000Y-55117676D01*
X118459048Y-55403390D02*
X118601905Y-55212914D01*
X118601905Y-55212914D02*
X118744762Y-55403390D01*
D11*
X148526666Y-68537419D02*
X148193333Y-68061228D01*
X147955238Y-68537419D02*
X147955238Y-67537419D01*
X147955238Y-67537419D02*
X148336190Y-67537419D01*
X148336190Y-67537419D02*
X148431428Y-67585038D01*
X148431428Y-67585038D02*
X148479047Y-67632657D01*
X148479047Y-67632657D02*
X148526666Y-67727895D01*
X148526666Y-67727895D02*
X148526666Y-67870752D01*
X148526666Y-67870752D02*
X148479047Y-67965990D01*
X148479047Y-67965990D02*
X148431428Y-68013609D01*
X148431428Y-68013609D02*
X148336190Y-68061228D01*
X148336190Y-68061228D02*
X147955238Y-68061228D01*
X148955238Y-68013609D02*
X149288571Y-68013609D01*
X149431428Y-68537419D02*
X148955238Y-68537419D01*
X148955238Y-68537419D02*
X148955238Y-67537419D01*
X148955238Y-67537419D02*
X149431428Y-67537419D01*
X150193333Y-68013609D02*
X149860000Y-68013609D01*
X149860000Y-68537419D02*
X149860000Y-67537419D01*
X149860000Y-67537419D02*
X150336190Y-67537419D01*
X150860000Y-67537419D02*
X150860000Y-67775514D01*
X150621905Y-67680276D02*
X150860000Y-67775514D01*
X150860000Y-67775514D02*
X151098095Y-67680276D01*
X150717143Y-67965990D02*
X150860000Y-67775514D01*
X150860000Y-67775514D02*
X151002857Y-67965990D01*
X151621905Y-67537419D02*
X151621905Y-67775514D01*
X151383810Y-67680276D02*
X151621905Y-67775514D01*
X151621905Y-67775514D02*
X151860000Y-67680276D01*
X151479048Y-67965990D02*
X151621905Y-67775514D01*
X151621905Y-67775514D02*
X151764762Y-67965990D01*
X122999961Y-60517693D02*
X123047580Y-60422455D01*
X123047580Y-60422455D02*
X123047580Y-60279598D01*
X123047580Y-60279598D02*
X122999961Y-60136741D01*
X122999961Y-60136741D02*
X122904723Y-60041503D01*
X122904723Y-60041503D02*
X122809485Y-59993884D01*
X122809485Y-59993884D02*
X122619009Y-59946265D01*
X122619009Y-59946265D02*
X122476152Y-59946265D01*
X122476152Y-59946265D02*
X122285676Y-59993884D01*
X122285676Y-59993884D02*
X122190438Y-60041503D01*
X122190438Y-60041503D02*
X122095200Y-60136741D01*
X122095200Y-60136741D02*
X122047580Y-60279598D01*
X122047580Y-60279598D02*
X122047580Y-60374836D01*
X122047580Y-60374836D02*
X122095200Y-60517693D01*
X122095200Y-60517693D02*
X122142819Y-60565312D01*
X122142819Y-60565312D02*
X122476152Y-60565312D01*
X122476152Y-60565312D02*
X122476152Y-60374836D01*
X173847580Y-78250074D02*
X173847580Y-77773884D01*
X173847580Y-77773884D02*
X173371390Y-77726265D01*
X173371390Y-77726265D02*
X173419009Y-77773884D01*
X173419009Y-77773884D02*
X173466628Y-77869122D01*
X173466628Y-77869122D02*
X173466628Y-78107217D01*
X173466628Y-78107217D02*
X173419009Y-78202455D01*
X173419009Y-78202455D02*
X173371390Y-78250074D01*
X173371390Y-78250074D02*
X173276152Y-78297693D01*
X173276152Y-78297693D02*
X173038057Y-78297693D01*
X173038057Y-78297693D02*
X172942819Y-78250074D01*
X172942819Y-78250074D02*
X172895200Y-78202455D01*
X172895200Y-78202455D02*
X172847580Y-78107217D01*
X172847580Y-78107217D02*
X172847580Y-77869122D01*
X172847580Y-77869122D02*
X172895200Y-77773884D01*
X172895200Y-77773884D02*
X172942819Y-77726265D01*
X173847580Y-78583408D02*
X172847580Y-78916741D01*
X172847580Y-78916741D02*
X173847580Y-79250074D01*
X173847580Y-79773884D02*
X173847580Y-79869122D01*
X173847580Y-79869122D02*
X173799961Y-79964360D01*
X173799961Y-79964360D02*
X173752342Y-80011979D01*
X173752342Y-80011979D02*
X173657104Y-80059598D01*
X173657104Y-80059598D02*
X173466628Y-80107217D01*
X173466628Y-80107217D02*
X173228533Y-80107217D01*
X173228533Y-80107217D02*
X173038057Y-80059598D01*
X173038057Y-80059598D02*
X172942819Y-80011979D01*
X172942819Y-80011979D02*
X172895200Y-79964360D01*
X172895200Y-79964360D02*
X172847580Y-79869122D01*
X172847580Y-79869122D02*
X172847580Y-79773884D01*
X172847580Y-79773884D02*
X172895200Y-79678646D01*
X172895200Y-79678646D02*
X172942819Y-79631027D01*
X172942819Y-79631027D02*
X173038057Y-79583408D01*
X173038057Y-79583408D02*
X173228533Y-79535789D01*
X173228533Y-79535789D02*
X173466628Y-79535789D01*
X173466628Y-79535789D02*
X173657104Y-79583408D01*
X173657104Y-79583408D02*
X173752342Y-79631027D01*
X173752342Y-79631027D02*
X173799961Y-79678646D01*
X173799961Y-79678646D02*
X173847580Y-79773884D01*
X176339961Y-60517693D02*
X176387580Y-60422455D01*
X176387580Y-60422455D02*
X176387580Y-60279598D01*
X176387580Y-60279598D02*
X176339961Y-60136741D01*
X176339961Y-60136741D02*
X176244723Y-60041503D01*
X176244723Y-60041503D02*
X176149485Y-59993884D01*
X176149485Y-59993884D02*
X175959009Y-59946265D01*
X175959009Y-59946265D02*
X175816152Y-59946265D01*
X175816152Y-59946265D02*
X175625676Y-59993884D01*
X175625676Y-59993884D02*
X175530438Y-60041503D01*
X175530438Y-60041503D02*
X175435200Y-60136741D01*
X175435200Y-60136741D02*
X175387580Y-60279598D01*
X175387580Y-60279598D02*
X175387580Y-60374836D01*
X175387580Y-60374836D02*
X175435200Y-60517693D01*
X175435200Y-60517693D02*
X175482819Y-60565312D01*
X175482819Y-60565312D02*
X175816152Y-60565312D01*
X175816152Y-60565312D02*
X175816152Y-60374836D01*
X180197580Y-75233884D02*
X179388057Y-75233884D01*
X179388057Y-75233884D02*
X179292819Y-75281503D01*
X179292819Y-75281503D02*
X179245200Y-75329122D01*
X179245200Y-75329122D02*
X179197580Y-75424360D01*
X179197580Y-75424360D02*
X179197580Y-75614836D01*
X179197580Y-75614836D02*
X179245200Y-75710074D01*
X179245200Y-75710074D02*
X179292819Y-75757693D01*
X179292819Y-75757693D02*
X179388057Y-75805312D01*
X179388057Y-75805312D02*
X180197580Y-75805312D01*
X179245200Y-76233884D02*
X179197580Y-76376741D01*
X179197580Y-76376741D02*
X179197580Y-76614836D01*
X179197580Y-76614836D02*
X179245200Y-76710074D01*
X179245200Y-76710074D02*
X179292819Y-76757693D01*
X179292819Y-76757693D02*
X179388057Y-76805312D01*
X179388057Y-76805312D02*
X179483295Y-76805312D01*
X179483295Y-76805312D02*
X179578533Y-76757693D01*
X179578533Y-76757693D02*
X179626152Y-76710074D01*
X179626152Y-76710074D02*
X179673771Y-76614836D01*
X179673771Y-76614836D02*
X179721390Y-76424360D01*
X179721390Y-76424360D02*
X179769009Y-76329122D01*
X179769009Y-76329122D02*
X179816628Y-76281503D01*
X179816628Y-76281503D02*
X179911866Y-76233884D01*
X179911866Y-76233884D02*
X180007104Y-76233884D01*
X180007104Y-76233884D02*
X180102342Y-76281503D01*
X180102342Y-76281503D02*
X180149961Y-76329122D01*
X180149961Y-76329122D02*
X180197580Y-76424360D01*
X180197580Y-76424360D02*
X180197580Y-76662455D01*
X180197580Y-76662455D02*
X180149961Y-76805312D01*
X179721390Y-77567217D02*
X179673771Y-77710074D01*
X179673771Y-77710074D02*
X179626152Y-77757693D01*
X179626152Y-77757693D02*
X179530914Y-77805312D01*
X179530914Y-77805312D02*
X179388057Y-77805312D01*
X179388057Y-77805312D02*
X179292819Y-77757693D01*
X179292819Y-77757693D02*
X179245200Y-77710074D01*
X179245200Y-77710074D02*
X179197580Y-77614836D01*
X179197580Y-77614836D02*
X179197580Y-77233884D01*
X179197580Y-77233884D02*
X180197580Y-77233884D01*
X180197580Y-77233884D02*
X180197580Y-77567217D01*
X180197580Y-77567217D02*
X180149961Y-77662455D01*
X180149961Y-77662455D02*
X180102342Y-77710074D01*
X180102342Y-77710074D02*
X180007104Y-77757693D01*
X180007104Y-77757693D02*
X179911866Y-77757693D01*
X179911866Y-77757693D02*
X179816628Y-77710074D01*
X179816628Y-77710074D02*
X179769009Y-77662455D01*
X179769009Y-77662455D02*
X179721390Y-77567217D01*
X179721390Y-77567217D02*
X179721390Y-77233884D01*
X125587580Y-77678646D02*
X125587580Y-78297693D01*
X125587580Y-78297693D02*
X125206628Y-77964360D01*
X125206628Y-77964360D02*
X125206628Y-78107217D01*
X125206628Y-78107217D02*
X125159009Y-78202455D01*
X125159009Y-78202455D02*
X125111390Y-78250074D01*
X125111390Y-78250074D02*
X125016152Y-78297693D01*
X125016152Y-78297693D02*
X124778057Y-78297693D01*
X124778057Y-78297693D02*
X124682819Y-78250074D01*
X124682819Y-78250074D02*
X124635200Y-78202455D01*
X124635200Y-78202455D02*
X124587580Y-78107217D01*
X124587580Y-78107217D02*
X124587580Y-77821503D01*
X124587580Y-77821503D02*
X124635200Y-77726265D01*
X124635200Y-77726265D02*
X124682819Y-77678646D01*
X125587580Y-78583408D02*
X124587580Y-78916741D01*
X124587580Y-78916741D02*
X125587580Y-79250074D01*
X125587580Y-79488170D02*
X125587580Y-80107217D01*
X125587580Y-80107217D02*
X125206628Y-79773884D01*
X125206628Y-79773884D02*
X125206628Y-79916741D01*
X125206628Y-79916741D02*
X125159009Y-80011979D01*
X125159009Y-80011979D02*
X125111390Y-80059598D01*
X125111390Y-80059598D02*
X125016152Y-80107217D01*
X125016152Y-80107217D02*
X124778057Y-80107217D01*
X124778057Y-80107217D02*
X124682819Y-80059598D01*
X124682819Y-80059598D02*
X124635200Y-80011979D01*
X124635200Y-80011979D02*
X124587580Y-79916741D01*
X124587580Y-79916741D02*
X124587580Y-79631027D01*
X124587580Y-79631027D02*
X124635200Y-79535789D01*
X124635200Y-79535789D02*
X124682819Y-79488170D01*
X180197580Y-62533884D02*
X179388057Y-62533884D01*
X179388057Y-62533884D02*
X179292819Y-62581503D01*
X179292819Y-62581503D02*
X179245200Y-62629122D01*
X179245200Y-62629122D02*
X179197580Y-62724360D01*
X179197580Y-62724360D02*
X179197580Y-62914836D01*
X179197580Y-62914836D02*
X179245200Y-63010074D01*
X179245200Y-63010074D02*
X179292819Y-63057693D01*
X179292819Y-63057693D02*
X179388057Y-63105312D01*
X179388057Y-63105312D02*
X180197580Y-63105312D01*
X179245200Y-63533884D02*
X179197580Y-63676741D01*
X179197580Y-63676741D02*
X179197580Y-63914836D01*
X179197580Y-63914836D02*
X179245200Y-64010074D01*
X179245200Y-64010074D02*
X179292819Y-64057693D01*
X179292819Y-64057693D02*
X179388057Y-64105312D01*
X179388057Y-64105312D02*
X179483295Y-64105312D01*
X179483295Y-64105312D02*
X179578533Y-64057693D01*
X179578533Y-64057693D02*
X179626152Y-64010074D01*
X179626152Y-64010074D02*
X179673771Y-63914836D01*
X179673771Y-63914836D02*
X179721390Y-63724360D01*
X179721390Y-63724360D02*
X179769009Y-63629122D01*
X179769009Y-63629122D02*
X179816628Y-63581503D01*
X179816628Y-63581503D02*
X179911866Y-63533884D01*
X179911866Y-63533884D02*
X180007104Y-63533884D01*
X180007104Y-63533884D02*
X180102342Y-63581503D01*
X180102342Y-63581503D02*
X180149961Y-63629122D01*
X180149961Y-63629122D02*
X180197580Y-63724360D01*
X180197580Y-63724360D02*
X180197580Y-63962455D01*
X180197580Y-63962455D02*
X180149961Y-64105312D01*
X179721390Y-64867217D02*
X179673771Y-65010074D01*
X179673771Y-65010074D02*
X179626152Y-65057693D01*
X179626152Y-65057693D02*
X179530914Y-65105312D01*
X179530914Y-65105312D02*
X179388057Y-65105312D01*
X179388057Y-65105312D02*
X179292819Y-65057693D01*
X179292819Y-65057693D02*
X179245200Y-65010074D01*
X179245200Y-65010074D02*
X179197580Y-64914836D01*
X179197580Y-64914836D02*
X179197580Y-64533884D01*
X179197580Y-64533884D02*
X180197580Y-64533884D01*
X180197580Y-64533884D02*
X180197580Y-64867217D01*
X180197580Y-64867217D02*
X180149961Y-64962455D01*
X180149961Y-64962455D02*
X180102342Y-65010074D01*
X180102342Y-65010074D02*
X180007104Y-65057693D01*
X180007104Y-65057693D02*
X179911866Y-65057693D01*
X179911866Y-65057693D02*
X179816628Y-65010074D01*
X179816628Y-65010074D02*
X179769009Y-64962455D01*
X179769009Y-64962455D02*
X179721390Y-64867217D01*
X179721390Y-64867217D02*
X179721390Y-64533884D01*
X123047580Y-77678646D02*
X123047580Y-78297693D01*
X123047580Y-78297693D02*
X122666628Y-77964360D01*
X122666628Y-77964360D02*
X122666628Y-78107217D01*
X122666628Y-78107217D02*
X122619009Y-78202455D01*
X122619009Y-78202455D02*
X122571390Y-78250074D01*
X122571390Y-78250074D02*
X122476152Y-78297693D01*
X122476152Y-78297693D02*
X122238057Y-78297693D01*
X122238057Y-78297693D02*
X122142819Y-78250074D01*
X122142819Y-78250074D02*
X122095200Y-78202455D01*
X122095200Y-78202455D02*
X122047580Y-78107217D01*
X122047580Y-78107217D02*
X122047580Y-77821503D01*
X122047580Y-77821503D02*
X122095200Y-77726265D01*
X122095200Y-77726265D02*
X122142819Y-77678646D01*
X123047580Y-78583408D02*
X122047580Y-78916741D01*
X122047580Y-78916741D02*
X123047580Y-79250074D01*
X123047580Y-79488170D02*
X123047580Y-80107217D01*
X123047580Y-80107217D02*
X122666628Y-79773884D01*
X122666628Y-79773884D02*
X122666628Y-79916741D01*
X122666628Y-79916741D02*
X122619009Y-80011979D01*
X122619009Y-80011979D02*
X122571390Y-80059598D01*
X122571390Y-80059598D02*
X122476152Y-80107217D01*
X122476152Y-80107217D02*
X122238057Y-80107217D01*
X122238057Y-80107217D02*
X122142819Y-80059598D01*
X122142819Y-80059598D02*
X122095200Y-80011979D01*
X122095200Y-80011979D02*
X122047580Y-79916741D01*
X122047580Y-79916741D02*
X122047580Y-79631027D01*
X122047580Y-79631027D02*
X122095200Y-79535789D01*
X122095200Y-79535789D02*
X122142819Y-79488170D01*
X117967580Y-68788646D02*
X116967580Y-69026741D01*
X116967580Y-69026741D02*
X117681866Y-69217217D01*
X117681866Y-69217217D02*
X116967580Y-69407693D01*
X116967580Y-69407693D02*
X117967580Y-69645789D01*
X116967580Y-70026741D02*
X117967580Y-70026741D01*
X117491390Y-70836264D02*
X117491390Y-70502931D01*
X116967580Y-70502931D02*
X117967580Y-70502931D01*
X117967580Y-70502931D02*
X117967580Y-70979121D01*
X116967580Y-71360074D02*
X117967580Y-71360074D01*
X173799961Y-60517693D02*
X173847580Y-60422455D01*
X173847580Y-60422455D02*
X173847580Y-60279598D01*
X173847580Y-60279598D02*
X173799961Y-60136741D01*
X173799961Y-60136741D02*
X173704723Y-60041503D01*
X173704723Y-60041503D02*
X173609485Y-59993884D01*
X173609485Y-59993884D02*
X173419009Y-59946265D01*
X173419009Y-59946265D02*
X173276152Y-59946265D01*
X173276152Y-59946265D02*
X173085676Y-59993884D01*
X173085676Y-59993884D02*
X172990438Y-60041503D01*
X172990438Y-60041503D02*
X172895200Y-60136741D01*
X172895200Y-60136741D02*
X172847580Y-60279598D01*
X172847580Y-60279598D02*
X172847580Y-60374836D01*
X172847580Y-60374836D02*
X172895200Y-60517693D01*
X172895200Y-60517693D02*
X172942819Y-60565312D01*
X172942819Y-60565312D02*
X173276152Y-60565312D01*
X173276152Y-60565312D02*
X173276152Y-60374836D01*
X176339961Y-79567693D02*
X176387580Y-79472455D01*
X176387580Y-79472455D02*
X176387580Y-79329598D01*
X176387580Y-79329598D02*
X176339961Y-79186741D01*
X176339961Y-79186741D02*
X176244723Y-79091503D01*
X176244723Y-79091503D02*
X176149485Y-79043884D01*
X176149485Y-79043884D02*
X175959009Y-78996265D01*
X175959009Y-78996265D02*
X175816152Y-78996265D01*
X175816152Y-78996265D02*
X175625676Y-79043884D01*
X175625676Y-79043884D02*
X175530438Y-79091503D01*
X175530438Y-79091503D02*
X175435200Y-79186741D01*
X175435200Y-79186741D02*
X175387580Y-79329598D01*
X175387580Y-79329598D02*
X175387580Y-79424836D01*
X175387580Y-79424836D02*
X175435200Y-79567693D01*
X175435200Y-79567693D02*
X175482819Y-79615312D01*
X175482819Y-79615312D02*
X175816152Y-79615312D01*
X175816152Y-79615312D02*
X175816152Y-79424836D01*
%TO.C,REF\u002A\u002A*%
X114300000Y-60960000D02*
X114300000Y-78740000D01*
X114300000Y-78740000D02*
X120650000Y-78740000D01*
X120650000Y-57150000D02*
X120650000Y-60960000D01*
X120650000Y-60960000D02*
X114300000Y-60960000D01*
X120650000Y-60960000D02*
X120650000Y-78740000D01*
X120650000Y-78740000D02*
X120650000Y-82550000D01*
X120650000Y-82550000D02*
X176530000Y-82550000D01*
X176530000Y-57150000D02*
X120650000Y-57150000D01*
X176530000Y-59690000D02*
X176530000Y-57150000D01*
X176530000Y-59690000D02*
X176530000Y-80010000D01*
X176530000Y-67310000D02*
X182880000Y-67310000D01*
X176530000Y-72390000D02*
X176530000Y-67310000D01*
X176530000Y-80010000D02*
X182880000Y-80010000D01*
X176530000Y-82550000D02*
X176530000Y-80010000D01*
X182880000Y-59690000D02*
X176530000Y-59690000D01*
X182880000Y-67310000D02*
X182880000Y-59690000D01*
X182880000Y-72390000D02*
X176530000Y-72390000D01*
X182880000Y-80010000D02*
X182880000Y-72390000D01*
%TO.C,RFM95W1*%
X138430000Y-87630000D02*
X161290000Y-87630000D01*
X138430000Y-115570000D02*
X138430000Y-87630000D01*
X161290000Y-87630000D02*
X161290000Y-115570000D01*
X161290000Y-115570000D02*
X138430000Y-115570000D01*
%TD*%
M02*
