%TF.GenerationSoftware,KiCad,Pcbnew,8.0.3-8.0.3-0~ubuntu22.04.1*%
%TF.CreationDate,2024-06-19T00:56:14-04:00*%
%TF.ProjectId,esp32-s3-wroom-2-devkitc1,65737033-322d-4733-932d-77726f6f6d2d,rev?*%
%TF.SameCoordinates,Original*%
%TF.FileFunction,Copper,L1,Top*%
%TF.FilePolarity,Positive*%
%FSLAX46Y46*%
G04 Gerber Fmt 4.6, Leading zero omitted, Abs format (unit mm)*
G04 Created by KiCad (PCBNEW 8.0.3-8.0.3-0~ubuntu22.04.1) date 2024-06-19 00:56:14*
%MOMM*%
%LPD*%
G01*
G04 APERTURE LIST*
%TA.AperFunction,ComponentPad*%
%ADD10C,3.800000*%
%TD*%
%TA.AperFunction,ComponentPad*%
%ADD11R,1.524000X1.524000*%
%TD*%
%TA.AperFunction,ComponentPad*%
%ADD12C,1.524000*%
%TD*%
%TA.AperFunction,Conductor*%
%ADD13C,0.200000*%
%TD*%
G04 APERTURE END LIST*
D10*
%TO.P,REF\u002A\u002A,1*%
%TO.N,GND*%
X180340000Y-114300000D03*
%TD*%
%TO.P,REF\u002A\u002A,1*%
%TO.N,GND*%
X116840000Y-114300000D03*
%TD*%
%TO.P,REF\u002A\u002A,1*%
%TO.N,GND*%
X180340000Y-58420000D03*
%TD*%
%TO.P,REF\u002A\u002A,1*%
%TO.N,GND*%
X116840000Y-58420000D03*
%TD*%
D11*
%TO.P,REF\u002A\u002A,1*%
%TO.N,GND*%
X121920000Y-58420000D03*
D12*
%TO.P,REF\u002A\u002A,2*%
%TO.N,N/C*%
X124460000Y-58420000D03*
%TO.P,REF\u002A\u002A,3*%
X127000000Y-58420000D03*
%TO.P,REF\u002A\u002A,4*%
X129540000Y-58420000D03*
%TO.P,REF\u002A\u002A,5*%
X132080000Y-58420000D03*
%TO.P,REF\u002A\u002A,6*%
X134620000Y-58420000D03*
%TO.P,REF\u002A\u002A,7*%
X137160000Y-58420000D03*
%TO.P,REF\u002A\u002A,8*%
X139700000Y-58420000D03*
%TO.P,REF\u002A\u002A,9*%
X142240000Y-58420000D03*
%TO.P,REF\u002A\u002A,10*%
X144780000Y-58420000D03*
%TO.P,REF\u002A\u002A,11*%
X147320000Y-58420000D03*
%TO.P,REF\u002A\u002A,12*%
X149860000Y-58420000D03*
%TO.P,REF\u002A\u002A,13*%
X152400000Y-58420000D03*
%TO.P,REF\u002A\u002A,14*%
X154940000Y-58420000D03*
%TO.P,REF\u002A\u002A,15*%
X157480000Y-58420000D03*
%TO.P,REF\u002A\u002A,16*%
X160020000Y-58420000D03*
%TO.P,REF\u002A\u002A,17*%
X162560000Y-58420000D03*
%TO.P,REF\u002A\u002A,18*%
X165100000Y-58420000D03*
%TO.P,REF\u002A\u002A,19*%
X167640000Y-58420000D03*
%TO.P,REF\u002A\u002A,20*%
X170180000Y-58420000D03*
D11*
%TO.P,REF\u002A\u002A,21*%
%TO.N,GND*%
X172720000Y-58420000D03*
%TO.P,REF\u002A\u002A,22*%
X175260000Y-58420000D03*
D12*
%TO.P,REF\u002A\u002A,23*%
%TO.N,+3.3V*%
X121920000Y-81280000D03*
%TO.P,REF\u002A\u002A,24*%
X124460000Y-81280000D03*
%TO.P,REF\u002A\u002A,25*%
%TO.N,N/C*%
X127000000Y-81280000D03*
%TO.P,REF\u002A\u002A,26*%
X129540000Y-81280000D03*
%TO.P,REF\u002A\u002A,27*%
X132080000Y-81280000D03*
%TO.P,REF\u002A\u002A,28*%
X134620000Y-81280000D03*
%TO.P,REF\u002A\u002A,29*%
X137160000Y-81280000D03*
%TO.P,REF\u002A\u002A,30*%
X139700000Y-81280000D03*
%TO.P,REF\u002A\u002A,31*%
X142240000Y-81280000D03*
%TO.P,REF\u002A\u002A,32*%
X144780000Y-81280000D03*
%TO.P,REF\u002A\u002A,33*%
X147320000Y-81280000D03*
%TO.P,REF\u002A\u002A,34*%
X149860000Y-81280000D03*
%TO.P,REF\u002A\u002A,35*%
X152400000Y-81280000D03*
%TO.P,REF\u002A\u002A,36*%
X154940000Y-81280000D03*
%TO.P,REF\u002A\u002A,37*%
X157480000Y-81280000D03*
%TO.P,REF\u002A\u002A,38*%
X160020000Y-81280000D03*
%TO.P,REF\u002A\u002A,39*%
X162560000Y-81280000D03*
%TO.P,REF\u002A\u002A,40*%
X165100000Y-81280000D03*
%TO.P,REF\u002A\u002A,41*%
X167640000Y-81280000D03*
%TO.P,REF\u002A\u002A,42*%
X170180000Y-81280000D03*
%TO.P,REF\u002A\u002A,43*%
X172720000Y-81280000D03*
D11*
%TO.P,REF\u002A\u002A,44*%
%TO.N,GND*%
X175260000Y-81280000D03*
%TD*%
D12*
%TO.P,RFM95W1,1*%
%TO.N,unconnected-(RFM95W1-Pad1)*%
X139700000Y-88900000D03*
%TO.P,RFM95W1,2*%
%TO.N,unconnected-(RFM95W1-Pad2)*%
X142240000Y-88900000D03*
%TO.P,RFM95W1,3*%
%TO.N,unconnected-(RFM95W1-Pad3)*%
X144780000Y-88900000D03*
%TO.P,RFM95W1,4*%
%TO.N,unconnected-(RFM95W1-Pad4)*%
X147320000Y-88900000D03*
%TO.P,RFM95W1,5*%
%TO.N,unconnected-(RFM95W1-Pad5)*%
X149860000Y-88900000D03*
%TO.P,RFM95W1,6*%
%TO.N,unconnected-(RFM95W1-Pad6)*%
X152400000Y-88900000D03*
%TO.P,RFM95W1,7*%
%TO.N,unconnected-(RFM95W1-Pad7)*%
X154940000Y-88900000D03*
D11*
%TO.P,RFM95W1,8,GND*%
%TO.N,GND*%
X157480000Y-88900000D03*
D12*
%TO.P,RFM95W1,9,VIN*%
%TO.N,+3.3V*%
X160020000Y-88900000D03*
%TO.P,RFM95W1,10*%
%TO.N,unconnected-(RFM95W1-Pad10)*%
X149860000Y-114300000D03*
%TO.P,RFM95W1,11*%
%TO.N,unconnected-(RFM95W1-Pad11)*%
X152400000Y-114300000D03*
%TO.P,RFM95W1,12*%
%TO.N,unconnected-(RFM95W1-Pad12)*%
X154940000Y-114300000D03*
%TO.P,RFM95W1,13*%
%TO.N,unconnected-(RFM95W1-Pad13)*%
X157480000Y-114300000D03*
%TO.P,RFM95W1,14*%
%TO.N,unconnected-(RFM95W1-Pad14)*%
X160020000Y-114300000D03*
%TD*%
D13*
%TO.N,unconnected-(RFM95W1-Pad5)*%
X165100000Y-81280000D02*
X165100000Y-90170000D01*
X163830000Y-91440000D02*
X151130000Y-91440000D01*
X151130000Y-91440000D02*
X149860000Y-90170000D01*
X149860000Y-90170000D02*
X149860000Y-88900000D01*
X165100000Y-90170000D02*
X163830000Y-91440000D01*
%TO.N,unconnected-(RFM95W1-Pad4)*%
X149860000Y-92710000D02*
X147320000Y-90170000D01*
X167640000Y-81280000D02*
X167640000Y-90170000D01*
X167640000Y-90170000D02*
X165100000Y-92710000D01*
X147320000Y-90170000D02*
X147320000Y-88900000D01*
X165100000Y-92710000D02*
X149860000Y-92710000D01*
%TO.N,unconnected-(RFM95W1-Pad3)*%
X162560000Y-81280000D02*
X162560000Y-83820000D01*
X146050000Y-85090000D02*
X144780000Y-86360000D01*
X144780000Y-86360000D02*
X144780000Y-88900000D01*
X161290000Y-85090000D02*
X146050000Y-85090000D01*
X162560000Y-83820000D02*
X161290000Y-85090000D01*
%TO.N,unconnected-(RFM95W1-Pad14)*%
X130810000Y-111760000D02*
X158750000Y-111760000D01*
X129540000Y-81280000D02*
X129540000Y-110490000D01*
X160020000Y-113030000D02*
X160020000Y-114300000D01*
X158750000Y-111760000D02*
X160020000Y-113030000D01*
X129540000Y-110490000D02*
X130810000Y-111760000D01*
%TO.N,unconnected-(RFM95W1-Pad1)*%
X139700000Y-81280000D02*
X139700000Y-88900000D01*
%TO.N,unconnected-(RFM95W1-Pad2)*%
X160020000Y-81280000D02*
X160020000Y-82550000D01*
X160020000Y-82550000D02*
X158750000Y-83820000D01*
X143510000Y-83820000D02*
X142240000Y-85090000D01*
X142240000Y-85090000D02*
X142240000Y-88900000D01*
X158750000Y-83820000D02*
X143510000Y-83820000D01*
%TO.N,unconnected-(RFM95W1-Pad6)*%
X129540000Y-58420000D02*
X129540000Y-72390000D01*
X162560000Y-86360000D02*
X163830000Y-85090000D01*
X163830000Y-85090000D02*
X163830000Y-78740000D01*
X162560000Y-77470000D02*
X134620000Y-77470000D01*
X153670000Y-86360000D02*
X162560000Y-86360000D01*
X152400000Y-88900000D02*
X152400000Y-87630000D01*
X152400000Y-87630000D02*
X153670000Y-86360000D01*
X134620000Y-77470000D02*
X129540000Y-72390000D01*
X163830000Y-78740000D02*
X162560000Y-77470000D01*
%TD*%
M02*
