M48
; DRILL file {KiCad 8.0.3-8.0.3-0~ubuntu22.04.1} date 2024-06-19T00:56:20-0400
; FORMAT={-:-/ absolute / inch / decimal}
; #@! TF.CreationDate,2024-06-19T00:56:20-04:00
; #@! TF.GenerationSoftware,Kicad,Pcbnew,8.0.3-8.0.3-0~ubuntu22.04.1
; #@! TF.FileFunction,Plated,1,2,PTH
FMAT,2
INCH
; #@! TA.AperFunction,Plated,PTH,ComponentDrill
T1C0.0300
; #@! TA.AperFunction,Plated,PTH,ComponentDrill
T2C0.0866
%
G90
G05
T1
X4.8Y-2.3
X4.8Y-3.2
X4.9Y-2.3
X4.9Y-3.2
X5.0Y-2.3
X5.0Y-3.2
X5.1Y-2.3
X5.1Y-3.2
X5.2Y-2.3
X5.2Y-3.2
X5.3Y-2.3
X5.3Y-3.2
X5.4Y-2.3
X5.4Y-3.2
X5.5Y-2.3
X5.5Y-3.2
X5.5Y-3.5
X5.6Y-2.3
X5.6Y-3.2
X5.6Y-3.5
X5.7Y-2.3
X5.7Y-3.2
X5.7Y-3.5
X5.8Y-2.3
X5.8Y-3.2
X5.8Y-3.5
X5.9Y-2.3
X5.9Y-3.2
X5.9Y-3.5
X5.9Y-4.5
X6.0Y-2.3
X6.0Y-3.2
X6.0Y-3.5
X6.0Y-4.5
X6.1Y-2.3
X6.1Y-3.2
X6.1Y-3.5
X6.1Y-4.5
X6.2Y-2.3
X6.2Y-3.2
X6.2Y-3.5
X6.2Y-4.5
X6.3Y-2.3
X6.3Y-3.2
X6.3Y-3.5
X6.3Y-4.5
X6.4Y-2.3
X6.4Y-3.2
X6.5Y-2.3
X6.5Y-3.2
X6.6Y-2.3
X6.6Y-3.2
X6.7Y-2.3
X6.7Y-3.2
X6.8Y-2.3
X6.8Y-3.2
X6.9Y-2.3
X6.9Y-3.2
T2
X4.6Y-2.3
X4.6Y-4.5
X7.1Y-2.3
X7.1Y-4.5
M30
