%TF.GenerationSoftware,KiCad,Pcbnew,8.0.3-8.0.3-0~ubuntu22.04.1*%
%TF.CreationDate,2024-06-21T21:16:40-04:00*%
%TF.ProjectId,esp32-s3-wroom-2-devkitc1,65737033-322d-4733-932d-77726f6f6d2d,rev?*%
%TF.SameCoordinates,Original*%
%TF.FileFunction,Copper,L2,Bot*%
%TF.FilePolarity,Positive*%
%FSLAX46Y46*%
G04 Gerber Fmt 4.6, Leading zero omitted, Abs format (unit mm)*
G04 Created by KiCad (PCBNEW 8.0.3-8.0.3-0~ubuntu22.04.1) date 2024-06-21 21:16:40*
%MOMM*%
%LPD*%
G01*
G04 APERTURE LIST*
%TA.AperFunction,ComponentPad*%
%ADD10C,1.524000*%
%TD*%
%TA.AperFunction,ComponentPad*%
%ADD11R,1.524000X1.524000*%
%TD*%
%TA.AperFunction,ComponentPad*%
%ADD12R,1.200000X2.000000*%
%TD*%
%TA.AperFunction,ComponentPad*%
%ADD13O,1.200000X2.000000*%
%TD*%
%TA.AperFunction,ComponentPad*%
%ADD14C,3.800000*%
%TD*%
%TA.AperFunction,ViaPad*%
%ADD15C,0.600000*%
%TD*%
%TA.AperFunction,Conductor*%
%ADD16C,0.500000*%
%TD*%
G04 APERTURE END LIST*
D10*
%TO.P,RFM95W1,1,RST*%
%TO.N,Net-(RFM95W1-RST)*%
X139700000Y-88900000D03*
%TO.P,RFM95W1,2,CS*%
%TO.N,Net-(RFM95W1-CS)*%
X142240000Y-88900000D03*
%TO.P,RFM95W1,3,MOSI*%
%TO.N,Net-(RFM95W1-MOSI)*%
X144780000Y-88900000D03*
%TO.P,RFM95W1,4,MISO*%
%TO.N,Net-(RFM95W1-MISO)*%
X147320000Y-88900000D03*
%TO.P,RFM95W1,5,SCK*%
%TO.N,Net-(RFM95W1-SCK)*%
X149860000Y-88900000D03*
%TO.P,RFM95W1,6,G0*%
%TO.N,Net-(RFM95W1-G0)*%
X152400000Y-88900000D03*
%TO.P,RFM95W1,7,EN*%
%TO.N,unconnected-(RFM95W1-EN-Pad7)*%
X154940000Y-88900000D03*
D11*
%TO.P,RFM95W1,8,GND*%
%TO.N,GND*%
X157480000Y-88900000D03*
D10*
%TO.P,RFM95W1,9,VIN*%
%TO.N,+3.3V*%
X160020000Y-88900000D03*
%TO.P,RFM95W1,10,G5*%
%TO.N,unconnected-(RFM95W1-G5-Pad10)*%
X149860000Y-114300000D03*
%TO.P,RFM95W1,11,G4*%
%TO.N,unconnected-(RFM95W1-G4-Pad11)*%
X152400000Y-114300000D03*
%TO.P,RFM95W1,12,G3*%
%TO.N,unconnected-(RFM95W1-G3-Pad12)*%
X154940000Y-114300000D03*
%TO.P,RFM95W1,13,G2*%
%TO.N,unconnected-(RFM95W1-G2-Pad13)*%
X157480000Y-114300000D03*
%TO.P,RFM95W1,14,G1*%
%TO.N,Net-(RFM95W1-G1)*%
X160020000Y-114300000D03*
%TD*%
D12*
%TO.P,U1,1,3V3*%
%TO.N,+3.3V*%
X121920000Y-81280000D03*
D13*
%TO.P,U1,2,3V3*%
X124460000Y-81280000D03*
%TO.P,U1,3,CHIP_PU*%
%TO.N,unconnected-(U1-CHIP_PU-Pad3)*%
X127000000Y-81280000D03*
%TO.P,U1,4,GPIO4/ADC1_CH3*%
%TO.N,Net-(RFM95W1-G1)*%
X129540000Y-81280000D03*
%TO.P,U1,5,GPIO5/ADC1_CH4*%
%TO.N,unconnected-(U1-GPIO5{slash}ADC1_CH4-Pad5)*%
X132080000Y-81280000D03*
%TO.P,U1,6,GPIO6/ADC1_CH5*%
%TO.N,unconnected-(U1-GPIO6{slash}ADC1_CH5-Pad6)*%
X134620000Y-81280000D03*
%TO.P,U1,7,GPIO7/ADC1_CH6*%
%TO.N,unconnected-(U1-GPIO7{slash}ADC1_CH6-Pad7)*%
X137160000Y-81280000D03*
%TO.P,U1,8,GPIO15/ADC2_CH4/32K_P*%
%TO.N,Net-(RFM95W1-RST)*%
X139700000Y-81280000D03*
%TO.P,U1,9,GPIO16/ADC2_CH5/32K_N*%
%TO.N,unconnected-(U1-GPIO16{slash}ADC2_CH5{slash}32K_N-Pad9)*%
X142240000Y-81280000D03*
%TO.P,U1,10,GPIO17/ADC2_CH6*%
%TO.N,unconnected-(U1-GPIO17{slash}ADC2_CH6-Pad10)*%
X144780000Y-81280000D03*
%TO.P,U1,11,GPIO18/ADC2_CH7*%
%TO.N,unconnected-(U1-GPIO18{slash}ADC2_CH7-Pad11)*%
X147320000Y-81280000D03*
%TO.P,U1,12,GPIO8/ADC1_CH7*%
%TO.N,unconnected-(U1-GPIO8{slash}ADC1_CH7-Pad12)*%
X149860000Y-81280000D03*
%TO.P,U1,13,GPIO3/ADC1_CH2*%
%TO.N,unconnected-(U1-GPIO3{slash}ADC1_CH2-Pad13)*%
X152400000Y-81280000D03*
%TO.P,U1,14,GPIO46*%
%TO.N,unconnected-(U1-GPIO46-Pad14)*%
X154940000Y-81280000D03*
%TO.P,U1,15,GPIO9/ADC1_CH8*%
%TO.N,unconnected-(U1-GPIO9{slash}ADC1_CH8-Pad15)*%
X157480000Y-81280000D03*
%TO.P,U1,16,GPIO10/ADC1_CH9*%
%TO.N,Net-(RFM95W1-CS)*%
X160020000Y-81280000D03*
%TO.P,U1,17,GPIO11/ADC2_CH0*%
%TO.N,Net-(RFM95W1-MOSI)*%
X162560000Y-81280000D03*
%TO.P,U1,18,GPIO12/ADC2_CH1*%
%TO.N,Net-(RFM95W1-SCK)*%
X165100000Y-81280000D03*
%TO.P,U1,19,GPIO13/ADC2_CH2*%
%TO.N,Net-(RFM95W1-MISO)*%
X167640000Y-81280000D03*
%TO.P,U1,20,GPIO14/ADC2_CH3*%
%TO.N,unconnected-(U1-GPIO14{slash}ADC2_CH3-Pad20)*%
X170177280Y-81283680D03*
%TO.P,U1,21,5V*%
%TO.N,unconnected-(U1-5V-Pad21)*%
X172717280Y-81283680D03*
%TO.P,U1,22,GND*%
%TO.N,GND*%
X175257280Y-81283680D03*
%TO.P,U1,23,GND*%
X175260000Y-58420000D03*
%TO.P,U1,24,GND*%
X172720000Y-58420000D03*
%TO.P,U1,25,GPIO19/USB_D-*%
%TO.N,unconnected-(U1-GPIO19{slash}USB_D--Pad25)*%
X170180000Y-58420000D03*
%TO.P,U1,26,GPIO20/USB_D+*%
%TO.N,unconnected-(U1-GPIO20{slash}USB_D+-Pad26)*%
X167640000Y-58420000D03*
%TO.P,U1,27,GPIO21*%
%TO.N,unconnected-(U1-GPIO21-Pad27)*%
X165100000Y-58420000D03*
%TO.P,U1,28,GPIO47*%
%TO.N,unconnected-(U1-GPIO47-Pad28)*%
X162560000Y-58420000D03*
%TO.P,U1,29,GPIO48*%
%TO.N,unconnected-(U1-GPIO48-Pad29)*%
X160020000Y-58420000D03*
%TO.P,U1,30,GPIO45*%
%TO.N,unconnected-(U1-GPIO45-Pad30)*%
X157480000Y-58420000D03*
%TO.P,U1,31,GPIO0*%
%TO.N,unconnected-(U1-GPIO0-Pad31)*%
X154940000Y-58420000D03*
%TO.P,U1,32,GPIO35*%
%TO.N,unconnected-(U1-GPIO35-Pad32)*%
X152400000Y-58420000D03*
%TO.P,U1,33,GPIO36*%
%TO.N,unconnected-(U1-GPIO36-Pad33)*%
X149860000Y-58420000D03*
%TO.P,U1,34,GPIO37*%
%TO.N,unconnected-(U1-GPIO37-Pad34)*%
X147320000Y-58420000D03*
%TO.P,U1,35,GPIO38*%
%TO.N,unconnected-(U1-GPIO38-Pad35)*%
X144780000Y-58420000D03*
%TO.P,U1,36,GPIO39/MTCK*%
%TO.N,unconnected-(U1-GPIO39{slash}MTCK-Pad36)*%
X142240000Y-58420000D03*
%TO.P,U1,37,GPIO40/MTDO*%
%TO.N,unconnected-(U1-GPIO40{slash}MTDO-Pad37)*%
X139700000Y-58420000D03*
%TO.P,U1,38,GPIO41/MTDI*%
%TO.N,unconnected-(U1-GPIO41{slash}MTDI-Pad38)*%
X137160000Y-58420000D03*
%TO.P,U1,39,GPIO42/MTMS*%
%TO.N,unconnected-(U1-GPIO42{slash}MTMS-Pad39)*%
X134620000Y-58420000D03*
%TO.P,U1,40,GPIO2/ADC1_CH1*%
%TO.N,unconnected-(U1-GPIO2{slash}ADC1_CH1-Pad40)*%
X132080000Y-58420000D03*
%TO.P,U1,41,GPIO1/ADC1_CH0*%
%TO.N,Net-(RFM95W1-G0)*%
X129540000Y-58420000D03*
%TO.P,U1,42,GPIO44/U0RXD*%
%TO.N,unconnected-(U1-GPIO44{slash}U0RXD-Pad42)*%
X127000000Y-58420000D03*
%TO.P,U1,43,GPIO43/U0TXD*%
%TO.N,unconnected-(U1-GPIO43{slash}U0TXD-Pad43)*%
X124460000Y-58420000D03*
%TO.P,U1,44,GND*%
%TO.N,GND*%
X121920000Y-58420000D03*
%TD*%
D14*
%TO.P,REF\u002A\u002A,1*%
%TO.N,GND*%
X182880000Y-114300000D03*
%TD*%
%TO.P,REF\u002A\u002A,1*%
%TO.N,GND*%
X182880000Y-85090000D03*
%TD*%
%TO.P,REF\u002A\u002A,1*%
%TO.N,GND*%
X116840000Y-58420000D03*
%TD*%
%TO.P,REF\u002A\u002A,1*%
%TO.N,GND*%
X116840000Y-114300000D03*
%TD*%
D15*
%TO.N,+3.3V*%
X162560000Y-88900000D03*
X162560000Y-94615000D03*
%TD*%
D16*
%TO.N,+3.3V*%
X162560000Y-88900000D02*
X162560000Y-94615000D01*
%TD*%
%TA.AperFunction,Conductor*%
%TO.N,GND*%
G36*
X116000967Y-115016602D02*
G01*
X116123398Y-115139033D01*
X116257262Y-115236290D01*
X115322464Y-116171087D01*
X115311317Y-116224149D01*
X115262266Y-116273906D01*
X115202064Y-116289500D01*
X114974500Y-116289500D01*
X114907461Y-116269815D01*
X114861706Y-116217011D01*
X114850500Y-116165500D01*
X114850500Y-115935233D01*
X114870185Y-115868194D01*
X114922989Y-115822439D01*
X114973815Y-115812630D01*
X115903708Y-114882736D01*
X116000967Y-115016602D01*
G37*
%TD.AperFunction*%
%TA.AperFunction,Conductor*%
G36*
X184812539Y-56450185D02*
G01*
X184858294Y-56502989D01*
X184869500Y-56554500D01*
X184869500Y-83454765D01*
X184849815Y-83521804D01*
X184797011Y-83567559D01*
X184746184Y-83577367D01*
X183816289Y-84507261D01*
X183719033Y-84373398D01*
X183596602Y-84250967D01*
X183462736Y-84153709D01*
X184393434Y-83223011D01*
X184393433Y-83223009D01*
X184168538Y-83059614D01*
X184168520Y-83059602D01*
X183903890Y-82914121D01*
X183903882Y-82914117D01*
X183623110Y-82802952D01*
X183623107Y-82802951D01*
X183330600Y-82727849D01*
X183031004Y-82690000D01*
X182728995Y-82690000D01*
X182429399Y-82727849D01*
X182136892Y-82802951D01*
X182136889Y-82802952D01*
X181856117Y-82914117D01*
X181856109Y-82914121D01*
X181591476Y-83059604D01*
X181591471Y-83059607D01*
X181366565Y-83223010D01*
X181366564Y-83223011D01*
X182297262Y-84153709D01*
X182163398Y-84250967D01*
X182040967Y-84373398D01*
X181943709Y-84507262D01*
X181015311Y-83578864D01*
X180934520Y-83676525D01*
X180934518Y-83676528D01*
X180772707Y-83931502D01*
X180772704Y-83931508D01*
X180644127Y-84204747D01*
X180644125Y-84204752D01*
X180550805Y-84491959D01*
X180494216Y-84788609D01*
X180494215Y-84788616D01*
X180475255Y-85089994D01*
X180475255Y-85090005D01*
X180494215Y-85391383D01*
X180494216Y-85391390D01*
X180550805Y-85688040D01*
X180644125Y-85975247D01*
X180644127Y-85975252D01*
X180772704Y-86248491D01*
X180772707Y-86248497D01*
X180934516Y-86503469D01*
X181015311Y-86601133D01*
X181943708Y-85672736D01*
X182040967Y-85806602D01*
X182163398Y-85929033D01*
X182297262Y-86026290D01*
X181366564Y-86956987D01*
X181366565Y-86956989D01*
X181591461Y-87120385D01*
X181591479Y-87120397D01*
X181856109Y-87265878D01*
X181856117Y-87265882D01*
X182136889Y-87377047D01*
X182136892Y-87377048D01*
X182429399Y-87452150D01*
X182728995Y-87489999D01*
X182729007Y-87490000D01*
X183030993Y-87490000D01*
X183031004Y-87489999D01*
X183330600Y-87452150D01*
X183623107Y-87377048D01*
X183623110Y-87377047D01*
X183903882Y-87265882D01*
X183903890Y-87265878D01*
X184168520Y-87120397D01*
X184168530Y-87120390D01*
X184393433Y-86956987D01*
X184393434Y-86956987D01*
X183462737Y-86026290D01*
X183596602Y-85929033D01*
X183719033Y-85806602D01*
X183816290Y-85672737D01*
X184746615Y-86603062D01*
X184807549Y-86617874D01*
X184855742Y-86668464D01*
X184869500Y-86725233D01*
X184869500Y-112664765D01*
X184849815Y-112731804D01*
X184797011Y-112777559D01*
X184746184Y-112787367D01*
X183816289Y-113717261D01*
X183719033Y-113583398D01*
X183596602Y-113460967D01*
X183462736Y-113363709D01*
X184393434Y-112433011D01*
X184393433Y-112433009D01*
X184168538Y-112269614D01*
X184168520Y-112269602D01*
X183903890Y-112124121D01*
X183903882Y-112124117D01*
X183623110Y-112012952D01*
X183623107Y-112012951D01*
X183330600Y-111937849D01*
X183031004Y-111900000D01*
X182728995Y-111900000D01*
X182429399Y-111937849D01*
X182136892Y-112012951D01*
X182136889Y-112012952D01*
X181856117Y-112124117D01*
X181856109Y-112124121D01*
X181591476Y-112269604D01*
X181591471Y-112269607D01*
X181366565Y-112433010D01*
X181366564Y-112433011D01*
X182297262Y-113363709D01*
X182163398Y-113460967D01*
X182040967Y-113583398D01*
X181943709Y-113717262D01*
X181015311Y-112788864D01*
X180934520Y-112886525D01*
X180934518Y-112886528D01*
X180772707Y-113141502D01*
X180772704Y-113141508D01*
X180644127Y-113414747D01*
X180644125Y-113414752D01*
X180550805Y-113701959D01*
X180494216Y-113998609D01*
X180494215Y-113998616D01*
X180475255Y-114299994D01*
X180475255Y-114300005D01*
X180494215Y-114601383D01*
X180494216Y-114601390D01*
X180550805Y-114898040D01*
X180644125Y-115185247D01*
X180644127Y-115185252D01*
X180772704Y-115458491D01*
X180772707Y-115458497D01*
X180934516Y-115713469D01*
X181015311Y-115811133D01*
X181943708Y-114882736D01*
X182040967Y-115016602D01*
X182163398Y-115139033D01*
X182297262Y-115236290D01*
X181362464Y-116171087D01*
X181351317Y-116224149D01*
X181302266Y-116273906D01*
X181242064Y-116289500D01*
X118477935Y-116289500D01*
X118410896Y-116269815D01*
X118365141Y-116217011D01*
X118356914Y-116170467D01*
X117422737Y-115236290D01*
X117556602Y-115139033D01*
X117679033Y-115016602D01*
X117776290Y-114882737D01*
X118704687Y-115811134D01*
X118785486Y-115713464D01*
X118947292Y-115458497D01*
X118947295Y-115458491D01*
X119075872Y-115185252D01*
X119075874Y-115185247D01*
X119169194Y-114898040D01*
X119225783Y-114601390D01*
X119225784Y-114601383D01*
X119244745Y-114300005D01*
X119244745Y-114299997D01*
X148592677Y-114299997D01*
X148592677Y-114300002D01*
X148611929Y-114520062D01*
X148611930Y-114520070D01*
X148669104Y-114733445D01*
X148669105Y-114733447D01*
X148669106Y-114733450D01*
X148702382Y-114804811D01*
X148762466Y-114933662D01*
X148762468Y-114933666D01*
X148889170Y-115114615D01*
X148889175Y-115114621D01*
X149045378Y-115270824D01*
X149045384Y-115270829D01*
X149226333Y-115397531D01*
X149226335Y-115397532D01*
X149226338Y-115397534D01*
X149426550Y-115490894D01*
X149639932Y-115548070D01*
X149797123Y-115561822D01*
X149859998Y-115567323D01*
X149860000Y-115567323D01*
X149860002Y-115567323D01*
X149915017Y-115562509D01*
X150080068Y-115548070D01*
X150293450Y-115490894D01*
X150493662Y-115397534D01*
X150674620Y-115270826D01*
X150830826Y-115114620D01*
X150957534Y-114933662D01*
X151017618Y-114804811D01*
X151063790Y-114752371D01*
X151130983Y-114733219D01*
X151197865Y-114753435D01*
X151242382Y-114804811D01*
X151302464Y-114933658D01*
X151302468Y-114933666D01*
X151429170Y-115114615D01*
X151429175Y-115114621D01*
X151585378Y-115270824D01*
X151585384Y-115270829D01*
X151766333Y-115397531D01*
X151766335Y-115397532D01*
X151766338Y-115397534D01*
X151966550Y-115490894D01*
X152179932Y-115548070D01*
X152337123Y-115561822D01*
X152399998Y-115567323D01*
X152400000Y-115567323D01*
X152400002Y-115567323D01*
X152455017Y-115562509D01*
X152620068Y-115548070D01*
X152833450Y-115490894D01*
X153033662Y-115397534D01*
X153214620Y-115270826D01*
X153370826Y-115114620D01*
X153497534Y-114933662D01*
X153557618Y-114804811D01*
X153603790Y-114752371D01*
X153670983Y-114733219D01*
X153737865Y-114753435D01*
X153782382Y-114804811D01*
X153842464Y-114933658D01*
X153842468Y-114933666D01*
X153969170Y-115114615D01*
X153969175Y-115114621D01*
X154125378Y-115270824D01*
X154125384Y-115270829D01*
X154306333Y-115397531D01*
X154306335Y-115397532D01*
X154306338Y-115397534D01*
X154506550Y-115490894D01*
X154719932Y-115548070D01*
X154877123Y-115561822D01*
X154939998Y-115567323D01*
X154940000Y-115567323D01*
X154940002Y-115567323D01*
X154995017Y-115562509D01*
X155160068Y-115548070D01*
X155373450Y-115490894D01*
X155573662Y-115397534D01*
X155754620Y-115270826D01*
X155910826Y-115114620D01*
X156037534Y-114933662D01*
X156097618Y-114804811D01*
X156143790Y-114752371D01*
X156210983Y-114733219D01*
X156277865Y-114753435D01*
X156322382Y-114804811D01*
X156382464Y-114933658D01*
X156382468Y-114933666D01*
X156509170Y-115114615D01*
X156509175Y-115114621D01*
X156665378Y-115270824D01*
X156665384Y-115270829D01*
X156846333Y-115397531D01*
X156846335Y-115397532D01*
X156846338Y-115397534D01*
X157046550Y-115490894D01*
X157259932Y-115548070D01*
X157417123Y-115561822D01*
X157479998Y-115567323D01*
X157480000Y-115567323D01*
X157480002Y-115567323D01*
X157535017Y-115562509D01*
X157700068Y-115548070D01*
X157913450Y-115490894D01*
X158113662Y-115397534D01*
X158294620Y-115270826D01*
X158450826Y-115114620D01*
X158577534Y-114933662D01*
X158637618Y-114804811D01*
X158683790Y-114752371D01*
X158750983Y-114733219D01*
X158817865Y-114753435D01*
X158862382Y-114804811D01*
X158922464Y-114933658D01*
X158922468Y-114933666D01*
X159049170Y-115114615D01*
X159049175Y-115114621D01*
X159205378Y-115270824D01*
X159205384Y-115270829D01*
X159386333Y-115397531D01*
X159386335Y-115397532D01*
X159386338Y-115397534D01*
X159586550Y-115490894D01*
X159799932Y-115548070D01*
X159957123Y-115561822D01*
X160019998Y-115567323D01*
X160020000Y-115567323D01*
X160020002Y-115567323D01*
X160075017Y-115562509D01*
X160240068Y-115548070D01*
X160453450Y-115490894D01*
X160653662Y-115397534D01*
X160834620Y-115270826D01*
X160990826Y-115114620D01*
X161117534Y-114933662D01*
X161210894Y-114733450D01*
X161268070Y-114520068D01*
X161287323Y-114300000D01*
X161287322Y-114299994D01*
X161268070Y-114079937D01*
X161268070Y-114079932D01*
X161210894Y-113866550D01*
X161117534Y-113666339D01*
X160990826Y-113485380D01*
X160834620Y-113329174D01*
X160834616Y-113329171D01*
X160834615Y-113329170D01*
X160653666Y-113202468D01*
X160653662Y-113202466D01*
X160648374Y-113200000D01*
X160453450Y-113109106D01*
X160453447Y-113109105D01*
X160453445Y-113109104D01*
X160240070Y-113051930D01*
X160240062Y-113051929D01*
X160020002Y-113032677D01*
X160019998Y-113032677D01*
X159799937Y-113051929D01*
X159799929Y-113051930D01*
X159586554Y-113109104D01*
X159586548Y-113109107D01*
X159386340Y-113202465D01*
X159386338Y-113202466D01*
X159205377Y-113329175D01*
X159049175Y-113485377D01*
X158922466Y-113666338D01*
X158922465Y-113666340D01*
X158862382Y-113795189D01*
X158816209Y-113847628D01*
X158749016Y-113866780D01*
X158682135Y-113846564D01*
X158637618Y-113795189D01*
X158577534Y-113666340D01*
X158577533Y-113666338D01*
X158450827Y-113485381D01*
X158380193Y-113414747D01*
X158294620Y-113329174D01*
X158294616Y-113329171D01*
X158294615Y-113329170D01*
X158113666Y-113202468D01*
X158113662Y-113202466D01*
X158108374Y-113200000D01*
X157913450Y-113109106D01*
X157913447Y-113109105D01*
X157913445Y-113109104D01*
X157700070Y-113051930D01*
X157700062Y-113051929D01*
X157480002Y-113032677D01*
X157479998Y-113032677D01*
X157259937Y-113051929D01*
X157259929Y-113051930D01*
X157046554Y-113109104D01*
X157046548Y-113109107D01*
X156846340Y-113202465D01*
X156846338Y-113202466D01*
X156665377Y-113329175D01*
X156509175Y-113485377D01*
X156382466Y-113666338D01*
X156382465Y-113666340D01*
X156322382Y-113795189D01*
X156276209Y-113847628D01*
X156209016Y-113866780D01*
X156142135Y-113846564D01*
X156097618Y-113795189D01*
X156037534Y-113666340D01*
X156037533Y-113666338D01*
X155910827Y-113485381D01*
X155840193Y-113414747D01*
X155754620Y-113329174D01*
X155754616Y-113329171D01*
X155754615Y-113329170D01*
X155573666Y-113202468D01*
X155573662Y-113202466D01*
X155568374Y-113200000D01*
X155373450Y-113109106D01*
X155373447Y-113109105D01*
X155373445Y-113109104D01*
X155160070Y-113051930D01*
X155160062Y-113051929D01*
X154940002Y-113032677D01*
X154939998Y-113032677D01*
X154719937Y-113051929D01*
X154719929Y-113051930D01*
X154506554Y-113109104D01*
X154506548Y-113109107D01*
X154306340Y-113202465D01*
X154306338Y-113202466D01*
X154125377Y-113329175D01*
X153969175Y-113485377D01*
X153842466Y-113666338D01*
X153842465Y-113666340D01*
X153782382Y-113795189D01*
X153736209Y-113847628D01*
X153669016Y-113866780D01*
X153602135Y-113846564D01*
X153557618Y-113795189D01*
X153497534Y-113666340D01*
X153497533Y-113666338D01*
X153370827Y-113485381D01*
X153300193Y-113414747D01*
X153214620Y-113329174D01*
X153214616Y-113329171D01*
X153214615Y-113329170D01*
X153033666Y-113202468D01*
X153033662Y-113202466D01*
X153028374Y-113200000D01*
X152833450Y-113109106D01*
X152833447Y-113109105D01*
X152833445Y-113109104D01*
X152620070Y-113051930D01*
X152620062Y-113051929D01*
X152400002Y-113032677D01*
X152399998Y-113032677D01*
X152179937Y-113051929D01*
X152179929Y-113051930D01*
X151966554Y-113109104D01*
X151966548Y-113109107D01*
X151766340Y-113202465D01*
X151766338Y-113202466D01*
X151585377Y-113329175D01*
X151429175Y-113485377D01*
X151302466Y-113666338D01*
X151302465Y-113666340D01*
X151242382Y-113795189D01*
X151196209Y-113847628D01*
X151129016Y-113866780D01*
X151062135Y-113846564D01*
X151017618Y-113795189D01*
X150957534Y-113666340D01*
X150957533Y-113666338D01*
X150830827Y-113485381D01*
X150760193Y-113414747D01*
X150674620Y-113329174D01*
X150674616Y-113329171D01*
X150674615Y-113329170D01*
X150493666Y-113202468D01*
X150493662Y-113202466D01*
X150488374Y-113200000D01*
X150293450Y-113109106D01*
X150293447Y-113109105D01*
X150293445Y-113109104D01*
X150080070Y-113051930D01*
X150080062Y-113051929D01*
X149860002Y-113032677D01*
X149859998Y-113032677D01*
X149639937Y-113051929D01*
X149639929Y-113051930D01*
X149426554Y-113109104D01*
X149426548Y-113109107D01*
X149226340Y-113202465D01*
X149226338Y-113202466D01*
X149045377Y-113329175D01*
X148889175Y-113485377D01*
X148762466Y-113666338D01*
X148762465Y-113666340D01*
X148669107Y-113866548D01*
X148669104Y-113866554D01*
X148611930Y-114079929D01*
X148611929Y-114079937D01*
X148592677Y-114299997D01*
X119244745Y-114299997D01*
X119244745Y-114299994D01*
X119225784Y-113998616D01*
X119225783Y-113998609D01*
X119169194Y-113701959D01*
X119075874Y-113414752D01*
X119075872Y-113414747D01*
X118947295Y-113141508D01*
X118947292Y-113141502D01*
X118785483Y-112886530D01*
X118704686Y-112788864D01*
X117776289Y-113717261D01*
X117679033Y-113583398D01*
X117556602Y-113460967D01*
X117422736Y-113363709D01*
X118353434Y-112433011D01*
X118353433Y-112433009D01*
X118128538Y-112269614D01*
X118128520Y-112269602D01*
X117863890Y-112124121D01*
X117863882Y-112124117D01*
X117583110Y-112012952D01*
X117583107Y-112012951D01*
X117290600Y-111937849D01*
X116991004Y-111900000D01*
X116688995Y-111900000D01*
X116389399Y-111937849D01*
X116096892Y-112012951D01*
X116096889Y-112012952D01*
X115816117Y-112124117D01*
X115816109Y-112124121D01*
X115551476Y-112269604D01*
X115551471Y-112269607D01*
X115326565Y-112433010D01*
X115326564Y-112433011D01*
X116257262Y-113363709D01*
X116123398Y-113460967D01*
X116000967Y-113583398D01*
X115903709Y-113717262D01*
X114973382Y-112786935D01*
X114912449Y-112772122D01*
X114864257Y-112721532D01*
X114850500Y-112664765D01*
X114850500Y-88899997D01*
X138432677Y-88899997D01*
X138432677Y-88900002D01*
X138451929Y-89120062D01*
X138451930Y-89120070D01*
X138509104Y-89333445D01*
X138509105Y-89333447D01*
X138509106Y-89333450D01*
X138542382Y-89404811D01*
X138602466Y-89533662D01*
X138602468Y-89533666D01*
X138729170Y-89714615D01*
X138729175Y-89714621D01*
X138885378Y-89870824D01*
X138885384Y-89870829D01*
X139066333Y-89997531D01*
X139066335Y-89997532D01*
X139066338Y-89997534D01*
X139266550Y-90090894D01*
X139479932Y-90148070D01*
X139637123Y-90161822D01*
X139699998Y-90167323D01*
X139700000Y-90167323D01*
X139700002Y-90167323D01*
X139755017Y-90162509D01*
X139920068Y-90148070D01*
X140133450Y-90090894D01*
X140333662Y-89997534D01*
X140514620Y-89870826D01*
X140670826Y-89714620D01*
X140797534Y-89533662D01*
X140857618Y-89404811D01*
X140903790Y-89352371D01*
X140970983Y-89333219D01*
X141037865Y-89353435D01*
X141082382Y-89404811D01*
X141142464Y-89533658D01*
X141142468Y-89533666D01*
X141269170Y-89714615D01*
X141269175Y-89714621D01*
X141425378Y-89870824D01*
X141425384Y-89870829D01*
X141606333Y-89997531D01*
X141606335Y-89997532D01*
X141606338Y-89997534D01*
X141806550Y-90090894D01*
X142019932Y-90148070D01*
X142177123Y-90161822D01*
X142239998Y-90167323D01*
X142240000Y-90167323D01*
X142240002Y-90167323D01*
X142295017Y-90162509D01*
X142460068Y-90148070D01*
X142673450Y-90090894D01*
X142873662Y-89997534D01*
X143054620Y-89870826D01*
X143210826Y-89714620D01*
X143337534Y-89533662D01*
X143397618Y-89404811D01*
X143443790Y-89352371D01*
X143510983Y-89333219D01*
X143577865Y-89353435D01*
X143622382Y-89404811D01*
X143682464Y-89533658D01*
X143682468Y-89533666D01*
X143809170Y-89714615D01*
X143809175Y-89714621D01*
X143965378Y-89870824D01*
X143965384Y-89870829D01*
X144146333Y-89997531D01*
X144146335Y-89997532D01*
X144146338Y-89997534D01*
X144346550Y-90090894D01*
X144559932Y-90148070D01*
X144717123Y-90161822D01*
X144779998Y-90167323D01*
X144780000Y-90167323D01*
X144780002Y-90167323D01*
X144835017Y-90162509D01*
X145000068Y-90148070D01*
X145213450Y-90090894D01*
X145413662Y-89997534D01*
X145594620Y-89870826D01*
X145750826Y-89714620D01*
X145877534Y-89533662D01*
X145937618Y-89404811D01*
X145983790Y-89352371D01*
X146050983Y-89333219D01*
X146117865Y-89353435D01*
X146162382Y-89404811D01*
X146222464Y-89533658D01*
X146222468Y-89533666D01*
X146349170Y-89714615D01*
X146349175Y-89714621D01*
X146505378Y-89870824D01*
X146505384Y-89870829D01*
X146686333Y-89997531D01*
X146686335Y-89997532D01*
X146686338Y-89997534D01*
X146886550Y-90090894D01*
X147099932Y-90148070D01*
X147257123Y-90161822D01*
X147319998Y-90167323D01*
X147320000Y-90167323D01*
X147320002Y-90167323D01*
X147375017Y-90162509D01*
X147540068Y-90148070D01*
X147753450Y-90090894D01*
X147953662Y-89997534D01*
X148134620Y-89870826D01*
X148290826Y-89714620D01*
X148417534Y-89533662D01*
X148477618Y-89404811D01*
X148523790Y-89352371D01*
X148590983Y-89333219D01*
X148657865Y-89353435D01*
X148702382Y-89404811D01*
X148762464Y-89533658D01*
X148762468Y-89533666D01*
X148889170Y-89714615D01*
X148889175Y-89714621D01*
X149045378Y-89870824D01*
X149045384Y-89870829D01*
X149226333Y-89997531D01*
X149226335Y-89997532D01*
X149226338Y-89997534D01*
X149426550Y-90090894D01*
X149639932Y-90148070D01*
X149797123Y-90161822D01*
X149859998Y-90167323D01*
X149860000Y-90167323D01*
X149860002Y-90167323D01*
X149915017Y-90162509D01*
X150080068Y-90148070D01*
X150293450Y-90090894D01*
X150493662Y-89997534D01*
X150674620Y-89870826D01*
X150830826Y-89714620D01*
X150957534Y-89533662D01*
X151017618Y-89404811D01*
X151063790Y-89352371D01*
X151130983Y-89333219D01*
X151197865Y-89353435D01*
X151242382Y-89404811D01*
X151302464Y-89533658D01*
X151302468Y-89533666D01*
X151429170Y-89714615D01*
X151429175Y-89714621D01*
X151585378Y-89870824D01*
X151585384Y-89870829D01*
X151766333Y-89997531D01*
X151766335Y-89997532D01*
X151766338Y-89997534D01*
X151966550Y-90090894D01*
X152179932Y-90148070D01*
X152337123Y-90161822D01*
X152399998Y-90167323D01*
X152400000Y-90167323D01*
X152400002Y-90167323D01*
X152455017Y-90162509D01*
X152620068Y-90148070D01*
X152833450Y-90090894D01*
X153033662Y-89997534D01*
X153214620Y-89870826D01*
X153370826Y-89714620D01*
X153497534Y-89533662D01*
X153557618Y-89404811D01*
X153603790Y-89352371D01*
X153670983Y-89333219D01*
X153737865Y-89353435D01*
X153782382Y-89404811D01*
X153842464Y-89533658D01*
X153842468Y-89533666D01*
X153969170Y-89714615D01*
X153969175Y-89714621D01*
X154125378Y-89870824D01*
X154125384Y-89870829D01*
X154306333Y-89997531D01*
X154306335Y-89997532D01*
X154306338Y-89997534D01*
X154506550Y-90090894D01*
X154719932Y-90148070D01*
X154877123Y-90161822D01*
X154939998Y-90167323D01*
X154940000Y-90167323D01*
X154940002Y-90167323D01*
X154995017Y-90162509D01*
X155160068Y-90148070D01*
X155373450Y-90090894D01*
X155573662Y-89997534D01*
X155754620Y-89870826D01*
X155910826Y-89714620D01*
X155992425Y-89598083D01*
X156047002Y-89554459D01*
X156116500Y-89547265D01*
X156178855Y-89578788D01*
X156214269Y-89639017D01*
X156218000Y-89669207D01*
X156218000Y-89709844D01*
X156224401Y-89769372D01*
X156224403Y-89769379D01*
X156274645Y-89904086D01*
X156274649Y-89904093D01*
X156360809Y-90019187D01*
X156360812Y-90019190D01*
X156475906Y-90105350D01*
X156475913Y-90105354D01*
X156610620Y-90155596D01*
X156610627Y-90155598D01*
X156670155Y-90161999D01*
X156670172Y-90162000D01*
X157230000Y-90162000D01*
X157230000Y-89188816D01*
X157246060Y-89204876D01*
X157332939Y-89255036D01*
X157429840Y-89281000D01*
X157530160Y-89281000D01*
X157627061Y-89255036D01*
X157713940Y-89204876D01*
X157730000Y-89188816D01*
X157730000Y-90162000D01*
X158289828Y-90162000D01*
X158289844Y-90161999D01*
X158349372Y-90155598D01*
X158349379Y-90155596D01*
X158484086Y-90105354D01*
X158484093Y-90105350D01*
X158599187Y-90019190D01*
X158599190Y-90019187D01*
X158685350Y-89904093D01*
X158685354Y-89904086D01*
X158735596Y-89769379D01*
X158735598Y-89769372D01*
X158741999Y-89709844D01*
X158742000Y-89709827D01*
X158742000Y-89669207D01*
X158761685Y-89602168D01*
X158814489Y-89556413D01*
X158883647Y-89546469D01*
X158947203Y-89575494D01*
X158967573Y-89598082D01*
X158996236Y-89639017D01*
X159049170Y-89714615D01*
X159049175Y-89714621D01*
X159205378Y-89870824D01*
X159205384Y-89870829D01*
X159386333Y-89997531D01*
X159386335Y-89997532D01*
X159386338Y-89997534D01*
X159586550Y-90090894D01*
X159799932Y-90148070D01*
X159957123Y-90161822D01*
X160019998Y-90167323D01*
X160020000Y-90167323D01*
X160020002Y-90167323D01*
X160075017Y-90162509D01*
X160240068Y-90148070D01*
X160453450Y-90090894D01*
X160653662Y-89997534D01*
X160834620Y-89870826D01*
X160990826Y-89714620D01*
X161117534Y-89533662D01*
X161210894Y-89333450D01*
X161268070Y-89120068D01*
X161287323Y-88900000D01*
X161287323Y-88899996D01*
X161754435Y-88899996D01*
X161754435Y-88900003D01*
X161774630Y-89079249D01*
X161774631Y-89079254D01*
X161802542Y-89159017D01*
X161809500Y-89199972D01*
X161809500Y-94315028D01*
X161802542Y-94355982D01*
X161774631Y-94435747D01*
X161754435Y-94614996D01*
X161754435Y-94615003D01*
X161774630Y-94794249D01*
X161774631Y-94794254D01*
X161834211Y-94964523D01*
X161930184Y-95117262D01*
X162057738Y-95244816D01*
X162210478Y-95340789D01*
X162380745Y-95400368D01*
X162380750Y-95400369D01*
X162559996Y-95420565D01*
X162560000Y-95420565D01*
X162560004Y-95420565D01*
X162739249Y-95400369D01*
X162739252Y-95400368D01*
X162739255Y-95400368D01*
X162909522Y-95340789D01*
X163062262Y-95244816D01*
X163189816Y-95117262D01*
X163285789Y-94964522D01*
X163345368Y-94794255D01*
X163365565Y-94615000D01*
X163345368Y-94435745D01*
X163317458Y-94355982D01*
X163310500Y-94315028D01*
X163310500Y-89199972D01*
X163317458Y-89159017D01*
X163345368Y-89079254D01*
X163345369Y-89079249D01*
X163365565Y-88900003D01*
X163365565Y-88899996D01*
X163345369Y-88720750D01*
X163345368Y-88720745D01*
X163285788Y-88550476D01*
X163189815Y-88397737D01*
X163062262Y-88270184D01*
X162909523Y-88174211D01*
X162739254Y-88114631D01*
X162739249Y-88114630D01*
X162560004Y-88094435D01*
X162559996Y-88094435D01*
X162380750Y-88114630D01*
X162380745Y-88114631D01*
X162210476Y-88174211D01*
X162057737Y-88270184D01*
X161930184Y-88397737D01*
X161834211Y-88550476D01*
X161774631Y-88720745D01*
X161774630Y-88720750D01*
X161754435Y-88899996D01*
X161287323Y-88899996D01*
X161268070Y-88679932D01*
X161210894Y-88466550D01*
X161117534Y-88266339D01*
X161022624Y-88130793D01*
X160990827Y-88085381D01*
X160936066Y-88030620D01*
X160834620Y-87929174D01*
X160834616Y-87929171D01*
X160834615Y-87929170D01*
X160653666Y-87802468D01*
X160653662Y-87802466D01*
X160653660Y-87802465D01*
X160453450Y-87709106D01*
X160453447Y-87709105D01*
X160453445Y-87709104D01*
X160240070Y-87651930D01*
X160240062Y-87651929D01*
X160020002Y-87632677D01*
X160019998Y-87632677D01*
X159799937Y-87651929D01*
X159799929Y-87651930D01*
X159586554Y-87709104D01*
X159586548Y-87709107D01*
X159386340Y-87802465D01*
X159386338Y-87802466D01*
X159205377Y-87929175D01*
X159049175Y-88085377D01*
X158967575Y-88201916D01*
X158912998Y-88245541D01*
X158843500Y-88252735D01*
X158781145Y-88221212D01*
X158745731Y-88160983D01*
X158742000Y-88130793D01*
X158742000Y-88090172D01*
X158741999Y-88090155D01*
X158735598Y-88030627D01*
X158735596Y-88030620D01*
X158685354Y-87895913D01*
X158685350Y-87895906D01*
X158599190Y-87780812D01*
X158599187Y-87780809D01*
X158484093Y-87694649D01*
X158484086Y-87694645D01*
X158349379Y-87644403D01*
X158349372Y-87644401D01*
X158289844Y-87638000D01*
X157730000Y-87638000D01*
X157730000Y-88611184D01*
X157713940Y-88595124D01*
X157627061Y-88544964D01*
X157530160Y-88519000D01*
X157429840Y-88519000D01*
X157332939Y-88544964D01*
X157246060Y-88595124D01*
X157230000Y-88611184D01*
X157230000Y-87638000D01*
X156670155Y-87638000D01*
X156610627Y-87644401D01*
X156610620Y-87644403D01*
X156475913Y-87694645D01*
X156475906Y-87694649D01*
X156360812Y-87780809D01*
X156360809Y-87780812D01*
X156274649Y-87895906D01*
X156274645Y-87895913D01*
X156224403Y-88030620D01*
X156224401Y-88030627D01*
X156218000Y-88090155D01*
X156218000Y-88130793D01*
X156198315Y-88197832D01*
X156145511Y-88243587D01*
X156076353Y-88253531D01*
X156012797Y-88224506D01*
X155992425Y-88201916D01*
X155910827Y-88085381D01*
X155856066Y-88030620D01*
X155754620Y-87929174D01*
X155754616Y-87929171D01*
X155754615Y-87929170D01*
X155573666Y-87802468D01*
X155573662Y-87802466D01*
X155573660Y-87802465D01*
X155373450Y-87709106D01*
X155373447Y-87709105D01*
X155373445Y-87709104D01*
X155160070Y-87651930D01*
X155160062Y-87651929D01*
X154940002Y-87632677D01*
X154939998Y-87632677D01*
X154719937Y-87651929D01*
X154719929Y-87651930D01*
X154506554Y-87709104D01*
X154506548Y-87709107D01*
X154306340Y-87802465D01*
X154306338Y-87802466D01*
X154125377Y-87929175D01*
X153969175Y-88085377D01*
X153842466Y-88266338D01*
X153842465Y-88266340D01*
X153782382Y-88395189D01*
X153736209Y-88447628D01*
X153669016Y-88466780D01*
X153602135Y-88446564D01*
X153557618Y-88395189D01*
X153497534Y-88266340D01*
X153497533Y-88266338D01*
X153370827Y-88085381D01*
X153316066Y-88030620D01*
X153214620Y-87929174D01*
X153214616Y-87929171D01*
X153214615Y-87929170D01*
X153033666Y-87802468D01*
X153033662Y-87802466D01*
X153033660Y-87802465D01*
X152833450Y-87709106D01*
X152833447Y-87709105D01*
X152833445Y-87709104D01*
X152620070Y-87651930D01*
X152620062Y-87651929D01*
X152400002Y-87632677D01*
X152399998Y-87632677D01*
X152179937Y-87651929D01*
X152179929Y-87651930D01*
X151966554Y-87709104D01*
X151966548Y-87709107D01*
X151766340Y-87802465D01*
X151766338Y-87802466D01*
X151585377Y-87929175D01*
X151429175Y-88085377D01*
X151302466Y-88266338D01*
X151302465Y-88266340D01*
X151242382Y-88395189D01*
X151196209Y-88447628D01*
X151129016Y-88466780D01*
X151062135Y-88446564D01*
X151017618Y-88395189D01*
X150957534Y-88266340D01*
X150957533Y-88266338D01*
X150830827Y-88085381D01*
X150776066Y-88030620D01*
X150674620Y-87929174D01*
X150674616Y-87929171D01*
X150674615Y-87929170D01*
X150493666Y-87802468D01*
X150493662Y-87802466D01*
X150493660Y-87802465D01*
X150293450Y-87709106D01*
X150293447Y-87709105D01*
X150293445Y-87709104D01*
X150080070Y-87651930D01*
X150080062Y-87651929D01*
X149860002Y-87632677D01*
X149859998Y-87632677D01*
X149639937Y-87651929D01*
X149639929Y-87651930D01*
X149426554Y-87709104D01*
X149426548Y-87709107D01*
X149226340Y-87802465D01*
X149226338Y-87802466D01*
X149045377Y-87929175D01*
X148889175Y-88085377D01*
X148762466Y-88266338D01*
X148762465Y-88266340D01*
X148702382Y-88395189D01*
X148656209Y-88447628D01*
X148589016Y-88466780D01*
X148522135Y-88446564D01*
X148477618Y-88395189D01*
X148417534Y-88266340D01*
X148417533Y-88266338D01*
X148290827Y-88085381D01*
X148236066Y-88030620D01*
X148134620Y-87929174D01*
X148134616Y-87929171D01*
X148134615Y-87929170D01*
X147953666Y-87802468D01*
X147953662Y-87802466D01*
X147953660Y-87802465D01*
X147753450Y-87709106D01*
X147753447Y-87709105D01*
X147753445Y-87709104D01*
X147540070Y-87651930D01*
X147540062Y-87651929D01*
X147320002Y-87632677D01*
X147319998Y-87632677D01*
X147099937Y-87651929D01*
X147099929Y-87651930D01*
X146886554Y-87709104D01*
X146886548Y-87709107D01*
X146686340Y-87802465D01*
X146686338Y-87802466D01*
X146505377Y-87929175D01*
X146349175Y-88085377D01*
X146222466Y-88266338D01*
X146222465Y-88266340D01*
X146162382Y-88395189D01*
X146116209Y-88447628D01*
X146049016Y-88466780D01*
X145982135Y-88446564D01*
X145937618Y-88395189D01*
X145877534Y-88266340D01*
X145877533Y-88266338D01*
X145750827Y-88085381D01*
X145696066Y-88030620D01*
X145594620Y-87929174D01*
X145594616Y-87929171D01*
X145594615Y-87929170D01*
X145413666Y-87802468D01*
X145413662Y-87802466D01*
X145413660Y-87802465D01*
X145213450Y-87709106D01*
X145213447Y-87709105D01*
X145213445Y-87709104D01*
X145000070Y-87651930D01*
X145000062Y-87651929D01*
X144780002Y-87632677D01*
X144779998Y-87632677D01*
X144559937Y-87651929D01*
X144559929Y-87651930D01*
X144346554Y-87709104D01*
X144346548Y-87709107D01*
X144146340Y-87802465D01*
X144146338Y-87802466D01*
X143965377Y-87929175D01*
X143809175Y-88085377D01*
X143682466Y-88266338D01*
X143682465Y-88266340D01*
X143622382Y-88395189D01*
X143576209Y-88447628D01*
X143509016Y-88466780D01*
X143442135Y-88446564D01*
X143397618Y-88395189D01*
X143337534Y-88266340D01*
X143337533Y-88266338D01*
X143210827Y-88085381D01*
X143156066Y-88030620D01*
X143054620Y-87929174D01*
X143054616Y-87929171D01*
X143054615Y-87929170D01*
X142873666Y-87802468D01*
X142873662Y-87802466D01*
X142873660Y-87802465D01*
X142673450Y-87709106D01*
X142673447Y-87709105D01*
X142673445Y-87709104D01*
X142460070Y-87651930D01*
X142460062Y-87651929D01*
X142240002Y-87632677D01*
X142239998Y-87632677D01*
X142019937Y-87651929D01*
X142019929Y-87651930D01*
X141806554Y-87709104D01*
X141806548Y-87709107D01*
X141606340Y-87802465D01*
X141606338Y-87802466D01*
X141425377Y-87929175D01*
X141269175Y-88085377D01*
X141142466Y-88266338D01*
X141142465Y-88266340D01*
X141082382Y-88395189D01*
X141036209Y-88447628D01*
X140969016Y-88466780D01*
X140902135Y-88446564D01*
X140857618Y-88395189D01*
X140797534Y-88266340D01*
X140797533Y-88266338D01*
X140670827Y-88085381D01*
X140616066Y-88030620D01*
X140514620Y-87929174D01*
X140514616Y-87929171D01*
X140514615Y-87929170D01*
X140333666Y-87802468D01*
X140333662Y-87802466D01*
X140333660Y-87802465D01*
X140133450Y-87709106D01*
X140133447Y-87709105D01*
X140133445Y-87709104D01*
X139920070Y-87651930D01*
X139920062Y-87651929D01*
X139700002Y-87632677D01*
X139699998Y-87632677D01*
X139479937Y-87651929D01*
X139479929Y-87651930D01*
X139266554Y-87709104D01*
X139266548Y-87709107D01*
X139066340Y-87802465D01*
X139066338Y-87802466D01*
X138885377Y-87929175D01*
X138729175Y-88085377D01*
X138602466Y-88266338D01*
X138602465Y-88266340D01*
X138509107Y-88466548D01*
X138509104Y-88466554D01*
X138451930Y-88679929D01*
X138451929Y-88679937D01*
X138432677Y-88899997D01*
X114850500Y-88899997D01*
X114850500Y-80232135D01*
X120819500Y-80232135D01*
X120819500Y-82327870D01*
X120819501Y-82327876D01*
X120825908Y-82387483D01*
X120876202Y-82522328D01*
X120876206Y-82522335D01*
X120962452Y-82637544D01*
X120962455Y-82637547D01*
X121077664Y-82723793D01*
X121077671Y-82723797D01*
X121212517Y-82774091D01*
X121212516Y-82774091D01*
X121219444Y-82774835D01*
X121272127Y-82780500D01*
X122567872Y-82780499D01*
X122627483Y-82774091D01*
X122762331Y-82723796D01*
X122877546Y-82637546D01*
X122963796Y-82522331D01*
X123014091Y-82387483D01*
X123020500Y-82327873D01*
X123020499Y-80793389D01*
X123359500Y-80793389D01*
X123359500Y-81766611D01*
X123386598Y-81937701D01*
X123440127Y-82102445D01*
X123518768Y-82256788D01*
X123620586Y-82396928D01*
X123743072Y-82519414D01*
X123883212Y-82621232D01*
X124037555Y-82699873D01*
X124202299Y-82753402D01*
X124373389Y-82780500D01*
X124373390Y-82780500D01*
X124546610Y-82780500D01*
X124546611Y-82780500D01*
X124717701Y-82753402D01*
X124882445Y-82699873D01*
X125036788Y-82621232D01*
X125176928Y-82519414D01*
X125299414Y-82396928D01*
X125401232Y-82256788D01*
X125479873Y-82102445D01*
X125533402Y-81937701D01*
X125560500Y-81766611D01*
X125560500Y-80793389D01*
X125899500Y-80793389D01*
X125899500Y-81766611D01*
X125926598Y-81937701D01*
X125980127Y-82102445D01*
X126058768Y-82256788D01*
X126160586Y-82396928D01*
X126283072Y-82519414D01*
X126423212Y-82621232D01*
X126577555Y-82699873D01*
X126742299Y-82753402D01*
X126913389Y-82780500D01*
X126913390Y-82780500D01*
X127086610Y-82780500D01*
X127086611Y-82780500D01*
X127257701Y-82753402D01*
X127422445Y-82699873D01*
X127576788Y-82621232D01*
X127716928Y-82519414D01*
X127839414Y-82396928D01*
X127941232Y-82256788D01*
X128019873Y-82102445D01*
X128073402Y-81937701D01*
X128100500Y-81766611D01*
X128100500Y-80793389D01*
X128439500Y-80793389D01*
X128439500Y-81766611D01*
X128466598Y-81937701D01*
X128520127Y-82102445D01*
X128598768Y-82256788D01*
X128700586Y-82396928D01*
X128823072Y-82519414D01*
X128963212Y-82621232D01*
X129117555Y-82699873D01*
X129282299Y-82753402D01*
X129453389Y-82780500D01*
X129453390Y-82780500D01*
X129626610Y-82780500D01*
X129626611Y-82780500D01*
X129797701Y-82753402D01*
X129962445Y-82699873D01*
X130116788Y-82621232D01*
X130256928Y-82519414D01*
X130379414Y-82396928D01*
X130481232Y-82256788D01*
X130559873Y-82102445D01*
X130613402Y-81937701D01*
X130640500Y-81766611D01*
X130640500Y-80793389D01*
X130979500Y-80793389D01*
X130979500Y-81766611D01*
X131006598Y-81937701D01*
X131060127Y-82102445D01*
X131138768Y-82256788D01*
X131240586Y-82396928D01*
X131363072Y-82519414D01*
X131503212Y-82621232D01*
X131657555Y-82699873D01*
X131822299Y-82753402D01*
X131993389Y-82780500D01*
X131993390Y-82780500D01*
X132166610Y-82780500D01*
X132166611Y-82780500D01*
X132337701Y-82753402D01*
X132502445Y-82699873D01*
X132656788Y-82621232D01*
X132796928Y-82519414D01*
X132919414Y-82396928D01*
X133021232Y-82256788D01*
X133099873Y-82102445D01*
X133153402Y-81937701D01*
X133180500Y-81766611D01*
X133180500Y-80793389D01*
X133519500Y-80793389D01*
X133519500Y-81766611D01*
X133546598Y-81937701D01*
X133600127Y-82102445D01*
X133678768Y-82256788D01*
X133780586Y-82396928D01*
X133903072Y-82519414D01*
X134043212Y-82621232D01*
X134197555Y-82699873D01*
X134362299Y-82753402D01*
X134533389Y-82780500D01*
X134533390Y-82780500D01*
X134706610Y-82780500D01*
X134706611Y-82780500D01*
X134877701Y-82753402D01*
X135042445Y-82699873D01*
X135196788Y-82621232D01*
X135336928Y-82519414D01*
X135459414Y-82396928D01*
X135561232Y-82256788D01*
X135639873Y-82102445D01*
X135693402Y-81937701D01*
X135720500Y-81766611D01*
X135720500Y-80793389D01*
X136059500Y-80793389D01*
X136059500Y-81766611D01*
X136086598Y-81937701D01*
X136140127Y-82102445D01*
X136218768Y-82256788D01*
X136320586Y-82396928D01*
X136443072Y-82519414D01*
X136583212Y-82621232D01*
X136737555Y-82699873D01*
X136902299Y-82753402D01*
X137073389Y-82780500D01*
X137073390Y-82780500D01*
X137246610Y-82780500D01*
X137246611Y-82780500D01*
X137417701Y-82753402D01*
X137582445Y-82699873D01*
X137736788Y-82621232D01*
X137876928Y-82519414D01*
X137999414Y-82396928D01*
X138101232Y-82256788D01*
X138179873Y-82102445D01*
X138233402Y-81937701D01*
X138260500Y-81766611D01*
X138260500Y-80793389D01*
X138599500Y-80793389D01*
X138599500Y-81766611D01*
X138626598Y-81937701D01*
X138680127Y-82102445D01*
X138758768Y-82256788D01*
X138860586Y-82396928D01*
X138983072Y-82519414D01*
X139123212Y-82621232D01*
X139277555Y-82699873D01*
X139442299Y-82753402D01*
X139613389Y-82780500D01*
X139613390Y-82780500D01*
X139786610Y-82780500D01*
X139786611Y-82780500D01*
X139957701Y-82753402D01*
X140122445Y-82699873D01*
X140276788Y-82621232D01*
X140416928Y-82519414D01*
X140539414Y-82396928D01*
X140641232Y-82256788D01*
X140719873Y-82102445D01*
X140773402Y-81937701D01*
X140800500Y-81766611D01*
X140800500Y-80793389D01*
X141139500Y-80793389D01*
X141139500Y-81766611D01*
X141166598Y-81937701D01*
X141220127Y-82102445D01*
X141298768Y-82256788D01*
X141400586Y-82396928D01*
X141523072Y-82519414D01*
X141663212Y-82621232D01*
X141817555Y-82699873D01*
X141982299Y-82753402D01*
X142153389Y-82780500D01*
X142153390Y-82780500D01*
X142326610Y-82780500D01*
X142326611Y-82780500D01*
X142497701Y-82753402D01*
X142662445Y-82699873D01*
X142816788Y-82621232D01*
X142956928Y-82519414D01*
X143079414Y-82396928D01*
X143181232Y-82256788D01*
X143259873Y-82102445D01*
X143313402Y-81937701D01*
X143340500Y-81766611D01*
X143340500Y-80793389D01*
X143679500Y-80793389D01*
X143679500Y-81766611D01*
X143706598Y-81937701D01*
X143760127Y-82102445D01*
X143838768Y-82256788D01*
X143940586Y-82396928D01*
X144063072Y-82519414D01*
X144203212Y-82621232D01*
X144357555Y-82699873D01*
X144522299Y-82753402D01*
X144693389Y-82780500D01*
X144693390Y-82780500D01*
X144866610Y-82780500D01*
X144866611Y-82780500D01*
X145037701Y-82753402D01*
X145202445Y-82699873D01*
X145356788Y-82621232D01*
X145496928Y-82519414D01*
X145619414Y-82396928D01*
X145721232Y-82256788D01*
X145799873Y-82102445D01*
X145853402Y-81937701D01*
X145880500Y-81766611D01*
X145880500Y-80793389D01*
X146219500Y-80793389D01*
X146219500Y-81766611D01*
X146246598Y-81937701D01*
X146300127Y-82102445D01*
X146378768Y-82256788D01*
X146480586Y-82396928D01*
X146603072Y-82519414D01*
X146743212Y-82621232D01*
X146897555Y-82699873D01*
X147062299Y-82753402D01*
X147233389Y-82780500D01*
X147233390Y-82780500D01*
X147406610Y-82780500D01*
X147406611Y-82780500D01*
X147577701Y-82753402D01*
X147742445Y-82699873D01*
X147896788Y-82621232D01*
X148036928Y-82519414D01*
X148159414Y-82396928D01*
X148261232Y-82256788D01*
X148339873Y-82102445D01*
X148393402Y-81937701D01*
X148420500Y-81766611D01*
X148420500Y-80793389D01*
X148759500Y-80793389D01*
X148759500Y-81766611D01*
X148786598Y-81937701D01*
X148840127Y-82102445D01*
X148918768Y-82256788D01*
X149020586Y-82396928D01*
X149143072Y-82519414D01*
X149283212Y-82621232D01*
X149437555Y-82699873D01*
X149602299Y-82753402D01*
X149773389Y-82780500D01*
X149773390Y-82780500D01*
X149946610Y-82780500D01*
X149946611Y-82780500D01*
X150117701Y-82753402D01*
X150282445Y-82699873D01*
X150436788Y-82621232D01*
X150576928Y-82519414D01*
X150699414Y-82396928D01*
X150801232Y-82256788D01*
X150879873Y-82102445D01*
X150933402Y-81937701D01*
X150960500Y-81766611D01*
X150960500Y-80793389D01*
X151299500Y-80793389D01*
X151299500Y-81766611D01*
X151326598Y-81937701D01*
X151380127Y-82102445D01*
X151458768Y-82256788D01*
X151560586Y-82396928D01*
X151683072Y-82519414D01*
X151823212Y-82621232D01*
X151977555Y-82699873D01*
X152142299Y-82753402D01*
X152313389Y-82780500D01*
X152313390Y-82780500D01*
X152486610Y-82780500D01*
X152486611Y-82780500D01*
X152657701Y-82753402D01*
X152822445Y-82699873D01*
X152976788Y-82621232D01*
X153116928Y-82519414D01*
X153239414Y-82396928D01*
X153341232Y-82256788D01*
X153419873Y-82102445D01*
X153473402Y-81937701D01*
X153500500Y-81766611D01*
X153500500Y-80793389D01*
X153839500Y-80793389D01*
X153839500Y-81766611D01*
X153866598Y-81937701D01*
X153920127Y-82102445D01*
X153998768Y-82256788D01*
X154100586Y-82396928D01*
X154223072Y-82519414D01*
X154363212Y-82621232D01*
X154517555Y-82699873D01*
X154682299Y-82753402D01*
X154853389Y-82780500D01*
X154853390Y-82780500D01*
X155026610Y-82780500D01*
X155026611Y-82780500D01*
X155197701Y-82753402D01*
X155362445Y-82699873D01*
X155516788Y-82621232D01*
X155656928Y-82519414D01*
X155779414Y-82396928D01*
X155881232Y-82256788D01*
X155959873Y-82102445D01*
X156013402Y-81937701D01*
X156040500Y-81766611D01*
X156040500Y-80793389D01*
X156379500Y-80793389D01*
X156379500Y-81766611D01*
X156406598Y-81937701D01*
X156460127Y-82102445D01*
X156538768Y-82256788D01*
X156640586Y-82396928D01*
X156763072Y-82519414D01*
X156903212Y-82621232D01*
X157057555Y-82699873D01*
X157222299Y-82753402D01*
X157393389Y-82780500D01*
X157393390Y-82780500D01*
X157566610Y-82780500D01*
X157566611Y-82780500D01*
X157737701Y-82753402D01*
X157902445Y-82699873D01*
X158056788Y-82621232D01*
X158196928Y-82519414D01*
X158319414Y-82396928D01*
X158421232Y-82256788D01*
X158499873Y-82102445D01*
X158553402Y-81937701D01*
X158580500Y-81766611D01*
X158580500Y-80793389D01*
X158919500Y-80793389D01*
X158919500Y-81766611D01*
X158946598Y-81937701D01*
X159000127Y-82102445D01*
X159078768Y-82256788D01*
X159180586Y-82396928D01*
X159303072Y-82519414D01*
X159443212Y-82621232D01*
X159597555Y-82699873D01*
X159762299Y-82753402D01*
X159933389Y-82780500D01*
X159933390Y-82780500D01*
X160106610Y-82780500D01*
X160106611Y-82780500D01*
X160277701Y-82753402D01*
X160442445Y-82699873D01*
X160596788Y-82621232D01*
X160736928Y-82519414D01*
X160859414Y-82396928D01*
X160961232Y-82256788D01*
X161039873Y-82102445D01*
X161093402Y-81937701D01*
X161120500Y-81766611D01*
X161120500Y-80793389D01*
X161459500Y-80793389D01*
X161459500Y-81766611D01*
X161486598Y-81937701D01*
X161540127Y-82102445D01*
X161618768Y-82256788D01*
X161720586Y-82396928D01*
X161843072Y-82519414D01*
X161983212Y-82621232D01*
X162137555Y-82699873D01*
X162302299Y-82753402D01*
X162473389Y-82780500D01*
X162473390Y-82780500D01*
X162646610Y-82780500D01*
X162646611Y-82780500D01*
X162817701Y-82753402D01*
X162982445Y-82699873D01*
X163136788Y-82621232D01*
X163276928Y-82519414D01*
X163399414Y-82396928D01*
X163501232Y-82256788D01*
X163579873Y-82102445D01*
X163633402Y-81937701D01*
X163660500Y-81766611D01*
X163660500Y-80793389D01*
X163999500Y-80793389D01*
X163999500Y-81766611D01*
X164026598Y-81937701D01*
X164080127Y-82102445D01*
X164158768Y-82256788D01*
X164260586Y-82396928D01*
X164383072Y-82519414D01*
X164523212Y-82621232D01*
X164677555Y-82699873D01*
X164842299Y-82753402D01*
X165013389Y-82780500D01*
X165013390Y-82780500D01*
X165186610Y-82780500D01*
X165186611Y-82780500D01*
X165357701Y-82753402D01*
X165522445Y-82699873D01*
X165676788Y-82621232D01*
X165816928Y-82519414D01*
X165939414Y-82396928D01*
X166041232Y-82256788D01*
X166119873Y-82102445D01*
X166173402Y-81937701D01*
X166200500Y-81766611D01*
X166200500Y-80793389D01*
X166539500Y-80793389D01*
X166539500Y-81766611D01*
X166566598Y-81937701D01*
X166620127Y-82102445D01*
X166698768Y-82256788D01*
X166800586Y-82396928D01*
X166923072Y-82519414D01*
X167063212Y-82621232D01*
X167217555Y-82699873D01*
X167382299Y-82753402D01*
X167553389Y-82780500D01*
X167553390Y-82780500D01*
X167726610Y-82780500D01*
X167726611Y-82780500D01*
X167897701Y-82753402D01*
X168062445Y-82699873D01*
X168216788Y-82621232D01*
X168356928Y-82519414D01*
X168479414Y-82396928D01*
X168581232Y-82256788D01*
X168659873Y-82102445D01*
X168713402Y-81937701D01*
X168740500Y-81766611D01*
X168740500Y-80797069D01*
X169076780Y-80797069D01*
X169076780Y-81770290D01*
X169103294Y-81937697D01*
X169103878Y-81941381D01*
X169157407Y-82106125D01*
X169236048Y-82260468D01*
X169337866Y-82400608D01*
X169460352Y-82523094D01*
X169600492Y-82624912D01*
X169754835Y-82703553D01*
X169919579Y-82757082D01*
X170090669Y-82784180D01*
X170090670Y-82784180D01*
X170263890Y-82784180D01*
X170263891Y-82784180D01*
X170434981Y-82757082D01*
X170599725Y-82703553D01*
X170754068Y-82624912D01*
X170894208Y-82523094D01*
X171016694Y-82400608D01*
X171118512Y-82260468D01*
X171197153Y-82106125D01*
X171250682Y-81941381D01*
X171277780Y-81770291D01*
X171277780Y-80797069D01*
X171616780Y-80797069D01*
X171616780Y-81770290D01*
X171643294Y-81937697D01*
X171643878Y-81941381D01*
X171697407Y-82106125D01*
X171776048Y-82260468D01*
X171877866Y-82400608D01*
X172000352Y-82523094D01*
X172140492Y-82624912D01*
X172294835Y-82703553D01*
X172459579Y-82757082D01*
X172630669Y-82784180D01*
X172630670Y-82784180D01*
X172803890Y-82784180D01*
X172803891Y-82784180D01*
X172974981Y-82757082D01*
X173139725Y-82703553D01*
X173294068Y-82624912D01*
X173434208Y-82523094D01*
X173556694Y-82400608D01*
X173658512Y-82260468D01*
X173737153Y-82106125D01*
X173790682Y-81941381D01*
X173817780Y-81770291D01*
X173817780Y-80797108D01*
X174157280Y-80797108D01*
X174157280Y-81033680D01*
X174941594Y-81033680D01*
X174937200Y-81038074D01*
X174884539Y-81129286D01*
X174857280Y-81231019D01*
X174857280Y-81336341D01*
X174884539Y-81438074D01*
X174937200Y-81529286D01*
X174941594Y-81533680D01*
X174157280Y-81533680D01*
X174157280Y-81770251D01*
X174184365Y-81941264D01*
X174237871Y-82105937D01*
X174316475Y-82260204D01*
X174418247Y-82400282D01*
X174540677Y-82522712D01*
X174680755Y-82624484D01*
X174835024Y-82703088D01*
X174999695Y-82756594D01*
X174999694Y-82756594D01*
X175007279Y-82757795D01*
X175007280Y-82757794D01*
X175007280Y-81599366D01*
X175011674Y-81603760D01*
X175102886Y-81656421D01*
X175204619Y-81683680D01*
X175309941Y-81683680D01*
X175411674Y-81656421D01*
X175502886Y-81603760D01*
X175507280Y-81599366D01*
X175507280Y-82757795D01*
X175514864Y-82756594D01*
X175679535Y-82703088D01*
X175833804Y-82624484D01*
X175973882Y-82522712D01*
X176096312Y-82400282D01*
X176198084Y-82260204D01*
X176276688Y-82105937D01*
X176330194Y-81941264D01*
X176357280Y-81770251D01*
X176357280Y-81533680D01*
X175572966Y-81533680D01*
X175577360Y-81529286D01*
X175630021Y-81438074D01*
X175657280Y-81336341D01*
X175657280Y-81231019D01*
X175630021Y-81129286D01*
X175577360Y-81038074D01*
X175572966Y-81033680D01*
X176357280Y-81033680D01*
X176357280Y-80797108D01*
X176330194Y-80626095D01*
X176276688Y-80461422D01*
X176198083Y-80307154D01*
X176096312Y-80167077D01*
X175973882Y-80044647D01*
X175833804Y-79942875D01*
X175679537Y-79864271D01*
X175514869Y-79810767D01*
X175514861Y-79810765D01*
X175507280Y-79809564D01*
X175507280Y-80967994D01*
X175502886Y-80963600D01*
X175411674Y-80910939D01*
X175309941Y-80883680D01*
X175204619Y-80883680D01*
X175102886Y-80910939D01*
X175011674Y-80963600D01*
X175007280Y-80967994D01*
X175007280Y-79809564D01*
X175007279Y-79809564D01*
X174999698Y-79810765D01*
X174999690Y-79810767D01*
X174835022Y-79864271D01*
X174680755Y-79942875D01*
X174540677Y-80044647D01*
X174418247Y-80167077D01*
X174316477Y-80307154D01*
X174237871Y-80461422D01*
X174184365Y-80626095D01*
X174157280Y-80797108D01*
X173817780Y-80797108D01*
X173817780Y-80797069D01*
X173790682Y-80625979D01*
X173737153Y-80461235D01*
X173658512Y-80306892D01*
X173556694Y-80166752D01*
X173434208Y-80044266D01*
X173294068Y-79942448D01*
X173139725Y-79863807D01*
X172974981Y-79810278D01*
X172974979Y-79810277D01*
X172974978Y-79810277D01*
X172821121Y-79785909D01*
X172803891Y-79783180D01*
X172630669Y-79783180D01*
X172613439Y-79785909D01*
X172459582Y-79810277D01*
X172294832Y-79863808D01*
X172140491Y-79942448D01*
X172060536Y-80000539D01*
X172000352Y-80044266D01*
X172000350Y-80044268D01*
X172000349Y-80044268D01*
X171877868Y-80166749D01*
X171877868Y-80166750D01*
X171877866Y-80166752D01*
X171834139Y-80226936D01*
X171776048Y-80306891D01*
X171697408Y-80461232D01*
X171643877Y-80625982D01*
X171616780Y-80797069D01*
X171277780Y-80797069D01*
X171250682Y-80625979D01*
X171197153Y-80461235D01*
X171118512Y-80306892D01*
X171016694Y-80166752D01*
X170894208Y-80044266D01*
X170754068Y-79942448D01*
X170599725Y-79863807D01*
X170434981Y-79810278D01*
X170434979Y-79810277D01*
X170434978Y-79810277D01*
X170281121Y-79785909D01*
X170263891Y-79783180D01*
X170090669Y-79783180D01*
X170073439Y-79785909D01*
X169919582Y-79810277D01*
X169754832Y-79863808D01*
X169600491Y-79942448D01*
X169520536Y-80000539D01*
X169460352Y-80044266D01*
X169460350Y-80044268D01*
X169460349Y-80044268D01*
X169337868Y-80166749D01*
X169337868Y-80166750D01*
X169337866Y-80166752D01*
X169294139Y-80226936D01*
X169236048Y-80306891D01*
X169157408Y-80461232D01*
X169103877Y-80625982D01*
X169076780Y-80797069D01*
X168740500Y-80797069D01*
X168740500Y-80793389D01*
X168713402Y-80622299D01*
X168659873Y-80457555D01*
X168581232Y-80303212D01*
X168479414Y-80163072D01*
X168356928Y-80040586D01*
X168216788Y-79938768D01*
X168069669Y-79863808D01*
X168062447Y-79860128D01*
X168062446Y-79860127D01*
X168062445Y-79860127D01*
X167897701Y-79806598D01*
X167897699Y-79806597D01*
X167897698Y-79806597D01*
X167766271Y-79785781D01*
X167726611Y-79779500D01*
X167553389Y-79779500D01*
X167513728Y-79785781D01*
X167382302Y-79806597D01*
X167217552Y-79860128D01*
X167063211Y-79938768D01*
X166983256Y-79996859D01*
X166923072Y-80040586D01*
X166923070Y-80040588D01*
X166923069Y-80040588D01*
X166800588Y-80163069D01*
X166800588Y-80163070D01*
X166800586Y-80163072D01*
X166793725Y-80172516D01*
X166698768Y-80303211D01*
X166620128Y-80457552D01*
X166566597Y-80622302D01*
X166539500Y-80793389D01*
X166200500Y-80793389D01*
X166173402Y-80622299D01*
X166119873Y-80457555D01*
X166041232Y-80303212D01*
X165939414Y-80163072D01*
X165816928Y-80040586D01*
X165676788Y-79938768D01*
X165529669Y-79863808D01*
X165522447Y-79860128D01*
X165522446Y-79860127D01*
X165522445Y-79860127D01*
X165357701Y-79806598D01*
X165357699Y-79806597D01*
X165357698Y-79806597D01*
X165226271Y-79785781D01*
X165186611Y-79779500D01*
X165013389Y-79779500D01*
X164973728Y-79785781D01*
X164842302Y-79806597D01*
X164677552Y-79860128D01*
X164523211Y-79938768D01*
X164443256Y-79996859D01*
X164383072Y-80040586D01*
X164383070Y-80040588D01*
X164383069Y-80040588D01*
X164260588Y-80163069D01*
X164260588Y-80163070D01*
X164260586Y-80163072D01*
X164253725Y-80172516D01*
X164158768Y-80303211D01*
X164080128Y-80457552D01*
X164026597Y-80622302D01*
X163999500Y-80793389D01*
X163660500Y-80793389D01*
X163633402Y-80622299D01*
X163579873Y-80457555D01*
X163501232Y-80303212D01*
X163399414Y-80163072D01*
X163276928Y-80040586D01*
X163136788Y-79938768D01*
X162989669Y-79863808D01*
X162982447Y-79860128D01*
X162982446Y-79860127D01*
X162982445Y-79860127D01*
X162817701Y-79806598D01*
X162817699Y-79806597D01*
X162817698Y-79806597D01*
X162686271Y-79785781D01*
X162646611Y-79779500D01*
X162473389Y-79779500D01*
X162433728Y-79785781D01*
X162302302Y-79806597D01*
X162137552Y-79860128D01*
X161983211Y-79938768D01*
X161903256Y-79996859D01*
X161843072Y-80040586D01*
X161843070Y-80040588D01*
X161843069Y-80040588D01*
X161720588Y-80163069D01*
X161720588Y-80163070D01*
X161720586Y-80163072D01*
X161713725Y-80172516D01*
X161618768Y-80303211D01*
X161540128Y-80457552D01*
X161486597Y-80622302D01*
X161459500Y-80793389D01*
X161120500Y-80793389D01*
X161093402Y-80622299D01*
X161039873Y-80457555D01*
X160961232Y-80303212D01*
X160859414Y-80163072D01*
X160736928Y-80040586D01*
X160596788Y-79938768D01*
X160449669Y-79863808D01*
X160442447Y-79860128D01*
X160442446Y-79860127D01*
X160442445Y-79860127D01*
X160277701Y-79806598D01*
X160277699Y-79806597D01*
X160277698Y-79806597D01*
X160146271Y-79785781D01*
X160106611Y-79779500D01*
X159933389Y-79779500D01*
X159893728Y-79785781D01*
X159762302Y-79806597D01*
X159597552Y-79860128D01*
X159443211Y-79938768D01*
X159363256Y-79996859D01*
X159303072Y-80040586D01*
X159303070Y-80040588D01*
X159303069Y-80040588D01*
X159180588Y-80163069D01*
X159180588Y-80163070D01*
X159180586Y-80163072D01*
X159173725Y-80172516D01*
X159078768Y-80303211D01*
X159000128Y-80457552D01*
X158946597Y-80622302D01*
X158919500Y-80793389D01*
X158580500Y-80793389D01*
X158553402Y-80622299D01*
X158499873Y-80457555D01*
X158421232Y-80303212D01*
X158319414Y-80163072D01*
X158196928Y-80040586D01*
X158056788Y-79938768D01*
X157909669Y-79863808D01*
X157902447Y-79860128D01*
X157902446Y-79860127D01*
X157902445Y-79860127D01*
X157737701Y-79806598D01*
X157737699Y-79806597D01*
X157737698Y-79806597D01*
X157606271Y-79785781D01*
X157566611Y-79779500D01*
X157393389Y-79779500D01*
X157353728Y-79785781D01*
X157222302Y-79806597D01*
X157057552Y-79860128D01*
X156903211Y-79938768D01*
X156823256Y-79996859D01*
X156763072Y-80040586D01*
X156763070Y-80040588D01*
X156763069Y-80040588D01*
X156640588Y-80163069D01*
X156640588Y-80163070D01*
X156640586Y-80163072D01*
X156633725Y-80172516D01*
X156538768Y-80303211D01*
X156460128Y-80457552D01*
X156406597Y-80622302D01*
X156379500Y-80793389D01*
X156040500Y-80793389D01*
X156013402Y-80622299D01*
X155959873Y-80457555D01*
X155881232Y-80303212D01*
X155779414Y-80163072D01*
X155656928Y-80040586D01*
X155516788Y-79938768D01*
X155369669Y-79863808D01*
X155362447Y-79860128D01*
X155362446Y-79860127D01*
X155362445Y-79860127D01*
X155197701Y-79806598D01*
X155197699Y-79806597D01*
X155197698Y-79806597D01*
X155066271Y-79785781D01*
X155026611Y-79779500D01*
X154853389Y-79779500D01*
X154813728Y-79785781D01*
X154682302Y-79806597D01*
X154517552Y-79860128D01*
X154363211Y-79938768D01*
X154283256Y-79996859D01*
X154223072Y-80040586D01*
X154223070Y-80040588D01*
X154223069Y-80040588D01*
X154100588Y-80163069D01*
X154100588Y-80163070D01*
X154100586Y-80163072D01*
X154093725Y-80172516D01*
X153998768Y-80303211D01*
X153920128Y-80457552D01*
X153866597Y-80622302D01*
X153839500Y-80793389D01*
X153500500Y-80793389D01*
X153473402Y-80622299D01*
X153419873Y-80457555D01*
X153341232Y-80303212D01*
X153239414Y-80163072D01*
X153116928Y-80040586D01*
X152976788Y-79938768D01*
X152829669Y-79863808D01*
X152822447Y-79860128D01*
X152822446Y-79860127D01*
X152822445Y-79860127D01*
X152657701Y-79806598D01*
X152657699Y-79806597D01*
X152657698Y-79806597D01*
X152526271Y-79785781D01*
X152486611Y-79779500D01*
X152313389Y-79779500D01*
X152273728Y-79785781D01*
X152142302Y-79806597D01*
X151977552Y-79860128D01*
X151823211Y-79938768D01*
X151743256Y-79996859D01*
X151683072Y-80040586D01*
X151683070Y-80040588D01*
X151683069Y-80040588D01*
X151560588Y-80163069D01*
X151560588Y-80163070D01*
X151560586Y-80163072D01*
X151553725Y-80172516D01*
X151458768Y-80303211D01*
X151380128Y-80457552D01*
X151326597Y-80622302D01*
X151299500Y-80793389D01*
X150960500Y-80793389D01*
X150933402Y-80622299D01*
X150879873Y-80457555D01*
X150801232Y-80303212D01*
X150699414Y-80163072D01*
X150576928Y-80040586D01*
X150436788Y-79938768D01*
X150289669Y-79863808D01*
X150282447Y-79860128D01*
X150282446Y-79860127D01*
X150282445Y-79860127D01*
X150117701Y-79806598D01*
X150117699Y-79806597D01*
X150117698Y-79806597D01*
X149986271Y-79785781D01*
X149946611Y-79779500D01*
X149773389Y-79779500D01*
X149733728Y-79785781D01*
X149602302Y-79806597D01*
X149437552Y-79860128D01*
X149283211Y-79938768D01*
X149203256Y-79996859D01*
X149143072Y-80040586D01*
X149143070Y-80040588D01*
X149143069Y-80040588D01*
X149020588Y-80163069D01*
X149020588Y-80163070D01*
X149020586Y-80163072D01*
X149013725Y-80172516D01*
X148918768Y-80303211D01*
X148840128Y-80457552D01*
X148786597Y-80622302D01*
X148759500Y-80793389D01*
X148420500Y-80793389D01*
X148393402Y-80622299D01*
X148339873Y-80457555D01*
X148261232Y-80303212D01*
X148159414Y-80163072D01*
X148036928Y-80040586D01*
X147896788Y-79938768D01*
X147749669Y-79863808D01*
X147742447Y-79860128D01*
X147742446Y-79860127D01*
X147742445Y-79860127D01*
X147577701Y-79806598D01*
X147577699Y-79806597D01*
X147577698Y-79806597D01*
X147446271Y-79785781D01*
X147406611Y-79779500D01*
X147233389Y-79779500D01*
X147193728Y-79785781D01*
X147062302Y-79806597D01*
X146897552Y-79860128D01*
X146743211Y-79938768D01*
X146663256Y-79996859D01*
X146603072Y-80040586D01*
X146603070Y-80040588D01*
X146603069Y-80040588D01*
X146480588Y-80163069D01*
X146480588Y-80163070D01*
X146480586Y-80163072D01*
X146473725Y-80172516D01*
X146378768Y-80303211D01*
X146300128Y-80457552D01*
X146246597Y-80622302D01*
X146219500Y-80793389D01*
X145880500Y-80793389D01*
X145853402Y-80622299D01*
X145799873Y-80457555D01*
X145721232Y-80303212D01*
X145619414Y-80163072D01*
X145496928Y-80040586D01*
X145356788Y-79938768D01*
X145209669Y-79863808D01*
X145202447Y-79860128D01*
X145202446Y-79860127D01*
X145202445Y-79860127D01*
X145037701Y-79806598D01*
X145037699Y-79806597D01*
X145037698Y-79806597D01*
X144906271Y-79785781D01*
X144866611Y-79779500D01*
X144693389Y-79779500D01*
X144653728Y-79785781D01*
X144522302Y-79806597D01*
X144357552Y-79860128D01*
X144203211Y-79938768D01*
X144123256Y-79996859D01*
X144063072Y-80040586D01*
X144063070Y-80040588D01*
X144063069Y-80040588D01*
X143940588Y-80163069D01*
X143940588Y-80163070D01*
X143940586Y-80163072D01*
X143933725Y-80172516D01*
X143838768Y-80303211D01*
X143760128Y-80457552D01*
X143706597Y-80622302D01*
X143679500Y-80793389D01*
X143340500Y-80793389D01*
X143313402Y-80622299D01*
X143259873Y-80457555D01*
X143181232Y-80303212D01*
X143079414Y-80163072D01*
X142956928Y-80040586D01*
X142816788Y-79938768D01*
X142669669Y-79863808D01*
X142662447Y-79860128D01*
X142662446Y-79860127D01*
X142662445Y-79860127D01*
X142497701Y-79806598D01*
X142497699Y-79806597D01*
X142497698Y-79806597D01*
X142366271Y-79785781D01*
X142326611Y-79779500D01*
X142153389Y-79779500D01*
X142113728Y-79785781D01*
X141982302Y-79806597D01*
X141817552Y-79860128D01*
X141663211Y-79938768D01*
X141583256Y-79996859D01*
X141523072Y-80040586D01*
X141523070Y-80040588D01*
X141523069Y-80040588D01*
X141400588Y-80163069D01*
X141400588Y-80163070D01*
X141400586Y-80163072D01*
X141393725Y-80172516D01*
X141298768Y-80303211D01*
X141220128Y-80457552D01*
X141166597Y-80622302D01*
X141139500Y-80793389D01*
X140800500Y-80793389D01*
X140773402Y-80622299D01*
X140719873Y-80457555D01*
X140641232Y-80303212D01*
X140539414Y-80163072D01*
X140416928Y-80040586D01*
X140276788Y-79938768D01*
X140129669Y-79863808D01*
X140122447Y-79860128D01*
X140122446Y-79860127D01*
X140122445Y-79860127D01*
X139957701Y-79806598D01*
X139957699Y-79806597D01*
X139957698Y-79806597D01*
X139826271Y-79785781D01*
X139786611Y-79779500D01*
X139613389Y-79779500D01*
X139573728Y-79785781D01*
X139442302Y-79806597D01*
X139277552Y-79860128D01*
X139123211Y-79938768D01*
X139043256Y-79996859D01*
X138983072Y-80040586D01*
X138983070Y-80040588D01*
X138983069Y-80040588D01*
X138860588Y-80163069D01*
X138860588Y-80163070D01*
X138860586Y-80163072D01*
X138853725Y-80172516D01*
X138758768Y-80303211D01*
X138680128Y-80457552D01*
X138626597Y-80622302D01*
X138599500Y-80793389D01*
X138260500Y-80793389D01*
X138233402Y-80622299D01*
X138179873Y-80457555D01*
X138101232Y-80303212D01*
X137999414Y-80163072D01*
X137876928Y-80040586D01*
X137736788Y-79938768D01*
X137589669Y-79863808D01*
X137582447Y-79860128D01*
X137582446Y-79860127D01*
X137582445Y-79860127D01*
X137417701Y-79806598D01*
X137417699Y-79806597D01*
X137417698Y-79806597D01*
X137286271Y-79785781D01*
X137246611Y-79779500D01*
X137073389Y-79779500D01*
X137033728Y-79785781D01*
X136902302Y-79806597D01*
X136737552Y-79860128D01*
X136583211Y-79938768D01*
X136503256Y-79996859D01*
X136443072Y-80040586D01*
X136443070Y-80040588D01*
X136443069Y-80040588D01*
X136320588Y-80163069D01*
X136320588Y-80163070D01*
X136320586Y-80163072D01*
X136313725Y-80172516D01*
X136218768Y-80303211D01*
X136140128Y-80457552D01*
X136086597Y-80622302D01*
X136059500Y-80793389D01*
X135720500Y-80793389D01*
X135693402Y-80622299D01*
X135639873Y-80457555D01*
X135561232Y-80303212D01*
X135459414Y-80163072D01*
X135336928Y-80040586D01*
X135196788Y-79938768D01*
X135049669Y-79863808D01*
X135042447Y-79860128D01*
X135042446Y-79860127D01*
X135042445Y-79860127D01*
X134877701Y-79806598D01*
X134877699Y-79806597D01*
X134877698Y-79806597D01*
X134746271Y-79785781D01*
X134706611Y-79779500D01*
X134533389Y-79779500D01*
X134493728Y-79785781D01*
X134362302Y-79806597D01*
X134197552Y-79860128D01*
X134043211Y-79938768D01*
X133963256Y-79996859D01*
X133903072Y-80040586D01*
X133903070Y-80040588D01*
X133903069Y-80040588D01*
X133780588Y-80163069D01*
X133780588Y-80163070D01*
X133780586Y-80163072D01*
X133773725Y-80172516D01*
X133678768Y-80303211D01*
X133600128Y-80457552D01*
X133546597Y-80622302D01*
X133519500Y-80793389D01*
X133180500Y-80793389D01*
X133153402Y-80622299D01*
X133099873Y-80457555D01*
X133021232Y-80303212D01*
X132919414Y-80163072D01*
X132796928Y-80040586D01*
X132656788Y-79938768D01*
X132509669Y-79863808D01*
X132502447Y-79860128D01*
X132502446Y-79860127D01*
X132502445Y-79860127D01*
X132337701Y-79806598D01*
X132337699Y-79806597D01*
X132337698Y-79806597D01*
X132206271Y-79785781D01*
X132166611Y-79779500D01*
X131993389Y-79779500D01*
X131953728Y-79785781D01*
X131822302Y-79806597D01*
X131657552Y-79860128D01*
X131503211Y-79938768D01*
X131423256Y-79996859D01*
X131363072Y-80040586D01*
X131363070Y-80040588D01*
X131363069Y-80040588D01*
X131240588Y-80163069D01*
X131240588Y-80163070D01*
X131240586Y-80163072D01*
X131233725Y-80172516D01*
X131138768Y-80303211D01*
X131060128Y-80457552D01*
X131006597Y-80622302D01*
X130979500Y-80793389D01*
X130640500Y-80793389D01*
X130613402Y-80622299D01*
X130559873Y-80457555D01*
X130481232Y-80303212D01*
X130379414Y-80163072D01*
X130256928Y-80040586D01*
X130116788Y-79938768D01*
X129969669Y-79863808D01*
X129962447Y-79860128D01*
X129962446Y-79860127D01*
X129962445Y-79860127D01*
X129797701Y-79806598D01*
X129797699Y-79806597D01*
X129797698Y-79806597D01*
X129666271Y-79785781D01*
X129626611Y-79779500D01*
X129453389Y-79779500D01*
X129413728Y-79785781D01*
X129282302Y-79806597D01*
X129117552Y-79860128D01*
X128963211Y-79938768D01*
X128883256Y-79996859D01*
X128823072Y-80040586D01*
X128823070Y-80040588D01*
X128823069Y-80040588D01*
X128700588Y-80163069D01*
X128700588Y-80163070D01*
X128700586Y-80163072D01*
X128693725Y-80172516D01*
X128598768Y-80303211D01*
X128520128Y-80457552D01*
X128466597Y-80622302D01*
X128439500Y-80793389D01*
X128100500Y-80793389D01*
X128073402Y-80622299D01*
X128019873Y-80457555D01*
X127941232Y-80303212D01*
X127839414Y-80163072D01*
X127716928Y-80040586D01*
X127576788Y-79938768D01*
X127429669Y-79863808D01*
X127422447Y-79860128D01*
X127422446Y-79860127D01*
X127422445Y-79860127D01*
X127257701Y-79806598D01*
X127257699Y-79806597D01*
X127257698Y-79806597D01*
X127126271Y-79785781D01*
X127086611Y-79779500D01*
X126913389Y-79779500D01*
X126873728Y-79785781D01*
X126742302Y-79806597D01*
X126577552Y-79860128D01*
X126423211Y-79938768D01*
X126343256Y-79996859D01*
X126283072Y-80040586D01*
X126283070Y-80040588D01*
X126283069Y-80040588D01*
X126160588Y-80163069D01*
X126160588Y-80163070D01*
X126160586Y-80163072D01*
X126153725Y-80172516D01*
X126058768Y-80303211D01*
X125980128Y-80457552D01*
X125926597Y-80622302D01*
X125899500Y-80793389D01*
X125560500Y-80793389D01*
X125533402Y-80622299D01*
X125479873Y-80457555D01*
X125401232Y-80303212D01*
X125299414Y-80163072D01*
X125176928Y-80040586D01*
X125036788Y-79938768D01*
X124889669Y-79863808D01*
X124882447Y-79860128D01*
X124882446Y-79860127D01*
X124882445Y-79860127D01*
X124717701Y-79806598D01*
X124717699Y-79806597D01*
X124717698Y-79806597D01*
X124586271Y-79785781D01*
X124546611Y-79779500D01*
X124373389Y-79779500D01*
X124333728Y-79785781D01*
X124202302Y-79806597D01*
X124037552Y-79860128D01*
X123883211Y-79938768D01*
X123803256Y-79996859D01*
X123743072Y-80040586D01*
X123743070Y-80040588D01*
X123743069Y-80040588D01*
X123620588Y-80163069D01*
X123620588Y-80163070D01*
X123620586Y-80163072D01*
X123613725Y-80172516D01*
X123518768Y-80303211D01*
X123440128Y-80457552D01*
X123386597Y-80622302D01*
X123359500Y-80793389D01*
X123020499Y-80793389D01*
X123020499Y-80232128D01*
X123014091Y-80172517D01*
X123010568Y-80163072D01*
X122963797Y-80037671D01*
X122963793Y-80037664D01*
X122877547Y-79922455D01*
X122877544Y-79922452D01*
X122762335Y-79836206D01*
X122762328Y-79836202D01*
X122627482Y-79785908D01*
X122627483Y-79785908D01*
X122567883Y-79779501D01*
X122567881Y-79779500D01*
X122567873Y-79779500D01*
X122567864Y-79779500D01*
X121272129Y-79779500D01*
X121272123Y-79779501D01*
X121212516Y-79785908D01*
X121077671Y-79836202D01*
X121077664Y-79836206D01*
X120962455Y-79922452D01*
X120962452Y-79922455D01*
X120876206Y-80037664D01*
X120876202Y-80037671D01*
X120825908Y-80172517D01*
X120819501Y-80232116D01*
X120819501Y-80232123D01*
X120819500Y-80232135D01*
X114850500Y-80232135D01*
X114850500Y-60055233D01*
X114870185Y-59988194D01*
X114922989Y-59942439D01*
X114973815Y-59932630D01*
X115903708Y-59002736D01*
X116000967Y-59136602D01*
X116123398Y-59259033D01*
X116257262Y-59356290D01*
X115326564Y-60286987D01*
X115326565Y-60286989D01*
X115551461Y-60450385D01*
X115551479Y-60450397D01*
X115816109Y-60595878D01*
X115816117Y-60595882D01*
X116096889Y-60707047D01*
X116096892Y-60707048D01*
X116389399Y-60782150D01*
X116688995Y-60819999D01*
X116689007Y-60820000D01*
X116990993Y-60820000D01*
X116991004Y-60819999D01*
X117290600Y-60782150D01*
X117583107Y-60707048D01*
X117583110Y-60707047D01*
X117863882Y-60595882D01*
X117863890Y-60595878D01*
X118128520Y-60450397D01*
X118128530Y-60450390D01*
X118353433Y-60286987D01*
X118353434Y-60286987D01*
X117422737Y-59356290D01*
X117556602Y-59259033D01*
X117679033Y-59136602D01*
X117776290Y-59002737D01*
X118704687Y-59931134D01*
X118785486Y-59833464D01*
X118947292Y-59578497D01*
X118947295Y-59578491D01*
X119075872Y-59305252D01*
X119075874Y-59305247D01*
X119169194Y-59018040D01*
X119225783Y-58721390D01*
X119225784Y-58721383D01*
X119244745Y-58420005D01*
X119244745Y-58419994D01*
X119225784Y-58118616D01*
X119225783Y-58118609D01*
X119190458Y-57933428D01*
X120820000Y-57933428D01*
X120820000Y-58170000D01*
X121604314Y-58170000D01*
X121599920Y-58174394D01*
X121547259Y-58265606D01*
X121520000Y-58367339D01*
X121520000Y-58472661D01*
X121547259Y-58574394D01*
X121599920Y-58665606D01*
X121604314Y-58670000D01*
X120820000Y-58670000D01*
X120820000Y-58906571D01*
X120847085Y-59077584D01*
X120900591Y-59242257D01*
X120979195Y-59396524D01*
X121080967Y-59536602D01*
X121203397Y-59659032D01*
X121343475Y-59760804D01*
X121497744Y-59839408D01*
X121662415Y-59892914D01*
X121662414Y-59892914D01*
X121669999Y-59894115D01*
X121670000Y-59894114D01*
X121670000Y-58735686D01*
X121674394Y-58740080D01*
X121765606Y-58792741D01*
X121867339Y-58820000D01*
X121972661Y-58820000D01*
X122074394Y-58792741D01*
X122165606Y-58740080D01*
X122170000Y-58735686D01*
X122170000Y-59894115D01*
X122177584Y-59892914D01*
X122342255Y-59839408D01*
X122496524Y-59760804D01*
X122636602Y-59659032D01*
X122759032Y-59536602D01*
X122860804Y-59396524D01*
X122939408Y-59242257D01*
X122992914Y-59077584D01*
X123020000Y-58906571D01*
X123020000Y-58670000D01*
X122235686Y-58670000D01*
X122240080Y-58665606D01*
X122292741Y-58574394D01*
X122320000Y-58472661D01*
X122320000Y-58367339D01*
X122292741Y-58265606D01*
X122240080Y-58174394D01*
X122235686Y-58170000D01*
X123020000Y-58170000D01*
X123020000Y-57933428D01*
X123019994Y-57933389D01*
X123359500Y-57933389D01*
X123359500Y-58906610D01*
X123377148Y-59018040D01*
X123386598Y-59077701D01*
X123440127Y-59242445D01*
X123518768Y-59396788D01*
X123620586Y-59536928D01*
X123743072Y-59659414D01*
X123883212Y-59761232D01*
X124037555Y-59839873D01*
X124202299Y-59893402D01*
X124373389Y-59920500D01*
X124373390Y-59920500D01*
X124546610Y-59920500D01*
X124546611Y-59920500D01*
X124717701Y-59893402D01*
X124882445Y-59839873D01*
X125036788Y-59761232D01*
X125176928Y-59659414D01*
X125299414Y-59536928D01*
X125401232Y-59396788D01*
X125479873Y-59242445D01*
X125533402Y-59077701D01*
X125560500Y-58906611D01*
X125560500Y-57933389D01*
X125899500Y-57933389D01*
X125899500Y-58906610D01*
X125917148Y-59018040D01*
X125926598Y-59077701D01*
X125980127Y-59242445D01*
X126058768Y-59396788D01*
X126160586Y-59536928D01*
X126283072Y-59659414D01*
X126423212Y-59761232D01*
X126577555Y-59839873D01*
X126742299Y-59893402D01*
X126913389Y-59920500D01*
X126913390Y-59920500D01*
X127086610Y-59920500D01*
X127086611Y-59920500D01*
X127257701Y-59893402D01*
X127422445Y-59839873D01*
X127576788Y-59761232D01*
X127716928Y-59659414D01*
X127839414Y-59536928D01*
X127941232Y-59396788D01*
X128019873Y-59242445D01*
X128073402Y-59077701D01*
X128100500Y-58906611D01*
X128100500Y-57933389D01*
X128439500Y-57933389D01*
X128439500Y-58906610D01*
X128457148Y-59018040D01*
X128466598Y-59077701D01*
X128520127Y-59242445D01*
X128598768Y-59396788D01*
X128700586Y-59536928D01*
X128823072Y-59659414D01*
X128963212Y-59761232D01*
X129117555Y-59839873D01*
X129282299Y-59893402D01*
X129453389Y-59920500D01*
X129453390Y-59920500D01*
X129626610Y-59920500D01*
X129626611Y-59920500D01*
X129797701Y-59893402D01*
X129962445Y-59839873D01*
X130116788Y-59761232D01*
X130256928Y-59659414D01*
X130379414Y-59536928D01*
X130481232Y-59396788D01*
X130559873Y-59242445D01*
X130613402Y-59077701D01*
X130640500Y-58906611D01*
X130640500Y-57933389D01*
X130979500Y-57933389D01*
X130979500Y-58906610D01*
X130997148Y-59018040D01*
X131006598Y-59077701D01*
X131060127Y-59242445D01*
X131138768Y-59396788D01*
X131240586Y-59536928D01*
X131363072Y-59659414D01*
X131503212Y-59761232D01*
X131657555Y-59839873D01*
X131822299Y-59893402D01*
X131993389Y-59920500D01*
X131993390Y-59920500D01*
X132166610Y-59920500D01*
X132166611Y-59920500D01*
X132337701Y-59893402D01*
X132502445Y-59839873D01*
X132656788Y-59761232D01*
X132796928Y-59659414D01*
X132919414Y-59536928D01*
X133021232Y-59396788D01*
X133099873Y-59242445D01*
X133153402Y-59077701D01*
X133180500Y-58906611D01*
X133180500Y-57933389D01*
X133519500Y-57933389D01*
X133519500Y-58906610D01*
X133537148Y-59018040D01*
X133546598Y-59077701D01*
X133600127Y-59242445D01*
X133678768Y-59396788D01*
X133780586Y-59536928D01*
X133903072Y-59659414D01*
X134043212Y-59761232D01*
X134197555Y-59839873D01*
X134362299Y-59893402D01*
X134533389Y-59920500D01*
X134533390Y-59920500D01*
X134706610Y-59920500D01*
X134706611Y-59920500D01*
X134877701Y-59893402D01*
X135042445Y-59839873D01*
X135196788Y-59761232D01*
X135336928Y-59659414D01*
X135459414Y-59536928D01*
X135561232Y-59396788D01*
X135639873Y-59242445D01*
X135693402Y-59077701D01*
X135720500Y-58906611D01*
X135720500Y-57933389D01*
X136059500Y-57933389D01*
X136059500Y-58906610D01*
X136077148Y-59018040D01*
X136086598Y-59077701D01*
X136140127Y-59242445D01*
X136218768Y-59396788D01*
X136320586Y-59536928D01*
X136443072Y-59659414D01*
X136583212Y-59761232D01*
X136737555Y-59839873D01*
X136902299Y-59893402D01*
X137073389Y-59920500D01*
X137073390Y-59920500D01*
X137246610Y-59920500D01*
X137246611Y-59920500D01*
X137417701Y-59893402D01*
X137582445Y-59839873D01*
X137736788Y-59761232D01*
X137876928Y-59659414D01*
X137999414Y-59536928D01*
X138101232Y-59396788D01*
X138179873Y-59242445D01*
X138233402Y-59077701D01*
X138260500Y-58906611D01*
X138260500Y-57933389D01*
X138599500Y-57933389D01*
X138599500Y-58906610D01*
X138617148Y-59018040D01*
X138626598Y-59077701D01*
X138680127Y-59242445D01*
X138758768Y-59396788D01*
X138860586Y-59536928D01*
X138983072Y-59659414D01*
X139123212Y-59761232D01*
X139277555Y-59839873D01*
X139442299Y-59893402D01*
X139613389Y-59920500D01*
X139613390Y-59920500D01*
X139786610Y-59920500D01*
X139786611Y-59920500D01*
X139957701Y-59893402D01*
X140122445Y-59839873D01*
X140276788Y-59761232D01*
X140416928Y-59659414D01*
X140539414Y-59536928D01*
X140641232Y-59396788D01*
X140719873Y-59242445D01*
X140773402Y-59077701D01*
X140800500Y-58906611D01*
X140800500Y-57933389D01*
X141139500Y-57933389D01*
X141139500Y-58906610D01*
X141157148Y-59018040D01*
X141166598Y-59077701D01*
X141220127Y-59242445D01*
X141298768Y-59396788D01*
X141400586Y-59536928D01*
X141523072Y-59659414D01*
X141663212Y-59761232D01*
X141817555Y-59839873D01*
X141982299Y-59893402D01*
X142153389Y-59920500D01*
X142153390Y-59920500D01*
X142326610Y-59920500D01*
X142326611Y-59920500D01*
X142497701Y-59893402D01*
X142662445Y-59839873D01*
X142816788Y-59761232D01*
X142956928Y-59659414D01*
X143079414Y-59536928D01*
X143181232Y-59396788D01*
X143259873Y-59242445D01*
X143313402Y-59077701D01*
X143340500Y-58906611D01*
X143340500Y-57933389D01*
X143679500Y-57933389D01*
X143679500Y-58906610D01*
X143697148Y-59018040D01*
X143706598Y-59077701D01*
X143760127Y-59242445D01*
X143838768Y-59396788D01*
X143940586Y-59536928D01*
X144063072Y-59659414D01*
X144203212Y-59761232D01*
X144357555Y-59839873D01*
X144522299Y-59893402D01*
X144693389Y-59920500D01*
X144693390Y-59920500D01*
X144866610Y-59920500D01*
X144866611Y-59920500D01*
X145037701Y-59893402D01*
X145202445Y-59839873D01*
X145356788Y-59761232D01*
X145496928Y-59659414D01*
X145619414Y-59536928D01*
X145721232Y-59396788D01*
X145799873Y-59242445D01*
X145853402Y-59077701D01*
X145880500Y-58906611D01*
X145880500Y-57933389D01*
X146219500Y-57933389D01*
X146219500Y-58906610D01*
X146237148Y-59018040D01*
X146246598Y-59077701D01*
X146300127Y-59242445D01*
X146378768Y-59396788D01*
X146480586Y-59536928D01*
X146603072Y-59659414D01*
X146743212Y-59761232D01*
X146897555Y-59839873D01*
X147062299Y-59893402D01*
X147233389Y-59920500D01*
X147233390Y-59920500D01*
X147406610Y-59920500D01*
X147406611Y-59920500D01*
X147577701Y-59893402D01*
X147742445Y-59839873D01*
X147896788Y-59761232D01*
X148036928Y-59659414D01*
X148159414Y-59536928D01*
X148261232Y-59396788D01*
X148339873Y-59242445D01*
X148393402Y-59077701D01*
X148420500Y-58906611D01*
X148420500Y-57933389D01*
X148759500Y-57933389D01*
X148759500Y-58906610D01*
X148777148Y-59018040D01*
X148786598Y-59077701D01*
X148840127Y-59242445D01*
X148918768Y-59396788D01*
X149020586Y-59536928D01*
X149143072Y-59659414D01*
X149283212Y-59761232D01*
X149437555Y-59839873D01*
X149602299Y-59893402D01*
X149773389Y-59920500D01*
X149773390Y-59920500D01*
X149946610Y-59920500D01*
X149946611Y-59920500D01*
X150117701Y-59893402D01*
X150282445Y-59839873D01*
X150436788Y-59761232D01*
X150576928Y-59659414D01*
X150699414Y-59536928D01*
X150801232Y-59396788D01*
X150879873Y-59242445D01*
X150933402Y-59077701D01*
X150960500Y-58906611D01*
X150960500Y-57933389D01*
X151299500Y-57933389D01*
X151299500Y-58906610D01*
X151317148Y-59018040D01*
X151326598Y-59077701D01*
X151380127Y-59242445D01*
X151458768Y-59396788D01*
X151560586Y-59536928D01*
X151683072Y-59659414D01*
X151823212Y-59761232D01*
X151977555Y-59839873D01*
X152142299Y-59893402D01*
X152313389Y-59920500D01*
X152313390Y-59920500D01*
X152486610Y-59920500D01*
X152486611Y-59920500D01*
X152657701Y-59893402D01*
X152822445Y-59839873D01*
X152976788Y-59761232D01*
X153116928Y-59659414D01*
X153239414Y-59536928D01*
X153341232Y-59396788D01*
X153419873Y-59242445D01*
X153473402Y-59077701D01*
X153500500Y-58906611D01*
X153500500Y-57933389D01*
X153839500Y-57933389D01*
X153839500Y-58906610D01*
X153857148Y-59018040D01*
X153866598Y-59077701D01*
X153920127Y-59242445D01*
X153998768Y-59396788D01*
X154100586Y-59536928D01*
X154223072Y-59659414D01*
X154363212Y-59761232D01*
X154517555Y-59839873D01*
X154682299Y-59893402D01*
X154853389Y-59920500D01*
X154853390Y-59920500D01*
X155026610Y-59920500D01*
X155026611Y-59920500D01*
X155197701Y-59893402D01*
X155362445Y-59839873D01*
X155516788Y-59761232D01*
X155656928Y-59659414D01*
X155779414Y-59536928D01*
X155881232Y-59396788D01*
X155959873Y-59242445D01*
X156013402Y-59077701D01*
X156040500Y-58906611D01*
X156040500Y-57933389D01*
X156379500Y-57933389D01*
X156379500Y-58906610D01*
X156397148Y-59018040D01*
X156406598Y-59077701D01*
X156460127Y-59242445D01*
X156538768Y-59396788D01*
X156640586Y-59536928D01*
X156763072Y-59659414D01*
X156903212Y-59761232D01*
X157057555Y-59839873D01*
X157222299Y-59893402D01*
X157393389Y-59920500D01*
X157393390Y-59920500D01*
X157566610Y-59920500D01*
X157566611Y-59920500D01*
X157737701Y-59893402D01*
X157902445Y-59839873D01*
X158056788Y-59761232D01*
X158196928Y-59659414D01*
X158319414Y-59536928D01*
X158421232Y-59396788D01*
X158499873Y-59242445D01*
X158553402Y-59077701D01*
X158580500Y-58906611D01*
X158580500Y-57933389D01*
X158919500Y-57933389D01*
X158919500Y-58906610D01*
X158937148Y-59018040D01*
X158946598Y-59077701D01*
X159000127Y-59242445D01*
X159078768Y-59396788D01*
X159180586Y-59536928D01*
X159303072Y-59659414D01*
X159443212Y-59761232D01*
X159597555Y-59839873D01*
X159762299Y-59893402D01*
X159933389Y-59920500D01*
X159933390Y-59920500D01*
X160106610Y-59920500D01*
X160106611Y-59920500D01*
X160277701Y-59893402D01*
X160442445Y-59839873D01*
X160596788Y-59761232D01*
X160736928Y-59659414D01*
X160859414Y-59536928D01*
X160961232Y-59396788D01*
X161039873Y-59242445D01*
X161093402Y-59077701D01*
X161120500Y-58906611D01*
X161120500Y-57933389D01*
X161459500Y-57933389D01*
X161459500Y-58906610D01*
X161477148Y-59018040D01*
X161486598Y-59077701D01*
X161540127Y-59242445D01*
X161618768Y-59396788D01*
X161720586Y-59536928D01*
X161843072Y-59659414D01*
X161983212Y-59761232D01*
X162137555Y-59839873D01*
X162302299Y-59893402D01*
X162473389Y-59920500D01*
X162473390Y-59920500D01*
X162646610Y-59920500D01*
X162646611Y-59920500D01*
X162817701Y-59893402D01*
X162982445Y-59839873D01*
X163136788Y-59761232D01*
X163276928Y-59659414D01*
X163399414Y-59536928D01*
X163501232Y-59396788D01*
X163579873Y-59242445D01*
X163633402Y-59077701D01*
X163660500Y-58906611D01*
X163660500Y-57933389D01*
X163999500Y-57933389D01*
X163999500Y-58906610D01*
X164017148Y-59018040D01*
X164026598Y-59077701D01*
X164080127Y-59242445D01*
X164158768Y-59396788D01*
X164260586Y-59536928D01*
X164383072Y-59659414D01*
X164523212Y-59761232D01*
X164677555Y-59839873D01*
X164842299Y-59893402D01*
X165013389Y-59920500D01*
X165013390Y-59920500D01*
X165186610Y-59920500D01*
X165186611Y-59920500D01*
X165357701Y-59893402D01*
X165522445Y-59839873D01*
X165676788Y-59761232D01*
X165816928Y-59659414D01*
X165939414Y-59536928D01*
X166041232Y-59396788D01*
X166119873Y-59242445D01*
X166173402Y-59077701D01*
X166200500Y-58906611D01*
X166200500Y-57933389D01*
X166539500Y-57933389D01*
X166539500Y-58906610D01*
X166557148Y-59018040D01*
X166566598Y-59077701D01*
X166620127Y-59242445D01*
X166698768Y-59396788D01*
X166800586Y-59536928D01*
X166923072Y-59659414D01*
X167063212Y-59761232D01*
X167217555Y-59839873D01*
X167382299Y-59893402D01*
X167553389Y-59920500D01*
X167553390Y-59920500D01*
X167726610Y-59920500D01*
X167726611Y-59920500D01*
X167897701Y-59893402D01*
X168062445Y-59839873D01*
X168216788Y-59761232D01*
X168356928Y-59659414D01*
X168479414Y-59536928D01*
X168581232Y-59396788D01*
X168659873Y-59242445D01*
X168713402Y-59077701D01*
X168740500Y-58906611D01*
X168740500Y-57933389D01*
X169079500Y-57933389D01*
X169079500Y-58906610D01*
X169097148Y-59018040D01*
X169106598Y-59077701D01*
X169160127Y-59242445D01*
X169238768Y-59396788D01*
X169340586Y-59536928D01*
X169463072Y-59659414D01*
X169603212Y-59761232D01*
X169757555Y-59839873D01*
X169922299Y-59893402D01*
X170093389Y-59920500D01*
X170093390Y-59920500D01*
X170266610Y-59920500D01*
X170266611Y-59920500D01*
X170437701Y-59893402D01*
X170602445Y-59839873D01*
X170756788Y-59761232D01*
X170896928Y-59659414D01*
X171019414Y-59536928D01*
X171121232Y-59396788D01*
X171199873Y-59242445D01*
X171253402Y-59077701D01*
X171280500Y-58906611D01*
X171280500Y-57933428D01*
X171620000Y-57933428D01*
X171620000Y-58170000D01*
X172404314Y-58170000D01*
X172399920Y-58174394D01*
X172347259Y-58265606D01*
X172320000Y-58367339D01*
X172320000Y-58472661D01*
X172347259Y-58574394D01*
X172399920Y-58665606D01*
X172404314Y-58670000D01*
X171620000Y-58670000D01*
X171620000Y-58906571D01*
X171647085Y-59077584D01*
X171700591Y-59242257D01*
X171779195Y-59396524D01*
X171880967Y-59536602D01*
X172003397Y-59659032D01*
X172143475Y-59760804D01*
X172297744Y-59839408D01*
X172462415Y-59892914D01*
X172462414Y-59892914D01*
X172469999Y-59894115D01*
X172470000Y-59894114D01*
X172470000Y-58735686D01*
X172474394Y-58740080D01*
X172565606Y-58792741D01*
X172667339Y-58820000D01*
X172772661Y-58820000D01*
X172874394Y-58792741D01*
X172965606Y-58740080D01*
X172970000Y-58735686D01*
X172970000Y-59894115D01*
X172977584Y-59892914D01*
X173142255Y-59839408D01*
X173296524Y-59760804D01*
X173436602Y-59659032D01*
X173559032Y-59536602D01*
X173660804Y-59396524D01*
X173739408Y-59242257D01*
X173792914Y-59077584D01*
X173820000Y-58906571D01*
X173820000Y-58670000D01*
X173035686Y-58670000D01*
X173040080Y-58665606D01*
X173092741Y-58574394D01*
X173120000Y-58472661D01*
X173120000Y-58367339D01*
X173092741Y-58265606D01*
X173040080Y-58174394D01*
X173035686Y-58170000D01*
X173820000Y-58170000D01*
X173820000Y-57933428D01*
X174160000Y-57933428D01*
X174160000Y-58170000D01*
X174944314Y-58170000D01*
X174939920Y-58174394D01*
X174887259Y-58265606D01*
X174860000Y-58367339D01*
X174860000Y-58472661D01*
X174887259Y-58574394D01*
X174939920Y-58665606D01*
X174944314Y-58670000D01*
X174160000Y-58670000D01*
X174160000Y-58906571D01*
X174187085Y-59077584D01*
X174240591Y-59242257D01*
X174319195Y-59396524D01*
X174420967Y-59536602D01*
X174543397Y-59659032D01*
X174683475Y-59760804D01*
X174837744Y-59839408D01*
X175002415Y-59892914D01*
X175002414Y-59892914D01*
X175009999Y-59894115D01*
X175010000Y-59894114D01*
X175010000Y-58735686D01*
X175014394Y-58740080D01*
X175105606Y-58792741D01*
X175207339Y-58820000D01*
X175312661Y-58820000D01*
X175414394Y-58792741D01*
X175505606Y-58740080D01*
X175510000Y-58735686D01*
X175510000Y-59894115D01*
X175517584Y-59892914D01*
X175682255Y-59839408D01*
X175836524Y-59760804D01*
X175976602Y-59659032D01*
X176099032Y-59536602D01*
X176200804Y-59396524D01*
X176279408Y-59242257D01*
X176332914Y-59077584D01*
X176360000Y-58906571D01*
X176360000Y-58670000D01*
X175575686Y-58670000D01*
X175580080Y-58665606D01*
X175632741Y-58574394D01*
X175660000Y-58472661D01*
X175660000Y-58367339D01*
X175632741Y-58265606D01*
X175580080Y-58174394D01*
X175575686Y-58170000D01*
X176360000Y-58170000D01*
X176360000Y-57933428D01*
X176332914Y-57762415D01*
X176279408Y-57597742D01*
X176200804Y-57443475D01*
X176099032Y-57303397D01*
X175976602Y-57180967D01*
X175836524Y-57079195D01*
X175682257Y-57000591D01*
X175517589Y-56947087D01*
X175517581Y-56947085D01*
X175510000Y-56945884D01*
X175510000Y-58104314D01*
X175505606Y-58099920D01*
X175414394Y-58047259D01*
X175312661Y-58020000D01*
X175207339Y-58020000D01*
X175105606Y-58047259D01*
X175014394Y-58099920D01*
X175010000Y-58104314D01*
X175010000Y-56945884D01*
X175009999Y-56945884D01*
X175002418Y-56947085D01*
X175002410Y-56947087D01*
X174837742Y-57000591D01*
X174683475Y-57079195D01*
X174543397Y-57180967D01*
X174420967Y-57303397D01*
X174319195Y-57443475D01*
X174240591Y-57597742D01*
X174187085Y-57762415D01*
X174160000Y-57933428D01*
X173820000Y-57933428D01*
X173792914Y-57762415D01*
X173739408Y-57597742D01*
X173660804Y-57443475D01*
X173559032Y-57303397D01*
X173436602Y-57180967D01*
X173296524Y-57079195D01*
X173142257Y-57000591D01*
X172977589Y-56947087D01*
X172977581Y-56947085D01*
X172970000Y-56945884D01*
X172970000Y-58104314D01*
X172965606Y-58099920D01*
X172874394Y-58047259D01*
X172772661Y-58020000D01*
X172667339Y-58020000D01*
X172565606Y-58047259D01*
X172474394Y-58099920D01*
X172470000Y-58104314D01*
X172470000Y-56945884D01*
X172469999Y-56945884D01*
X172462418Y-56947085D01*
X172462410Y-56947087D01*
X172297742Y-57000591D01*
X172143475Y-57079195D01*
X172003397Y-57180967D01*
X171880967Y-57303397D01*
X171779195Y-57443475D01*
X171700591Y-57597742D01*
X171647085Y-57762415D01*
X171620000Y-57933428D01*
X171280500Y-57933428D01*
X171280500Y-57933389D01*
X171253402Y-57762299D01*
X171199873Y-57597555D01*
X171121232Y-57443212D01*
X171019414Y-57303072D01*
X170896928Y-57180586D01*
X170756788Y-57078768D01*
X170602445Y-57000127D01*
X170437701Y-56946598D01*
X170437699Y-56946597D01*
X170437698Y-56946597D01*
X170306271Y-56925781D01*
X170266611Y-56919500D01*
X170093389Y-56919500D01*
X170053728Y-56925781D01*
X169922302Y-56946597D01*
X169757552Y-57000128D01*
X169603211Y-57078768D01*
X169523256Y-57136859D01*
X169463072Y-57180586D01*
X169463070Y-57180588D01*
X169463069Y-57180588D01*
X169340588Y-57303069D01*
X169340588Y-57303070D01*
X169340586Y-57303072D01*
X169340350Y-57303397D01*
X169238768Y-57443211D01*
X169160128Y-57597552D01*
X169106597Y-57762302D01*
X169079500Y-57933389D01*
X168740500Y-57933389D01*
X168713402Y-57762299D01*
X168659873Y-57597555D01*
X168581232Y-57443212D01*
X168479414Y-57303072D01*
X168356928Y-57180586D01*
X168216788Y-57078768D01*
X168062445Y-57000127D01*
X167897701Y-56946598D01*
X167897699Y-56946597D01*
X167897698Y-56946597D01*
X167766271Y-56925781D01*
X167726611Y-56919500D01*
X167553389Y-56919500D01*
X167513728Y-56925781D01*
X167382302Y-56946597D01*
X167217552Y-57000128D01*
X167063211Y-57078768D01*
X166983256Y-57136859D01*
X166923072Y-57180586D01*
X166923070Y-57180588D01*
X166923069Y-57180588D01*
X166800588Y-57303069D01*
X166800588Y-57303070D01*
X166800586Y-57303072D01*
X166800350Y-57303397D01*
X166698768Y-57443211D01*
X166620128Y-57597552D01*
X166566597Y-57762302D01*
X166539500Y-57933389D01*
X166200500Y-57933389D01*
X166173402Y-57762299D01*
X166119873Y-57597555D01*
X166041232Y-57443212D01*
X165939414Y-57303072D01*
X165816928Y-57180586D01*
X165676788Y-57078768D01*
X165522445Y-57000127D01*
X165357701Y-56946598D01*
X165357699Y-56946597D01*
X165357698Y-56946597D01*
X165226271Y-56925781D01*
X165186611Y-56919500D01*
X165013389Y-56919500D01*
X164973728Y-56925781D01*
X164842302Y-56946597D01*
X164677552Y-57000128D01*
X164523211Y-57078768D01*
X164443256Y-57136859D01*
X164383072Y-57180586D01*
X164383070Y-57180588D01*
X164383069Y-57180588D01*
X164260588Y-57303069D01*
X164260588Y-57303070D01*
X164260586Y-57303072D01*
X164260350Y-57303397D01*
X164158768Y-57443211D01*
X164080128Y-57597552D01*
X164026597Y-57762302D01*
X163999500Y-57933389D01*
X163660500Y-57933389D01*
X163633402Y-57762299D01*
X163579873Y-57597555D01*
X163501232Y-57443212D01*
X163399414Y-57303072D01*
X163276928Y-57180586D01*
X163136788Y-57078768D01*
X162982445Y-57000127D01*
X162817701Y-56946598D01*
X162817699Y-56946597D01*
X162817698Y-56946597D01*
X162686271Y-56925781D01*
X162646611Y-56919500D01*
X162473389Y-56919500D01*
X162433728Y-56925781D01*
X162302302Y-56946597D01*
X162137552Y-57000128D01*
X161983211Y-57078768D01*
X161903256Y-57136859D01*
X161843072Y-57180586D01*
X161843070Y-57180588D01*
X161843069Y-57180588D01*
X161720588Y-57303069D01*
X161720588Y-57303070D01*
X161720586Y-57303072D01*
X161720350Y-57303397D01*
X161618768Y-57443211D01*
X161540128Y-57597552D01*
X161486597Y-57762302D01*
X161459500Y-57933389D01*
X161120500Y-57933389D01*
X161093402Y-57762299D01*
X161039873Y-57597555D01*
X160961232Y-57443212D01*
X160859414Y-57303072D01*
X160736928Y-57180586D01*
X160596788Y-57078768D01*
X160442445Y-57000127D01*
X160277701Y-56946598D01*
X160277699Y-56946597D01*
X160277698Y-56946597D01*
X160146271Y-56925781D01*
X160106611Y-56919500D01*
X159933389Y-56919500D01*
X159893728Y-56925781D01*
X159762302Y-56946597D01*
X159597552Y-57000128D01*
X159443211Y-57078768D01*
X159363256Y-57136859D01*
X159303072Y-57180586D01*
X159303070Y-57180588D01*
X159303069Y-57180588D01*
X159180588Y-57303069D01*
X159180588Y-57303070D01*
X159180586Y-57303072D01*
X159180350Y-57303397D01*
X159078768Y-57443211D01*
X159000128Y-57597552D01*
X158946597Y-57762302D01*
X158919500Y-57933389D01*
X158580500Y-57933389D01*
X158553402Y-57762299D01*
X158499873Y-57597555D01*
X158421232Y-57443212D01*
X158319414Y-57303072D01*
X158196928Y-57180586D01*
X158056788Y-57078768D01*
X157902445Y-57000127D01*
X157737701Y-56946598D01*
X157737699Y-56946597D01*
X157737698Y-56946597D01*
X157606271Y-56925781D01*
X157566611Y-56919500D01*
X157393389Y-56919500D01*
X157353728Y-56925781D01*
X157222302Y-56946597D01*
X157057552Y-57000128D01*
X156903211Y-57078768D01*
X156823256Y-57136859D01*
X156763072Y-57180586D01*
X156763070Y-57180588D01*
X156763069Y-57180588D01*
X156640588Y-57303069D01*
X156640588Y-57303070D01*
X156640586Y-57303072D01*
X156640350Y-57303397D01*
X156538768Y-57443211D01*
X156460128Y-57597552D01*
X156406597Y-57762302D01*
X156379500Y-57933389D01*
X156040500Y-57933389D01*
X156013402Y-57762299D01*
X155959873Y-57597555D01*
X155881232Y-57443212D01*
X155779414Y-57303072D01*
X155656928Y-57180586D01*
X155516788Y-57078768D01*
X155362445Y-57000127D01*
X155197701Y-56946598D01*
X155197699Y-56946597D01*
X155197698Y-56946597D01*
X155066271Y-56925781D01*
X155026611Y-56919500D01*
X154853389Y-56919500D01*
X154813728Y-56925781D01*
X154682302Y-56946597D01*
X154517552Y-57000128D01*
X154363211Y-57078768D01*
X154283256Y-57136859D01*
X154223072Y-57180586D01*
X154223070Y-57180588D01*
X154223069Y-57180588D01*
X154100588Y-57303069D01*
X154100588Y-57303070D01*
X154100586Y-57303072D01*
X154100350Y-57303397D01*
X153998768Y-57443211D01*
X153920128Y-57597552D01*
X153866597Y-57762302D01*
X153839500Y-57933389D01*
X153500500Y-57933389D01*
X153473402Y-57762299D01*
X153419873Y-57597555D01*
X153341232Y-57443212D01*
X153239414Y-57303072D01*
X153116928Y-57180586D01*
X152976788Y-57078768D01*
X152822445Y-57000127D01*
X152657701Y-56946598D01*
X152657699Y-56946597D01*
X152657698Y-56946597D01*
X152526271Y-56925781D01*
X152486611Y-56919500D01*
X152313389Y-56919500D01*
X152273728Y-56925781D01*
X152142302Y-56946597D01*
X151977552Y-57000128D01*
X151823211Y-57078768D01*
X151743256Y-57136859D01*
X151683072Y-57180586D01*
X151683070Y-57180588D01*
X151683069Y-57180588D01*
X151560588Y-57303069D01*
X151560588Y-57303070D01*
X151560586Y-57303072D01*
X151560350Y-57303397D01*
X151458768Y-57443211D01*
X151380128Y-57597552D01*
X151326597Y-57762302D01*
X151299500Y-57933389D01*
X150960500Y-57933389D01*
X150933402Y-57762299D01*
X150879873Y-57597555D01*
X150801232Y-57443212D01*
X150699414Y-57303072D01*
X150576928Y-57180586D01*
X150436788Y-57078768D01*
X150282445Y-57000127D01*
X150117701Y-56946598D01*
X150117699Y-56946597D01*
X150117698Y-56946597D01*
X149986271Y-56925781D01*
X149946611Y-56919500D01*
X149773389Y-56919500D01*
X149733728Y-56925781D01*
X149602302Y-56946597D01*
X149437552Y-57000128D01*
X149283211Y-57078768D01*
X149203256Y-57136859D01*
X149143072Y-57180586D01*
X149143070Y-57180588D01*
X149143069Y-57180588D01*
X149020588Y-57303069D01*
X149020588Y-57303070D01*
X149020586Y-57303072D01*
X149020350Y-57303397D01*
X148918768Y-57443211D01*
X148840128Y-57597552D01*
X148786597Y-57762302D01*
X148759500Y-57933389D01*
X148420500Y-57933389D01*
X148393402Y-57762299D01*
X148339873Y-57597555D01*
X148261232Y-57443212D01*
X148159414Y-57303072D01*
X148036928Y-57180586D01*
X147896788Y-57078768D01*
X147742445Y-57000127D01*
X147577701Y-56946598D01*
X147577699Y-56946597D01*
X147577698Y-56946597D01*
X147446271Y-56925781D01*
X147406611Y-56919500D01*
X147233389Y-56919500D01*
X147193728Y-56925781D01*
X147062302Y-56946597D01*
X146897552Y-57000128D01*
X146743211Y-57078768D01*
X146663256Y-57136859D01*
X146603072Y-57180586D01*
X146603070Y-57180588D01*
X146603069Y-57180588D01*
X146480588Y-57303069D01*
X146480588Y-57303070D01*
X146480586Y-57303072D01*
X146480350Y-57303397D01*
X146378768Y-57443211D01*
X146300128Y-57597552D01*
X146246597Y-57762302D01*
X146219500Y-57933389D01*
X145880500Y-57933389D01*
X145853402Y-57762299D01*
X145799873Y-57597555D01*
X145721232Y-57443212D01*
X145619414Y-57303072D01*
X145496928Y-57180586D01*
X145356788Y-57078768D01*
X145202445Y-57000127D01*
X145037701Y-56946598D01*
X145037699Y-56946597D01*
X145037698Y-56946597D01*
X144906271Y-56925781D01*
X144866611Y-56919500D01*
X144693389Y-56919500D01*
X144653728Y-56925781D01*
X144522302Y-56946597D01*
X144357552Y-57000128D01*
X144203211Y-57078768D01*
X144123256Y-57136859D01*
X144063072Y-57180586D01*
X144063070Y-57180588D01*
X144063069Y-57180588D01*
X143940588Y-57303069D01*
X143940588Y-57303070D01*
X143940586Y-57303072D01*
X143940350Y-57303397D01*
X143838768Y-57443211D01*
X143760128Y-57597552D01*
X143706597Y-57762302D01*
X143679500Y-57933389D01*
X143340500Y-57933389D01*
X143313402Y-57762299D01*
X143259873Y-57597555D01*
X143181232Y-57443212D01*
X143079414Y-57303072D01*
X142956928Y-57180586D01*
X142816788Y-57078768D01*
X142662445Y-57000127D01*
X142497701Y-56946598D01*
X142497699Y-56946597D01*
X142497698Y-56946597D01*
X142366271Y-56925781D01*
X142326611Y-56919500D01*
X142153389Y-56919500D01*
X142113728Y-56925781D01*
X141982302Y-56946597D01*
X141817552Y-57000128D01*
X141663211Y-57078768D01*
X141583256Y-57136859D01*
X141523072Y-57180586D01*
X141523070Y-57180588D01*
X141523069Y-57180588D01*
X141400588Y-57303069D01*
X141400588Y-57303070D01*
X141400586Y-57303072D01*
X141400350Y-57303397D01*
X141298768Y-57443211D01*
X141220128Y-57597552D01*
X141166597Y-57762302D01*
X141139500Y-57933389D01*
X140800500Y-57933389D01*
X140773402Y-57762299D01*
X140719873Y-57597555D01*
X140641232Y-57443212D01*
X140539414Y-57303072D01*
X140416928Y-57180586D01*
X140276788Y-57078768D01*
X140122445Y-57000127D01*
X139957701Y-56946598D01*
X139957699Y-56946597D01*
X139957698Y-56946597D01*
X139826271Y-56925781D01*
X139786611Y-56919500D01*
X139613389Y-56919500D01*
X139573728Y-56925781D01*
X139442302Y-56946597D01*
X139277552Y-57000128D01*
X139123211Y-57078768D01*
X139043256Y-57136859D01*
X138983072Y-57180586D01*
X138983070Y-57180588D01*
X138983069Y-57180588D01*
X138860588Y-57303069D01*
X138860588Y-57303070D01*
X138860586Y-57303072D01*
X138860350Y-57303397D01*
X138758768Y-57443211D01*
X138680128Y-57597552D01*
X138626597Y-57762302D01*
X138599500Y-57933389D01*
X138260500Y-57933389D01*
X138233402Y-57762299D01*
X138179873Y-57597555D01*
X138101232Y-57443212D01*
X137999414Y-57303072D01*
X137876928Y-57180586D01*
X137736788Y-57078768D01*
X137582445Y-57000127D01*
X137417701Y-56946598D01*
X137417699Y-56946597D01*
X137417698Y-56946597D01*
X137286271Y-56925781D01*
X137246611Y-56919500D01*
X137073389Y-56919500D01*
X137033728Y-56925781D01*
X136902302Y-56946597D01*
X136737552Y-57000128D01*
X136583211Y-57078768D01*
X136503256Y-57136859D01*
X136443072Y-57180586D01*
X136443070Y-57180588D01*
X136443069Y-57180588D01*
X136320588Y-57303069D01*
X136320588Y-57303070D01*
X136320586Y-57303072D01*
X136320350Y-57303397D01*
X136218768Y-57443211D01*
X136140128Y-57597552D01*
X136086597Y-57762302D01*
X136059500Y-57933389D01*
X135720500Y-57933389D01*
X135693402Y-57762299D01*
X135639873Y-57597555D01*
X135561232Y-57443212D01*
X135459414Y-57303072D01*
X135336928Y-57180586D01*
X135196788Y-57078768D01*
X135042445Y-57000127D01*
X134877701Y-56946598D01*
X134877699Y-56946597D01*
X134877698Y-56946597D01*
X134746271Y-56925781D01*
X134706611Y-56919500D01*
X134533389Y-56919500D01*
X134493728Y-56925781D01*
X134362302Y-56946597D01*
X134197552Y-57000128D01*
X134043211Y-57078768D01*
X133963256Y-57136859D01*
X133903072Y-57180586D01*
X133903070Y-57180588D01*
X133903069Y-57180588D01*
X133780588Y-57303069D01*
X133780588Y-57303070D01*
X133780586Y-57303072D01*
X133780350Y-57303397D01*
X133678768Y-57443211D01*
X133600128Y-57597552D01*
X133546597Y-57762302D01*
X133519500Y-57933389D01*
X133180500Y-57933389D01*
X133153402Y-57762299D01*
X133099873Y-57597555D01*
X133021232Y-57443212D01*
X132919414Y-57303072D01*
X132796928Y-57180586D01*
X132656788Y-57078768D01*
X132502445Y-57000127D01*
X132337701Y-56946598D01*
X132337699Y-56946597D01*
X132337698Y-56946597D01*
X132206271Y-56925781D01*
X132166611Y-56919500D01*
X131993389Y-56919500D01*
X131953728Y-56925781D01*
X131822302Y-56946597D01*
X131657552Y-57000128D01*
X131503211Y-57078768D01*
X131423256Y-57136859D01*
X131363072Y-57180586D01*
X131363070Y-57180588D01*
X131363069Y-57180588D01*
X131240588Y-57303069D01*
X131240588Y-57303070D01*
X131240586Y-57303072D01*
X131240350Y-57303397D01*
X131138768Y-57443211D01*
X131060128Y-57597552D01*
X131006597Y-57762302D01*
X130979500Y-57933389D01*
X130640500Y-57933389D01*
X130613402Y-57762299D01*
X130559873Y-57597555D01*
X130481232Y-57443212D01*
X130379414Y-57303072D01*
X130256928Y-57180586D01*
X130116788Y-57078768D01*
X129962445Y-57000127D01*
X129797701Y-56946598D01*
X129797699Y-56946597D01*
X129797698Y-56946597D01*
X129666271Y-56925781D01*
X129626611Y-56919500D01*
X129453389Y-56919500D01*
X129413728Y-56925781D01*
X129282302Y-56946597D01*
X129117552Y-57000128D01*
X128963211Y-57078768D01*
X128883256Y-57136859D01*
X128823072Y-57180586D01*
X128823070Y-57180588D01*
X128823069Y-57180588D01*
X128700588Y-57303069D01*
X128700588Y-57303070D01*
X128700586Y-57303072D01*
X128700350Y-57303397D01*
X128598768Y-57443211D01*
X128520128Y-57597552D01*
X128466597Y-57762302D01*
X128439500Y-57933389D01*
X128100500Y-57933389D01*
X128073402Y-57762299D01*
X128019873Y-57597555D01*
X127941232Y-57443212D01*
X127839414Y-57303072D01*
X127716928Y-57180586D01*
X127576788Y-57078768D01*
X127422445Y-57000127D01*
X127257701Y-56946598D01*
X127257699Y-56946597D01*
X127257698Y-56946597D01*
X127126271Y-56925781D01*
X127086611Y-56919500D01*
X126913389Y-56919500D01*
X126873728Y-56925781D01*
X126742302Y-56946597D01*
X126577552Y-57000128D01*
X126423211Y-57078768D01*
X126343256Y-57136859D01*
X126283072Y-57180586D01*
X126283070Y-57180588D01*
X126283069Y-57180588D01*
X126160588Y-57303069D01*
X126160588Y-57303070D01*
X126160586Y-57303072D01*
X126160350Y-57303397D01*
X126058768Y-57443211D01*
X125980128Y-57597552D01*
X125926597Y-57762302D01*
X125899500Y-57933389D01*
X125560500Y-57933389D01*
X125533402Y-57762299D01*
X125479873Y-57597555D01*
X125401232Y-57443212D01*
X125299414Y-57303072D01*
X125176928Y-57180586D01*
X125036788Y-57078768D01*
X124882445Y-57000127D01*
X124717701Y-56946598D01*
X124717699Y-56946597D01*
X124717698Y-56946597D01*
X124586271Y-56925781D01*
X124546611Y-56919500D01*
X124373389Y-56919500D01*
X124333728Y-56925781D01*
X124202302Y-56946597D01*
X124037552Y-57000128D01*
X123883211Y-57078768D01*
X123803256Y-57136859D01*
X123743072Y-57180586D01*
X123743070Y-57180588D01*
X123743069Y-57180588D01*
X123620588Y-57303069D01*
X123620588Y-57303070D01*
X123620586Y-57303072D01*
X123620350Y-57303397D01*
X123518768Y-57443211D01*
X123440128Y-57597552D01*
X123386597Y-57762302D01*
X123359500Y-57933389D01*
X123019994Y-57933389D01*
X122992914Y-57762415D01*
X122939408Y-57597742D01*
X122860804Y-57443475D01*
X122759032Y-57303397D01*
X122636602Y-57180967D01*
X122496524Y-57079195D01*
X122342257Y-57000591D01*
X122177589Y-56947087D01*
X122177581Y-56947085D01*
X122170000Y-56945884D01*
X122170000Y-58104314D01*
X122165606Y-58099920D01*
X122074394Y-58047259D01*
X121972661Y-58020000D01*
X121867339Y-58020000D01*
X121765606Y-58047259D01*
X121674394Y-58099920D01*
X121670000Y-58104314D01*
X121670000Y-56945884D01*
X121669999Y-56945884D01*
X121662418Y-56947085D01*
X121662410Y-56947087D01*
X121497742Y-57000591D01*
X121343475Y-57079195D01*
X121203397Y-57180967D01*
X121080967Y-57303397D01*
X120979195Y-57443475D01*
X120900591Y-57597742D01*
X120847085Y-57762415D01*
X120820000Y-57933428D01*
X119190458Y-57933428D01*
X119169194Y-57821959D01*
X119075874Y-57534752D01*
X119075872Y-57534747D01*
X118947295Y-57261508D01*
X118947292Y-57261502D01*
X118785483Y-57006530D01*
X118704686Y-56908864D01*
X117776289Y-57837261D01*
X117679033Y-57703398D01*
X117556602Y-57580967D01*
X117422736Y-57483709D01*
X118357534Y-56548911D01*
X118368682Y-56495851D01*
X118417733Y-56446095D01*
X118477935Y-56430500D01*
X184745500Y-56430500D01*
X184812539Y-56450185D01*
G37*
%TD.AperFunction*%
%TA.AperFunction,Conductor*%
G36*
X184746615Y-115813062D02*
G01*
X184807549Y-115827874D01*
X184855742Y-115878464D01*
X184869500Y-115935233D01*
X184869500Y-116165500D01*
X184849815Y-116232539D01*
X184797011Y-116278294D01*
X184745500Y-116289500D01*
X184517935Y-116289500D01*
X184450896Y-116269815D01*
X184405141Y-116217011D01*
X184396914Y-116170467D01*
X183462737Y-115236290D01*
X183596602Y-115139033D01*
X183719033Y-115016602D01*
X183816290Y-114882737D01*
X184746615Y-115813062D01*
G37*
%TD.AperFunction*%
%TA.AperFunction,Conductor*%
G36*
X115269104Y-56450185D02*
G01*
X115314859Y-56502989D01*
X115323084Y-56549530D01*
X116257263Y-57483709D01*
X116123398Y-57580967D01*
X116000967Y-57703398D01*
X115903709Y-57837262D01*
X114973382Y-56906935D01*
X114912449Y-56892122D01*
X114864257Y-56841532D01*
X114850500Y-56784765D01*
X114850500Y-56554500D01*
X114870185Y-56487461D01*
X114922989Y-56441706D01*
X114974500Y-56430500D01*
X115202065Y-56430500D01*
X115269104Y-56450185D01*
G37*
%TD.AperFunction*%
%TD*%
M02*
