%TF.GenerationSoftware,KiCad,Pcbnew,8.0.3-8.0.3-0~ubuntu22.04.1*%
%TF.CreationDate,2024-06-15T14:20:42-04:00*%
%TF.ProjectId,esp32-s3-wroom-2-devkitc1,65737033-322d-4733-932d-77726f6f6d2d,rev?*%
%TF.SameCoordinates,Original*%
%TF.FileFunction,Copper,L2,Bot*%
%TF.FilePolarity,Positive*%
%FSLAX46Y46*%
G04 Gerber Fmt 4.6, Leading zero omitted, Abs format (unit mm)*
G04 Created by KiCad (PCBNEW 8.0.3-8.0.3-0~ubuntu22.04.1) date 2024-06-15 14:20:42*
%MOMM*%
%LPD*%
G01*
G04 APERTURE LIST*
%TA.AperFunction,ComponentPad*%
%ADD10C,1.524000*%
%TD*%
%TA.AperFunction,Conductor*%
%ADD11C,0.200000*%
%TD*%
G04 APERTURE END LIST*
D10*
%TO.P,LORA,1*%
%TO.N,N/C*%
X139700000Y-88900000D03*
%TO.P,LORA,2*%
X142240000Y-88900000D03*
%TO.P,LORA,3*%
X144780000Y-88900000D03*
%TO.P,LORA,4*%
X147320000Y-88900000D03*
%TO.P,LORA,5*%
X149860000Y-88900000D03*
%TO.P,LORA,6*%
X152400000Y-88900000D03*
%TO.P,LORA,7*%
X154940000Y-88900000D03*
%TO.P,LORA,8*%
X157480000Y-88900000D03*
%TO.P,LORA,9*%
X160020000Y-88900000D03*
%TO.P,LORA,10*%
X149860000Y-114300000D03*
%TO.P,LORA,11*%
X152400000Y-114300000D03*
%TO.P,LORA,12*%
X154940000Y-114300000D03*
%TO.P,LORA,13*%
X157480000Y-114300000D03*
%TO.P,LORA,14*%
X160020000Y-114300000D03*
%TD*%
%TO.P,REF\u002A\u002A,1*%
%TO.N,N/C*%
X121920000Y-58420000D03*
%TO.P,REF\u002A\u002A,2*%
X124460000Y-58420000D03*
%TO.P,REF\u002A\u002A,3*%
X127000000Y-58420000D03*
%TO.P,REF\u002A\u002A,4*%
X129540000Y-58420000D03*
%TO.P,REF\u002A\u002A,5*%
X132080000Y-58420000D03*
%TO.P,REF\u002A\u002A,6*%
X134620000Y-58420000D03*
%TO.P,REF\u002A\u002A,7*%
X137160000Y-58420000D03*
%TO.P,REF\u002A\u002A,8*%
X139700000Y-58420000D03*
%TO.P,REF\u002A\u002A,9*%
X142240000Y-58420000D03*
%TO.P,REF\u002A\u002A,10*%
X144780000Y-58420000D03*
%TO.P,REF\u002A\u002A,11*%
X147320000Y-58420000D03*
%TO.P,REF\u002A\u002A,12*%
X149860000Y-58420000D03*
%TO.P,REF\u002A\u002A,13*%
X152400000Y-58420000D03*
%TO.P,REF\u002A\u002A,14*%
X154940000Y-58420000D03*
%TO.P,REF\u002A\u002A,15*%
X157480000Y-58420000D03*
%TO.P,REF\u002A\u002A,16*%
X160020000Y-58420000D03*
%TO.P,REF\u002A\u002A,17*%
X162560000Y-58420000D03*
%TO.P,REF\u002A\u002A,18*%
X165100000Y-58420000D03*
%TO.P,REF\u002A\u002A,19*%
X167640000Y-58420000D03*
%TO.P,REF\u002A\u002A,20*%
X170180000Y-58420000D03*
%TO.P,REF\u002A\u002A,21*%
X172720000Y-58420000D03*
%TO.P,REF\u002A\u002A,22*%
X175260000Y-58420000D03*
%TO.P,REF\u002A\u002A,23*%
X121920000Y-81280000D03*
%TO.P,REF\u002A\u002A,24*%
X124460000Y-81280000D03*
%TO.P,REF\u002A\u002A,25*%
X127000000Y-81280000D03*
%TO.P,REF\u002A\u002A,26*%
X129540000Y-81280000D03*
%TO.P,REF\u002A\u002A,27*%
X132080000Y-81280000D03*
%TO.P,REF\u002A\u002A,28*%
X134620000Y-81280000D03*
%TO.P,REF\u002A\u002A,29*%
X137160000Y-81280000D03*
%TO.P,REF\u002A\u002A,30*%
X139700000Y-81280000D03*
%TO.P,REF\u002A\u002A,31*%
X142240000Y-81280000D03*
%TO.P,REF\u002A\u002A,32*%
X144780000Y-81280000D03*
%TO.P,REF\u002A\u002A,33*%
X147320000Y-81280000D03*
%TO.P,REF\u002A\u002A,34*%
X149860000Y-81280000D03*
%TO.P,REF\u002A\u002A,35*%
X152400000Y-81280000D03*
%TO.P,REF\u002A\u002A,36*%
X154940000Y-81280000D03*
%TO.P,REF\u002A\u002A,37*%
X157480000Y-81280000D03*
%TO.P,REF\u002A\u002A,38*%
X160020000Y-81280000D03*
%TO.P,REF\u002A\u002A,39*%
X162560000Y-81280000D03*
%TO.P,REF\u002A\u002A,40*%
X165100000Y-81280000D03*
%TO.P,REF\u002A\u002A,41*%
X167640000Y-81280000D03*
%TO.P,REF\u002A\u002A,42*%
X170180000Y-81280000D03*
%TO.P,REF\u002A\u002A,43*%
X172720000Y-81280000D03*
%TO.P,REF\u002A\u002A,44*%
X175260000Y-81280000D03*
%TD*%
D11*
%TO.N,*%
X175260000Y-83820000D02*
X175260000Y-81280000D01*
X157480000Y-88900000D02*
X157480000Y-87630000D01*
X157480000Y-87630000D02*
X160020000Y-85090000D01*
X160020000Y-85090000D02*
X173990000Y-85090000D01*
X173990000Y-85090000D02*
X175260000Y-83820000D01*
X123190000Y-91440000D02*
X158750000Y-91440000D01*
X121920000Y-81280000D02*
X121920000Y-90170000D01*
X121920000Y-90170000D02*
X123190000Y-91440000D01*
X158750000Y-91440000D02*
X160020000Y-90170000D01*
X160020000Y-90170000D02*
X160020000Y-88900000D01*
%TD*%
M02*
