%TF.GenerationSoftware,KiCad,Pcbnew,8.0.3-8.0.3-0~ubuntu22.04.1*%
%TF.CreationDate,2024-07-02T19:08:29-04:00*%
%TF.ProjectId,esp32-s3-wroom-2-devkitc1,65737033-322d-4733-932d-77726f6f6d2d,rev?*%
%TF.SameCoordinates,Original*%
%TF.FileFunction,Copper,L1,Top*%
%TF.FilePolarity,Positive*%
%FSLAX46Y46*%
G04 Gerber Fmt 4.6, Leading zero omitted, Abs format (unit mm)*
G04 Created by KiCad (PCBNEW 8.0.3-8.0.3-0~ubuntu22.04.1) date 2024-07-02 19:08:29*
%MOMM*%
%LPD*%
G01*
G04 APERTURE LIST*
%TA.AperFunction,ComponentPad*%
%ADD10R,1.200000X2.000000*%
%TD*%
%TA.AperFunction,ComponentPad*%
%ADD11O,1.200000X2.000000*%
%TD*%
%TA.AperFunction,ComponentPad*%
%ADD12C,3.800000*%
%TD*%
%TA.AperFunction,ComponentPad*%
%ADD13C,1.727200*%
%TD*%
%TA.AperFunction,ComponentPad*%
%ADD14R,1.727200X1.727200*%
%TD*%
%TA.AperFunction,ComponentPad*%
%ADD15R,1.700000X1.700000*%
%TD*%
%TA.AperFunction,ComponentPad*%
%ADD16O,1.700000X1.700000*%
%TD*%
%TA.AperFunction,ViaPad*%
%ADD17C,0.600000*%
%TD*%
%TA.AperFunction,Conductor*%
%ADD18C,0.500000*%
%TD*%
%TA.AperFunction,Conductor*%
%ADD19C,0.200000*%
%TD*%
G04 APERTURE END LIST*
D10*
%TO.P,U1,1,3V3*%
%TO.N,+3.3V*%
X121920000Y-81280000D03*
D11*
%TO.P,U1,2,3V3*%
X124460000Y-81280000D03*
%TO.P,U1,3,CHIP_PU*%
%TO.N,unconnected-(U1-CHIP_PU-Pad3)*%
X127000000Y-81280000D03*
%TO.P,U1,4,GPIO4/ADC1_CH3*%
%TO.N,/G1*%
X129540000Y-81280000D03*
%TO.P,U1,5,GPIO5/ADC1_CH4*%
%TO.N,unconnected-(U1-GPIO5{slash}ADC1_CH4-Pad5)*%
X132080000Y-81280000D03*
%TO.P,U1,6,GPIO6/ADC1_CH5*%
%TO.N,unconnected-(U1-GPIO6{slash}ADC1_CH5-Pad6)*%
X134620000Y-81280000D03*
%TO.P,U1,7,GPIO7/ADC1_CH6*%
%TO.N,unconnected-(U1-GPIO7{slash}ADC1_CH6-Pad7)*%
X137160000Y-81280000D03*
%TO.P,U1,8,GPIO15/ADC2_CH4/32K_P*%
%TO.N,/RST*%
X139700000Y-81280000D03*
%TO.P,U1,9,GPIO16/ADC2_CH5/32K_N*%
%TO.N,unconnected-(U1-GPIO16{slash}ADC2_CH5{slash}32K_N-Pad9)*%
X142240000Y-81280000D03*
%TO.P,U1,10,GPIO17/ADC2_CH6*%
%TO.N,unconnected-(U1-GPIO17{slash}ADC2_CH6-Pad10)*%
X144780000Y-81280000D03*
%TO.P,U1,11,GPIO18/ADC2_CH7*%
%TO.N,unconnected-(U1-GPIO18{slash}ADC2_CH7-Pad11)*%
X147320000Y-81280000D03*
%TO.P,U1,12,GPIO8/ADC1_CH7*%
%TO.N,unconnected-(U1-GPIO8{slash}ADC1_CH7-Pad12)*%
X149860000Y-81280000D03*
%TO.P,U1,13,GPIO3/ADC1_CH2*%
%TO.N,unconnected-(U1-GPIO3{slash}ADC1_CH2-Pad13)*%
X152400000Y-81280000D03*
%TO.P,U1,14,GPIO46*%
%TO.N,unconnected-(U1-GPIO46-Pad14)*%
X154940000Y-81280000D03*
%TO.P,U1,15,GPIO9/ADC1_CH8*%
%TO.N,unconnected-(U1-GPIO9{slash}ADC1_CH8-Pad15)*%
X157480000Y-81280000D03*
%TO.P,U1,16,GPIO10/ADC1_CH9*%
%TO.N,Net-(RFM95W1-CS)*%
X160020000Y-81280000D03*
%TO.P,U1,17,GPIO11/ADC2_CH0*%
%TO.N,Net-(RFM95W1-MOSI)*%
X162560000Y-81280000D03*
%TO.P,U1,18,GPIO12/ADC2_CH1*%
%TO.N,Net-(RFM95W1-SCK)*%
X165100000Y-81280000D03*
%TO.P,U1,19,GPIO13/ADC2_CH2*%
%TO.N,Net-(RFM95W1-MISO)*%
X167640000Y-81280000D03*
%TO.P,U1,20,GPIO14/ADC2_CH3*%
%TO.N,unconnected-(U1-GPIO14{slash}ADC2_CH3-Pad20)*%
X170177280Y-81283680D03*
%TO.P,U1,21,5V*%
%TO.N,+5V*%
X172717280Y-81283680D03*
%TO.P,U1,22,GND*%
%TO.N,GND*%
X175257280Y-81283680D03*
%TO.P,U1,23,GND*%
X175260000Y-58420000D03*
%TO.P,U1,24,GND*%
X172720000Y-58420000D03*
%TO.P,U1,25,GPIO19/USB_D-*%
%TO.N,unconnected-(U1-GPIO19{slash}USB_D--Pad25)*%
X170180000Y-58420000D03*
%TO.P,U1,26,GPIO20/USB_D+*%
%TO.N,unconnected-(U1-GPIO20{slash}USB_D+-Pad26)*%
X167640000Y-58420000D03*
%TO.P,U1,27,GPIO21*%
%TO.N,unconnected-(U1-GPIO21-Pad27)*%
X165100000Y-58420000D03*
%TO.P,U1,28,GPIO47*%
%TO.N,unconnected-(U1-GPIO47-Pad28)*%
X162560000Y-58420000D03*
%TO.P,U1,29,GPIO48*%
%TO.N,unconnected-(U1-GPIO48-Pad29)*%
X160020000Y-58420000D03*
%TO.P,U1,30,GPIO45*%
%TO.N,unconnected-(U1-GPIO45-Pad30)*%
X157480000Y-58420000D03*
%TO.P,U1,31,GPIO0*%
%TO.N,unconnected-(U1-GPIO0-Pad31)*%
X154940000Y-58420000D03*
%TO.P,U1,32,GPIO35*%
%TO.N,unconnected-(U1-GPIO35-Pad32)*%
X152400000Y-58420000D03*
%TO.P,U1,33,GPIO36*%
%TO.N,unconnected-(U1-GPIO36-Pad33)*%
X149860000Y-58420000D03*
%TO.P,U1,34,GPIO37*%
%TO.N,unconnected-(U1-GPIO37-Pad34)*%
X147320000Y-58420000D03*
%TO.P,U1,35,GPIO38*%
%TO.N,unconnected-(U1-GPIO38-Pad35)*%
X144780000Y-58420000D03*
%TO.P,U1,36,GPIO39/MTCK*%
%TO.N,unconnected-(U1-GPIO39{slash}MTCK-Pad36)*%
X142240000Y-58420000D03*
%TO.P,U1,37,GPIO40/MTDO*%
%TO.N,unconnected-(U1-GPIO40{slash}MTDO-Pad37)*%
X139700000Y-58420000D03*
%TO.P,U1,38,GPIO41/MTDI*%
%TO.N,unconnected-(U1-GPIO41{slash}MTDI-Pad38)*%
X137160000Y-58420000D03*
%TO.P,U1,39,GPIO42/MTMS*%
%TO.N,unconnected-(U1-GPIO42{slash}MTMS-Pad39)*%
X134620000Y-58420000D03*
%TO.P,U1,40,GPIO2/ADC1_CH1*%
%TO.N,unconnected-(U1-GPIO2{slash}ADC1_CH1-Pad40)*%
X132080000Y-58420000D03*
%TO.P,U1,41,GPIO1/ADC1_CH0*%
%TO.N,Net-(RFM95W1-G0)*%
X129540000Y-58420000D03*
%TO.P,U1,42,GPIO44/U0RXD*%
%TO.N,unconnected-(U1-GPIO44{slash}U0RXD-Pad42)*%
X127000000Y-58420000D03*
%TO.P,U1,43,GPIO43/U0TXD*%
%TO.N,unconnected-(U1-GPIO43{slash}U0TXD-Pad43)*%
X124460000Y-58420000D03*
%TO.P,U1,44,GND*%
%TO.N,GND*%
X121920000Y-58420000D03*
%TD*%
D12*
%TO.P,REF\u002A\u002A,1*%
%TO.N,GND*%
X182880000Y-114300000D03*
%TD*%
%TO.P,REF\u002A\u002A,1*%
%TO.N,GND*%
X182880000Y-85090000D03*
%TD*%
D13*
%TO.P,RFM95W1,1,RST*%
%TO.N,/RST*%
X139700000Y-88900000D03*
%TO.P,RFM95W1,2,CS*%
%TO.N,Net-(RFM95W1-CS)*%
X142240000Y-88900000D03*
%TO.P,RFM95W1,3,MOSI*%
%TO.N,Net-(RFM95W1-MOSI)*%
X144780000Y-88900000D03*
%TO.P,RFM95W1,4,MISO*%
%TO.N,Net-(RFM95W1-MISO)*%
X147320000Y-88900000D03*
%TO.P,RFM95W1,5,SCK*%
%TO.N,Net-(RFM95W1-SCK)*%
X149860000Y-88900000D03*
%TO.P,RFM95W1,6,G0*%
%TO.N,Net-(RFM95W1-G0)*%
X152400000Y-88900000D03*
%TO.P,RFM95W1,7,EN*%
%TO.N,unconnected-(RFM95W1-EN-Pad7)*%
X154940000Y-88900000D03*
D14*
%TO.P,RFM95W1,8,GND*%
%TO.N,GND*%
X157480000Y-88900000D03*
D13*
%TO.P,RFM95W1,9,VIN*%
%TO.N,+3.3V*%
X160020000Y-88900000D03*
%TO.P,RFM95W1,10,G5*%
%TO.N,unconnected-(RFM95W1-G5-Pad10)*%
X149860000Y-114300000D03*
%TO.P,RFM95W1,11,G4*%
%TO.N,unconnected-(RFM95W1-G4-Pad11)*%
X152400000Y-114300000D03*
%TO.P,RFM95W1,12,G3*%
%TO.N,unconnected-(RFM95W1-G3-Pad12)*%
X154940000Y-114300000D03*
%TO.P,RFM95W1,13,G2*%
%TO.N,unconnected-(RFM95W1-G2-Pad13)*%
X157480000Y-114300000D03*
%TO.P,RFM95W1,14,G1*%
%TO.N,/G1*%
X160020000Y-114300000D03*
%TD*%
D12*
%TO.P,REF\u002A\u002A,1*%
%TO.N,GND*%
X116840000Y-58420000D03*
%TD*%
D15*
%TO.P,J1,1,Pin_1*%
%TO.N,+5V*%
X174695000Y-90165000D03*
D16*
%TO.P,J1,2,Pin_2*%
%TO.N,GND*%
X174695000Y-92705000D03*
%TD*%
D12*
%TO.P,REF\u002A\u002A,1*%
%TO.N,GND*%
X116840000Y-114300000D03*
%TD*%
D17*
%TO.N,+3.3V*%
X162560000Y-89535000D03*
X162560000Y-94615000D03*
X162560000Y-93980000D03*
X162560000Y-88900000D03*
%TD*%
D18*
%TO.N,+5V*%
X172717280Y-81283680D02*
X172717280Y-88187280D01*
X172717280Y-88187280D02*
X174695000Y-90165000D01*
D19*
%TO.N,Net-(RFM95W1-MISO)*%
X149860000Y-92710000D02*
X147320000Y-90170000D01*
X167640000Y-81280000D02*
X167640000Y-90170000D01*
X167640000Y-90170000D02*
X165100000Y-92710000D01*
X147320000Y-90170000D02*
X147320000Y-88900000D01*
X165100000Y-92710000D02*
X149860000Y-92710000D01*
%TO.N,Net-(RFM95W1-G0)*%
X129540000Y-58420000D02*
X129540000Y-72390000D01*
X162560000Y-86360000D02*
X163830000Y-85090000D01*
X163830000Y-85090000D02*
X163830000Y-78740000D01*
X162560000Y-77470000D02*
X134620000Y-77470000D01*
X153670000Y-86360000D02*
X162560000Y-86360000D01*
X152400000Y-88900000D02*
X152400000Y-87630000D01*
X152400000Y-87630000D02*
X153670000Y-86360000D01*
X134620000Y-77470000D02*
X129540000Y-72390000D01*
X163830000Y-78740000D02*
X162560000Y-77470000D01*
%TO.N,Net-(RFM95W1-MOSI)*%
X162560000Y-81280000D02*
X162560000Y-83820000D01*
X146050000Y-85090000D02*
X144780000Y-86360000D01*
X144780000Y-86360000D02*
X144780000Y-88900000D01*
X161290000Y-85090000D02*
X146050000Y-85090000D01*
X162560000Y-83820000D02*
X161290000Y-85090000D01*
%TO.N,Net-(RFM95W1-SCK)*%
X165100000Y-81280000D02*
X165100000Y-90170000D01*
X163830000Y-91440000D02*
X151130000Y-91440000D01*
X151130000Y-91440000D02*
X149860000Y-90170000D01*
X149860000Y-90170000D02*
X149860000Y-88900000D01*
X165100000Y-90170000D02*
X163830000Y-91440000D01*
%TO.N,Net-(RFM95W1-CS)*%
X160020000Y-81280000D02*
X160020000Y-82550000D01*
X160020000Y-82550000D02*
X158750000Y-83820000D01*
X143510000Y-83820000D02*
X142240000Y-85090000D01*
X142240000Y-85090000D02*
X142240000Y-88900000D01*
X158750000Y-83820000D02*
X143510000Y-83820000D01*
%TO.N,/RST*%
X139700000Y-81280000D02*
X139700000Y-88900000D01*
%TO.N,/G1*%
X130810000Y-111760000D02*
X158750000Y-111760000D01*
X129540000Y-81280000D02*
X129540000Y-110490000D01*
X160020000Y-113030000D02*
X160020000Y-114300000D01*
X158750000Y-111760000D02*
X160020000Y-113030000D01*
X129540000Y-110490000D02*
X130810000Y-111760000D01*
%TD*%
%TA.AperFunction,Conductor*%
%TO.N,+3.3V*%
G36*
X164418834Y-85452916D02*
G01*
X164474767Y-85494788D01*
X164499184Y-85560252D01*
X164499500Y-85569098D01*
X164499500Y-89869903D01*
X164479815Y-89936942D01*
X164463181Y-89957584D01*
X163617584Y-90803181D01*
X163556261Y-90836666D01*
X163529903Y-90839500D01*
X151430097Y-90839500D01*
X151363058Y-90819815D01*
X151342416Y-90803181D01*
X150694711Y-90155476D01*
X150661226Y-90094153D01*
X150666210Y-90024461D01*
X150706228Y-89969943D01*
X150787046Y-89907040D01*
X150940156Y-89740719D01*
X151026193Y-89609028D01*
X151079338Y-89563675D01*
X151148569Y-89554251D01*
X151211905Y-89583753D01*
X151233804Y-89609025D01*
X151319844Y-89740719D01*
X151319849Y-89740724D01*
X151319850Y-89740727D01*
X151444257Y-89875867D01*
X151472954Y-89907040D01*
X151651351Y-90045893D01*
X151850169Y-90153488D01*
X151850172Y-90153489D01*
X152063982Y-90226890D01*
X152063984Y-90226890D01*
X152063986Y-90226891D01*
X152286967Y-90264100D01*
X152286968Y-90264100D01*
X152513032Y-90264100D01*
X152513033Y-90264100D01*
X152736014Y-90226891D01*
X152949831Y-90153488D01*
X153148649Y-90045893D01*
X153327046Y-89907040D01*
X153480156Y-89740719D01*
X153566193Y-89609028D01*
X153619338Y-89563675D01*
X153688569Y-89554251D01*
X153751905Y-89583753D01*
X153773804Y-89609025D01*
X153859844Y-89740719D01*
X153859849Y-89740724D01*
X153859850Y-89740727D01*
X153984257Y-89875867D01*
X154012954Y-89907040D01*
X154191351Y-90045893D01*
X154390169Y-90153488D01*
X154390172Y-90153489D01*
X154603982Y-90226890D01*
X154603984Y-90226890D01*
X154603986Y-90226891D01*
X154826967Y-90264100D01*
X154826968Y-90264100D01*
X155053032Y-90264100D01*
X155053033Y-90264100D01*
X155276014Y-90226891D01*
X155489831Y-90153488D01*
X155688649Y-90045893D01*
X155867046Y-89907040D01*
X155921435Y-89847957D01*
X155981320Y-89811969D01*
X156051158Y-89814069D01*
X156108774Y-89853593D01*
X156128845Y-89888609D01*
X156172602Y-90005928D01*
X156172606Y-90005935D01*
X156258852Y-90121144D01*
X156258855Y-90121147D01*
X156374064Y-90207393D01*
X156374071Y-90207397D01*
X156508917Y-90257691D01*
X156508916Y-90257691D01*
X156515844Y-90258435D01*
X156568527Y-90264100D01*
X158391472Y-90264099D01*
X158451083Y-90257691D01*
X158585931Y-90207396D01*
X158701146Y-90121146D01*
X158787396Y-90005931D01*
X158837691Y-89871083D01*
X158844100Y-89811473D01*
X158844099Y-89773708D01*
X158863782Y-89706672D01*
X158880418Y-89686028D01*
X159530504Y-89035941D01*
X159546619Y-89096081D01*
X159613498Y-89211920D01*
X159708080Y-89306502D01*
X159823919Y-89373381D01*
X159884057Y-89389494D01*
X159247139Y-90026412D01*
X159271628Y-90045472D01*
X159470369Y-90153027D01*
X159470375Y-90153029D01*
X159684106Y-90226403D01*
X159907010Y-90263600D01*
X160132990Y-90263600D01*
X160355893Y-90226403D01*
X160569624Y-90153029D01*
X160569639Y-90153022D01*
X160768367Y-90045475D01*
X160768377Y-90045468D01*
X160792859Y-90026413D01*
X160792860Y-90026412D01*
X160155942Y-89389495D01*
X160216081Y-89373381D01*
X160331920Y-89306502D01*
X160426502Y-89211920D01*
X160493381Y-89096081D01*
X160509494Y-89035942D01*
X161144887Y-89671335D01*
X161223359Y-89551227D01*
X161314136Y-89344278D01*
X161369611Y-89125213D01*
X161369613Y-89125202D01*
X161388273Y-88900006D01*
X161388273Y-88899993D01*
X161369613Y-88674797D01*
X161369611Y-88674786D01*
X161314136Y-88455721D01*
X161223361Y-88248777D01*
X161144887Y-88128663D01*
X160509494Y-88764056D01*
X160493381Y-88703919D01*
X160426502Y-88588080D01*
X160331920Y-88493498D01*
X160216081Y-88426619D01*
X160155942Y-88410505D01*
X160792859Y-87773586D01*
X160792859Y-87773584D01*
X160768382Y-87754533D01*
X160768376Y-87754529D01*
X160569630Y-87646972D01*
X160569624Y-87646970D01*
X160355893Y-87573596D01*
X160132990Y-87536400D01*
X159907010Y-87536400D01*
X159684106Y-87573596D01*
X159470375Y-87646970D01*
X159470369Y-87646972D01*
X159271624Y-87754529D01*
X159271623Y-87754530D01*
X159247139Y-87773585D01*
X159247139Y-87773587D01*
X159884057Y-88410504D01*
X159823919Y-88426619D01*
X159708080Y-88493498D01*
X159613498Y-88588080D01*
X159546619Y-88703919D01*
X159530505Y-88764057D01*
X158880418Y-88113970D01*
X158846933Y-88052647D01*
X158844099Y-88026289D01*
X158844099Y-87988529D01*
X158844098Y-87988523D01*
X158842847Y-87976889D01*
X158837691Y-87928917D01*
X158831154Y-87911391D01*
X158787397Y-87794071D01*
X158787393Y-87794064D01*
X158701147Y-87678855D01*
X158701144Y-87678852D01*
X158585935Y-87592606D01*
X158585928Y-87592602D01*
X158451082Y-87542308D01*
X158451083Y-87542308D01*
X158391483Y-87535901D01*
X158391481Y-87535900D01*
X158391473Y-87535900D01*
X158391464Y-87535900D01*
X156568529Y-87535900D01*
X156568523Y-87535901D01*
X156508916Y-87542308D01*
X156374071Y-87592602D01*
X156374064Y-87592606D01*
X156258855Y-87678852D01*
X156258852Y-87678855D01*
X156172606Y-87794064D01*
X156172603Y-87794069D01*
X156128845Y-87911391D01*
X156086973Y-87967324D01*
X156021509Y-87991741D01*
X155953236Y-87976889D01*
X155921434Y-87952040D01*
X155867049Y-87892963D01*
X155867048Y-87892962D01*
X155867046Y-87892960D01*
X155688649Y-87754107D01*
X155605478Y-87709097D01*
X155489832Y-87646512D01*
X155489827Y-87646510D01*
X155276017Y-87573109D01*
X155091434Y-87542308D01*
X155053033Y-87535900D01*
X154826967Y-87535900D01*
X154788566Y-87542308D01*
X154603982Y-87573109D01*
X154390172Y-87646510D01*
X154390167Y-87646512D01*
X154191352Y-87754106D01*
X154012955Y-87892959D01*
X154012950Y-87892963D01*
X153859850Y-88059272D01*
X153859842Y-88059283D01*
X153773808Y-88190968D01*
X153720662Y-88236325D01*
X153651430Y-88245748D01*
X153588095Y-88216246D01*
X153566192Y-88190968D01*
X153480157Y-88059283D01*
X153480149Y-88059272D01*
X153327049Y-87892963D01*
X153327039Y-87892954D01*
X153246229Y-87830057D01*
X153205416Y-87773347D01*
X153201741Y-87703574D01*
X153234708Y-87644525D01*
X153882416Y-86996819D01*
X153943739Y-86963334D01*
X153970097Y-86960500D01*
X162473331Y-86960500D01*
X162473347Y-86960501D01*
X162480943Y-86960501D01*
X162639054Y-86960501D01*
X162639057Y-86960501D01*
X162791785Y-86919577D01*
X162841904Y-86890639D01*
X162928716Y-86840520D01*
X163040520Y-86728716D01*
X163040520Y-86728714D01*
X163050728Y-86718507D01*
X163050730Y-86718504D01*
X164188506Y-85580728D01*
X164188511Y-85580724D01*
X164198714Y-85570520D01*
X164198716Y-85570520D01*
X164287819Y-85481417D01*
X164349142Y-85447932D01*
X164418834Y-85452916D01*
G37*
%TD.AperFunction*%
%TA.AperFunction,Conductor*%
G36*
X184812539Y-56450185D02*
G01*
X184858294Y-56502989D01*
X184869500Y-56554500D01*
X184869500Y-83384530D01*
X184849815Y-83451569D01*
X184797011Y-83497324D01*
X184727853Y-83507268D01*
X184664297Y-83478243D01*
X184649956Y-83463571D01*
X184640027Y-83451569D01*
X184633349Y-83443496D01*
X184522582Y-83339479D01*
X184413163Y-83236727D01*
X184413153Y-83236719D01*
X184168806Y-83059191D01*
X184168799Y-83059186D01*
X184168795Y-83059184D01*
X183904104Y-82913668D01*
X183904101Y-82913666D01*
X183904096Y-82913664D01*
X183904095Y-82913663D01*
X183623265Y-82802475D01*
X183623262Y-82802474D01*
X183330695Y-82727357D01*
X183031036Y-82689500D01*
X183031027Y-82689500D01*
X182728973Y-82689500D01*
X182728963Y-82689500D01*
X182429304Y-82727357D01*
X182136737Y-82802474D01*
X182136734Y-82802475D01*
X181855904Y-82913663D01*
X181855903Y-82913664D01*
X181591205Y-83059184D01*
X181591193Y-83059191D01*
X181346846Y-83236719D01*
X181346836Y-83236727D01*
X181126652Y-83443494D01*
X180934111Y-83676236D01*
X180772268Y-83931261D01*
X180772265Y-83931267D01*
X180643661Y-84204563D01*
X180643659Y-84204568D01*
X180550320Y-84491835D01*
X180493719Y-84788546D01*
X180493718Y-84788553D01*
X180474754Y-85089994D01*
X180474754Y-85090005D01*
X180493718Y-85391446D01*
X180493719Y-85391453D01*
X180550320Y-85688164D01*
X180643659Y-85975431D01*
X180643661Y-85975436D01*
X180772265Y-86248732D01*
X180772268Y-86248738D01*
X180934111Y-86503763D01*
X180934114Y-86503767D01*
X180934115Y-86503768D01*
X181110044Y-86716430D01*
X181126652Y-86736505D01*
X181346836Y-86943272D01*
X181346846Y-86943280D01*
X181591193Y-87120808D01*
X181591198Y-87120810D01*
X181591205Y-87120816D01*
X181855896Y-87266332D01*
X181855901Y-87266334D01*
X181855903Y-87266335D01*
X181855904Y-87266336D01*
X182136734Y-87377524D01*
X182136737Y-87377525D01*
X182217301Y-87398210D01*
X182429302Y-87452642D01*
X182576039Y-87471179D01*
X182728963Y-87490499D01*
X182728969Y-87490499D01*
X182728973Y-87490500D01*
X182728975Y-87490500D01*
X183031025Y-87490500D01*
X183031027Y-87490500D01*
X183031032Y-87490499D01*
X183031036Y-87490499D01*
X183110591Y-87480448D01*
X183330698Y-87452642D01*
X183623262Y-87377525D01*
X183623265Y-87377524D01*
X183904095Y-87266336D01*
X183904096Y-87266335D01*
X183904094Y-87266335D01*
X183904104Y-87266332D01*
X184168795Y-87120816D01*
X184413162Y-86943274D01*
X184633349Y-86736504D01*
X184649956Y-86716428D01*
X184707854Y-86677322D01*
X184777705Y-86675724D01*
X184837332Y-86712145D01*
X184867802Y-86775020D01*
X184869500Y-86795469D01*
X184869500Y-112594530D01*
X184849815Y-112661569D01*
X184797011Y-112707324D01*
X184727853Y-112717268D01*
X184664297Y-112688243D01*
X184649956Y-112673571D01*
X184640027Y-112661569D01*
X184633349Y-112653496D01*
X184592329Y-112614976D01*
X184413163Y-112446727D01*
X184413153Y-112446719D01*
X184168806Y-112269191D01*
X184168799Y-112269186D01*
X184168795Y-112269184D01*
X183904104Y-112123668D01*
X183904101Y-112123666D01*
X183904096Y-112123664D01*
X183904095Y-112123663D01*
X183623265Y-112012475D01*
X183623262Y-112012474D01*
X183330695Y-111937357D01*
X183031036Y-111899500D01*
X183031027Y-111899500D01*
X182728973Y-111899500D01*
X182728963Y-111899500D01*
X182429304Y-111937357D01*
X182136737Y-112012474D01*
X182136734Y-112012475D01*
X181855904Y-112123663D01*
X181855903Y-112123664D01*
X181591205Y-112269184D01*
X181591193Y-112269191D01*
X181346846Y-112446719D01*
X181346836Y-112446727D01*
X181126652Y-112653494D01*
X180934111Y-112886236D01*
X180772268Y-113141261D01*
X180772265Y-113141267D01*
X180643661Y-113414563D01*
X180643659Y-113414568D01*
X180550320Y-113701835D01*
X180493719Y-113998546D01*
X180493718Y-113998553D01*
X180474754Y-114299994D01*
X180474754Y-114300005D01*
X180493718Y-114601446D01*
X180493719Y-114601453D01*
X180550320Y-114898164D01*
X180643659Y-115185431D01*
X180643661Y-115185436D01*
X180772265Y-115458732D01*
X180772268Y-115458738D01*
X180934111Y-115713763D01*
X181126652Y-115946505D01*
X181263600Y-116075108D01*
X181298995Y-116135349D01*
X181296202Y-116205163D01*
X181256108Y-116262384D01*
X181191442Y-116288845D01*
X181178716Y-116289500D01*
X118541284Y-116289500D01*
X118474245Y-116269815D01*
X118428490Y-116217011D01*
X118418546Y-116147853D01*
X118447571Y-116084297D01*
X118456400Y-116075108D01*
X118593349Y-115946504D01*
X118785885Y-115713768D01*
X118947733Y-115458736D01*
X119076341Y-115185430D01*
X119169681Y-114898160D01*
X119226280Y-114601457D01*
X119245246Y-114300000D01*
X119226280Y-113998543D01*
X119169681Y-113701840D01*
X119076341Y-113414570D01*
X118947733Y-113141264D01*
X118817407Y-112935903D01*
X118785888Y-112886236D01*
X118664010Y-112738911D01*
X118593349Y-112653496D01*
X118552329Y-112614976D01*
X118373163Y-112446727D01*
X118373153Y-112446719D01*
X118128806Y-112269191D01*
X118128799Y-112269186D01*
X118128795Y-112269184D01*
X117864104Y-112123668D01*
X117864101Y-112123666D01*
X117864096Y-112123664D01*
X117864095Y-112123663D01*
X117583265Y-112012475D01*
X117583262Y-112012474D01*
X117290695Y-111937357D01*
X116991036Y-111899500D01*
X116991027Y-111899500D01*
X116688973Y-111899500D01*
X116688963Y-111899500D01*
X116389304Y-111937357D01*
X116096737Y-112012474D01*
X116096734Y-112012475D01*
X115815904Y-112123663D01*
X115815903Y-112123664D01*
X115551205Y-112269184D01*
X115551193Y-112269191D01*
X115306846Y-112446719D01*
X115306836Y-112446727D01*
X115086652Y-112653494D01*
X115070044Y-112673571D01*
X115012144Y-112712678D01*
X114942292Y-112714274D01*
X114882667Y-112677852D01*
X114852197Y-112614976D01*
X114850500Y-112594530D01*
X114850500Y-80232155D01*
X120820000Y-80232155D01*
X120820000Y-81030000D01*
X121604314Y-81030000D01*
X121599920Y-81034394D01*
X121547259Y-81125606D01*
X121520000Y-81227339D01*
X121520000Y-81332661D01*
X121547259Y-81434394D01*
X121599920Y-81525606D01*
X121604314Y-81530000D01*
X120820000Y-81530000D01*
X120820000Y-82327844D01*
X120826401Y-82387372D01*
X120826403Y-82387379D01*
X120876645Y-82522086D01*
X120876649Y-82522093D01*
X120962809Y-82637187D01*
X120962812Y-82637190D01*
X121077906Y-82723350D01*
X121077913Y-82723354D01*
X121212620Y-82773596D01*
X121212627Y-82773598D01*
X121272155Y-82779999D01*
X121272172Y-82780000D01*
X121670000Y-82780000D01*
X121670000Y-81595686D01*
X121674394Y-81600080D01*
X121765606Y-81652741D01*
X121867339Y-81680000D01*
X121972661Y-81680000D01*
X122074394Y-81652741D01*
X122165606Y-81600080D01*
X122170000Y-81595686D01*
X122170000Y-82780000D01*
X122567828Y-82780000D01*
X122567844Y-82779999D01*
X122627372Y-82773598D01*
X122627379Y-82773596D01*
X122762086Y-82723354D01*
X122762093Y-82723350D01*
X122877187Y-82637190D01*
X122877190Y-82637187D01*
X122963350Y-82522093D01*
X122963354Y-82522086D01*
X123013596Y-82387379D01*
X123013598Y-82387372D01*
X123019999Y-82327844D01*
X123020000Y-82327827D01*
X123020000Y-81530000D01*
X122235686Y-81530000D01*
X122240080Y-81525606D01*
X122292741Y-81434394D01*
X122320000Y-81332661D01*
X122320000Y-81227339D01*
X122292741Y-81125606D01*
X122240080Y-81034394D01*
X122235686Y-81030000D01*
X123020000Y-81030000D01*
X123020000Y-80793428D01*
X123360000Y-80793428D01*
X123360000Y-81030000D01*
X124144314Y-81030000D01*
X124139920Y-81034394D01*
X124087259Y-81125606D01*
X124060000Y-81227339D01*
X124060000Y-81332661D01*
X124087259Y-81434394D01*
X124139920Y-81525606D01*
X124144314Y-81530000D01*
X123360000Y-81530000D01*
X123360000Y-81766571D01*
X123387085Y-81937584D01*
X123440591Y-82102257D01*
X123519195Y-82256524D01*
X123620967Y-82396602D01*
X123743397Y-82519032D01*
X123883475Y-82620804D01*
X124037744Y-82699408D01*
X124202415Y-82752914D01*
X124202414Y-82752914D01*
X124209999Y-82754115D01*
X124210000Y-82754114D01*
X124210000Y-81595686D01*
X124214394Y-81600080D01*
X124305606Y-81652741D01*
X124407339Y-81680000D01*
X124512661Y-81680000D01*
X124614394Y-81652741D01*
X124705606Y-81600080D01*
X124710000Y-81595686D01*
X124710000Y-82754115D01*
X124717584Y-82752914D01*
X124882255Y-82699408D01*
X125036524Y-82620804D01*
X125176602Y-82519032D01*
X125299032Y-82396602D01*
X125400804Y-82256524D01*
X125479408Y-82102257D01*
X125532914Y-81937584D01*
X125560000Y-81766571D01*
X125560000Y-81530000D01*
X124775686Y-81530000D01*
X124780080Y-81525606D01*
X124832741Y-81434394D01*
X124860000Y-81332661D01*
X124860000Y-81227339D01*
X124832741Y-81125606D01*
X124780080Y-81034394D01*
X124775686Y-81030000D01*
X125560000Y-81030000D01*
X125560000Y-80793428D01*
X125559994Y-80793389D01*
X125899500Y-80793389D01*
X125899500Y-81766611D01*
X125926598Y-81937701D01*
X125980127Y-82102445D01*
X126058768Y-82256788D01*
X126160586Y-82396928D01*
X126283072Y-82519414D01*
X126423212Y-82621232D01*
X126577555Y-82699873D01*
X126742299Y-82753402D01*
X126913389Y-82780500D01*
X126913390Y-82780500D01*
X127086610Y-82780500D01*
X127086611Y-82780500D01*
X127257701Y-82753402D01*
X127422445Y-82699873D01*
X127576788Y-82621232D01*
X127716928Y-82519414D01*
X127839414Y-82396928D01*
X127941232Y-82256788D01*
X128019873Y-82102445D01*
X128073402Y-81937701D01*
X128100500Y-81766611D01*
X128100500Y-80793389D01*
X128439500Y-80793389D01*
X128439500Y-81766611D01*
X128466598Y-81937701D01*
X128520127Y-82102445D01*
X128598768Y-82256788D01*
X128700586Y-82396928D01*
X128823072Y-82519414D01*
X128888388Y-82566868D01*
X128931051Y-82622195D01*
X128939500Y-82667184D01*
X128939500Y-110403330D01*
X128939499Y-110403348D01*
X128939499Y-110569054D01*
X128939498Y-110569054D01*
X128980423Y-110721785D01*
X129009358Y-110771900D01*
X129009359Y-110771904D01*
X129009360Y-110771904D01*
X129059479Y-110858714D01*
X129059481Y-110858717D01*
X129178349Y-110977585D01*
X129178355Y-110977590D01*
X130325139Y-112124374D01*
X130325149Y-112124385D01*
X130329479Y-112128715D01*
X130329480Y-112128716D01*
X130441284Y-112240520D01*
X130490933Y-112269184D01*
X130528095Y-112290639D01*
X130528097Y-112290641D01*
X130578213Y-112319576D01*
X130578215Y-112319577D01*
X130730942Y-112360500D01*
X130730943Y-112360500D01*
X158449903Y-112360500D01*
X158516942Y-112380185D01*
X158537584Y-112396819D01*
X159185288Y-113044523D01*
X159218773Y-113105846D01*
X159213789Y-113175538D01*
X159173770Y-113230057D01*
X159092955Y-113292958D01*
X159092950Y-113292963D01*
X158939850Y-113459272D01*
X158939842Y-113459283D01*
X158853808Y-113590968D01*
X158800662Y-113636325D01*
X158731430Y-113645748D01*
X158668095Y-113616246D01*
X158646192Y-113590968D01*
X158560157Y-113459283D01*
X158560149Y-113459272D01*
X158407049Y-113292963D01*
X158407048Y-113292962D01*
X158407046Y-113292960D01*
X158228649Y-113154107D01*
X158080499Y-113073932D01*
X158029832Y-113046512D01*
X158029827Y-113046510D01*
X157816017Y-112973109D01*
X157648778Y-112945202D01*
X157593033Y-112935900D01*
X157366967Y-112935900D01*
X157322370Y-112943341D01*
X157143982Y-112973109D01*
X156930172Y-113046510D01*
X156930167Y-113046512D01*
X156731352Y-113154106D01*
X156552955Y-113292959D01*
X156552950Y-113292963D01*
X156399850Y-113459272D01*
X156399842Y-113459283D01*
X156313808Y-113590968D01*
X156260662Y-113636325D01*
X156191430Y-113645748D01*
X156128095Y-113616246D01*
X156106192Y-113590968D01*
X156020157Y-113459283D01*
X156020149Y-113459272D01*
X155867049Y-113292963D01*
X155867048Y-113292962D01*
X155867046Y-113292960D01*
X155688649Y-113154107D01*
X155540499Y-113073932D01*
X155489832Y-113046512D01*
X155489827Y-113046510D01*
X155276017Y-112973109D01*
X155108778Y-112945202D01*
X155053033Y-112935900D01*
X154826967Y-112935900D01*
X154782370Y-112943341D01*
X154603982Y-112973109D01*
X154390172Y-113046510D01*
X154390167Y-113046512D01*
X154191352Y-113154106D01*
X154012955Y-113292959D01*
X154012950Y-113292963D01*
X153859850Y-113459272D01*
X153859842Y-113459283D01*
X153773808Y-113590968D01*
X153720662Y-113636325D01*
X153651430Y-113645748D01*
X153588095Y-113616246D01*
X153566192Y-113590968D01*
X153480157Y-113459283D01*
X153480149Y-113459272D01*
X153327049Y-113292963D01*
X153327048Y-113292962D01*
X153327046Y-113292960D01*
X153148649Y-113154107D01*
X153000499Y-113073932D01*
X152949832Y-113046512D01*
X152949827Y-113046510D01*
X152736017Y-112973109D01*
X152568778Y-112945202D01*
X152513033Y-112935900D01*
X152286967Y-112935900D01*
X152242370Y-112943341D01*
X152063982Y-112973109D01*
X151850172Y-113046510D01*
X151850167Y-113046512D01*
X151651352Y-113154106D01*
X151472955Y-113292959D01*
X151472950Y-113292963D01*
X151319850Y-113459272D01*
X151319842Y-113459283D01*
X151233808Y-113590968D01*
X151180662Y-113636325D01*
X151111430Y-113645748D01*
X151048095Y-113616246D01*
X151026192Y-113590968D01*
X150940157Y-113459283D01*
X150940149Y-113459272D01*
X150787049Y-113292963D01*
X150787048Y-113292962D01*
X150787046Y-113292960D01*
X150608649Y-113154107D01*
X150460499Y-113073932D01*
X150409832Y-113046512D01*
X150409827Y-113046510D01*
X150196017Y-112973109D01*
X150028778Y-112945202D01*
X149973033Y-112935900D01*
X149746967Y-112935900D01*
X149702370Y-112943341D01*
X149523982Y-112973109D01*
X149310172Y-113046510D01*
X149310167Y-113046512D01*
X149111352Y-113154106D01*
X148932955Y-113292959D01*
X148932950Y-113292963D01*
X148779850Y-113459272D01*
X148779842Y-113459283D01*
X148656198Y-113648533D01*
X148565388Y-113855560D01*
X148509892Y-114074710D01*
X148491225Y-114299993D01*
X148491225Y-114300006D01*
X148509892Y-114525289D01*
X148565388Y-114744439D01*
X148656198Y-114951466D01*
X148779842Y-115140716D01*
X148779850Y-115140727D01*
X148932950Y-115307036D01*
X148932954Y-115307040D01*
X149111351Y-115445893D01*
X149310169Y-115553488D01*
X149310172Y-115553489D01*
X149523982Y-115626890D01*
X149523984Y-115626890D01*
X149523986Y-115626891D01*
X149746967Y-115664100D01*
X149746968Y-115664100D01*
X149973032Y-115664100D01*
X149973033Y-115664100D01*
X150196014Y-115626891D01*
X150409831Y-115553488D01*
X150608649Y-115445893D01*
X150787046Y-115307040D01*
X150898996Y-115185431D01*
X150940149Y-115140727D01*
X150940149Y-115140726D01*
X150940156Y-115140719D01*
X151026193Y-115009028D01*
X151079338Y-114963675D01*
X151148569Y-114954251D01*
X151211905Y-114983753D01*
X151233804Y-115009025D01*
X151319844Y-115140719D01*
X151319849Y-115140724D01*
X151319850Y-115140727D01*
X151472950Y-115307036D01*
X151472954Y-115307040D01*
X151651351Y-115445893D01*
X151850169Y-115553488D01*
X151850172Y-115553489D01*
X152063982Y-115626890D01*
X152063984Y-115626890D01*
X152063986Y-115626891D01*
X152286967Y-115664100D01*
X152286968Y-115664100D01*
X152513032Y-115664100D01*
X152513033Y-115664100D01*
X152736014Y-115626891D01*
X152949831Y-115553488D01*
X153148649Y-115445893D01*
X153327046Y-115307040D01*
X153438996Y-115185431D01*
X153480149Y-115140727D01*
X153480149Y-115140726D01*
X153480156Y-115140719D01*
X153566193Y-115009028D01*
X153619338Y-114963675D01*
X153688569Y-114954251D01*
X153751905Y-114983753D01*
X153773804Y-115009025D01*
X153859844Y-115140719D01*
X153859849Y-115140724D01*
X153859850Y-115140727D01*
X154012950Y-115307036D01*
X154012954Y-115307040D01*
X154191351Y-115445893D01*
X154390169Y-115553488D01*
X154390172Y-115553489D01*
X154603982Y-115626890D01*
X154603984Y-115626890D01*
X154603986Y-115626891D01*
X154826967Y-115664100D01*
X154826968Y-115664100D01*
X155053032Y-115664100D01*
X155053033Y-115664100D01*
X155276014Y-115626891D01*
X155489831Y-115553488D01*
X155688649Y-115445893D01*
X155867046Y-115307040D01*
X155978996Y-115185431D01*
X156020149Y-115140727D01*
X156020149Y-115140726D01*
X156020156Y-115140719D01*
X156106193Y-115009028D01*
X156159338Y-114963675D01*
X156228569Y-114954251D01*
X156291905Y-114983753D01*
X156313804Y-115009025D01*
X156399844Y-115140719D01*
X156399849Y-115140724D01*
X156399850Y-115140727D01*
X156552950Y-115307036D01*
X156552954Y-115307040D01*
X156731351Y-115445893D01*
X156930169Y-115553488D01*
X156930172Y-115553489D01*
X157143982Y-115626890D01*
X157143984Y-115626890D01*
X157143986Y-115626891D01*
X157366967Y-115664100D01*
X157366968Y-115664100D01*
X157593032Y-115664100D01*
X157593033Y-115664100D01*
X157816014Y-115626891D01*
X158029831Y-115553488D01*
X158228649Y-115445893D01*
X158407046Y-115307040D01*
X158518996Y-115185431D01*
X158560149Y-115140727D01*
X158560149Y-115140726D01*
X158560156Y-115140719D01*
X158646193Y-115009028D01*
X158699338Y-114963675D01*
X158768569Y-114954251D01*
X158831905Y-114983753D01*
X158853804Y-115009025D01*
X158939844Y-115140719D01*
X158939849Y-115140724D01*
X158939850Y-115140727D01*
X159092950Y-115307036D01*
X159092954Y-115307040D01*
X159271351Y-115445893D01*
X159470169Y-115553488D01*
X159470172Y-115553489D01*
X159683982Y-115626890D01*
X159683984Y-115626890D01*
X159683986Y-115626891D01*
X159906967Y-115664100D01*
X159906968Y-115664100D01*
X160133032Y-115664100D01*
X160133033Y-115664100D01*
X160356014Y-115626891D01*
X160569831Y-115553488D01*
X160768649Y-115445893D01*
X160947046Y-115307040D01*
X161058996Y-115185431D01*
X161100149Y-115140727D01*
X161100151Y-115140724D01*
X161100156Y-115140719D01*
X161223802Y-114951465D01*
X161314611Y-114744441D01*
X161370107Y-114525293D01*
X161388775Y-114300000D01*
X161388775Y-114299994D01*
X161388775Y-114299993D01*
X161370107Y-114074710D01*
X161370107Y-114074707D01*
X161314611Y-113855559D01*
X161223802Y-113648535D01*
X161100156Y-113459281D01*
X161100153Y-113459278D01*
X161100149Y-113459272D01*
X160947049Y-113292963D01*
X160947044Y-113292958D01*
X160768650Y-113154108D01*
X160768645Y-113154104D01*
X160685481Y-113109097D01*
X160635891Y-113059877D01*
X160620500Y-113000043D01*
X160620500Y-112950942D01*
X160616471Y-112935903D01*
X160579576Y-112798213D01*
X160572340Y-112785680D01*
X160545337Y-112738910D01*
X160500520Y-112661284D01*
X160388716Y-112549480D01*
X160388715Y-112549479D01*
X160384385Y-112545149D01*
X160384374Y-112545139D01*
X159237590Y-111398355D01*
X159237588Y-111398352D01*
X159118717Y-111279481D01*
X159118716Y-111279480D01*
X159031904Y-111229360D01*
X159031904Y-111229359D01*
X159031900Y-111229358D01*
X158981785Y-111200423D01*
X158829057Y-111159499D01*
X158670943Y-111159499D01*
X158663347Y-111159499D01*
X158663331Y-111159500D01*
X131110097Y-111159500D01*
X131043058Y-111139815D01*
X131022416Y-111123181D01*
X130176819Y-110277584D01*
X130143334Y-110216261D01*
X130140500Y-110189903D01*
X130140500Y-82667184D01*
X130160185Y-82600145D01*
X130191609Y-82566870D01*
X130256928Y-82519414D01*
X130379414Y-82396928D01*
X130481232Y-82256788D01*
X130559873Y-82102445D01*
X130613402Y-81937701D01*
X130640500Y-81766611D01*
X130640500Y-80793389D01*
X130979500Y-80793389D01*
X130979500Y-81766611D01*
X131006598Y-81937701D01*
X131060127Y-82102445D01*
X131138768Y-82256788D01*
X131240586Y-82396928D01*
X131363072Y-82519414D01*
X131503212Y-82621232D01*
X131657555Y-82699873D01*
X131822299Y-82753402D01*
X131993389Y-82780500D01*
X131993390Y-82780500D01*
X132166610Y-82780500D01*
X132166611Y-82780500D01*
X132337701Y-82753402D01*
X132502445Y-82699873D01*
X132656788Y-82621232D01*
X132796928Y-82519414D01*
X132919414Y-82396928D01*
X133021232Y-82256788D01*
X133099873Y-82102445D01*
X133153402Y-81937701D01*
X133180500Y-81766611D01*
X133180500Y-80793389D01*
X133519500Y-80793389D01*
X133519500Y-81766611D01*
X133546598Y-81937701D01*
X133600127Y-82102445D01*
X133678768Y-82256788D01*
X133780586Y-82396928D01*
X133903072Y-82519414D01*
X134043212Y-82621232D01*
X134197555Y-82699873D01*
X134362299Y-82753402D01*
X134533389Y-82780500D01*
X134533390Y-82780500D01*
X134706610Y-82780500D01*
X134706611Y-82780500D01*
X134877701Y-82753402D01*
X135042445Y-82699873D01*
X135196788Y-82621232D01*
X135336928Y-82519414D01*
X135459414Y-82396928D01*
X135561232Y-82256788D01*
X135639873Y-82102445D01*
X135693402Y-81937701D01*
X135720500Y-81766611D01*
X135720500Y-80793389D01*
X136059500Y-80793389D01*
X136059500Y-81766611D01*
X136086598Y-81937701D01*
X136140127Y-82102445D01*
X136218768Y-82256788D01*
X136320586Y-82396928D01*
X136443072Y-82519414D01*
X136583212Y-82621232D01*
X136737555Y-82699873D01*
X136902299Y-82753402D01*
X137073389Y-82780500D01*
X137073390Y-82780500D01*
X137246610Y-82780500D01*
X137246611Y-82780500D01*
X137417701Y-82753402D01*
X137582445Y-82699873D01*
X137736788Y-82621232D01*
X137876928Y-82519414D01*
X137999414Y-82396928D01*
X138101232Y-82256788D01*
X138179873Y-82102445D01*
X138233402Y-81937701D01*
X138260500Y-81766611D01*
X138260500Y-80793389D01*
X138233402Y-80622299D01*
X138179873Y-80457555D01*
X138101232Y-80303212D01*
X137999414Y-80163072D01*
X137876928Y-80040586D01*
X137736788Y-79938768D01*
X137673252Y-79906395D01*
X137582447Y-79860128D01*
X137582446Y-79860127D01*
X137582445Y-79860127D01*
X137417701Y-79806598D01*
X137417699Y-79806597D01*
X137417698Y-79806597D01*
X137272857Y-79783657D01*
X137246611Y-79779500D01*
X137073389Y-79779500D01*
X137047143Y-79783657D01*
X136902302Y-79806597D01*
X136737552Y-79860128D01*
X136583211Y-79938768D01*
X136503256Y-79996859D01*
X136443072Y-80040586D01*
X136443070Y-80040588D01*
X136443069Y-80040588D01*
X136320588Y-80163069D01*
X136320588Y-80163070D01*
X136320586Y-80163072D01*
X136313649Y-80172620D01*
X136218768Y-80303211D01*
X136140128Y-80457552D01*
X136086597Y-80622302D01*
X136059500Y-80793389D01*
X135720500Y-80793389D01*
X135693402Y-80622299D01*
X135639873Y-80457555D01*
X135561232Y-80303212D01*
X135459414Y-80163072D01*
X135336928Y-80040586D01*
X135196788Y-79938768D01*
X135133252Y-79906395D01*
X135042447Y-79860128D01*
X135042446Y-79860127D01*
X135042445Y-79860127D01*
X134877701Y-79806598D01*
X134877699Y-79806597D01*
X134877698Y-79806597D01*
X134732857Y-79783657D01*
X134706611Y-79779500D01*
X134533389Y-79779500D01*
X134507143Y-79783657D01*
X134362302Y-79806597D01*
X134197552Y-79860128D01*
X134043211Y-79938768D01*
X133963256Y-79996859D01*
X133903072Y-80040586D01*
X133903070Y-80040588D01*
X133903069Y-80040588D01*
X133780588Y-80163069D01*
X133780588Y-80163070D01*
X133780586Y-80163072D01*
X133773649Y-80172620D01*
X133678768Y-80303211D01*
X133600128Y-80457552D01*
X133546597Y-80622302D01*
X133519500Y-80793389D01*
X133180500Y-80793389D01*
X133153402Y-80622299D01*
X133099873Y-80457555D01*
X133021232Y-80303212D01*
X132919414Y-80163072D01*
X132796928Y-80040586D01*
X132656788Y-79938768D01*
X132593252Y-79906395D01*
X132502447Y-79860128D01*
X132502446Y-79860127D01*
X132502445Y-79860127D01*
X132337701Y-79806598D01*
X132337699Y-79806597D01*
X132337698Y-79806597D01*
X132192857Y-79783657D01*
X132166611Y-79779500D01*
X131993389Y-79779500D01*
X131967143Y-79783657D01*
X131822302Y-79806597D01*
X131657552Y-79860128D01*
X131503211Y-79938768D01*
X131423256Y-79996859D01*
X131363072Y-80040586D01*
X131363070Y-80040588D01*
X131363069Y-80040588D01*
X131240588Y-80163069D01*
X131240588Y-80163070D01*
X131240586Y-80163072D01*
X131233649Y-80172620D01*
X131138768Y-80303211D01*
X131060128Y-80457552D01*
X131006597Y-80622302D01*
X130979500Y-80793389D01*
X130640500Y-80793389D01*
X130613402Y-80622299D01*
X130559873Y-80457555D01*
X130481232Y-80303212D01*
X130379414Y-80163072D01*
X130256928Y-80040586D01*
X130116788Y-79938768D01*
X130053252Y-79906395D01*
X129962447Y-79860128D01*
X129962446Y-79860127D01*
X129962445Y-79860127D01*
X129797701Y-79806598D01*
X129797699Y-79806597D01*
X129797698Y-79806597D01*
X129652857Y-79783657D01*
X129626611Y-79779500D01*
X129453389Y-79779500D01*
X129427143Y-79783657D01*
X129282302Y-79806597D01*
X129117552Y-79860128D01*
X128963211Y-79938768D01*
X128883256Y-79996859D01*
X128823072Y-80040586D01*
X128823070Y-80040588D01*
X128823069Y-80040588D01*
X128700588Y-80163069D01*
X128700588Y-80163070D01*
X128700586Y-80163072D01*
X128693649Y-80172620D01*
X128598768Y-80303211D01*
X128520128Y-80457552D01*
X128466597Y-80622302D01*
X128439500Y-80793389D01*
X128100500Y-80793389D01*
X128073402Y-80622299D01*
X128019873Y-80457555D01*
X127941232Y-80303212D01*
X127839414Y-80163072D01*
X127716928Y-80040586D01*
X127576788Y-79938768D01*
X127513252Y-79906395D01*
X127422447Y-79860128D01*
X127422446Y-79860127D01*
X127422445Y-79860127D01*
X127257701Y-79806598D01*
X127257699Y-79806597D01*
X127257698Y-79806597D01*
X127112857Y-79783657D01*
X127086611Y-79779500D01*
X126913389Y-79779500D01*
X126887143Y-79783657D01*
X126742302Y-79806597D01*
X126577552Y-79860128D01*
X126423211Y-79938768D01*
X126343256Y-79996859D01*
X126283072Y-80040586D01*
X126283070Y-80040588D01*
X126283069Y-80040588D01*
X126160588Y-80163069D01*
X126160588Y-80163070D01*
X126160586Y-80163072D01*
X126153649Y-80172620D01*
X126058768Y-80303211D01*
X125980128Y-80457552D01*
X125926597Y-80622302D01*
X125899500Y-80793389D01*
X125559994Y-80793389D01*
X125532914Y-80622415D01*
X125479408Y-80457742D01*
X125400804Y-80303475D01*
X125299032Y-80163397D01*
X125176602Y-80040967D01*
X125036524Y-79939195D01*
X124882257Y-79860591D01*
X124717589Y-79807087D01*
X124717581Y-79807085D01*
X124710000Y-79805884D01*
X124710000Y-80964314D01*
X124705606Y-80959920D01*
X124614394Y-80907259D01*
X124512661Y-80880000D01*
X124407339Y-80880000D01*
X124305606Y-80907259D01*
X124214394Y-80959920D01*
X124210000Y-80964314D01*
X124210000Y-79805884D01*
X124209999Y-79805884D01*
X124202418Y-79807085D01*
X124202410Y-79807087D01*
X124037742Y-79860591D01*
X123883475Y-79939195D01*
X123743397Y-80040967D01*
X123620967Y-80163397D01*
X123519195Y-80303475D01*
X123440591Y-80457742D01*
X123387085Y-80622415D01*
X123360000Y-80793428D01*
X123020000Y-80793428D01*
X123020000Y-80232172D01*
X123019999Y-80232155D01*
X123013598Y-80172627D01*
X123013596Y-80172620D01*
X122963354Y-80037913D01*
X122963350Y-80037906D01*
X122877190Y-79922812D01*
X122877187Y-79922809D01*
X122762093Y-79836649D01*
X122762086Y-79836645D01*
X122627379Y-79786403D01*
X122627372Y-79786401D01*
X122567844Y-79780000D01*
X122170000Y-79780000D01*
X122170000Y-80964314D01*
X122165606Y-80959920D01*
X122074394Y-80907259D01*
X121972661Y-80880000D01*
X121867339Y-80880000D01*
X121765606Y-80907259D01*
X121674394Y-80959920D01*
X121670000Y-80964314D01*
X121670000Y-79780000D01*
X121272155Y-79780000D01*
X121212627Y-79786401D01*
X121212620Y-79786403D01*
X121077913Y-79836645D01*
X121077906Y-79836649D01*
X120962812Y-79922809D01*
X120962809Y-79922812D01*
X120876649Y-80037906D01*
X120876645Y-80037913D01*
X120826403Y-80172620D01*
X120826401Y-80172627D01*
X120820000Y-80232155D01*
X114850500Y-80232155D01*
X114850500Y-60125469D01*
X114870185Y-60058430D01*
X114922989Y-60012675D01*
X114992147Y-60002731D01*
X115055703Y-60031756D01*
X115070040Y-60046425D01*
X115079972Y-60058430D01*
X115086650Y-60066503D01*
X115306836Y-60273272D01*
X115306846Y-60273280D01*
X115551193Y-60450808D01*
X115551198Y-60450810D01*
X115551205Y-60450816D01*
X115815896Y-60596332D01*
X115815901Y-60596334D01*
X115815903Y-60596335D01*
X115815904Y-60596336D01*
X116096734Y-60707524D01*
X116096737Y-60707525D01*
X116194259Y-60732564D01*
X116389302Y-60782642D01*
X116536039Y-60801179D01*
X116688963Y-60820499D01*
X116688969Y-60820499D01*
X116688973Y-60820500D01*
X116688975Y-60820500D01*
X116991025Y-60820500D01*
X116991027Y-60820500D01*
X116991032Y-60820499D01*
X116991036Y-60820499D01*
X117070591Y-60810448D01*
X117290698Y-60782642D01*
X117583262Y-60707525D01*
X117583265Y-60707524D01*
X117864095Y-60596336D01*
X117864096Y-60596335D01*
X117864094Y-60596335D01*
X117864104Y-60596332D01*
X118128795Y-60450816D01*
X118373162Y-60273274D01*
X118593349Y-60066504D01*
X118785885Y-59833768D01*
X118947733Y-59578736D01*
X119076341Y-59305430D01*
X119169681Y-59018160D01*
X119226280Y-58721457D01*
X119245246Y-58420000D01*
X119226280Y-58118543D01*
X119190960Y-57933389D01*
X120819500Y-57933389D01*
X120819500Y-58906610D01*
X120837167Y-59018160D01*
X120846598Y-59077701D01*
X120900127Y-59242445D01*
X120978768Y-59396788D01*
X121080586Y-59536928D01*
X121203072Y-59659414D01*
X121343212Y-59761232D01*
X121497555Y-59839873D01*
X121662299Y-59893402D01*
X121833389Y-59920500D01*
X121833390Y-59920500D01*
X122006610Y-59920500D01*
X122006611Y-59920500D01*
X122177701Y-59893402D01*
X122342445Y-59839873D01*
X122496788Y-59761232D01*
X122636928Y-59659414D01*
X122759414Y-59536928D01*
X122861232Y-59396788D01*
X122939873Y-59242445D01*
X122993402Y-59077701D01*
X123020500Y-58906611D01*
X123020500Y-57933389D01*
X123359500Y-57933389D01*
X123359500Y-58906610D01*
X123377167Y-59018160D01*
X123386598Y-59077701D01*
X123440127Y-59242445D01*
X123518768Y-59396788D01*
X123620586Y-59536928D01*
X123743072Y-59659414D01*
X123883212Y-59761232D01*
X124037555Y-59839873D01*
X124202299Y-59893402D01*
X124373389Y-59920500D01*
X124373390Y-59920500D01*
X124546610Y-59920500D01*
X124546611Y-59920500D01*
X124717701Y-59893402D01*
X124882445Y-59839873D01*
X125036788Y-59761232D01*
X125176928Y-59659414D01*
X125299414Y-59536928D01*
X125401232Y-59396788D01*
X125479873Y-59242445D01*
X125533402Y-59077701D01*
X125560500Y-58906611D01*
X125560500Y-57933389D01*
X125899500Y-57933389D01*
X125899500Y-58906610D01*
X125917167Y-59018160D01*
X125926598Y-59077701D01*
X125980127Y-59242445D01*
X126058768Y-59396788D01*
X126160586Y-59536928D01*
X126283072Y-59659414D01*
X126423212Y-59761232D01*
X126577555Y-59839873D01*
X126742299Y-59893402D01*
X126913389Y-59920500D01*
X126913390Y-59920500D01*
X127086610Y-59920500D01*
X127086611Y-59920500D01*
X127257701Y-59893402D01*
X127422445Y-59839873D01*
X127576788Y-59761232D01*
X127716928Y-59659414D01*
X127839414Y-59536928D01*
X127941232Y-59396788D01*
X128019873Y-59242445D01*
X128073402Y-59077701D01*
X128100500Y-58906611D01*
X128100500Y-57933389D01*
X128439500Y-57933389D01*
X128439500Y-58906610D01*
X128457167Y-59018160D01*
X128466598Y-59077701D01*
X128520127Y-59242445D01*
X128598768Y-59396788D01*
X128700586Y-59536928D01*
X128823072Y-59659414D01*
X128888388Y-59706868D01*
X128931051Y-59762195D01*
X128939500Y-59807184D01*
X128939500Y-72303330D01*
X128939499Y-72303348D01*
X128939499Y-72469054D01*
X128939498Y-72469054D01*
X128980423Y-72621785D01*
X129009358Y-72671900D01*
X129009359Y-72671904D01*
X129009360Y-72671904D01*
X129059479Y-72758714D01*
X129059481Y-72758717D01*
X129178349Y-72877585D01*
X129178355Y-72877590D01*
X134135139Y-77834374D01*
X134135149Y-77834385D01*
X134139479Y-77838715D01*
X134139480Y-77838716D01*
X134251284Y-77950520D01*
X134338095Y-78000639D01*
X134338097Y-78000641D01*
X134376151Y-78022611D01*
X134388215Y-78029577D01*
X134540943Y-78070501D01*
X134540946Y-78070501D01*
X134706653Y-78070501D01*
X134706669Y-78070500D01*
X162259903Y-78070500D01*
X162326942Y-78090185D01*
X162347584Y-78106819D01*
X163193181Y-78952416D01*
X163226666Y-79013739D01*
X163229500Y-79040097D01*
X163229500Y-79783657D01*
X163209815Y-79850696D01*
X163157011Y-79896451D01*
X163087853Y-79906395D01*
X163049206Y-79894142D01*
X162982450Y-79860129D01*
X162982447Y-79860128D01*
X162982445Y-79860127D01*
X162817701Y-79806598D01*
X162817699Y-79806597D01*
X162817698Y-79806597D01*
X162672857Y-79783657D01*
X162646611Y-79779500D01*
X162473389Y-79779500D01*
X162447143Y-79783657D01*
X162302302Y-79806597D01*
X162137552Y-79860128D01*
X161983211Y-79938768D01*
X161903256Y-79996859D01*
X161843072Y-80040586D01*
X161843070Y-80040588D01*
X161843069Y-80040588D01*
X161720588Y-80163069D01*
X161720588Y-80163070D01*
X161720586Y-80163072D01*
X161713649Y-80172620D01*
X161618768Y-80303211D01*
X161540128Y-80457552D01*
X161486597Y-80622302D01*
X161459500Y-80793389D01*
X161459500Y-81766611D01*
X161486598Y-81937701D01*
X161540127Y-82102445D01*
X161618768Y-82256788D01*
X161720586Y-82396928D01*
X161843072Y-82519414D01*
X161908388Y-82566868D01*
X161951051Y-82622195D01*
X161959500Y-82667184D01*
X161959500Y-83519903D01*
X161939815Y-83586942D01*
X161923181Y-83607584D01*
X161077584Y-84453181D01*
X161016261Y-84486666D01*
X160989903Y-84489500D01*
X159229099Y-84489500D01*
X159162060Y-84469815D01*
X159116305Y-84417011D01*
X159106361Y-84347853D01*
X159135386Y-84284297D01*
X159141417Y-84277819D01*
X159230520Y-84188716D01*
X159230520Y-84188714D01*
X159240728Y-84178507D01*
X159240730Y-84178504D01*
X160378506Y-83040728D01*
X160378511Y-83040724D01*
X160388714Y-83030520D01*
X160388716Y-83030520D01*
X160500520Y-82918716D01*
X160578194Y-82784180D01*
X160579577Y-82781785D01*
X160617471Y-82640358D01*
X160653834Y-82580702D01*
X160664339Y-82572152D01*
X160736928Y-82519414D01*
X160859414Y-82396928D01*
X160961232Y-82256788D01*
X161039873Y-82102445D01*
X161093402Y-81937701D01*
X161120500Y-81766611D01*
X161120500Y-80793389D01*
X161093402Y-80622299D01*
X161039873Y-80457555D01*
X160961232Y-80303212D01*
X160859414Y-80163072D01*
X160736928Y-80040586D01*
X160596788Y-79938768D01*
X160533252Y-79906395D01*
X160442447Y-79860128D01*
X160442446Y-79860127D01*
X160442445Y-79860127D01*
X160277701Y-79806598D01*
X160277699Y-79806597D01*
X160277698Y-79806597D01*
X160132857Y-79783657D01*
X160106611Y-79779500D01*
X159933389Y-79779500D01*
X159907143Y-79783657D01*
X159762302Y-79806597D01*
X159597552Y-79860128D01*
X159443211Y-79938768D01*
X159363256Y-79996859D01*
X159303072Y-80040586D01*
X159303070Y-80040588D01*
X159303069Y-80040588D01*
X159180588Y-80163069D01*
X159180588Y-80163070D01*
X159180586Y-80163072D01*
X159173649Y-80172620D01*
X159078768Y-80303211D01*
X159000128Y-80457552D01*
X158946597Y-80622302D01*
X158919500Y-80793389D01*
X158919500Y-81766611D01*
X158946598Y-81937701D01*
X159000127Y-82102445D01*
X159078768Y-82256788D01*
X159178617Y-82394218D01*
X159202097Y-82460023D01*
X159186272Y-82528077D01*
X159165980Y-82554784D01*
X158537584Y-83183181D01*
X158476261Y-83216666D01*
X158449903Y-83219500D01*
X143589057Y-83219500D01*
X143430942Y-83219500D01*
X143278215Y-83260423D01*
X143278214Y-83260423D01*
X143278212Y-83260424D01*
X143278209Y-83260425D01*
X143228096Y-83289359D01*
X143228095Y-83289360D01*
X143184689Y-83314420D01*
X143141285Y-83339479D01*
X143141282Y-83339481D01*
X141759481Y-84721282D01*
X141759479Y-84721285D01*
X141734420Y-84764689D01*
X141720643Y-84788553D01*
X141709361Y-84808094D01*
X141709359Y-84808096D01*
X141680425Y-84858209D01*
X141680424Y-84858210D01*
X141680423Y-84858215D01*
X141639499Y-85010943D01*
X141639499Y-85010945D01*
X141639499Y-85179046D01*
X141639500Y-85179059D01*
X141639500Y-87600043D01*
X141619815Y-87667082D01*
X141574519Y-87709097D01*
X141491354Y-87754104D01*
X141491349Y-87754108D01*
X141312955Y-87892958D01*
X141312950Y-87892963D01*
X141159850Y-88059272D01*
X141159842Y-88059283D01*
X141073808Y-88190968D01*
X141020662Y-88236325D01*
X140951430Y-88245748D01*
X140888095Y-88216246D01*
X140866192Y-88190968D01*
X140780157Y-88059283D01*
X140780149Y-88059272D01*
X140627049Y-87892963D01*
X140627044Y-87892958D01*
X140448650Y-87754108D01*
X140448645Y-87754104D01*
X140365481Y-87709097D01*
X140315891Y-87659877D01*
X140300500Y-87600043D01*
X140300500Y-82667184D01*
X140320185Y-82600145D01*
X140351609Y-82566870D01*
X140416928Y-82519414D01*
X140539414Y-82396928D01*
X140641232Y-82256788D01*
X140719873Y-82102445D01*
X140773402Y-81937701D01*
X140800500Y-81766611D01*
X140800500Y-80793389D01*
X141139500Y-80793389D01*
X141139500Y-81766611D01*
X141166598Y-81937701D01*
X141220127Y-82102445D01*
X141298768Y-82256788D01*
X141400586Y-82396928D01*
X141523072Y-82519414D01*
X141663212Y-82621232D01*
X141817555Y-82699873D01*
X141982299Y-82753402D01*
X142153389Y-82780500D01*
X142153390Y-82780500D01*
X142326610Y-82780500D01*
X142326611Y-82780500D01*
X142497701Y-82753402D01*
X142662445Y-82699873D01*
X142816788Y-82621232D01*
X142956928Y-82519414D01*
X143079414Y-82396928D01*
X143181232Y-82256788D01*
X143259873Y-82102445D01*
X143313402Y-81937701D01*
X143340500Y-81766611D01*
X143340500Y-80793389D01*
X143679500Y-80793389D01*
X143679500Y-81766611D01*
X143706598Y-81937701D01*
X143760127Y-82102445D01*
X143838768Y-82256788D01*
X143940586Y-82396928D01*
X144063072Y-82519414D01*
X144203212Y-82621232D01*
X144357555Y-82699873D01*
X144522299Y-82753402D01*
X144693389Y-82780500D01*
X144693390Y-82780500D01*
X144866610Y-82780500D01*
X144866611Y-82780500D01*
X145037701Y-82753402D01*
X145202445Y-82699873D01*
X145356788Y-82621232D01*
X145496928Y-82519414D01*
X145619414Y-82396928D01*
X145721232Y-82256788D01*
X145799873Y-82102445D01*
X145853402Y-81937701D01*
X145880500Y-81766611D01*
X145880500Y-80793389D01*
X146219500Y-80793389D01*
X146219500Y-81766611D01*
X146246598Y-81937701D01*
X146300127Y-82102445D01*
X146378768Y-82256788D01*
X146480586Y-82396928D01*
X146603072Y-82519414D01*
X146743212Y-82621232D01*
X146897555Y-82699873D01*
X147062299Y-82753402D01*
X147233389Y-82780500D01*
X147233390Y-82780500D01*
X147406610Y-82780500D01*
X147406611Y-82780500D01*
X147577701Y-82753402D01*
X147742445Y-82699873D01*
X147896788Y-82621232D01*
X148036928Y-82519414D01*
X148159414Y-82396928D01*
X148261232Y-82256788D01*
X148339873Y-82102445D01*
X148393402Y-81937701D01*
X148420500Y-81766611D01*
X148420500Y-80793389D01*
X148759500Y-80793389D01*
X148759500Y-81766611D01*
X148786598Y-81937701D01*
X148840127Y-82102445D01*
X148918768Y-82256788D01*
X149020586Y-82396928D01*
X149143072Y-82519414D01*
X149283212Y-82621232D01*
X149437555Y-82699873D01*
X149602299Y-82753402D01*
X149773389Y-82780500D01*
X149773390Y-82780500D01*
X149946610Y-82780500D01*
X149946611Y-82780500D01*
X150117701Y-82753402D01*
X150282445Y-82699873D01*
X150436788Y-82621232D01*
X150576928Y-82519414D01*
X150699414Y-82396928D01*
X150801232Y-82256788D01*
X150879873Y-82102445D01*
X150933402Y-81937701D01*
X150960500Y-81766611D01*
X150960500Y-80793389D01*
X151299500Y-80793389D01*
X151299500Y-81766611D01*
X151326598Y-81937701D01*
X151380127Y-82102445D01*
X151458768Y-82256788D01*
X151560586Y-82396928D01*
X151683072Y-82519414D01*
X151823212Y-82621232D01*
X151977555Y-82699873D01*
X152142299Y-82753402D01*
X152313389Y-82780500D01*
X152313390Y-82780500D01*
X152486610Y-82780500D01*
X152486611Y-82780500D01*
X152657701Y-82753402D01*
X152822445Y-82699873D01*
X152976788Y-82621232D01*
X153116928Y-82519414D01*
X153239414Y-82396928D01*
X153341232Y-82256788D01*
X153419873Y-82102445D01*
X153473402Y-81937701D01*
X153500500Y-81766611D01*
X153500500Y-80793389D01*
X153839500Y-80793389D01*
X153839500Y-81766611D01*
X153866598Y-81937701D01*
X153920127Y-82102445D01*
X153998768Y-82256788D01*
X154100586Y-82396928D01*
X154223072Y-82519414D01*
X154363212Y-82621232D01*
X154517555Y-82699873D01*
X154682299Y-82753402D01*
X154853389Y-82780500D01*
X154853390Y-82780500D01*
X155026610Y-82780500D01*
X155026611Y-82780500D01*
X155197701Y-82753402D01*
X155362445Y-82699873D01*
X155516788Y-82621232D01*
X155656928Y-82519414D01*
X155779414Y-82396928D01*
X155881232Y-82256788D01*
X155959873Y-82102445D01*
X156013402Y-81937701D01*
X156040500Y-81766611D01*
X156040500Y-80793389D01*
X156379500Y-80793389D01*
X156379500Y-81766611D01*
X156406598Y-81937701D01*
X156460127Y-82102445D01*
X156538768Y-82256788D01*
X156640586Y-82396928D01*
X156763072Y-82519414D01*
X156903212Y-82621232D01*
X157057555Y-82699873D01*
X157222299Y-82753402D01*
X157393389Y-82780500D01*
X157393390Y-82780500D01*
X157566610Y-82780500D01*
X157566611Y-82780500D01*
X157737701Y-82753402D01*
X157902445Y-82699873D01*
X158056788Y-82621232D01*
X158196928Y-82519414D01*
X158319414Y-82396928D01*
X158421232Y-82256788D01*
X158499873Y-82102445D01*
X158553402Y-81937701D01*
X158580500Y-81766611D01*
X158580500Y-80793389D01*
X158553402Y-80622299D01*
X158499873Y-80457555D01*
X158421232Y-80303212D01*
X158319414Y-80163072D01*
X158196928Y-80040586D01*
X158056788Y-79938768D01*
X157993252Y-79906395D01*
X157902447Y-79860128D01*
X157902446Y-79860127D01*
X157902445Y-79860127D01*
X157737701Y-79806598D01*
X157737699Y-79806597D01*
X157737698Y-79806597D01*
X157592857Y-79783657D01*
X157566611Y-79779500D01*
X157393389Y-79779500D01*
X157367143Y-79783657D01*
X157222302Y-79806597D01*
X157057552Y-79860128D01*
X156903211Y-79938768D01*
X156823256Y-79996859D01*
X156763072Y-80040586D01*
X156763070Y-80040588D01*
X156763069Y-80040588D01*
X156640588Y-80163069D01*
X156640588Y-80163070D01*
X156640586Y-80163072D01*
X156633649Y-80172620D01*
X156538768Y-80303211D01*
X156460128Y-80457552D01*
X156406597Y-80622302D01*
X156379500Y-80793389D01*
X156040500Y-80793389D01*
X156013402Y-80622299D01*
X155959873Y-80457555D01*
X155881232Y-80303212D01*
X155779414Y-80163072D01*
X155656928Y-80040586D01*
X155516788Y-79938768D01*
X155453252Y-79906395D01*
X155362447Y-79860128D01*
X155362446Y-79860127D01*
X155362445Y-79860127D01*
X155197701Y-79806598D01*
X155197699Y-79806597D01*
X155197698Y-79806597D01*
X155052857Y-79783657D01*
X155026611Y-79779500D01*
X154853389Y-79779500D01*
X154827143Y-79783657D01*
X154682302Y-79806597D01*
X154517552Y-79860128D01*
X154363211Y-79938768D01*
X154283256Y-79996859D01*
X154223072Y-80040586D01*
X154223070Y-80040588D01*
X154223069Y-80040588D01*
X154100588Y-80163069D01*
X154100588Y-80163070D01*
X154100586Y-80163072D01*
X154093649Y-80172620D01*
X153998768Y-80303211D01*
X153920128Y-80457552D01*
X153866597Y-80622302D01*
X153839500Y-80793389D01*
X153500500Y-80793389D01*
X153473402Y-80622299D01*
X153419873Y-80457555D01*
X153341232Y-80303212D01*
X153239414Y-80163072D01*
X153116928Y-80040586D01*
X152976788Y-79938768D01*
X152913252Y-79906395D01*
X152822447Y-79860128D01*
X152822446Y-79860127D01*
X152822445Y-79860127D01*
X152657701Y-79806598D01*
X152657699Y-79806597D01*
X152657698Y-79806597D01*
X152512857Y-79783657D01*
X152486611Y-79779500D01*
X152313389Y-79779500D01*
X152287143Y-79783657D01*
X152142302Y-79806597D01*
X151977552Y-79860128D01*
X151823211Y-79938768D01*
X151743256Y-79996859D01*
X151683072Y-80040586D01*
X151683070Y-80040588D01*
X151683069Y-80040588D01*
X151560588Y-80163069D01*
X151560588Y-80163070D01*
X151560586Y-80163072D01*
X151553649Y-80172620D01*
X151458768Y-80303211D01*
X151380128Y-80457552D01*
X151326597Y-80622302D01*
X151299500Y-80793389D01*
X150960500Y-80793389D01*
X150933402Y-80622299D01*
X150879873Y-80457555D01*
X150801232Y-80303212D01*
X150699414Y-80163072D01*
X150576928Y-80040586D01*
X150436788Y-79938768D01*
X150373252Y-79906395D01*
X150282447Y-79860128D01*
X150282446Y-79860127D01*
X150282445Y-79860127D01*
X150117701Y-79806598D01*
X150117699Y-79806597D01*
X150117698Y-79806597D01*
X149972857Y-79783657D01*
X149946611Y-79779500D01*
X149773389Y-79779500D01*
X149747143Y-79783657D01*
X149602302Y-79806597D01*
X149437552Y-79860128D01*
X149283211Y-79938768D01*
X149203256Y-79996859D01*
X149143072Y-80040586D01*
X149143070Y-80040588D01*
X149143069Y-80040588D01*
X149020588Y-80163069D01*
X149020588Y-80163070D01*
X149020586Y-80163072D01*
X149013649Y-80172620D01*
X148918768Y-80303211D01*
X148840128Y-80457552D01*
X148786597Y-80622302D01*
X148759500Y-80793389D01*
X148420500Y-80793389D01*
X148393402Y-80622299D01*
X148339873Y-80457555D01*
X148261232Y-80303212D01*
X148159414Y-80163072D01*
X148036928Y-80040586D01*
X147896788Y-79938768D01*
X147833252Y-79906395D01*
X147742447Y-79860128D01*
X147742446Y-79860127D01*
X147742445Y-79860127D01*
X147577701Y-79806598D01*
X147577699Y-79806597D01*
X147577698Y-79806597D01*
X147432857Y-79783657D01*
X147406611Y-79779500D01*
X147233389Y-79779500D01*
X147207143Y-79783657D01*
X147062302Y-79806597D01*
X146897552Y-79860128D01*
X146743211Y-79938768D01*
X146663256Y-79996859D01*
X146603072Y-80040586D01*
X146603070Y-80040588D01*
X146603069Y-80040588D01*
X146480588Y-80163069D01*
X146480588Y-80163070D01*
X146480586Y-80163072D01*
X146473649Y-80172620D01*
X146378768Y-80303211D01*
X146300128Y-80457552D01*
X146246597Y-80622302D01*
X146219500Y-80793389D01*
X145880500Y-80793389D01*
X145853402Y-80622299D01*
X145799873Y-80457555D01*
X145721232Y-80303212D01*
X145619414Y-80163072D01*
X145496928Y-80040586D01*
X145356788Y-79938768D01*
X145293252Y-79906395D01*
X145202447Y-79860128D01*
X145202446Y-79860127D01*
X145202445Y-79860127D01*
X145037701Y-79806598D01*
X145037699Y-79806597D01*
X145037698Y-79806597D01*
X144892857Y-79783657D01*
X144866611Y-79779500D01*
X144693389Y-79779500D01*
X144667143Y-79783657D01*
X144522302Y-79806597D01*
X144357552Y-79860128D01*
X144203211Y-79938768D01*
X144123256Y-79996859D01*
X144063072Y-80040586D01*
X144063070Y-80040588D01*
X144063069Y-80040588D01*
X143940588Y-80163069D01*
X143940588Y-80163070D01*
X143940586Y-80163072D01*
X143933649Y-80172620D01*
X143838768Y-80303211D01*
X143760128Y-80457552D01*
X143706597Y-80622302D01*
X143679500Y-80793389D01*
X143340500Y-80793389D01*
X143313402Y-80622299D01*
X143259873Y-80457555D01*
X143181232Y-80303212D01*
X143079414Y-80163072D01*
X142956928Y-80040586D01*
X142816788Y-79938768D01*
X142753252Y-79906395D01*
X142662447Y-79860128D01*
X142662446Y-79860127D01*
X142662445Y-79860127D01*
X142497701Y-79806598D01*
X142497699Y-79806597D01*
X142497698Y-79806597D01*
X142352857Y-79783657D01*
X142326611Y-79779500D01*
X142153389Y-79779500D01*
X142127143Y-79783657D01*
X141982302Y-79806597D01*
X141817552Y-79860128D01*
X141663211Y-79938768D01*
X141583256Y-79996859D01*
X141523072Y-80040586D01*
X141523070Y-80040588D01*
X141523069Y-80040588D01*
X141400588Y-80163069D01*
X141400588Y-80163070D01*
X141400586Y-80163072D01*
X141393649Y-80172620D01*
X141298768Y-80303211D01*
X141220128Y-80457552D01*
X141166597Y-80622302D01*
X141139500Y-80793389D01*
X140800500Y-80793389D01*
X140773402Y-80622299D01*
X140719873Y-80457555D01*
X140641232Y-80303212D01*
X140539414Y-80163072D01*
X140416928Y-80040586D01*
X140276788Y-79938768D01*
X140213252Y-79906395D01*
X140122447Y-79860128D01*
X140122446Y-79860127D01*
X140122445Y-79860127D01*
X139957701Y-79806598D01*
X139957699Y-79806597D01*
X139957698Y-79806597D01*
X139812857Y-79783657D01*
X139786611Y-79779500D01*
X139613389Y-79779500D01*
X139587143Y-79783657D01*
X139442302Y-79806597D01*
X139277552Y-79860128D01*
X139123211Y-79938768D01*
X139043256Y-79996859D01*
X138983072Y-80040586D01*
X138983070Y-80040588D01*
X138983069Y-80040588D01*
X138860588Y-80163069D01*
X138860588Y-80163070D01*
X138860586Y-80163072D01*
X138853649Y-80172620D01*
X138758768Y-80303211D01*
X138680128Y-80457552D01*
X138626597Y-80622302D01*
X138599500Y-80793389D01*
X138599500Y-81766611D01*
X138626598Y-81937701D01*
X138680127Y-82102445D01*
X138758768Y-82256788D01*
X138860586Y-82396928D01*
X138983072Y-82519414D01*
X139048388Y-82566868D01*
X139091051Y-82622195D01*
X139099500Y-82667184D01*
X139099500Y-87600043D01*
X139079815Y-87667082D01*
X139034519Y-87709097D01*
X138951354Y-87754104D01*
X138951349Y-87754108D01*
X138772955Y-87892958D01*
X138772950Y-87892963D01*
X138619850Y-88059272D01*
X138619842Y-88059283D01*
X138496198Y-88248533D01*
X138405388Y-88455560D01*
X138349892Y-88674710D01*
X138331225Y-88899993D01*
X138331225Y-88900006D01*
X138349892Y-89125289D01*
X138405388Y-89344439D01*
X138496198Y-89551466D01*
X138619842Y-89740716D01*
X138619850Y-89740727D01*
X138744257Y-89875867D01*
X138772954Y-89907040D01*
X138951351Y-90045893D01*
X139150169Y-90153488D01*
X139150172Y-90153489D01*
X139363982Y-90226890D01*
X139363984Y-90226890D01*
X139363986Y-90226891D01*
X139586967Y-90264100D01*
X139586968Y-90264100D01*
X139813032Y-90264100D01*
X139813033Y-90264100D01*
X140036014Y-90226891D01*
X140249831Y-90153488D01*
X140448649Y-90045893D01*
X140627046Y-89907040D01*
X140780156Y-89740719D01*
X140866193Y-89609028D01*
X140919338Y-89563675D01*
X140988569Y-89554251D01*
X141051905Y-89583753D01*
X141073804Y-89609025D01*
X141159844Y-89740719D01*
X141159849Y-89740724D01*
X141159850Y-89740727D01*
X141284257Y-89875867D01*
X141312954Y-89907040D01*
X141491351Y-90045893D01*
X141690169Y-90153488D01*
X141690172Y-90153489D01*
X141903982Y-90226890D01*
X141903984Y-90226890D01*
X141903986Y-90226891D01*
X142126967Y-90264100D01*
X142126968Y-90264100D01*
X142353032Y-90264100D01*
X142353033Y-90264100D01*
X142576014Y-90226891D01*
X142789831Y-90153488D01*
X142988649Y-90045893D01*
X143167046Y-89907040D01*
X143320156Y-89740719D01*
X143406193Y-89609028D01*
X143459338Y-89563675D01*
X143528569Y-89554251D01*
X143591905Y-89583753D01*
X143613804Y-89609025D01*
X143699844Y-89740719D01*
X143699849Y-89740724D01*
X143699850Y-89740727D01*
X143824257Y-89875867D01*
X143852954Y-89907040D01*
X144031351Y-90045893D01*
X144230169Y-90153488D01*
X144230172Y-90153489D01*
X144443982Y-90226890D01*
X144443984Y-90226890D01*
X144443986Y-90226891D01*
X144666967Y-90264100D01*
X144666968Y-90264100D01*
X144893032Y-90264100D01*
X144893033Y-90264100D01*
X145116014Y-90226891D01*
X145329831Y-90153488D01*
X145528649Y-90045893D01*
X145707046Y-89907040D01*
X145860156Y-89740719D01*
X145946193Y-89609028D01*
X145999338Y-89563675D01*
X146068569Y-89554251D01*
X146131905Y-89583753D01*
X146153804Y-89609025D01*
X146239844Y-89740719D01*
X146239849Y-89740724D01*
X146239850Y-89740727D01*
X146364257Y-89875867D01*
X146392954Y-89907040D01*
X146571351Y-90045893D01*
X146571353Y-90045894D01*
X146571356Y-90045896D01*
X146654516Y-90090899D01*
X146704107Y-90140118D01*
X146719499Y-90199954D01*
X146719499Y-90249054D01*
X146719498Y-90249054D01*
X146760423Y-90401785D01*
X146789358Y-90451900D01*
X146789359Y-90451904D01*
X146789360Y-90451904D01*
X146839479Y-90538714D01*
X146839481Y-90538717D01*
X146958349Y-90657585D01*
X146958355Y-90657590D01*
X149375139Y-93074374D01*
X149375149Y-93074385D01*
X149379479Y-93078715D01*
X149379480Y-93078716D01*
X149491284Y-93190520D01*
X149491286Y-93190521D01*
X149491290Y-93190524D01*
X149628209Y-93269573D01*
X149628216Y-93269577D01*
X149740019Y-93299534D01*
X149780942Y-93310500D01*
X149780943Y-93310500D01*
X165013331Y-93310500D01*
X165013347Y-93310501D01*
X165020943Y-93310501D01*
X165179054Y-93310501D01*
X165179057Y-93310501D01*
X165331785Y-93269577D01*
X165381904Y-93240639D01*
X165468716Y-93190520D01*
X165580520Y-93078716D01*
X165580520Y-93078714D01*
X165590728Y-93068507D01*
X165590730Y-93068504D01*
X167998506Y-90660728D01*
X167998511Y-90660724D01*
X168008714Y-90650520D01*
X168008716Y-90650520D01*
X168120520Y-90538716D01*
X168199577Y-90401784D01*
X168240500Y-90249057D01*
X168240500Y-82667184D01*
X168260185Y-82600145D01*
X168291609Y-82566870D01*
X168356928Y-82519414D01*
X168479414Y-82396928D01*
X168581232Y-82256788D01*
X168659873Y-82102445D01*
X168713402Y-81937701D01*
X168740500Y-81766611D01*
X168740500Y-80797069D01*
X169076780Y-80797069D01*
X169076780Y-81770290D01*
X169103294Y-81937697D01*
X169103878Y-81941381D01*
X169157407Y-82106125D01*
X169236048Y-82260468D01*
X169337866Y-82400608D01*
X169460352Y-82523094D01*
X169600492Y-82624912D01*
X169754835Y-82703553D01*
X169919579Y-82757082D01*
X170090669Y-82784180D01*
X170090670Y-82784180D01*
X170263890Y-82784180D01*
X170263891Y-82784180D01*
X170434981Y-82757082D01*
X170599725Y-82703553D01*
X170754068Y-82624912D01*
X170894208Y-82523094D01*
X171016694Y-82400608D01*
X171118512Y-82260468D01*
X171197153Y-82106125D01*
X171250682Y-81941381D01*
X171277780Y-81770291D01*
X171277780Y-80797069D01*
X171616780Y-80797069D01*
X171616780Y-81770290D01*
X171643294Y-81937697D01*
X171643878Y-81941381D01*
X171697407Y-82106125D01*
X171776048Y-82260468D01*
X171877866Y-82400608D01*
X171877868Y-82400610D01*
X171930461Y-82453203D01*
X171963946Y-82514526D01*
X171966780Y-82540884D01*
X171966780Y-88261198D01*
X171966780Y-88261200D01*
X171966779Y-88261200D01*
X171995620Y-88406187D01*
X171995623Y-88406197D01*
X172052194Y-88542772D01*
X172085092Y-88592007D01*
X172085093Y-88592010D01*
X172134326Y-88665694D01*
X172134332Y-88665701D01*
X173308181Y-89839548D01*
X173341666Y-89900871D01*
X173344500Y-89927229D01*
X173344500Y-91062870D01*
X173344501Y-91062876D01*
X173350908Y-91122483D01*
X173401202Y-91257328D01*
X173401206Y-91257335D01*
X173487452Y-91372544D01*
X173487455Y-91372547D01*
X173602664Y-91458793D01*
X173602671Y-91458797D01*
X173734081Y-91507810D01*
X173790015Y-91549681D01*
X173814432Y-91615145D01*
X173799580Y-91683418D01*
X173778430Y-91711673D01*
X173656503Y-91833600D01*
X173520965Y-92027169D01*
X173520964Y-92027171D01*
X173421098Y-92241335D01*
X173421094Y-92241344D01*
X173359938Y-92469586D01*
X173359936Y-92469596D01*
X173339341Y-92704999D01*
X173339341Y-92705000D01*
X173359936Y-92940403D01*
X173359938Y-92940413D01*
X173421094Y-93168655D01*
X173421096Y-93168659D01*
X173421097Y-93168663D01*
X173520965Y-93382830D01*
X173520967Y-93382834D01*
X173629281Y-93537521D01*
X173656505Y-93576401D01*
X173823599Y-93743495D01*
X173920384Y-93811265D01*
X174017165Y-93879032D01*
X174017167Y-93879033D01*
X174017170Y-93879035D01*
X174231337Y-93978903D01*
X174459592Y-94040063D01*
X174647918Y-94056539D01*
X174694999Y-94060659D01*
X174695000Y-94060659D01*
X174695001Y-94060659D01*
X174734234Y-94057226D01*
X174930408Y-94040063D01*
X175158663Y-93978903D01*
X175372830Y-93879035D01*
X175566401Y-93743495D01*
X175733495Y-93576401D01*
X175869035Y-93382830D01*
X175968903Y-93168663D01*
X176030063Y-92940408D01*
X176050659Y-92705000D01*
X176030063Y-92469592D01*
X175968903Y-92241337D01*
X175869035Y-92027171D01*
X175827500Y-91967853D01*
X175733496Y-91833600D01*
X175698397Y-91798501D01*
X175611567Y-91711671D01*
X175578084Y-91650351D01*
X175583068Y-91580659D01*
X175624939Y-91524725D01*
X175655915Y-91507810D01*
X175787331Y-91458796D01*
X175902546Y-91372546D01*
X175988796Y-91257331D01*
X176039091Y-91122483D01*
X176045500Y-91062873D01*
X176045499Y-89267128D01*
X176039091Y-89207517D01*
X176008423Y-89125293D01*
X175988797Y-89072671D01*
X175988793Y-89072664D01*
X175902547Y-88957455D01*
X175902544Y-88957452D01*
X175787335Y-88871206D01*
X175787328Y-88871202D01*
X175652482Y-88820908D01*
X175652483Y-88820908D01*
X175592883Y-88814501D01*
X175592881Y-88814500D01*
X175592873Y-88814500D01*
X175592865Y-88814500D01*
X174457230Y-88814500D01*
X174390191Y-88794815D01*
X174369549Y-88778181D01*
X173504099Y-87912731D01*
X173470614Y-87851408D01*
X173467780Y-87825050D01*
X173467780Y-82540884D01*
X173487465Y-82473845D01*
X173504099Y-82453203D01*
X173556694Y-82400608D01*
X173658512Y-82260468D01*
X173737153Y-82106125D01*
X173790682Y-81941381D01*
X173817780Y-81770291D01*
X173817780Y-80797069D01*
X174156780Y-80797069D01*
X174156780Y-81770290D01*
X174183294Y-81937697D01*
X174183878Y-81941381D01*
X174237407Y-82106125D01*
X174316048Y-82260468D01*
X174417866Y-82400608D01*
X174540352Y-82523094D01*
X174680492Y-82624912D01*
X174834835Y-82703553D01*
X174999579Y-82757082D01*
X175170669Y-82784180D01*
X175170670Y-82784180D01*
X175343890Y-82784180D01*
X175343891Y-82784180D01*
X175514981Y-82757082D01*
X175679725Y-82703553D01*
X175834068Y-82624912D01*
X175974208Y-82523094D01*
X176096694Y-82400608D01*
X176198512Y-82260468D01*
X176277153Y-82106125D01*
X176330682Y-81941381D01*
X176357780Y-81770291D01*
X176357780Y-80797069D01*
X176330682Y-80625979D01*
X176277153Y-80461235D01*
X176198512Y-80306892D01*
X176096694Y-80166752D01*
X175974208Y-80044266D01*
X175834068Y-79942448D01*
X175679725Y-79863807D01*
X175514981Y-79810278D01*
X175514979Y-79810277D01*
X175514978Y-79810277D01*
X175364240Y-79786403D01*
X175343891Y-79783180D01*
X175170669Y-79783180D01*
X175150320Y-79786403D01*
X174999582Y-79810277D01*
X174834832Y-79863808D01*
X174680491Y-79942448D01*
X174600536Y-80000539D01*
X174540352Y-80044266D01*
X174540350Y-80044268D01*
X174540349Y-80044268D01*
X174417868Y-80166749D01*
X174417868Y-80166750D01*
X174417866Y-80166752D01*
X174413603Y-80172620D01*
X174316048Y-80306891D01*
X174237408Y-80461232D01*
X174183877Y-80625982D01*
X174156780Y-80797069D01*
X173817780Y-80797069D01*
X173790682Y-80625979D01*
X173737153Y-80461235D01*
X173658512Y-80306892D01*
X173556694Y-80166752D01*
X173434208Y-80044266D01*
X173294068Y-79942448D01*
X173139725Y-79863807D01*
X172974981Y-79810278D01*
X172974979Y-79810277D01*
X172974978Y-79810277D01*
X172824240Y-79786403D01*
X172803891Y-79783180D01*
X172630669Y-79783180D01*
X172610320Y-79786403D01*
X172459582Y-79810277D01*
X172294832Y-79863808D01*
X172140491Y-79942448D01*
X172060536Y-80000539D01*
X172000352Y-80044266D01*
X172000350Y-80044268D01*
X172000349Y-80044268D01*
X171877868Y-80166749D01*
X171877868Y-80166750D01*
X171877866Y-80166752D01*
X171873603Y-80172620D01*
X171776048Y-80306891D01*
X171697408Y-80461232D01*
X171643877Y-80625982D01*
X171616780Y-80797069D01*
X171277780Y-80797069D01*
X171250682Y-80625979D01*
X171197153Y-80461235D01*
X171118512Y-80306892D01*
X171016694Y-80166752D01*
X170894208Y-80044266D01*
X170754068Y-79942448D01*
X170599725Y-79863807D01*
X170434981Y-79810278D01*
X170434979Y-79810277D01*
X170434978Y-79810277D01*
X170284240Y-79786403D01*
X170263891Y-79783180D01*
X170090669Y-79783180D01*
X170070320Y-79786403D01*
X169919582Y-79810277D01*
X169754832Y-79863808D01*
X169600491Y-79942448D01*
X169520536Y-80000539D01*
X169460352Y-80044266D01*
X169460350Y-80044268D01*
X169460349Y-80044268D01*
X169337868Y-80166749D01*
X169337868Y-80166750D01*
X169337866Y-80166752D01*
X169333603Y-80172620D01*
X169236048Y-80306891D01*
X169157408Y-80461232D01*
X169103877Y-80625982D01*
X169076780Y-80797069D01*
X168740500Y-80797069D01*
X168740500Y-80793389D01*
X168713402Y-80622299D01*
X168659873Y-80457555D01*
X168581232Y-80303212D01*
X168479414Y-80163072D01*
X168356928Y-80040586D01*
X168216788Y-79938768D01*
X168153252Y-79906395D01*
X168062447Y-79860128D01*
X168062446Y-79860127D01*
X168062445Y-79860127D01*
X167897701Y-79806598D01*
X167897699Y-79806597D01*
X167897698Y-79806597D01*
X167752857Y-79783657D01*
X167726611Y-79779500D01*
X167553389Y-79779500D01*
X167527143Y-79783657D01*
X167382302Y-79806597D01*
X167217552Y-79860128D01*
X167063211Y-79938768D01*
X166983256Y-79996859D01*
X166923072Y-80040586D01*
X166923070Y-80040588D01*
X166923069Y-80040588D01*
X166800588Y-80163069D01*
X166800588Y-80163070D01*
X166800586Y-80163072D01*
X166793649Y-80172620D01*
X166698768Y-80303211D01*
X166620128Y-80457552D01*
X166566597Y-80622302D01*
X166539500Y-80793389D01*
X166539500Y-81766611D01*
X166566598Y-81937701D01*
X166620127Y-82102445D01*
X166698768Y-82256788D01*
X166800586Y-82396928D01*
X166923072Y-82519414D01*
X166988388Y-82566868D01*
X167031051Y-82622195D01*
X167039500Y-82667184D01*
X167039500Y-89869903D01*
X167019815Y-89936942D01*
X167003181Y-89957584D01*
X164887584Y-92073181D01*
X164826261Y-92106666D01*
X164799903Y-92109500D01*
X164309099Y-92109500D01*
X164242060Y-92089815D01*
X164196305Y-92037011D01*
X164186361Y-91967853D01*
X164215386Y-91904297D01*
X164221417Y-91897819D01*
X164221418Y-91897818D01*
X164310520Y-91808716D01*
X164310520Y-91808714D01*
X164320728Y-91798507D01*
X164320730Y-91798504D01*
X165468713Y-90650521D01*
X165468716Y-90650520D01*
X165580520Y-90538716D01*
X165630639Y-90451904D01*
X165659577Y-90401785D01*
X165700500Y-90249058D01*
X165700500Y-90090943D01*
X165700500Y-82667184D01*
X165720185Y-82600145D01*
X165751609Y-82566870D01*
X165816928Y-82519414D01*
X165939414Y-82396928D01*
X166041232Y-82256788D01*
X166119873Y-82102445D01*
X166173402Y-81937701D01*
X166200500Y-81766611D01*
X166200500Y-80793389D01*
X166173402Y-80622299D01*
X166119873Y-80457555D01*
X166041232Y-80303212D01*
X165939414Y-80163072D01*
X165816928Y-80040586D01*
X165676788Y-79938768D01*
X165613252Y-79906395D01*
X165522447Y-79860128D01*
X165522446Y-79860127D01*
X165522445Y-79860127D01*
X165357701Y-79806598D01*
X165357699Y-79806597D01*
X165357698Y-79806597D01*
X165212857Y-79783657D01*
X165186611Y-79779500D01*
X165013389Y-79779500D01*
X164987143Y-79783657D01*
X164842302Y-79806597D01*
X164842299Y-79806598D01*
X164706581Y-79850696D01*
X164677549Y-79860129D01*
X164610794Y-79894142D01*
X164542125Y-79907038D01*
X164477384Y-79880761D01*
X164437128Y-79823654D01*
X164430500Y-79783657D01*
X164430500Y-78660945D01*
X164430500Y-78660943D01*
X164389577Y-78508216D01*
X164389577Y-78508215D01*
X164389577Y-78508214D01*
X164360639Y-78458095D01*
X164360637Y-78458092D01*
X164310520Y-78371284D01*
X164198716Y-78259480D01*
X164198715Y-78259479D01*
X164194385Y-78255149D01*
X164194374Y-78255139D01*
X163047590Y-77108355D01*
X163047588Y-77108352D01*
X162928717Y-76989481D01*
X162928716Y-76989480D01*
X162841904Y-76939360D01*
X162841904Y-76939359D01*
X162841900Y-76939358D01*
X162791785Y-76910423D01*
X162639057Y-76869499D01*
X162480943Y-76869499D01*
X162473347Y-76869499D01*
X162473331Y-76869500D01*
X134920097Y-76869500D01*
X134853058Y-76849815D01*
X134832416Y-76833181D01*
X130176819Y-72177584D01*
X130143334Y-72116261D01*
X130140500Y-72089903D01*
X130140500Y-59807184D01*
X130160185Y-59740145D01*
X130191609Y-59706870D01*
X130256928Y-59659414D01*
X130379414Y-59536928D01*
X130481232Y-59396788D01*
X130559873Y-59242445D01*
X130613402Y-59077701D01*
X130640500Y-58906611D01*
X130640500Y-57933389D01*
X130979500Y-57933389D01*
X130979500Y-58906610D01*
X130997167Y-59018160D01*
X131006598Y-59077701D01*
X131060127Y-59242445D01*
X131138768Y-59396788D01*
X131240586Y-59536928D01*
X131363072Y-59659414D01*
X131503212Y-59761232D01*
X131657555Y-59839873D01*
X131822299Y-59893402D01*
X131993389Y-59920500D01*
X131993390Y-59920500D01*
X132166610Y-59920500D01*
X132166611Y-59920500D01*
X132337701Y-59893402D01*
X132502445Y-59839873D01*
X132656788Y-59761232D01*
X132796928Y-59659414D01*
X132919414Y-59536928D01*
X133021232Y-59396788D01*
X133099873Y-59242445D01*
X133153402Y-59077701D01*
X133180500Y-58906611D01*
X133180500Y-57933389D01*
X133519500Y-57933389D01*
X133519500Y-58906610D01*
X133537167Y-59018160D01*
X133546598Y-59077701D01*
X133600127Y-59242445D01*
X133678768Y-59396788D01*
X133780586Y-59536928D01*
X133903072Y-59659414D01*
X134043212Y-59761232D01*
X134197555Y-59839873D01*
X134362299Y-59893402D01*
X134533389Y-59920500D01*
X134533390Y-59920500D01*
X134706610Y-59920500D01*
X134706611Y-59920500D01*
X134877701Y-59893402D01*
X135042445Y-59839873D01*
X135196788Y-59761232D01*
X135336928Y-59659414D01*
X135459414Y-59536928D01*
X135561232Y-59396788D01*
X135639873Y-59242445D01*
X135693402Y-59077701D01*
X135720500Y-58906611D01*
X135720500Y-57933389D01*
X136059500Y-57933389D01*
X136059500Y-58906610D01*
X136077167Y-59018160D01*
X136086598Y-59077701D01*
X136140127Y-59242445D01*
X136218768Y-59396788D01*
X136320586Y-59536928D01*
X136443072Y-59659414D01*
X136583212Y-59761232D01*
X136737555Y-59839873D01*
X136902299Y-59893402D01*
X137073389Y-59920500D01*
X137073390Y-59920500D01*
X137246610Y-59920500D01*
X137246611Y-59920500D01*
X137417701Y-59893402D01*
X137582445Y-59839873D01*
X137736788Y-59761232D01*
X137876928Y-59659414D01*
X137999414Y-59536928D01*
X138101232Y-59396788D01*
X138179873Y-59242445D01*
X138233402Y-59077701D01*
X138260500Y-58906611D01*
X138260500Y-57933389D01*
X138599500Y-57933389D01*
X138599500Y-58906610D01*
X138617167Y-59018160D01*
X138626598Y-59077701D01*
X138680127Y-59242445D01*
X138758768Y-59396788D01*
X138860586Y-59536928D01*
X138983072Y-59659414D01*
X139123212Y-59761232D01*
X139277555Y-59839873D01*
X139442299Y-59893402D01*
X139613389Y-59920500D01*
X139613390Y-59920500D01*
X139786610Y-59920500D01*
X139786611Y-59920500D01*
X139957701Y-59893402D01*
X140122445Y-59839873D01*
X140276788Y-59761232D01*
X140416928Y-59659414D01*
X140539414Y-59536928D01*
X140641232Y-59396788D01*
X140719873Y-59242445D01*
X140773402Y-59077701D01*
X140800500Y-58906611D01*
X140800500Y-57933389D01*
X141139500Y-57933389D01*
X141139500Y-58906610D01*
X141157167Y-59018160D01*
X141166598Y-59077701D01*
X141220127Y-59242445D01*
X141298768Y-59396788D01*
X141400586Y-59536928D01*
X141523072Y-59659414D01*
X141663212Y-59761232D01*
X141817555Y-59839873D01*
X141982299Y-59893402D01*
X142153389Y-59920500D01*
X142153390Y-59920500D01*
X142326610Y-59920500D01*
X142326611Y-59920500D01*
X142497701Y-59893402D01*
X142662445Y-59839873D01*
X142816788Y-59761232D01*
X142956928Y-59659414D01*
X143079414Y-59536928D01*
X143181232Y-59396788D01*
X143259873Y-59242445D01*
X143313402Y-59077701D01*
X143340500Y-58906611D01*
X143340500Y-57933389D01*
X143679500Y-57933389D01*
X143679500Y-58906610D01*
X143697167Y-59018160D01*
X143706598Y-59077701D01*
X143760127Y-59242445D01*
X143838768Y-59396788D01*
X143940586Y-59536928D01*
X144063072Y-59659414D01*
X144203212Y-59761232D01*
X144357555Y-59839873D01*
X144522299Y-59893402D01*
X144693389Y-59920500D01*
X144693390Y-59920500D01*
X144866610Y-59920500D01*
X144866611Y-59920500D01*
X145037701Y-59893402D01*
X145202445Y-59839873D01*
X145356788Y-59761232D01*
X145496928Y-59659414D01*
X145619414Y-59536928D01*
X145721232Y-59396788D01*
X145799873Y-59242445D01*
X145853402Y-59077701D01*
X145880500Y-58906611D01*
X145880500Y-57933389D01*
X146219500Y-57933389D01*
X146219500Y-58906610D01*
X146237167Y-59018160D01*
X146246598Y-59077701D01*
X146300127Y-59242445D01*
X146378768Y-59396788D01*
X146480586Y-59536928D01*
X146603072Y-59659414D01*
X146743212Y-59761232D01*
X146897555Y-59839873D01*
X147062299Y-59893402D01*
X147233389Y-59920500D01*
X147233390Y-59920500D01*
X147406610Y-59920500D01*
X147406611Y-59920500D01*
X147577701Y-59893402D01*
X147742445Y-59839873D01*
X147896788Y-59761232D01*
X148036928Y-59659414D01*
X148159414Y-59536928D01*
X148261232Y-59396788D01*
X148339873Y-59242445D01*
X148393402Y-59077701D01*
X148420500Y-58906611D01*
X148420500Y-57933389D01*
X148759500Y-57933389D01*
X148759500Y-58906610D01*
X148777167Y-59018160D01*
X148786598Y-59077701D01*
X148840127Y-59242445D01*
X148918768Y-59396788D01*
X149020586Y-59536928D01*
X149143072Y-59659414D01*
X149283212Y-59761232D01*
X149437555Y-59839873D01*
X149602299Y-59893402D01*
X149773389Y-59920500D01*
X149773390Y-59920500D01*
X149946610Y-59920500D01*
X149946611Y-59920500D01*
X150117701Y-59893402D01*
X150282445Y-59839873D01*
X150436788Y-59761232D01*
X150576928Y-59659414D01*
X150699414Y-59536928D01*
X150801232Y-59396788D01*
X150879873Y-59242445D01*
X150933402Y-59077701D01*
X150960500Y-58906611D01*
X150960500Y-57933389D01*
X151299500Y-57933389D01*
X151299500Y-58906610D01*
X151317167Y-59018160D01*
X151326598Y-59077701D01*
X151380127Y-59242445D01*
X151458768Y-59396788D01*
X151560586Y-59536928D01*
X151683072Y-59659414D01*
X151823212Y-59761232D01*
X151977555Y-59839873D01*
X152142299Y-59893402D01*
X152313389Y-59920500D01*
X152313390Y-59920500D01*
X152486610Y-59920500D01*
X152486611Y-59920500D01*
X152657701Y-59893402D01*
X152822445Y-59839873D01*
X152976788Y-59761232D01*
X153116928Y-59659414D01*
X153239414Y-59536928D01*
X153341232Y-59396788D01*
X153419873Y-59242445D01*
X153473402Y-59077701D01*
X153500500Y-58906611D01*
X153500500Y-57933389D01*
X153839500Y-57933389D01*
X153839500Y-58906610D01*
X153857167Y-59018160D01*
X153866598Y-59077701D01*
X153920127Y-59242445D01*
X153998768Y-59396788D01*
X154100586Y-59536928D01*
X154223072Y-59659414D01*
X154363212Y-59761232D01*
X154517555Y-59839873D01*
X154682299Y-59893402D01*
X154853389Y-59920500D01*
X154853390Y-59920500D01*
X155026610Y-59920500D01*
X155026611Y-59920500D01*
X155197701Y-59893402D01*
X155362445Y-59839873D01*
X155516788Y-59761232D01*
X155656928Y-59659414D01*
X155779414Y-59536928D01*
X155881232Y-59396788D01*
X155959873Y-59242445D01*
X156013402Y-59077701D01*
X156040500Y-58906611D01*
X156040500Y-57933389D01*
X156379500Y-57933389D01*
X156379500Y-58906610D01*
X156397167Y-59018160D01*
X156406598Y-59077701D01*
X156460127Y-59242445D01*
X156538768Y-59396788D01*
X156640586Y-59536928D01*
X156763072Y-59659414D01*
X156903212Y-59761232D01*
X157057555Y-59839873D01*
X157222299Y-59893402D01*
X157393389Y-59920500D01*
X157393390Y-59920500D01*
X157566610Y-59920500D01*
X157566611Y-59920500D01*
X157737701Y-59893402D01*
X157902445Y-59839873D01*
X158056788Y-59761232D01*
X158196928Y-59659414D01*
X158319414Y-59536928D01*
X158421232Y-59396788D01*
X158499873Y-59242445D01*
X158553402Y-59077701D01*
X158580500Y-58906611D01*
X158580500Y-57933389D01*
X158919500Y-57933389D01*
X158919500Y-58906610D01*
X158937167Y-59018160D01*
X158946598Y-59077701D01*
X159000127Y-59242445D01*
X159078768Y-59396788D01*
X159180586Y-59536928D01*
X159303072Y-59659414D01*
X159443212Y-59761232D01*
X159597555Y-59839873D01*
X159762299Y-59893402D01*
X159933389Y-59920500D01*
X159933390Y-59920500D01*
X160106610Y-59920500D01*
X160106611Y-59920500D01*
X160277701Y-59893402D01*
X160442445Y-59839873D01*
X160596788Y-59761232D01*
X160736928Y-59659414D01*
X160859414Y-59536928D01*
X160961232Y-59396788D01*
X161039873Y-59242445D01*
X161093402Y-59077701D01*
X161120500Y-58906611D01*
X161120500Y-57933389D01*
X161459500Y-57933389D01*
X161459500Y-58906610D01*
X161477167Y-59018160D01*
X161486598Y-59077701D01*
X161540127Y-59242445D01*
X161618768Y-59396788D01*
X161720586Y-59536928D01*
X161843072Y-59659414D01*
X161983212Y-59761232D01*
X162137555Y-59839873D01*
X162302299Y-59893402D01*
X162473389Y-59920500D01*
X162473390Y-59920500D01*
X162646610Y-59920500D01*
X162646611Y-59920500D01*
X162817701Y-59893402D01*
X162982445Y-59839873D01*
X163136788Y-59761232D01*
X163276928Y-59659414D01*
X163399414Y-59536928D01*
X163501232Y-59396788D01*
X163579873Y-59242445D01*
X163633402Y-59077701D01*
X163660500Y-58906611D01*
X163660500Y-57933389D01*
X163999500Y-57933389D01*
X163999500Y-58906610D01*
X164017167Y-59018160D01*
X164026598Y-59077701D01*
X164080127Y-59242445D01*
X164158768Y-59396788D01*
X164260586Y-59536928D01*
X164383072Y-59659414D01*
X164523212Y-59761232D01*
X164677555Y-59839873D01*
X164842299Y-59893402D01*
X165013389Y-59920500D01*
X165013390Y-59920500D01*
X165186610Y-59920500D01*
X165186611Y-59920500D01*
X165357701Y-59893402D01*
X165522445Y-59839873D01*
X165676788Y-59761232D01*
X165816928Y-59659414D01*
X165939414Y-59536928D01*
X166041232Y-59396788D01*
X166119873Y-59242445D01*
X166173402Y-59077701D01*
X166200500Y-58906611D01*
X166200500Y-57933389D01*
X166539500Y-57933389D01*
X166539500Y-58906610D01*
X166557167Y-59018160D01*
X166566598Y-59077701D01*
X166620127Y-59242445D01*
X166698768Y-59396788D01*
X166800586Y-59536928D01*
X166923072Y-59659414D01*
X167063212Y-59761232D01*
X167217555Y-59839873D01*
X167382299Y-59893402D01*
X167553389Y-59920500D01*
X167553390Y-59920500D01*
X167726610Y-59920500D01*
X167726611Y-59920500D01*
X167897701Y-59893402D01*
X168062445Y-59839873D01*
X168216788Y-59761232D01*
X168356928Y-59659414D01*
X168479414Y-59536928D01*
X168581232Y-59396788D01*
X168659873Y-59242445D01*
X168713402Y-59077701D01*
X168740500Y-58906611D01*
X168740500Y-57933389D01*
X169079500Y-57933389D01*
X169079500Y-58906610D01*
X169097167Y-59018160D01*
X169106598Y-59077701D01*
X169160127Y-59242445D01*
X169238768Y-59396788D01*
X169340586Y-59536928D01*
X169463072Y-59659414D01*
X169603212Y-59761232D01*
X169757555Y-59839873D01*
X169922299Y-59893402D01*
X170093389Y-59920500D01*
X170093390Y-59920500D01*
X170266610Y-59920500D01*
X170266611Y-59920500D01*
X170437701Y-59893402D01*
X170602445Y-59839873D01*
X170756788Y-59761232D01*
X170896928Y-59659414D01*
X171019414Y-59536928D01*
X171121232Y-59396788D01*
X171199873Y-59242445D01*
X171253402Y-59077701D01*
X171280500Y-58906611D01*
X171280500Y-57933389D01*
X171619500Y-57933389D01*
X171619500Y-58906610D01*
X171637167Y-59018160D01*
X171646598Y-59077701D01*
X171700127Y-59242445D01*
X171778768Y-59396788D01*
X171880586Y-59536928D01*
X172003072Y-59659414D01*
X172143212Y-59761232D01*
X172297555Y-59839873D01*
X172462299Y-59893402D01*
X172633389Y-59920500D01*
X172633390Y-59920500D01*
X172806610Y-59920500D01*
X172806611Y-59920500D01*
X172977701Y-59893402D01*
X173142445Y-59839873D01*
X173296788Y-59761232D01*
X173436928Y-59659414D01*
X173559414Y-59536928D01*
X173661232Y-59396788D01*
X173739873Y-59242445D01*
X173793402Y-59077701D01*
X173820500Y-58906611D01*
X173820500Y-57933389D01*
X174159500Y-57933389D01*
X174159500Y-58906610D01*
X174177167Y-59018160D01*
X174186598Y-59077701D01*
X174240127Y-59242445D01*
X174318768Y-59396788D01*
X174420586Y-59536928D01*
X174543072Y-59659414D01*
X174683212Y-59761232D01*
X174837555Y-59839873D01*
X175002299Y-59893402D01*
X175173389Y-59920500D01*
X175173390Y-59920500D01*
X175346610Y-59920500D01*
X175346611Y-59920500D01*
X175517701Y-59893402D01*
X175682445Y-59839873D01*
X175836788Y-59761232D01*
X175976928Y-59659414D01*
X176099414Y-59536928D01*
X176201232Y-59396788D01*
X176279873Y-59242445D01*
X176333402Y-59077701D01*
X176360500Y-58906611D01*
X176360500Y-57933389D01*
X176333402Y-57762299D01*
X176279873Y-57597555D01*
X176201232Y-57443212D01*
X176099414Y-57303072D01*
X175976928Y-57180586D01*
X175836788Y-57078768D01*
X175682445Y-57000127D01*
X175517701Y-56946598D01*
X175517699Y-56946597D01*
X175517698Y-56946597D01*
X175386271Y-56925781D01*
X175346611Y-56919500D01*
X175173389Y-56919500D01*
X175133728Y-56925781D01*
X175002302Y-56946597D01*
X174837552Y-57000128D01*
X174683211Y-57078768D01*
X174603256Y-57136859D01*
X174543072Y-57180586D01*
X174543070Y-57180588D01*
X174543069Y-57180588D01*
X174420588Y-57303069D01*
X174420588Y-57303070D01*
X174420586Y-57303072D01*
X174376859Y-57363256D01*
X174318768Y-57443211D01*
X174240128Y-57597552D01*
X174186597Y-57762302D01*
X174159500Y-57933389D01*
X173820500Y-57933389D01*
X173793402Y-57762299D01*
X173739873Y-57597555D01*
X173661232Y-57443212D01*
X173559414Y-57303072D01*
X173436928Y-57180586D01*
X173296788Y-57078768D01*
X173142445Y-57000127D01*
X172977701Y-56946598D01*
X172977699Y-56946597D01*
X172977698Y-56946597D01*
X172846271Y-56925781D01*
X172806611Y-56919500D01*
X172633389Y-56919500D01*
X172593728Y-56925781D01*
X172462302Y-56946597D01*
X172297552Y-57000128D01*
X172143211Y-57078768D01*
X172063256Y-57136859D01*
X172003072Y-57180586D01*
X172003070Y-57180588D01*
X172003069Y-57180588D01*
X171880588Y-57303069D01*
X171880588Y-57303070D01*
X171880586Y-57303072D01*
X171836859Y-57363256D01*
X171778768Y-57443211D01*
X171700128Y-57597552D01*
X171646597Y-57762302D01*
X171619500Y-57933389D01*
X171280500Y-57933389D01*
X171253402Y-57762299D01*
X171199873Y-57597555D01*
X171121232Y-57443212D01*
X171019414Y-57303072D01*
X170896928Y-57180586D01*
X170756788Y-57078768D01*
X170602445Y-57000127D01*
X170437701Y-56946598D01*
X170437699Y-56946597D01*
X170437698Y-56946597D01*
X170306271Y-56925781D01*
X170266611Y-56919500D01*
X170093389Y-56919500D01*
X170053728Y-56925781D01*
X169922302Y-56946597D01*
X169757552Y-57000128D01*
X169603211Y-57078768D01*
X169523256Y-57136859D01*
X169463072Y-57180586D01*
X169463070Y-57180588D01*
X169463069Y-57180588D01*
X169340588Y-57303069D01*
X169340588Y-57303070D01*
X169340586Y-57303072D01*
X169296859Y-57363256D01*
X169238768Y-57443211D01*
X169160128Y-57597552D01*
X169106597Y-57762302D01*
X169079500Y-57933389D01*
X168740500Y-57933389D01*
X168713402Y-57762299D01*
X168659873Y-57597555D01*
X168581232Y-57443212D01*
X168479414Y-57303072D01*
X168356928Y-57180586D01*
X168216788Y-57078768D01*
X168062445Y-57000127D01*
X167897701Y-56946598D01*
X167897699Y-56946597D01*
X167897698Y-56946597D01*
X167766271Y-56925781D01*
X167726611Y-56919500D01*
X167553389Y-56919500D01*
X167513728Y-56925781D01*
X167382302Y-56946597D01*
X167217552Y-57000128D01*
X167063211Y-57078768D01*
X166983256Y-57136859D01*
X166923072Y-57180586D01*
X166923070Y-57180588D01*
X166923069Y-57180588D01*
X166800588Y-57303069D01*
X166800588Y-57303070D01*
X166800586Y-57303072D01*
X166756859Y-57363256D01*
X166698768Y-57443211D01*
X166620128Y-57597552D01*
X166566597Y-57762302D01*
X166539500Y-57933389D01*
X166200500Y-57933389D01*
X166173402Y-57762299D01*
X166119873Y-57597555D01*
X166041232Y-57443212D01*
X165939414Y-57303072D01*
X165816928Y-57180586D01*
X165676788Y-57078768D01*
X165522445Y-57000127D01*
X165357701Y-56946598D01*
X165357699Y-56946597D01*
X165357698Y-56946597D01*
X165226271Y-56925781D01*
X165186611Y-56919500D01*
X165013389Y-56919500D01*
X164973728Y-56925781D01*
X164842302Y-56946597D01*
X164677552Y-57000128D01*
X164523211Y-57078768D01*
X164443256Y-57136859D01*
X164383072Y-57180586D01*
X164383070Y-57180588D01*
X164383069Y-57180588D01*
X164260588Y-57303069D01*
X164260588Y-57303070D01*
X164260586Y-57303072D01*
X164216859Y-57363256D01*
X164158768Y-57443211D01*
X164080128Y-57597552D01*
X164026597Y-57762302D01*
X163999500Y-57933389D01*
X163660500Y-57933389D01*
X163633402Y-57762299D01*
X163579873Y-57597555D01*
X163501232Y-57443212D01*
X163399414Y-57303072D01*
X163276928Y-57180586D01*
X163136788Y-57078768D01*
X162982445Y-57000127D01*
X162817701Y-56946598D01*
X162817699Y-56946597D01*
X162817698Y-56946597D01*
X162686271Y-56925781D01*
X162646611Y-56919500D01*
X162473389Y-56919500D01*
X162433728Y-56925781D01*
X162302302Y-56946597D01*
X162137552Y-57000128D01*
X161983211Y-57078768D01*
X161903256Y-57136859D01*
X161843072Y-57180586D01*
X161843070Y-57180588D01*
X161843069Y-57180588D01*
X161720588Y-57303069D01*
X161720588Y-57303070D01*
X161720586Y-57303072D01*
X161676859Y-57363256D01*
X161618768Y-57443211D01*
X161540128Y-57597552D01*
X161486597Y-57762302D01*
X161459500Y-57933389D01*
X161120500Y-57933389D01*
X161093402Y-57762299D01*
X161039873Y-57597555D01*
X160961232Y-57443212D01*
X160859414Y-57303072D01*
X160736928Y-57180586D01*
X160596788Y-57078768D01*
X160442445Y-57000127D01*
X160277701Y-56946598D01*
X160277699Y-56946597D01*
X160277698Y-56946597D01*
X160146271Y-56925781D01*
X160106611Y-56919500D01*
X159933389Y-56919500D01*
X159893728Y-56925781D01*
X159762302Y-56946597D01*
X159597552Y-57000128D01*
X159443211Y-57078768D01*
X159363256Y-57136859D01*
X159303072Y-57180586D01*
X159303070Y-57180588D01*
X159303069Y-57180588D01*
X159180588Y-57303069D01*
X159180588Y-57303070D01*
X159180586Y-57303072D01*
X159136859Y-57363256D01*
X159078768Y-57443211D01*
X159000128Y-57597552D01*
X158946597Y-57762302D01*
X158919500Y-57933389D01*
X158580500Y-57933389D01*
X158553402Y-57762299D01*
X158499873Y-57597555D01*
X158421232Y-57443212D01*
X158319414Y-57303072D01*
X158196928Y-57180586D01*
X158056788Y-57078768D01*
X157902445Y-57000127D01*
X157737701Y-56946598D01*
X157737699Y-56946597D01*
X157737698Y-56946597D01*
X157606271Y-56925781D01*
X157566611Y-56919500D01*
X157393389Y-56919500D01*
X157353728Y-56925781D01*
X157222302Y-56946597D01*
X157057552Y-57000128D01*
X156903211Y-57078768D01*
X156823256Y-57136859D01*
X156763072Y-57180586D01*
X156763070Y-57180588D01*
X156763069Y-57180588D01*
X156640588Y-57303069D01*
X156640588Y-57303070D01*
X156640586Y-57303072D01*
X156596859Y-57363256D01*
X156538768Y-57443211D01*
X156460128Y-57597552D01*
X156406597Y-57762302D01*
X156379500Y-57933389D01*
X156040500Y-57933389D01*
X156013402Y-57762299D01*
X155959873Y-57597555D01*
X155881232Y-57443212D01*
X155779414Y-57303072D01*
X155656928Y-57180586D01*
X155516788Y-57078768D01*
X155362445Y-57000127D01*
X155197701Y-56946598D01*
X155197699Y-56946597D01*
X155197698Y-56946597D01*
X155066271Y-56925781D01*
X155026611Y-56919500D01*
X154853389Y-56919500D01*
X154813728Y-56925781D01*
X154682302Y-56946597D01*
X154517552Y-57000128D01*
X154363211Y-57078768D01*
X154283256Y-57136859D01*
X154223072Y-57180586D01*
X154223070Y-57180588D01*
X154223069Y-57180588D01*
X154100588Y-57303069D01*
X154100588Y-57303070D01*
X154100586Y-57303072D01*
X154056859Y-57363256D01*
X153998768Y-57443211D01*
X153920128Y-57597552D01*
X153866597Y-57762302D01*
X153839500Y-57933389D01*
X153500500Y-57933389D01*
X153473402Y-57762299D01*
X153419873Y-57597555D01*
X153341232Y-57443212D01*
X153239414Y-57303072D01*
X153116928Y-57180586D01*
X152976788Y-57078768D01*
X152822445Y-57000127D01*
X152657701Y-56946598D01*
X152657699Y-56946597D01*
X152657698Y-56946597D01*
X152526271Y-56925781D01*
X152486611Y-56919500D01*
X152313389Y-56919500D01*
X152273728Y-56925781D01*
X152142302Y-56946597D01*
X151977552Y-57000128D01*
X151823211Y-57078768D01*
X151743256Y-57136859D01*
X151683072Y-57180586D01*
X151683070Y-57180588D01*
X151683069Y-57180588D01*
X151560588Y-57303069D01*
X151560588Y-57303070D01*
X151560586Y-57303072D01*
X151516859Y-57363256D01*
X151458768Y-57443211D01*
X151380128Y-57597552D01*
X151326597Y-57762302D01*
X151299500Y-57933389D01*
X150960500Y-57933389D01*
X150933402Y-57762299D01*
X150879873Y-57597555D01*
X150801232Y-57443212D01*
X150699414Y-57303072D01*
X150576928Y-57180586D01*
X150436788Y-57078768D01*
X150282445Y-57000127D01*
X150117701Y-56946598D01*
X150117699Y-56946597D01*
X150117698Y-56946597D01*
X149986271Y-56925781D01*
X149946611Y-56919500D01*
X149773389Y-56919500D01*
X149733728Y-56925781D01*
X149602302Y-56946597D01*
X149437552Y-57000128D01*
X149283211Y-57078768D01*
X149203256Y-57136859D01*
X149143072Y-57180586D01*
X149143070Y-57180588D01*
X149143069Y-57180588D01*
X149020588Y-57303069D01*
X149020588Y-57303070D01*
X149020586Y-57303072D01*
X148976859Y-57363256D01*
X148918768Y-57443211D01*
X148840128Y-57597552D01*
X148786597Y-57762302D01*
X148759500Y-57933389D01*
X148420500Y-57933389D01*
X148393402Y-57762299D01*
X148339873Y-57597555D01*
X148261232Y-57443212D01*
X148159414Y-57303072D01*
X148036928Y-57180586D01*
X147896788Y-57078768D01*
X147742445Y-57000127D01*
X147577701Y-56946598D01*
X147577699Y-56946597D01*
X147577698Y-56946597D01*
X147446271Y-56925781D01*
X147406611Y-56919500D01*
X147233389Y-56919500D01*
X147193728Y-56925781D01*
X147062302Y-56946597D01*
X146897552Y-57000128D01*
X146743211Y-57078768D01*
X146663256Y-57136859D01*
X146603072Y-57180586D01*
X146603070Y-57180588D01*
X146603069Y-57180588D01*
X146480588Y-57303069D01*
X146480588Y-57303070D01*
X146480586Y-57303072D01*
X146436859Y-57363256D01*
X146378768Y-57443211D01*
X146300128Y-57597552D01*
X146246597Y-57762302D01*
X146219500Y-57933389D01*
X145880500Y-57933389D01*
X145853402Y-57762299D01*
X145799873Y-57597555D01*
X145721232Y-57443212D01*
X145619414Y-57303072D01*
X145496928Y-57180586D01*
X145356788Y-57078768D01*
X145202445Y-57000127D01*
X145037701Y-56946598D01*
X145037699Y-56946597D01*
X145037698Y-56946597D01*
X144906271Y-56925781D01*
X144866611Y-56919500D01*
X144693389Y-56919500D01*
X144653728Y-56925781D01*
X144522302Y-56946597D01*
X144357552Y-57000128D01*
X144203211Y-57078768D01*
X144123256Y-57136859D01*
X144063072Y-57180586D01*
X144063070Y-57180588D01*
X144063069Y-57180588D01*
X143940588Y-57303069D01*
X143940588Y-57303070D01*
X143940586Y-57303072D01*
X143896859Y-57363256D01*
X143838768Y-57443211D01*
X143760128Y-57597552D01*
X143706597Y-57762302D01*
X143679500Y-57933389D01*
X143340500Y-57933389D01*
X143313402Y-57762299D01*
X143259873Y-57597555D01*
X143181232Y-57443212D01*
X143079414Y-57303072D01*
X142956928Y-57180586D01*
X142816788Y-57078768D01*
X142662445Y-57000127D01*
X142497701Y-56946598D01*
X142497699Y-56946597D01*
X142497698Y-56946597D01*
X142366271Y-56925781D01*
X142326611Y-56919500D01*
X142153389Y-56919500D01*
X142113728Y-56925781D01*
X141982302Y-56946597D01*
X141817552Y-57000128D01*
X141663211Y-57078768D01*
X141583256Y-57136859D01*
X141523072Y-57180586D01*
X141523070Y-57180588D01*
X141523069Y-57180588D01*
X141400588Y-57303069D01*
X141400588Y-57303070D01*
X141400586Y-57303072D01*
X141356859Y-57363256D01*
X141298768Y-57443211D01*
X141220128Y-57597552D01*
X141166597Y-57762302D01*
X141139500Y-57933389D01*
X140800500Y-57933389D01*
X140773402Y-57762299D01*
X140719873Y-57597555D01*
X140641232Y-57443212D01*
X140539414Y-57303072D01*
X140416928Y-57180586D01*
X140276788Y-57078768D01*
X140122445Y-57000127D01*
X139957701Y-56946598D01*
X139957699Y-56946597D01*
X139957698Y-56946597D01*
X139826271Y-56925781D01*
X139786611Y-56919500D01*
X139613389Y-56919500D01*
X139573728Y-56925781D01*
X139442302Y-56946597D01*
X139277552Y-57000128D01*
X139123211Y-57078768D01*
X139043256Y-57136859D01*
X138983072Y-57180586D01*
X138983070Y-57180588D01*
X138983069Y-57180588D01*
X138860588Y-57303069D01*
X138860588Y-57303070D01*
X138860586Y-57303072D01*
X138816859Y-57363256D01*
X138758768Y-57443211D01*
X138680128Y-57597552D01*
X138626597Y-57762302D01*
X138599500Y-57933389D01*
X138260500Y-57933389D01*
X138233402Y-57762299D01*
X138179873Y-57597555D01*
X138101232Y-57443212D01*
X137999414Y-57303072D01*
X137876928Y-57180586D01*
X137736788Y-57078768D01*
X137582445Y-57000127D01*
X137417701Y-56946598D01*
X137417699Y-56946597D01*
X137417698Y-56946597D01*
X137286271Y-56925781D01*
X137246611Y-56919500D01*
X137073389Y-56919500D01*
X137033728Y-56925781D01*
X136902302Y-56946597D01*
X136737552Y-57000128D01*
X136583211Y-57078768D01*
X136503256Y-57136859D01*
X136443072Y-57180586D01*
X136443070Y-57180588D01*
X136443069Y-57180588D01*
X136320588Y-57303069D01*
X136320588Y-57303070D01*
X136320586Y-57303072D01*
X136276859Y-57363256D01*
X136218768Y-57443211D01*
X136140128Y-57597552D01*
X136086597Y-57762302D01*
X136059500Y-57933389D01*
X135720500Y-57933389D01*
X135693402Y-57762299D01*
X135639873Y-57597555D01*
X135561232Y-57443212D01*
X135459414Y-57303072D01*
X135336928Y-57180586D01*
X135196788Y-57078768D01*
X135042445Y-57000127D01*
X134877701Y-56946598D01*
X134877699Y-56946597D01*
X134877698Y-56946597D01*
X134746271Y-56925781D01*
X134706611Y-56919500D01*
X134533389Y-56919500D01*
X134493728Y-56925781D01*
X134362302Y-56946597D01*
X134197552Y-57000128D01*
X134043211Y-57078768D01*
X133963256Y-57136859D01*
X133903072Y-57180586D01*
X133903070Y-57180588D01*
X133903069Y-57180588D01*
X133780588Y-57303069D01*
X133780588Y-57303070D01*
X133780586Y-57303072D01*
X133736859Y-57363256D01*
X133678768Y-57443211D01*
X133600128Y-57597552D01*
X133546597Y-57762302D01*
X133519500Y-57933389D01*
X133180500Y-57933389D01*
X133153402Y-57762299D01*
X133099873Y-57597555D01*
X133021232Y-57443212D01*
X132919414Y-57303072D01*
X132796928Y-57180586D01*
X132656788Y-57078768D01*
X132502445Y-57000127D01*
X132337701Y-56946598D01*
X132337699Y-56946597D01*
X132337698Y-56946597D01*
X132206271Y-56925781D01*
X132166611Y-56919500D01*
X131993389Y-56919500D01*
X131953728Y-56925781D01*
X131822302Y-56946597D01*
X131657552Y-57000128D01*
X131503211Y-57078768D01*
X131423256Y-57136859D01*
X131363072Y-57180586D01*
X131363070Y-57180588D01*
X131363069Y-57180588D01*
X131240588Y-57303069D01*
X131240588Y-57303070D01*
X131240586Y-57303072D01*
X131196859Y-57363256D01*
X131138768Y-57443211D01*
X131060128Y-57597552D01*
X131006597Y-57762302D01*
X130979500Y-57933389D01*
X130640500Y-57933389D01*
X130613402Y-57762299D01*
X130559873Y-57597555D01*
X130481232Y-57443212D01*
X130379414Y-57303072D01*
X130256928Y-57180586D01*
X130116788Y-57078768D01*
X129962445Y-57000127D01*
X129797701Y-56946598D01*
X129797699Y-56946597D01*
X129797698Y-56946597D01*
X129666271Y-56925781D01*
X129626611Y-56919500D01*
X129453389Y-56919500D01*
X129413728Y-56925781D01*
X129282302Y-56946597D01*
X129117552Y-57000128D01*
X128963211Y-57078768D01*
X128883256Y-57136859D01*
X128823072Y-57180586D01*
X128823070Y-57180588D01*
X128823069Y-57180588D01*
X128700588Y-57303069D01*
X128700588Y-57303070D01*
X128700586Y-57303072D01*
X128656859Y-57363256D01*
X128598768Y-57443211D01*
X128520128Y-57597552D01*
X128466597Y-57762302D01*
X128439500Y-57933389D01*
X128100500Y-57933389D01*
X128073402Y-57762299D01*
X128019873Y-57597555D01*
X127941232Y-57443212D01*
X127839414Y-57303072D01*
X127716928Y-57180586D01*
X127576788Y-57078768D01*
X127422445Y-57000127D01*
X127257701Y-56946598D01*
X127257699Y-56946597D01*
X127257698Y-56946597D01*
X127126271Y-56925781D01*
X127086611Y-56919500D01*
X126913389Y-56919500D01*
X126873728Y-56925781D01*
X126742302Y-56946597D01*
X126577552Y-57000128D01*
X126423211Y-57078768D01*
X126343256Y-57136859D01*
X126283072Y-57180586D01*
X126283070Y-57180588D01*
X126283069Y-57180588D01*
X126160588Y-57303069D01*
X126160588Y-57303070D01*
X126160586Y-57303072D01*
X126116859Y-57363256D01*
X126058768Y-57443211D01*
X125980128Y-57597552D01*
X125926597Y-57762302D01*
X125899500Y-57933389D01*
X125560500Y-57933389D01*
X125533402Y-57762299D01*
X125479873Y-57597555D01*
X125401232Y-57443212D01*
X125299414Y-57303072D01*
X125176928Y-57180586D01*
X125036788Y-57078768D01*
X124882445Y-57000127D01*
X124717701Y-56946598D01*
X124717699Y-56946597D01*
X124717698Y-56946597D01*
X124586271Y-56925781D01*
X124546611Y-56919500D01*
X124373389Y-56919500D01*
X124333728Y-56925781D01*
X124202302Y-56946597D01*
X124037552Y-57000128D01*
X123883211Y-57078768D01*
X123803256Y-57136859D01*
X123743072Y-57180586D01*
X123743070Y-57180588D01*
X123743069Y-57180588D01*
X123620588Y-57303069D01*
X123620588Y-57303070D01*
X123620586Y-57303072D01*
X123576859Y-57363256D01*
X123518768Y-57443211D01*
X123440128Y-57597552D01*
X123386597Y-57762302D01*
X123359500Y-57933389D01*
X123020500Y-57933389D01*
X122993402Y-57762299D01*
X122939873Y-57597555D01*
X122861232Y-57443212D01*
X122759414Y-57303072D01*
X122636928Y-57180586D01*
X122496788Y-57078768D01*
X122342445Y-57000127D01*
X122177701Y-56946598D01*
X122177699Y-56946597D01*
X122177698Y-56946597D01*
X122046271Y-56925781D01*
X122006611Y-56919500D01*
X121833389Y-56919500D01*
X121793728Y-56925781D01*
X121662302Y-56946597D01*
X121497552Y-57000128D01*
X121343211Y-57078768D01*
X121263256Y-57136859D01*
X121203072Y-57180586D01*
X121203070Y-57180588D01*
X121203069Y-57180588D01*
X121080588Y-57303069D01*
X121080588Y-57303070D01*
X121080586Y-57303072D01*
X121036859Y-57363256D01*
X120978768Y-57443211D01*
X120900128Y-57597552D01*
X120846597Y-57762302D01*
X120819500Y-57933389D01*
X119190960Y-57933389D01*
X119169681Y-57821840D01*
X119076341Y-57534570D01*
X118947733Y-57261264D01*
X118785885Y-57006232D01*
X118593349Y-56773496D01*
X118456399Y-56644891D01*
X118421005Y-56584651D01*
X118423798Y-56514837D01*
X118463892Y-56457616D01*
X118528558Y-56431155D01*
X118541284Y-56430500D01*
X184745500Y-56430500D01*
X184812539Y-56450185D01*
G37*
%TD.AperFunction*%
%TD*%
M02*
